<svg viewBox="0 0 330 200" xmlns="http://www.w3.org/2000/svg"><g><g><g><g><g><line x1="30.70800018310547" y1="177.98999977111816" x2="25.70800018310547" y2="177.98999977111816" style="visibility: inherit;" fill="rgb(0, 0, 0)" stroke="rgb(204, 204, 204)" stroke-width="1px"></line><line x1="30.70800018310547" y1="158.2133331298828" x2="25.70800018310547" y2="158.2133331298828" style="visibility: inherit;" fill="rgb(0, 0, 0)" stroke="rgb(204, 204, 204)" stroke-width="1px"></line><line x1="30.70800018310547" y1="138.43666648864746" x2="25.70800018310547" y2="138.43666648864746" style="visibility: inherit;" fill="rgb(0, 0, 0)" stroke="rgb(204, 204, 204)" stroke-width="1px"></line><line x1="30.70800018310547" y1="118.65999984741211" x2="25.70800018310547" y2="118.65999984741211" style="visibility: inherit;" fill="rgb(0, 0, 0)" stroke="rgb(204, 204, 204)" stroke-width="1px"></line><line x1="30.70800018310547" y1="98.88333320617676" x2="25.70800018310547" y2="98.88333320617676" style="visibility: inherit;" fill="rgb(0, 0, 0)" stroke="rgb(204, 204, 204)" stroke-width="1px"></line><line x1="30.70800018310547" y1="79.1066665649414" x2="25.70800018310547" y2="79.1066665649414" style="visibility: inherit;" fill="rgb(0, 0, 0)" stroke="rgb(204, 204, 204)" stroke-width="1px"></line><line x1="30.70800018310547" y1="59.329999923706055" x2="25.70800018310547" y2="59.329999923706055" style="visibility: inherit;" fill="rgb(0, 0, 0)" stroke="rgb(204, 204, 204)" stroke-width="1px"></line><line x1="30.70800018310547" y1="39.5533332824707" x2="25.70800018310547" y2="39.5533332824707" style="visibility: inherit;" fill="rgb(0, 0, 0)" stroke="rgb(204, 204, 204)" stroke-width="1px"></line><line x1="30.70800018310547" y1="19.77666664123535" x2="25.70800018310547" y2="19.77666664123535" style="visibility: inherit;" fill="rgb(0, 0, 0)" stroke="rgb(204, 204, 204)" stroke-width="1px"></line><line x1="30.70800018310547" y1="0" x2="25.70800018310547" y2="0" style="visibility: inherit;" fill="rgb(0, 0, 0)" stroke="rgb(204, 204, 204)" stroke-width="1px"></line></g><g transform="translate(20.70800018310547, 0)"><text style="text-anchor: end; visibility: hidden; font-family: &quot;Helvetica Neue&quot;, sans-serif; font-size: 12px; font-weight: 200;" x="0" y="177.98999977111816" dx="0em" dy="0.3em" fill="rgb(50, 49, 63)" stroke="none" stroke-width="1px">-5</text><text style="text-anchor: end; visibility: inherit; font-family: &quot;Helvetica Neue&quot;, sans-serif; font-size: 12px; font-weight: 200;" x="0" y="158.2133331298828" dx="0em" dy="0.3em" fill="rgb(50, 49, 63)" stroke="none" stroke-width="1px">0</text><text style="text-anchor: end; visibility: hidden; font-family: &quot;Helvetica Neue&quot;, sans-serif; font-size: 12px; font-weight: 200;" x="0" y="138.43666648864746" dx="0em" dy="0.3em" fill="rgb(50, 49, 63)" stroke="none" stroke-width="1px">5</text><text style="text-anchor: end; visibility: inherit; font-family: &quot;Helvetica Neue&quot;, sans-serif; font-size: 12px; font-weight: 200;" x="0" y="118.65999984741211" dx="0em" dy="0.3em" fill="rgb(50, 49, 63)" stroke="none" stroke-width="1px">10</text><text style="text-anchor: end; visibility: hidden; font-family: &quot;Helvetica Neue&quot;, sans-serif; font-size: 12px; font-weight: 200;" x="0" y="98.88333320617676" dx="0em" dy="0.3em" fill="rgb(50, 49, 63)" stroke="none" stroke-width="1px">15</text><text style="text-anchor: end; visibility: inherit; font-family: &quot;Helvetica Neue&quot;, sans-serif; font-size: 12px; font-weight: 200;" x="0" y="79.1066665649414" dx="0em" dy="0.3em" fill="rgb(50, 49, 63)" stroke="none" stroke-width="1px">20</text><text style="text-anchor: end; visibility: hidden; font-family: &quot;Helvetica Neue&quot;, sans-serif; font-size: 12px; font-weight: 200;" x="0" y="59.329999923706055" dx="0em" dy="0.3em" fill="rgb(50, 49, 63)" stroke="none" stroke-width="1px">25</text><text style="text-anchor: end; visibility: inherit; font-family: &quot;Helvetica Neue&quot;, sans-serif; font-size: 12px; font-weight: 200;" x="0" y="39.5533332824707" dx="0em" dy="0.3em" fill="rgb(50, 49, 63)" stroke="none" stroke-width="1px">30</text><text style="text-anchor: end; visibility: hidden; font-family: &quot;Helvetica Neue&quot;, sans-serif; font-size: 12px; font-weight: 200;" x="0" y="19.77666664123535" dx="0em" dy="0.3em" fill="rgb(50, 49, 63)" stroke="none" stroke-width="1px">35</text><text style="text-anchor: end; visibility: hidden; font-family: &quot;Helvetica Neue&quot;, sans-serif; font-size: 12px; font-weight: 200;" x="0" y="0" dx="0em" dy="0.3em" fill="rgb(50, 49, 63)" stroke="none" stroke-width="1px">40</text></g><line x1="30.70800018310547" y1="0" x2="30.70800018310547" y2="177.98999977111816" fill="rgb(0, 0, 0)" stroke="rgb(204, 204, 204)" stroke-width="1px"></line></g></g><g transform="translate(30, 0)" clip-path="url(#clip_0)"><clipPath id="clip_0"><rect width="299" height="177"></rect></clipPath><g><g><g><line x1="0" y1="0" x2="0" y2="177.98999977111816" fill="rgb(0, 0, 0)" stroke="rgb(60, 60, 60)" stroke-width="1px" opacity="0.25"></line><line x1="21.377999986921036" y1="0" x2="21.377999986921036" y2="177.98999977111816" fill="rgb(0, 0, 0)" stroke="rgb(60, 60, 60)" stroke-width="1px" opacity="0.25"></line><line x1="42.75599997384207" y1="0" x2="42.75599997384207" y2="177.98999977111816" fill="rgb(0, 0, 0)" stroke="rgb(60, 60, 60)" stroke-width="1px" opacity="0.25"></line><line x1="64.1339999607631" y1="0" x2="64.1339999607631" y2="177.98999977111816" fill="rgb(0, 0, 0)" stroke="rgb(60, 60, 60)" stroke-width="1px" opacity="0.25"></line><line x1="85.51199994768415" y1="0" x2="85.51199994768415" y2="177.98999977111816" fill="rgb(0, 0, 0)" stroke="rgb(60, 60, 60)" stroke-width="1px" opacity="0.25"></line><line x1="106.88999993460519" y1="0" x2="106.88999993460519" y2="177.98999977111816" fill="rgb(0, 0, 0)" stroke="rgb(60, 60, 60)" stroke-width="1px" opacity="0.25"></line><line x1="128.2679999215262" y1="0" x2="128.2679999215262" y2="177.98999977111816" fill="rgb(0, 0, 0)" stroke="rgb(60, 60, 60)" stroke-width="1px" opacity="0.25"></line><line x1="149.64599990844727" y1="0" x2="149.64599990844727" y2="177.98999977111816" fill="rgb(0, 0, 0)" stroke="rgb(60, 60, 60)" stroke-width="1px" opacity="0.25"></line><line x1="171.0239998953683" y1="0" x2="171.0239998953683" y2="177.98999977111816" fill="rgb(0, 0, 0)" stroke="rgb(60, 60, 60)" stroke-width="1px" opacity="0.25"></line><line x1="192.40199988228935" y1="0" x2="192.40199988228935" y2="177.98999977111816" fill="rgb(0, 0, 0)" stroke="rgb(60, 60, 60)" stroke-width="1px" opacity="0.25"></line><line x1="213.77999986921037" y1="0" x2="213.77999986921037" y2="177.98999977111816" fill="rgb(0, 0, 0)" stroke="rgb(60, 60, 60)" stroke-width="1px" opacity="0.25"></line><line x1="235.15799985613143" y1="0" x2="235.15799985613143" y2="177.98999977111816" fill="rgb(0, 0, 0)" stroke="rgb(60, 60, 60)" stroke-width="1px" opacity="0.25"></line><line x1="256.5359998430524" y1="0" x2="256.5359998430524" y2="177.98999977111816" fill="rgb(0, 0, 0)" stroke="rgb(60, 60, 60)" stroke-width="1px" opacity="0.25"></line><line x1="277.9139998299735" y1="0" x2="277.9139998299735" y2="177.98999977111816" fill="rgb(0, 0, 0)" stroke="rgb(60, 60, 60)" stroke-width="1px" opacity="0.25"></line><line x1="299.29199981689453" y1="0" x2="299.29199981689453" y2="177.98999977111816" fill="rgb(0, 0, 0)" stroke="rgb(60, 60, 60)" stroke-width="1px" opacity="0.25"></line></g><g><line x1="0" y1="177.98999977111816" x2="299.29199981689453" y2="177.98999977111816" fill="rgb(0, 0, 0)" stroke="rgb(60, 60, 60)" stroke-width="1px" opacity="0.25"></line><line x1="0" y1="158.2133331298828" x2="299.29199981689453" y2="158.2133331298828" fill="rgb(0, 0, 0)" stroke="rgb(60, 60, 60)" stroke-width="1px" opacity="0.25"></line><line x1="0" y1="138.43666648864746" x2="299.29199981689453" y2="138.43666648864746" fill="rgb(0, 0, 0)" stroke="rgb(60, 60, 60)" stroke-width="1px" opacity="0.25"></line><line x1="0" y1="118.65999984741211" x2="299.29199981689453" y2="118.65999984741211" fill="rgb(0, 0, 0)" stroke="rgb(60, 60, 60)" stroke-width="1px" opacity="0.25"></line><line x1="0" y1="98.88333320617676" x2="299.29199981689453" y2="98.88333320617676" fill="rgb(0, 0, 0)" stroke="rgb(60, 60, 60)" stroke-width="1px" opacity="0.25"></line><line x1="0" y1="79.1066665649414" x2="299.29199981689453" y2="79.1066665649414" fill="rgb(0, 0, 0)" stroke="rgb(60, 60, 60)" stroke-width="1px" opacity="0.25"></line><line x1="0" y1="59.329999923706055" x2="299.29199981689453" y2="59.329999923706055" fill="rgb(0, 0, 0)" stroke="rgb(60, 60, 60)" stroke-width="1px" opacity="0.25"></line><line x1="0" y1="39.5533332824707" x2="299.29199981689453" y2="39.5533332824707" fill="rgb(0, 0, 0)" stroke="rgb(60, 60, 60)" stroke-width="1px" opacity="0.25"></line><line x1="0" y1="19.77666664123535" x2="299.29199981689453" y2="19.77666664123535" fill="rgb(0, 0, 0)" stroke="rgb(60, 60, 60)" stroke-width="1px" opacity="0.25"></line><line x1="0" y1="0" x2="299.29199981689453" y2="0" fill="rgb(0, 0, 0)" stroke="rgb(60, 60, 60)" stroke-width="1px" opacity="0.25"></line></g></g></g><g><g><line x1="0" y1="158.2133331298828" x2="299.29199981689453" y2="158.2133331298828" fill="rgb(0, 0, 0)" stroke="rgb(153, 153, 153)" stroke-width="1.5px"></line></g></g><g><g><line x1="21.377999986921036" y1="0" x2="21.377999986921036" y2="177.98999977111816" fill="rgb(0, 0, 0)" stroke="rgb(153, 153, 153)" stroke-width="1.5px"></line></g></g><g><g><g><g><g><path style="fill: none;" stroke="rgb(0, 119, 187)" stroke-width="2px" d="M21.47633878686087,155.11247824698083L21.60995128677913,157.29523993050896L21.676223086738588,157.37336677764586L21.93810358657837,153.72179675695708L22.004375386537824,155.85982104206732L22.057820386505128,154.5546532904466L22.123023286465237,155.6297064508442L22.515309586225236,148.06935611805412L22.856288686016626,153.49802259399866L22.911871485982623,142.1968276007301L22.96638538594927,150.49787735357614L23.288124285752435,150.33847501686577L23.437770285660882,150.43852053402279L23.897397285379682,143.12847401365306L23.98504708532606,145.23893745151636L24.088730385262625,148.96771657924654L24.30144148513249,136.92239851383383L24.901094384765624,150.18908666212064L24.96415948472704,149.10256348923195L26.045886284065247,146.74692582317465L26.13460498401097,143.08950822263668L26.23294378395081,151.01253605020156L26.251115083939688,134.67372533900635L26.744946883637564,140.62830740042827L26.91917758353097,125.55631491664354L27.144715483392986,145.95371264412952L27.548759683145796,131.99462917139027L27.745437283025467,140.80415703532634L27.83415598297119,138.2867519259791L28.058624982833862,132.9664220425695L28.59200608250754,144.59617918843705L28.604832882499693,132.04519794141598L28.757685582406182,139.813154745875L28.87740238233294,117.80236769087132L29.07942448220934,139.16275043648494L29.408645682007926,140.66756930127957L29.766727181788852,139.9460722268086L29.804138681765963,138.13066620802493L30.053192381613595,141.78048962862448L30.175046981539047,130.9851322765804L30.218871881512232,118.94523471859175L30.51495718133109,137.6120534077758L30.92113918108259,132.9114172831696L30.982066481045315,145.63592455160705L31.32945898083278,139.25384664684753L31.55179018069676,142.3191813161515L31.643715580640517,129.94009842947963L31.79763718054635,134.4365432472805L32.54693608008794,138.22096084717833L32.632448080035616,126.45134744278039L33.08779947975704,141.21775646297138L33.153002379717144,134.12023004578296L33.21072297968183,118.00637416478602L33.75799977934701,137.3686926165645L33.794342379324775,137.0167368439814L34.225109079061234,127.90158402335365L34.43354457893371,137.02812669935156L34.56822597885132,128.36513736875568L35.19567027846745,121.71344297207142L35.36348757836478,131.43260138840122L35.392347878347124,118.75940976575149L36.710301577540804,111.04317222175959L37.11007017729623,134.50102352139803L37.22871807722364,119.22823273458525L37.32919467716217,117.2617277137935L37.9705346767698,127.9457006166578L38.281584576579505,123.71810655452063L38.65783737634931,117.78141744853784L39.449892275864734,117.12211475570075L39.67329237572806,129.45616254276518L39.70642827570779,118.16574915377278L39.94158627556392,118.40207497884221L40.18315767541613,129.41815675114995L42.30813087411608,118.28050020203118L42.4246409740448,113.47862469067877L42.52191087398529,110.40161348641922L42.804100473812646,124.78587484716408L42.86609667377471,114.99954287745385L42.875716773768836,121.84011008362322L43.070256573649814,131.30786747800101L43.15469967359815,101.91326106063316L43.385582073456895,123.33658883574245L43.4272691734314,111.33034218014073L43.642118073299955,116.1859399369583L43.645324773297986,111.52304367093093L43.723354473250254,111.69281079488864L43.96385697310311,105.93739748937769L44.032266573061264,113.95551995310161L44.219324072946826,114.67747345164935L44.78477217260088,95.18958368331333L45.20912547234126,103.74940231206128L45.29998197228568,100.25382382470961L45.329911172267366,106.81667772671645L46.16365317175729,86.7104804462564L46.3218503716605,105.35039463356007L46.402017871611456,115.22971640773648L46.4725652715683,96.70602061551654L46.73230797140939,85.35652294118191L46.76544387138912,121.59081955151377L47.24217327109746,111.76606497315952L47.386474771009176,108.48963416835177L47.38861257100786,97.38405932809982L47.42923077098301,70.75056018632313L47.748831870787484,111.94856670606896L47.86213527071816,97.05984734960438L48.0833975705828,108.103589929804L48.42437667037419,100.40424007665243L48.571884870283945,113.27815267428414L49.02189177000864,114.58791248590859L49.05930326998575,100.05996052717855L50.074758269364494,92.50321867936728L50.07582716936384,103.69557444780149L50.8315394689015,85.77593517463102L50.93629166883741,66.21817857365167L51.9410576682227,100.87223318352844L52.397477967943466,64.73294445106002L52.42526936792646,84.75485793341069L52.4958167678833,76.37388587285822L52.6443938677924,75.92557181068041L52.710665667751854,43.4312932994566L53.31566306738173,23.380787300561508L53.50378946726663,37.55845075482358L53.53158086724962,63.526792904861225L53.68443356715611,86.94391307077314L54.00082796696255,46.537255369742354L54.15261176686968,72.40464104051935L54.253088366808214,73.93489140221936L54.268052966799054,58.02732788762077L55.00131836635044,78.21358421440529L55.04086766632625,77.7877141460849L55.507976966040474,62.54163359801241L55.567835366003855,51.89316935669048L56.10121646567753,80.01343409358087L56.33851226553236,68.98542871378012L56.45074676546369,43.656555555789225L56.591841565377365,34.85313094934244L56.600392765372135,49.1837530508179L56.741487565285816,27.487472361503762L56.89861586518969,44.292026122039545L57.10598246506282,54.985008685295185L57.13591166504451,67.01770530475041L57.492924264826094,64.17311957435886L57.50575106481824,46.40114292027138L57.5442314647947,31.363893361767992L57.601952064759395,54.30775079737214L57.6415013647352,44.82482013151676L57.681050664711,78.07054618968687L57.81252536463056,57.56424982679455L58.16098676441738,73.9634763745642L58.33521746431079,52.628947601034454L58.41431606426239,33.370031835242116L59.221335563768655,60.27286644750784L59.3592236636843,37.2467093382933L59.861606663376946,45.18602886492883L59.951394263322015,54.892124499623606L60.584183062934876,48.2525196828239L60.616250062915256,36.525830888190825L60.82040996279035,90.25568845078159L61.196662762560166,74.14207021207257L61.503437062372484,68.63990437136962L61.79738456219265,50.06225246349641L61.9171013621194,37.87963750927301L62.53599446174076,62.2942517484058L62.819252961567464,41.45643307759019L62.947520961489,72.79546075742401L63.098235861396795,65.3725643270991L63.43493936119079,49.85062257586978L63.8689127609253,71.83227770405647L64.09017506078993,49.49115655256901L64.20882296071733,76.03481936531898L64.50383936053684,81.22627734483903L64.72189496040345,63.411940009907994L64.95705296025957,69.05341704071907L65.03508266021184,43.667026904856186L65.29910096005031,77.32354972051398L65.54601685989925,41.001148174967255L65.83248205972399,51.79166969505749L66.46847755933489,68.17057971326139L66.80624995912825,81.5397614714806L66.82549015911647,48.24649941153038L67.94783515842983,72.062119289556L68.0771720583507,86.94779833357535L68.15413285830361,31.730360402312357L68.25460945824214,44.01689670624546L68.4555626581192,69.93050568806939L68.54107465806689,41.20884753459396L68.67682495798383,82.52767441118922L68.68430725797926,67.64960746458237L68.73133885795049,70.99721024856699L68.78799055791582,70.94743361950096L69.335267357581,32.004410997561365L69.49346455748422,72.33024014390686L69.9295757572174,56.01651201038476L70.07387725712913,61.318484970078856L70.23528115703037,50.60981801582166L70.94075515659877,65.8633446889151L70.95785755658831,73.00360522482805L71.04230065653664,49.46819955313768L71.99148385595593,67.12705093398398L72.35170315573556,78.00714473611443L72.42331945569175,64.46438603313145L72.46500655566624,75.8611368017606L72.70657795551845,71.12451107288652L72.81988135544913,56.87713921417307L72.93211585538046,60.92675994922028L73.29661075515747,37.64938099279462L74.098285754667,63.477876314551395L74.18272885461535,77.41865944507225L74.31741025453294,66.35792732733752L74.88285835418701,59.47124242891586L74.93630335415432,71.045651554301L75.05281345408304,77.70026178413681L75.08488045406342,69.58931171623844L75.75187405365536,70.7877229136313L75.92289805355071,27.433425715455087L76.08857755344935,55.98890778399L76.18798525338855,71.18919504039367L76.79832715301514,43.785599090220074L77.32636375269209,33.291790941025084L77.74323475243705,53.51269777664565L77.98266835229057,80.80992051223438L78.01794205226898,63.34443451174447L78.18148375216892,54.05225893317838L78.19751725215912,80.75514962302259L78.58339015192304,60.236495861159355L78.8377883517674,30.55729771562909L78.84954625176022,52.16954356542119L79.00453675166538,42.80501911253813L79.05156835163662,92.76516083423266L79.2835196514947,38.353888529730455L80.01464725104742,72.60940570649545L80.15360425096239,75.04102194990992L80.54054605072567,64.78459204163082L80.8013576505661,40.11324868956726L81.03972235042026,93.27668020079291L81.65006425004687,66.3740945471145L81.84674184992654,50.742739268855075L81.93973614986965,82.01911991507805L82.1310692497526,55.3195184962664L82.166342949731,22.110570411224018L82.68475944941383,54.1655426346115L82.87609254929679,59.994236523091956L83.89796094867161,58.6979996892791L84.19618404848916,81.54400885586438L84.22504434847151,89.16617777484498L84.24321564846038,54.901720721535085L84.77873454813275,44.53125269186128L84.82897284810203,26.614050195166783L84.9583097480229,59.01681002084952L85.18064094788687,68.16469523756095L85.7567780475344,30.668831162751303L85.76319144753047,60.265420322486904L85.78670724751608,77.78717096371255L85.88290824745722,43.66881488016517L86.07317244734082,53.92465634087421L86.85346944686344,74.5242593646166L86.92936134681702,79.40995847790182L87.36119694655281,72.30075741180772L87.85182204625266,53.50679821254599L88.28793324598585,57.811254466420365L89.32049064535414,38.862895677818585L89.4893768452508,79.8513997742295L89.69674344512394,42.02879641405306L90.39794184469496,47.553013950233435L90.79129704445431,71.22934527074976L91.22206374419076,62.14735863768365L91.55235384398868,50.83776600721758L91.59724764396123,77.71421100922672L92.03122104369572,57.555143977858094L92.82006924321311,32.46838681814188L93.0220913430895,34.365006145791256L93.07019184306009,55.3315816714523L93.51806094278608,62.81110486409452L94.41700584223611,58.099201477361945L94.52068914217267,62.85973477481893L94.74729594203404,59.519502673859094L95.3683268416541,27.15353590970335L95.38329144164493,53.57309663877095L95.67189444146838,32.24342632979386L95.95408404129573,26.94673430983093L96.03852714124407,41.786589885382995L96.16358844116755,42.147625102203904L96.74827674080984,37.87633314984123L96.87440694073268,39.38322666953027L96.95564334068298,79.57264159842016L97.31906934046064,46.27845160191717L97.78083414017814,72.8655614602554L97.91551554009574,49.94939878144143L98.29176833986554,81.5715451844626L98.34628223983219,31.040895999410708L98.36979803981781,44.55008301410271L98.40507173979624,42.67186398931662L98.43179423977988,40.17914727321258L98.70970823960985,62.21574680720224L98.71184603960856,69.50172355869726L98.82087383954185,75.15969220986881L98.82408053953988,63.13377782586831L99.16505963933128,37.26098296396668L99.47076503914424,39.35700303166524L99.65247803903307,42.95479410751358L100.3098515386309,34.760518354857055L100.44880853854588,63.661517221602836L100.72992923837388,61.04235217573587L102.11949923752377,30.3988393468957L102.90086513704573,51.672403443328946L103.18305473687309,6.884293387143401L103.33697633677892,53.073489563404294L103.38721463674818,51.83304208575136L103.51227593667167,64.8482499979902L103.6362683365958,28.366703561544995L103.64375063659122,39.22350087526138L103.94838713640486,55.88560505864881L104.69982383594512,26.653310209968197L104.9499464357921,53.82474096116057L105.02797613574437,24.33120556817886L105.63404243537357,52.18657082395438L105.7067276353291,14.430967500567192L105.78903293527875,22.70165845113371L105.8039975352696,42.11103573406652L105.84568463524411,32.78390787867974L105.87988943522316,53.496432482273676L106.51267823483603,9.23203321922773L106.91672243458883,27.484997864029708L106.97658083455222,12.198487950215338L107.05033493450709,21.01106367079629L107.11981343446459,-0.10071506487292936L107.36031593431746,45.284616465510055L107.377418334307,38.64891954411141L107.53133993421281,44.20135238685543L107.55913133419583,-1.7489868853648716L107.59868063417163,48.86000881269865L108.00806933392116,0.9553823509646406L108.02837843390873,48.39263810229096L108.13740623384203,-2.0285598347327323L108.41959583366939,39.62178934978584L108.5403815335955,28.715607705383434L109.8679553327833,17.693743304070097L109.90429793276105,36.908985698285676L109.98874103270938,52.81139652454658L110.43554123243605,41.77260293929504L110.96464673211233,62.72769619314059L111.65622503168923,34.74283475095726L111.86145383156367,53.6515864915753L112.38307703124455,16.620218787119683L112.46858903119222,58.12037050148429L112.83094613097055,17.09219900349271L112.86408203095027,51.71964522132403L113.02121033085415,-57.51619327524094L113.37180953063965,42.4974571825951L114.19058693013874,38.83580445699772L114.28144343008314,27.58058287316379L114.43429612998963,45.57011915577604L114.84582262973785,10.722480383754004L114.90674992970058,38.101361535985774L115.13763232955932,56.1268836507661L115.31186302945274,60.862060893313895L115.6410842292513,42.87193616313161L116.21508352890014,25.666619430597336L116.36579842880793,60.766943624556006L116.93445322846004,56.75575304235244L116.95155562844958,25.074429937543755L117.35987542819977,21.39572732081433L117.60358462805067,54.66457635080732L117.66985642801014,4.365888671347051L117.88577422787802,51.255993801326994L118.8018215273176,51.556102062049476L119.02201492718288,38.7841417780277L119.368338526971,-9.34143920205824L119.39292322695596,51.20859359513999L119.48377972690037,-56.41430256773455L119.48698642689841,41.00790023362353L119.89851292664665,36.67635275892826L120.54947302624839,21.41749988090595L120.61253812620981,61.513925005329654L120.97382632598877,26.9113821904306L121.07750962592534,0.6566169577738208L121.34259682576315,-8.577392841753323L121.80222382548196,48.45719381840462L122.4809753250667,12.48889437023172L122.74606252490453,25.13235430219501L123.037872224726,47.59914673088497L123.32006182455335,43.9266605346391L123.37992022451672,29.736579327809153L123.4141250244958,57.219706230334126L123.49001692444936,17.708077283340373L123.99133102414268,40.32644022651439L124.01591572412764,28.395959967655642L124.36758382391248,38.94836391526769L124.61770642375946,21.137745870747295L124.68718492371696,34.54664029574488L125.35631632330758,46.050156577338925L125.55940732318332,5.999871777766373L125.75180932306561,58.52824765372061L125.96558932293483,49.635892022201006L126.05110132288252,-20.188338525878493L126.16868032281059,7.529533691896376L126.41025172266278,71.33700099926936L126.69030352249146,67.15288981766862L127.31133442211151,37.2856374083116L127.79340832181659,37.34950660226022L127.90884952174595,70.50352536989885L128.19745252156937,77.72823567631276L128.9264423211234,28.620279199036304L128.95102702110836,29.66204263560357L129.23856112093245,51.06624209258662L129.30162622089387,50.31931352121029L129.38713822084154,38.96427463225774L129.4673057207925,51.82069977517966L129.64046752068657,28.11137766974278L129.7484264206205,44.531660078640556L129.92372602051327,32.43581850839982L130.376939620236,65.34016198974861L130.3983176202229,0.6678427268023484L131.00331501985278,49.28206906021296L131.03751981983186,53.13897321607074L131.19144141973769,43.46477445735218L131.39987691961016,58.41600505183452L131.4330128195899,18.46578651596792L131.49180231955393,69.96822668614914L131.52921381953104,18.39806978021514L131.53990281952449,73.12226039638772L131.74833831939696,45.637262532357994L132.0807662191936,26.002215606313257L132.5403932189124,25.539243164281658L132.89206131869724,21.606829114467843L132.9540575186593,56.356016081501735L133.5547793182918,-12.23898521375375L133.57081281828198,68.91469429818099L133.5847085182735,60.71133532918684L133.76535261816298,17.99922303491914L134.12984751793996,59.1604968467349L134.31797391782487,58.29372866445921L134.49327351771763,62.09749902242183L134.5082381177085,58.268561214540384L134.9593139174325,29.589316551305814L135.02024121739524,40.17758562389207L135.1517159173148,60.91992490436823L135.3398423171997,30.33534736292785L135.44673231713432,30.13892658172699L135.91384161684854,4.807692089256307L136.69841421636855,55.452326586305574L137.49902031587874,80.84332622813382L138.20021871544975,62.8044282474344L138.2012876154491,-6.013406071877398L138.26328381541117,39.59253294367517L138.4770638152804,37.69510638666688L138.82018071507045,64.52208407179424L139.21460481482916,33.12986978466796L139.24987851480756,66.21640568674194L139.4572451146807,42.52404294204169L139.63682031457083,56.01974847202L139.69560981453486,49.62159576392878L139.7982242144721,46.83538705016545L140.28671151417325,31.899554167099268L140.42459961408886,76.6347341187793L140.82543711384363,50.741592550513445L141.05738841370174,60.081507824249286L141.85799451321193,71.90883624175913L141.89968161318643,53.95266795404822L142.1123927130563,41.44621823131021L142.56133071278163,55.97595439324941L142.84672701260703,21.77990814205694L143.00919981250763,36.596255991605716L143.26466691235134,36.37859828848596L143.5981637121473,25.33465955909631L143.7766700120381,56.19377052456112L144.45755931162154,84.89938970965304L144.8958083113534,61.85075842978259L144.90863511134557,75.6582732740877L145.17265341118403,56.958375155637626L145.29343911111013,22.072079904783465L145.46553201100485,71.44740281644917L146.14321461059026,57.341499788934016L146.1838328105654,50.13904487138717L146.2607936105183,61.81525542638991L146.30248071049283,20.078102681090257L146.50984731036596,65.04017443621997L146.54298321034568,13.098209196413535L146.65842441027505,53.76501353280109L147.17149640996115,37.24640757030866L147.37458740983692,62.7571789252397L147.49857980976105,11.114401553802594L147.76473590959822,54.17261909385124L148.25749880929675,57.176462878135496L148.53220610912868,17.220752164948493L148.62840710906983,80.39299786465854L148.95335270887102,34.82654518989585L149.13292790876116,12.92513016882441L149.6769980084283,33.88844660025134L150.97357370763507,37.90057266320727L150.97464260763442,42.64435783751688L151.1232197075435,91.96828966139874L151.15528670752389,7.356922404683445L151.19911160749706,60.626093417726224L151.66087640721457,49.53472430535112L152.0563694069726,11.193102644196188L152.50210070669993,71.30564730566547L152.5149275066921,51.56987777054819L152.62716200662342,67.84056624526129L152.97883010640825,52.60579445241311L153.55710500605448,70.5145172687393L153.58275860603877,15.691060074020072L153.6180323060172,22.40787222968939L154.18561820566995,56.964131379944604L154.78740890530176,86.29787308086088L154.84940510526386,16.303633994435955L155.0899076051167,76.29352505854914L155.35392590495516,49.6948801189981L156.84717920404162,47.39044399270932L157.11226640387943,85.0862067247428L157.16891810384476,73.14380663049087L157.2854282037735,66.49054681238631L157.62426950356618,84.00302563228396L157.7610887034825,72.14320434702823L157.86263420342036,88.41755175855505L158.02083140332357,73.39069056292283L158.05503620330265,36.5807300287961L158.12023910326278,39.3672555989433L158.37036170310975,57.43515348296641L158.5755905029842,29.37011228726479L158.68675610291618,69.21195085144863L159.16134770262582,83.70115957305097L159.47560430243357,57.56598499270622L159.6594551023211,77.83313777197255L159.75351830226353,76.85039260900085L159.77489630225045,79.16640908170011L159.85613270220077,63.225598279394035L159.90209540217265,87.94013971845852L160.30827740192413,56.237534426533244L160.46433680182867,76.09268337637332L161.13988160141537,49.90706827739632L161.37824630126954,62.4311337062376L161.99393270089286,82.36872566948077L162.18419690077647,77.68303083221399L162.24191750074115,75.37860979432443L162.39370130064827,87.07952005886983L163.24882130012512,72.40842068452693L163.50535729996818,74.0135698600141L163.81533829977852,67.74191074688352L163.9350550997053,82.59586643151778L164.51439889935085,76.63880798657192L164.67152719925474,54.62296254572574L165.06595129901342,71.5653337448457L165.07984699900493,20.22231760094874L165.17070349894934,55.283087556320964L165.6014701986858,63.47950586166844L165.71477359861646,69.71130142402835L166.3903183982032,99.36044347828864L166.6650256980351,82.03728634775325L167.02524499781472,83.62441997455754L167.1845110977173,70.4811794506364L167.5212145975113,105.33997232179063L167.526559097508,60.73337193626503L167.5425925974982,82.8346403493626L167.8953295972824,79.6639943115697L167.92953439726148,81.36744440805268L168.47467339692795,93.95539411924183L168.49498249691555,95.02273616460698L168.60507919684818,84.92905350254296L168.90330229666574,82.38442514888156L169.94334199602946,72.05376031638153L170.28432109582081,57.308493915614235L170.439311595726,71.52608881844353L170.4884809956959,86.25831884227446L171.05072239535198,81.28399801610067L171.0934783953258,100.19291195701044L171.12554539530618,78.82691255478277L171.13623439529962,90.52200624142424L171.21747079524994,96.75399795297416L171.25381339522772,91.70190397295956L171.37994359515054,91.79196662797476L171.87911989484513,91.31960920162092L172.13458699468885,82.38182994421369L172.3836406945365,81.55984413085825L173.05811659412385,87.87998227072093L173.0965969941003,107.22664462224638L173.42474929389954,96.43835618524244L173.4258181938989,80.47501840288314L173.74541929370335,94.6835150009756L174.0179887935366,86.61657024943706L174.1687036934444,101.31942315996348L174.48296029325215,105.03035836955205L174.6497086931501,79.79026158054185L174.89448679300034,91.05476252990339L175.1307136928558,77.61375999134034L175.26539509277345,97.39630356407652L175.59461629257203,45.70162964348128L175.65768139253345,85.15191670339773L175.7848804924556,101.73341111388872L175.91742409237455,91.70860322221851L177.1819327916009,95.59782672923102L177.2674447915486,87.03926420971911L177.82434169120788,93.32992716168228L178.23479929095677,85.39210138657073L179.08457479043687,95.47484873129143L179.83066698998041,103.74850832440679L179.93648808991568,79.80086118100225L180.08185848982674,107.2755084031589L180.21226428974697,101.90502656675235L180.27426048970904,94.39829144609539L180.3480145896639,94.80723233047756L180.35229018966132,79.87733673250914L180.46024908959524,-2.751641191123042L180.552174489539,97.58429747430637L181.16999868916102,85.314758252108L181.42760358900344,93.95353070193669L181.6445902888707,80.49348660354299L181.6991041888373,66.36559977834696L181.7728582887922,88.69102899463323L182.36075328843253,70.50019837786822L182.57667108830046,60.46716730861664L182.68890558823176,94.28288028037059L182.8802386881147,80.63911983292928L182.89520328810553,85.7637739248501L182.93368368808203,82.90394891123432L182.9775085880552,85.92687952054693L183.07798518799373,96.97993541517243L183.13036128796168,84.07391093187543L183.32276328784397,94.97546043771364L183.41575758778708,107.9955569913036L183.4349977877753,77.99966843429502L183.57929928768704,74.33528470843667L184.46327958714622,103.63744638976058L184.7230222869873,93.92228262712743L185.5674532864707,63.86007301129503L185.63906958642687,93.88332438031067L185.70427248638697,91.00587611639203L186.59894178583963,115.66540147975721L186.7517944857461,99.12271065999084L187.3129669854028,98.577985498821L187.7351824851445,86.6910918532434L187.88055288505555,103.96042111951901L187.89658638504574,47.8487616635779L188.51013498467037,70.78963914033376L188.59885368461607,107.05129479057287L188.87676768444604,76.15195060855622L189.0627562843323,97.66162174827004L189.14078598428455,104.93123890289789L189.29684538418906,89.52229417351627L189.31715448417663,91.19565045773125L189.38770188413346,106.96647912639055L189.55979478402818,107.28929542795704L189.65706468396868,109.2272381090028L189.7083718839373,96.17668562156322L189.9146695838111,94.47159088956396L190.11348498368946,102.21553827874523L190.23961518361227,85.70492162364607L190.36146978353773,100.72043634305591L191.36944248292104,91.29200497522616L191.53939758281706,109.35978969625504L191.82265608264376,90.88509348054068L191.94451068256924,79.60140008735615L192.21921798240115,109.95397463010704L192.67136268212454,76.06356276585575L192.72480768209184,88.23294519395277L192.90865848197936,86.43563016584812L192.94820778195518,91.40869865488567L193.21222608179366,96.43090251602189L193.6942999814987,81.57870462989813L193.7242291814804,61.70102115580522L193.91342448136467,92.0161877847604L194.53979988098146,111.13689758568835L194.5643845809664,90.03913974500537L194.74502868085588,106.42336842393853L194.74609758085523,112.34677219439764L194.813438280814,104.26240034174624L195.2164135805675,96.2002763337623L195.29230548052107,112.5974470871366L195.4366069804328,101.21633167221152L195.7989640802111,101.56024910010383L195.97853928010122,114.54315274958716L196.68401327966964,3.051538214256283L197.39590067923407,110.08839340676423L197.60647397910526,114.98228552083238L197.6492299790791,90.22041931757704L198.29484557868412,100.70555540931346L198.4380781785965,101.53466671920614L198.65506487846372,53.3164278794371L198.8656381783349,100.65326656177531L199.1873770781381,113.86175309607498L199.21196177812303,105.7285250067107L199.41719057799747,105.45369358680146L199.79878787776403,102.893233730246L199.8810931777137,96.66398810735627L200.09701097758156,92.90155996328903L200.18786747752597,119.06018946023978L200.36102927742004,77.76328602772847L200.62611647725785,106.56058232655342L201.04619417700087,106.45191944738508L201.19904687690735,115.69223996989095L201.4224469767707,102.91496856933954L201.59347097666605,94.17918525664936L201.7762528765542,113.27990670069484L201.94407017645156,84.32414448893687L202.42079957615988,76.60080030890676L202.66771547600885,103.63262187410619L203.0086945758002,108.95863442587651L203.10489557574135,86.31582827594686L203.34539807559423,89.7887402155524L203.67355037539346,105.71530002478394L204.43995167492457,79.88803440756456L204.87606287465775,104.0376548630873L204.91774997463227,107.97069885356905L204.92843897462572,118.30272541409977L205.5291607742582,102.15157855440121L205.7269072741372,119.58543927010105L206.32121567377365,74.90014156628168L206.4505525736945,79.38633758890427L206.53713347364155,89.70567857778079L206.66647037356242,110.67786698795608L206.94545327339173,117.25317259142903L207.14747537326812,123.49162968204982L207.86256947283064,121.44288534124462L208.11162317267826,104.66550201562568L208.60652387237548,106.10209113909367L208.67065787233625,110.79913999678247L208.78075457226888,54.983243342585055L208.8929890722002,107.80344017598362L209.07790877208708,89.67694272144362L209.64442577174052,107.15866383950706L209.8603435716084,76.10774159880674L209.8763770715986,68.34893213638206L210.18101357141222,71.17662640383351L210.71760137108393,99.86887726720597L211.35894137069158,92.09955873471627L211.4572801706314,93.26657097330754L211.59196157054902,97.66397931065003L211.90087367036003,110.475576819454L212.4021877700533,117.56997993800141L212.4086011700494,107.89909685501406L212.44494377002718,124.701172345976L212.97404926970344,120.11142841152468L213.30647716950008,111.22879348121023L213.49139686938693,114.09786391145535L213.7971022691999,79.39167133803276L214.1701483689717,112.73783332569L214.20221536895207,113.08292010452278L214.47906046878268,67.29801758568065L214.95472096849167,123.35464587752321L214.95899656848908,118.23106683404767L215.0177860684531,118.58437679046182L215.1877411683491,97.03888956307128L215.3309737682615,100.20607281324047L215.39724556822094,112.55446023772492L215.58216526810781,82.86227475255582L216.0642391678129,110.43913456320915L216.50783266754152,123.43252842225847L216.86377636732374,112.7153591550341L216.92149696728842,90.94325171538003L216.98028646725248,57.018389263582506L216.9856309672492,115.37990633369081L217.27957846706937,48.345177542507L217.3298167670386,100.65894734408612L217.33195456703731,110.6277848188056L217.559630266898,109.85526632233196L217.67934706682476,110.14824908651717L218.02460176661353,107.9745539395728L218.26831096646447,95.33776308007L218.90537536607468,110.15927870635569L219.23994106587,113.31821237424484L219.83531836550574,64.08171405181201L220.25218936525073,104.34121459513408L220.49482966510226,115.2610361524421L220.5087253650938,114.39126537871925L220.73319436495643,112.11275866651049L220.82084416490284,49.259745773549355L220.98224806480405,117.64097462848731L221.01217726478578,97.20921118570077L221.2355773646491,100.11241911920807L221.3520874645778,119.72724004608244L221.4119458645412,105.49082236521136L221.4653908645085,109.84513069014793L221.9570848642077,62.515711728132004L222.0361834641593,62.04499893729444L222.32371756398337,113.29159266589996L222.37288696395328,69.76928614227654L222.45946786390033,103.62613386243648L222.7865512637002,106.40423633371246L223.70046076314108,113.1136702621574L223.72290766312733,116.95350566638407L223.73038996312278,108.53372247090738L223.75497466310773,105.79252999625241L223.79773066308158,108.99119519141895L224.2274284628187,53.92744769473211L224.450828562682,117.1691981055039L224.88373306241718,45.269143312097725L224.99489866234916,104.80181061428667L226.8900583611897,115.65772902874778L228.0850885604586,38.939031740342756L228.27000826034546,112.15770323572251L228.51157966019767,101.06250544204231L229.29615225971764,78.78226598145557L229.4618317596163,123.23369726928031L229.82098215939658,123.06411497821318L230.16837465918405,34.50544896584179L230.18440815917424,99.22079279919781L230.2945048591069,119.3363826081797L230.41529055903297,118.91673650454248L230.52859395896365,110.49255881278951L231.46601925839016,107.70842475392055L231.71186625823975,100.27974192249022L231.76531125820705,98.81534487923781L232.0100893580573,124.65748388600005L232.14156405797686,114.5970409674439L232.9827883574622,122.56007568557216L233.28849375727518,121.65675962825699L233.51189385713852,114.11126995417288L233.98327875685013,114.6583413614233L233.98755435684748,104.12319477043275L234.4193899565833,110.14488437348845L234.44931915656497,91.8768388736542L234.85015665631977,105.40310972837652L234.85336335631777,109.61504769026068L235.2627520560673,109.51436280218623L235.4369827559607,89.91201243727701L235.49577225592478,87.2448210166549L236.18200605550493,104.36899233812001L236.70897375518254,113.13079559528559L237.11943135493144,86.87655091240231L237.2637328548431,107.42515137464106L237.71587755456653,117.55881075047L237.84307665448873,99.71617512277953L238.11137055432457,106.90328513830754L238.38500895415714,121.78820976236528L238.6650607539858,123.56927458449718L239.6260018533979,104.32058498128427L240.2919265529905,114.53557082897314L240.46188165288652,108.12085860272491L240.86913255263735,119.2205037020787L241.01770965254647,111.71221447630087L241.16414895245688,108.22733743610442L241.7424238521031,103.5870737689249L242.19991305182322,113.43155265717505L242.74718985148837,119.84760775095492L243.34470495112282,115.85745794148025L243.56062275099072,106.68619325015898L243.63972135094232,90.55076473036024L244.12072635064806,115.0088335592809L244.21478955059052,114.73587687297623L244.228685250582,91.53603720020328L244.562182050378,113.64177177947349L244.76099745025633,117.5321797258257L244.7973400502341,68.41953830058775L245.27193164994378,115.27549838310588L245.3392723499026,109.81540654366108L245.87586014957427,112.35618735551834L245.8876180495671,114.08377511867256L246.10460474943434,103.41650695980789L246.22859714935848,108.8025373916229L246.52788914917537,112.10767387596934L246.88703954895564,116.17237546604883L246.95865584891183,100.16674112854271L247.2269497487477,117.94512658020395L247.5497575485502,96.2979925792879L247.71329924845014,108.10766379759662L248.63255324788773,76.86869483726913L249.21296594753267,120.34490252913929L249.2952712474823,120.25904576540998L250.0338811470304,100.65502058818602L250.26690134688786,117.7488189619973L250.30431284686497,116.66750883104324L250.82807384654453,121.26041755723345L250.894345646504,110.31416112447114L250.95313514646801,98.93851902636743L251.5976818460737,104.83529177218225L252.2636065456663,120.04085996831708L252.3384295456205,114.99954664955366L252.36942764560155,55.371301882430274L253.37846924498422,121.11818676187394L253.865887644686,108.59446836621501L253.97705324461802,102.70350088200466L254.13204374452317,121.39856694060072L254.30948114441463,117.92031370766708L254.6868028441838,109.75177121990055L254.71138754416873,103.06884006470645L254.87172254407065,102.16057878454303L255.8112856434958,110.32150917489707L256.06995944333755,-42.20537595026397L256.18112504326956,116.23804017950607L256.3649758431571,122.06381823483498L256.44086774311063,96.25823841941164L256.75619324291773,95.38492941606891L256.8727033428465,90.6723017861732L257.36012174254824,30.688144313768134L257.4841141424724,100.35411641440405L257.9469478421893,122.42386516150619L258.01428854214805,120.76823397428888L258.42260834189824,100.08648593302823L258.6716620417459,86.87645283780729L258.77427644168307,114.87025415653552L259.6454299411501,117.63586720534732L259.78545584106445,101.53337666107181L260.37014414070677,103.28249556992996L260.54437484060014,119.81582781007273L260.79770414044515,102.38765919298312L260.9334544403621,99.93935518001817L261.4903513400214,92.08253902038268L261.6763399399076,107.41252615658377L261.7682653398514,100.15560211780975L261.79819453983305,111.06158761302213L262.15200043961664,113.16710582803717L263.2668631389345,112.17087163615214L263.37161533887047,100.158367066969L263.3844421388626,98.77796337014078L263.48919433879854,102.57822944738182L263.638840338707,79.85189014720454L263.8248289385932,93.37065075120917L264.51106273817334,92.96659850817814L264.60619483811513,105.55876165485279L264.9225892379216,115.20793253134543L265.10323333781105,114.90665869178228L265.10537113780975,88.87897009546579L265.32342673767636,108.47646576792212L265.7638135374069,105.71653727352096L265.76702023740495,99.30979926626678L265.86856573734286,101.0694989150863L266.15503093716757,115.74344245268439L266.2084759371349,80.80022621572789L266.5195258369446,109.16153190244768L266.68413643684386,76.80634957164293L266.8220245367595,82.22601204534584L266.83912693674904,106.97575849191817L267.0443557366235,112.04156405473478L267.21110413652144,105.27466595781516L267.5381875363214,98.17426142847326L267.67500673623766,113.08467035883368L267.8823733361108,82.24298649448173L268.3719295358113,117.40556542367122L269.01326953541894,94.52833835907514L269.48037883513314,104.15653258853563L269.6022334350586,99.3575314172369L269.6214736350468,104.36214974906834L269.88121633488794,112.8564055110539L270.3697036345891,114.73112025511837L270.9875278342111,108.65240404716569L270.98966563420976,65.47384520694322L271.00356133420127,49.61303309736468L271.16068963410515,108.04406619483416L271.3498849339894,90.40538045956127L271.4867041339057,98.17713576852692L271.5454936338697,105.46956658279342L271.7186554337638,84.586622281975L271.78599613372256,75.92199586006245L272.043601033565,101.56656359518237L272.2370719334466,64.37424793612009L272.5342261332648,54.887741319646736L272.686009933172,95.79993583694231L272.8527583330699,46.80445583174006L272.95323493300845,119.63524607596555L273.4085863327299,98.98832960433174L273.8917291324343,90.67895577023447L274.31608243217465,104.10707281585346L274.480693032074,72.51821896573747L274.6602682319641,123.97995817899064L274.8109831318719,79.99919064470596L275.19578713163645,108.18834146828958L275.240680931609,85.02027796429903L275.879883131218,82.86594123356919L276.1556593310492,107.441201659324L276.4870183308465,94.33573494287994L276.6815581307275,106.77390588699382L276.6997294307164,55.614526878048494L277.2598330303737,105.29016928802594L277.3902388302939,118.450599270772L277.6446370301383,77.17145865625643L277.90331082998,90.6101074045393L278.06792142987933,96.91016288502432L278.4089005296707,98.31775587726843L278.9551084293366,115.20988647904596L279.1859908291953,14.029963114181015L279.6039307289396,72.14626729207231L279.70868292887553,120.1243440812672L279.78029922883167,114.70047948837819L280.173654428591,99.42722096118924L280.45477512841904,105.0601353254362L280.4697397284099,95.7716375441829L281.78448672760555,116.18772791226729L281.8924456275395,45.37793067055972L282.1917376273564,106.56235521346316L282.9741724268777,122.58613712314545L282.97524132687704,121.19723111335006L283.20505482673644,100.42558261736595L284.07513942620415,25.077417440591688L284.4342898259844,105.34130764512265L284.45139222597396,98.91435495499753L285.2284825254985,112.81353936883606L285.384541925403,79.57577998546039L285.99167712503163,126.67980089555058L286.12742742494856,104.6971574772142L286.1584255249296,125.80360623585474L286.1915614249093,122.35839659723896L286.8307636245182,114.02898159686193L286.83290142451693,37.72510212433991L286.98361632442476,45.30387680712957L287.07874842436655,117.00614531920436L287.3855227241788,109.78204609295935L287.5447888240814,117.98641598470203L287.6292319240298,81.7592825919055L288.3101212236132,109.65500931562637L288.6019309234347,105.45534199441754" fill="none"></path></g></g></g></g></g></g><g transform="translate(30, 177)" clip-path="url(#clip_1)"><clipPath id="clip_1"><rect width="299" height="22"></rect></clipPath><g><g><line x1="0" y1="0" x2="0" y2="5" style="visibility: inherit;" fill="rgb(0, 0, 0)" stroke="rgb(204, 204, 204)" stroke-width="1px"></line><line x1="21.377999986921036" y1="0" x2="21.377999986921036" y2="5" style="visibility: inherit;" fill="rgb(0, 0, 0)" stroke="rgb(204, 204, 204)" stroke-width="1px"></line><line x1="42.75599997384207" y1="0" x2="42.75599997384207" y2="5" style="visibility: inherit;" fill="rgb(0, 0, 0)" stroke="rgb(204, 204, 204)" stroke-width="1px"></line><line x1="64.1339999607631" y1="0" x2="64.1339999607631" y2="5" style="visibility: inherit;" fill="rgb(0, 0, 0)" stroke="rgb(204, 204, 204)" stroke-width="1px"></line><line x1="85.51199994768415" y1="0" x2="85.51199994768415" y2="5" style="visibility: inherit;" fill="rgb(0, 0, 0)" stroke="rgb(204, 204, 204)" stroke-width="1px"></line><line x1="106.88999993460519" y1="0" x2="106.88999993460519" y2="5" style="visibility: inherit;" fill="rgb(0, 0, 0)" stroke="rgb(204, 204, 204)" stroke-width="1px"></line><line x1="128.2679999215262" y1="0" x2="128.2679999215262" y2="5" style="visibility: inherit;" fill="rgb(0, 0, 0)" stroke="rgb(204, 204, 204)" stroke-width="1px"></line><line x1="149.64599990844727" y1="0" x2="149.64599990844727" y2="5" style="visibility: inherit;" fill="rgb(0, 0, 0)" stroke="rgb(204, 204, 204)" stroke-width="1px"></line><line x1="171.0239998953683" y1="0" x2="171.0239998953683" y2="5" style="visibility: inherit;" fill="rgb(0, 0, 0)" stroke="rgb(204, 204, 204)" stroke-width="1px"></line><line x1="192.40199988228935" y1="0" x2="192.40199988228935" y2="5" style="visibility: inherit;" fill="rgb(0, 0, 0)" stroke="rgb(204, 204, 204)" stroke-width="1px"></line><line x1="213.77999986921037" y1="0" x2="213.77999986921037" y2="5" style="visibility: inherit;" fill="rgb(0, 0, 0)" stroke="rgb(204, 204, 204)" stroke-width="1px"></line><line x1="235.15799985613143" y1="0" x2="235.15799985613143" y2="5" style="visibility: inherit;" fill="rgb(0, 0, 0)" stroke="rgb(204, 204, 204)" stroke-width="1px"></line><line x1="256.5359998430524" y1="0" x2="256.5359998430524" y2="5" style="visibility: inherit;" fill="rgb(0, 0, 0)" stroke="rgb(204, 204, 204)" stroke-width="1px"></line><line x1="277.9139998299735" y1="0" x2="277.9139998299735" y2="5" style="visibility: inherit;" fill="rgb(0, 0, 0)" stroke="rgb(204, 204, 204)" stroke-width="1px"></line><line x1="299.29199981689453" y1="0" x2="299.29199981689453" y2="5" style="visibility: inherit;" fill="rgb(0, 0, 0)" stroke="rgb(204, 204, 204)" stroke-width="1px"></line></g><g transform="translate(0, 8)"><text style="text-anchor: middle; visibility: hidden; font-family: &quot;Helvetica Neue&quot;, sans-serif; font-size: 12px; font-weight: 200;" x="0" y="0" dx="0em" dy="0.95em" fill="rgb(50, 49, 63)" stroke="none" stroke-width="1px">-1M</text><text style="text-anchor: middle; visibility: inherit; font-family: &quot;Helvetica Neue&quot;, sans-serif; font-size: 12px; font-weight: 200;" x="21.377999986921036" y="0" dx="0em" dy="0.95em" fill="rgb(50, 49, 63)" stroke="none" stroke-width="1px">0</text><text style="text-anchor: middle; visibility: hidden; font-family: &quot;Helvetica Neue&quot;, sans-serif; font-size: 12px; font-weight: 200;" x="42.75599997384207" y="0" dx="0em" dy="0.95em" fill="rgb(50, 49, 63)" stroke="none" stroke-width="1px">1M</text><text style="text-anchor: middle; visibility: inherit; font-family: &quot;Helvetica Neue&quot;, sans-serif; font-size: 12px; font-weight: 200;" x="64.1339999607631" y="0" dx="0em" dy="0.95em" fill="rgb(50, 49, 63)" stroke="none" stroke-width="1px">2M</text><text style="text-anchor: middle; visibility: hidden; font-family: &quot;Helvetica Neue&quot;, sans-serif; font-size: 12px; font-weight: 200;" x="85.51199994768415" y="0" dx="0em" dy="0.95em" fill="rgb(50, 49, 63)" stroke="none" stroke-width="1px">3M</text><text style="text-anchor: middle; visibility: inherit; font-family: &quot;Helvetica Neue&quot;, sans-serif; font-size: 12px; font-weight: 200;" x="106.88999993460519" y="0" dx="0em" dy="0.95em" fill="rgb(50, 49, 63)" stroke="none" stroke-width="1px">4M</text><text style="text-anchor: middle; visibility: hidden; font-family: &quot;Helvetica Neue&quot;, sans-serif; font-size: 12px; font-weight: 200;" x="128.2679999215262" y="0" dx="0em" dy="0.95em" fill="rgb(50, 49, 63)" stroke="none" stroke-width="1px">5M</text><text style="text-anchor: middle; visibility: inherit; font-family: &quot;Helvetica Neue&quot;, sans-serif; font-size: 12px; font-weight: 200;" x="149.64599990844727" y="0" dx="0em" dy="0.95em" fill="rgb(50, 49, 63)" stroke="none" stroke-width="1px">6M</text><text style="text-anchor: middle; visibility: hidden; font-family: &quot;Helvetica Neue&quot;, sans-serif; font-size: 12px; font-weight: 200;" x="171.0239998953683" y="0" dx="0em" dy="0.95em" fill="rgb(50, 49, 63)" stroke="none" stroke-width="1px">7M</text><text style="text-anchor: middle; visibility: inherit; font-family: &quot;Helvetica Neue&quot;, sans-serif; font-size: 12px; font-weight: 200;" x="192.40199988228935" y="0" dx="0em" dy="0.95em" fill="rgb(50, 49, 63)" stroke="none" stroke-width="1px">8M</text><text style="text-anchor: middle; visibility: hidden; font-family: &quot;Helvetica Neue&quot;, sans-serif; font-size: 12px; font-weight: 200;" x="213.77999986921037" y="0" dx="0em" dy="0.95em" fill="rgb(50, 49, 63)" stroke="none" stroke-width="1px">9M</text><text style="text-anchor: middle; visibility: inherit; font-family: &quot;Helvetica Neue&quot;, sans-serif; font-size: 12px; font-weight: 200;" x="235.15799985613143" y="0" dx="0em" dy="0.95em" fill="rgb(50, 49, 63)" stroke="none" stroke-width="1px">10M</text><text style="text-anchor: middle; visibility: hidden; font-family: &quot;Helvetica Neue&quot;, sans-serif; font-size: 12px; font-weight: 200;" x="256.5359998430524" y="0" dx="0em" dy="0.95em" fill="rgb(50, 49, 63)" stroke="none" stroke-width="1px">11M</text><text style="text-anchor: middle; visibility: inherit; font-family: &quot;Helvetica Neue&quot;, sans-serif; font-size: 12px; font-weight: 200;" x="277.9139998299735" y="0" dx="0em" dy="0.95em" fill="rgb(50, 49, 63)" stroke="none" stroke-width="1px">12M</text><text style="text-anchor: middle; visibility: hidden; font-family: &quot;Helvetica Neue&quot;, sans-serif; font-size: 12px; font-weight: 200;" x="299.29199981689453" y="0" dx="0em" dy="0.95em" fill="rgb(50, 49, 63)" stroke="none" stroke-width="1px">13M</text></g><line x1="0" y1="0" x2="299.29199981689453" y2="0" fill="rgb(0, 0, 0)" stroke="rgb(204, 204, 204)" stroke-width="1px"></line></g></g></g></g></svg>