<svg viewBox="0 0 330 200" xmlns="http://www.w3.org/2000/svg"><g><g><g><g><g><line x1="72.1240005493164" y1="177.98999977111816" x2="67.1240005493164" y2="177.98999977111816" style="visibility: inherit;" fill="rgb(0, 0, 0)" stroke="rgb(204, 204, 204)" stroke-width="1px"></line><line x1="72.1240005493164" y1="158.2133331298828" x2="67.1240005493164" y2="158.2133331298828" style="visibility: inherit;" fill="rgb(0, 0, 0)" stroke="rgb(204, 204, 204)" stroke-width="1px"></line><line x1="72.1240005493164" y1="138.43666648864746" x2="67.1240005493164" y2="138.43666648864746" style="visibility: inherit;" fill="rgb(0, 0, 0)" stroke="rgb(204, 204, 204)" stroke-width="1px"></line><line x1="72.1240005493164" y1="118.65999984741211" x2="67.1240005493164" y2="118.65999984741211" style="visibility: inherit;" fill="rgb(0, 0, 0)" stroke="rgb(204, 204, 204)" stroke-width="1px"></line><line x1="72.1240005493164" y1="98.88333320617676" x2="67.1240005493164" y2="98.88333320617676" style="visibility: inherit;" fill="rgb(0, 0, 0)" stroke="rgb(204, 204, 204)" stroke-width="1px"></line><line x1="72.1240005493164" y1="79.1066665649414" x2="67.1240005493164" y2="79.1066665649414" style="visibility: inherit;" fill="rgb(0, 0, 0)" stroke="rgb(204, 204, 204)" stroke-width="1px"></line><line x1="72.1240005493164" y1="59.329999923706055" x2="67.1240005493164" y2="59.329999923706055" style="visibility: inherit;" fill="rgb(0, 0, 0)" stroke="rgb(204, 204, 204)" stroke-width="1px"></line><line x1="72.1240005493164" y1="39.5533332824707" x2="67.1240005493164" y2="39.5533332824707" style="visibility: inherit;" fill="rgb(0, 0, 0)" stroke="rgb(204, 204, 204)" stroke-width="1px"></line><line x1="72.1240005493164" y1="19.77666664123535" x2="67.1240005493164" y2="19.77666664123535" style="visibility: inherit;" fill="rgb(0, 0, 0)" stroke="rgb(204, 204, 204)" stroke-width="1px"></line><line x1="72.1240005493164" y1="0" x2="67.1240005493164" y2="0" style="visibility: inherit;" fill="rgb(0, 0, 0)" stroke="rgb(204, 204, 204)" stroke-width="1px"></line></g><g transform="translate(62.124000549316406, 0)"><text style="text-anchor: end; visibility: hidden; font-family: &quot;Helvetica Neue&quot;, sans-serif; font-size: 12px; font-weight: 200;" x="0" y="177.98999977111816" dx="0em" dy="0.3em" fill="rgb(50, 49, 63)" stroke="none" stroke-width="1px">-200</text><text style="text-anchor: end; visibility: inherit; font-family: &quot;Helvetica Neue&quot;, sans-serif; font-size: 12px; font-weight: 200;" x="0" y="158.2133331298828" dx="0em" dy="0.3em" fill="rgb(50, 49, 63)" stroke="none" stroke-width="1px">0</text><text style="text-anchor: end; visibility: hidden; font-family: &quot;Helvetica Neue&quot;, sans-serif; font-size: 12px; font-weight: 200;" x="0" y="138.43666648864746" dx="0em" dy="0.3em" fill="rgb(50, 49, 63)" stroke="none" stroke-width="1px">200</text><text style="text-anchor: end; visibility: inherit; font-family: &quot;Helvetica Neue&quot;, sans-serif; font-size: 12px; font-weight: 200;" x="0" y="118.65999984741211" dx="0em" dy="0.3em" fill="rgb(50, 49, 63)" stroke="none" stroke-width="1px">400</text><text style="text-anchor: end; visibility: hidden; font-family: &quot;Helvetica Neue&quot;, sans-serif; font-size: 12px; font-weight: 200;" x="0" y="98.88333320617676" dx="0em" dy="0.3em" fill="rgb(50, 49, 63)" stroke="none" stroke-width="1px">600</text><text style="text-anchor: end; visibility: inherit; font-family: &quot;Helvetica Neue&quot;, sans-serif; font-size: 12px; font-weight: 200;" x="0" y="79.1066665649414" dx="0em" dy="0.3em" fill="rgb(50, 49, 63)" stroke="none" stroke-width="1px">800</text><text style="text-anchor: end; visibility: hidden; font-family: &quot;Helvetica Neue&quot;, sans-serif; font-size: 12px; font-weight: 200;" x="0" y="59.329999923706055" dx="0em" dy="0.3em" fill="rgb(50, 49, 63)" stroke="none" stroke-width="1px">1e+3</text><text style="text-anchor: end; visibility: inherit; font-family: &quot;Helvetica Neue&quot;, sans-serif; font-size: 12px; font-weight: 200;" x="0" y="39.5533332824707" dx="0em" dy="0.3em" fill="rgb(50, 49, 63)" stroke="none" stroke-width="1px">1.2e+3</text><text style="text-anchor: end; visibility: hidden; font-family: &quot;Helvetica Neue&quot;, sans-serif; font-size: 12px; font-weight: 200;" x="0" y="19.77666664123535" dx="0em" dy="0.3em" fill="rgb(50, 49, 63)" stroke="none" stroke-width="1px">1.4e+3</text><text style="text-anchor: end; visibility: hidden; font-family: &quot;Helvetica Neue&quot;, sans-serif; font-size: 12px; font-weight: 200;" x="0" y="0" dx="0em" dy="0.3em" fill="rgb(50, 49, 63)" stroke="none" stroke-width="1px">1.6e+3</text></g><line x1="72.1240005493164" y1="0" x2="72.1240005493164" y2="177.98999977111816" fill="rgb(0, 0, 0)" stroke="rgb(204, 204, 204)" stroke-width="1px"></line></g></g><g transform="translate(72, 0)" clip-path="url(#clip_0)"><clipPath id="clip_0"><rect width="257" height="177"></rect></clipPath><g><g><g><line x1="0" y1="0" x2="0" y2="177.98999977111816" fill="rgb(0, 0, 0)" stroke="rgb(60, 60, 60)" stroke-width="1px" opacity="0.25"></line><line x1="18.419714246477398" y1="0" x2="18.419714246477398" y2="177.98999977111816" fill="rgb(0, 0, 0)" stroke="rgb(60, 60, 60)" stroke-width="1px" opacity="0.25"></line><line x1="36.839428492954795" y1="0" x2="36.839428492954795" y2="177.98999977111816" fill="rgb(0, 0, 0)" stroke="rgb(60, 60, 60)" stroke-width="1px" opacity="0.25"></line><line x1="55.25914273943219" y1="0" x2="55.25914273943219" y2="177.98999977111816" fill="rgb(0, 0, 0)" stroke="rgb(60, 60, 60)" stroke-width="1px" opacity="0.25"></line><line x1="73.67885698590959" y1="0" x2="73.67885698590959" y2="177.98999977111816" fill="rgb(0, 0, 0)" stroke="rgb(60, 60, 60)" stroke-width="1px" opacity="0.25"></line><line x1="92.098571232387" y1="0" x2="92.098571232387" y2="177.98999977111816" fill="rgb(0, 0, 0)" stroke="rgb(60, 60, 60)" stroke-width="1px" opacity="0.25"></line><line x1="110.51828547886439" y1="0" x2="110.51828547886439" y2="177.98999977111816" fill="rgb(0, 0, 0)" stroke="rgb(60, 60, 60)" stroke-width="1px" opacity="0.25"></line><line x1="128.9379997253418" y1="0" x2="128.9379997253418" y2="177.98999977111816" fill="rgb(0, 0, 0)" stroke="rgb(60, 60, 60)" stroke-width="1px" opacity="0.25"></line><line x1="147.35771397181918" y1="0" x2="147.35771397181918" y2="177.98999977111816" fill="rgb(0, 0, 0)" stroke="rgb(60, 60, 60)" stroke-width="1px" opacity="0.25"></line><line x1="165.77742821829662" y1="0" x2="165.77742821829662" y2="177.98999977111816" fill="rgb(0, 0, 0)" stroke="rgb(60, 60, 60)" stroke-width="1px" opacity="0.25"></line><line x1="184.197142464774" y1="0" x2="184.197142464774" y2="177.98999977111816" fill="rgb(0, 0, 0)" stroke="rgb(60, 60, 60)" stroke-width="1px" opacity="0.25"></line><line x1="202.6168567112514" y1="0" x2="202.6168567112514" y2="177.98999977111816" fill="rgb(0, 0, 0)" stroke="rgb(60, 60, 60)" stroke-width="1px" opacity="0.25"></line><line x1="221.03657095772877" y1="0" x2="221.03657095772877" y2="177.98999977111816" fill="rgb(0, 0, 0)" stroke="rgb(60, 60, 60)" stroke-width="1px" opacity="0.25"></line><line x1="239.4562852042062" y1="0" x2="239.4562852042062" y2="177.98999977111816" fill="rgb(0, 0, 0)" stroke="rgb(60, 60, 60)" stroke-width="1px" opacity="0.25"></line><line x1="257.8759994506836" y1="0" x2="257.8759994506836" y2="177.98999977111816" fill="rgb(0, 0, 0)" stroke="rgb(60, 60, 60)" stroke-width="1px" opacity="0.25"></line></g><g><line x1="0" y1="177.98999977111816" x2="257.8759994506836" y2="177.98999977111816" fill="rgb(0, 0, 0)" stroke="rgb(60, 60, 60)" stroke-width="1px" opacity="0.25"></line><line x1="0" y1="158.2133331298828" x2="257.8759994506836" y2="158.2133331298828" fill="rgb(0, 0, 0)" stroke="rgb(60, 60, 60)" stroke-width="1px" opacity="0.25"></line><line x1="0" y1="138.43666648864746" x2="257.8759994506836" y2="138.43666648864746" fill="rgb(0, 0, 0)" stroke="rgb(60, 60, 60)" stroke-width="1px" opacity="0.25"></line><line x1="0" y1="118.65999984741211" x2="257.8759994506836" y2="118.65999984741211" fill="rgb(0, 0, 0)" stroke="rgb(60, 60, 60)" stroke-width="1px" opacity="0.25"></line><line x1="0" y1="98.88333320617676" x2="257.8759994506836" y2="98.88333320617676" fill="rgb(0, 0, 0)" stroke="rgb(60, 60, 60)" stroke-width="1px" opacity="0.25"></line><line x1="0" y1="79.1066665649414" x2="257.8759994506836" y2="79.1066665649414" fill="rgb(0, 0, 0)" stroke="rgb(60, 60, 60)" stroke-width="1px" opacity="0.25"></line><line x1="0" y1="59.329999923706055" x2="257.8759994506836" y2="59.329999923706055" fill="rgb(0, 0, 0)" stroke="rgb(60, 60, 60)" stroke-width="1px" opacity="0.25"></line><line x1="0" y1="39.5533332824707" x2="257.8759994506836" y2="39.5533332824707" fill="rgb(0, 0, 0)" stroke="rgb(60, 60, 60)" stroke-width="1px" opacity="0.25"></line><line x1="0" y1="19.77666664123535" x2="257.8759994506836" y2="19.77666664123535" fill="rgb(0, 0, 0)" stroke="rgb(60, 60, 60)" stroke-width="1px" opacity="0.25"></line><line x1="0" y1="0" x2="257.8759994506836" y2="0" fill="rgb(0, 0, 0)" stroke="rgb(60, 60, 60)" stroke-width="1px" opacity="0.25"></line></g></g></g><g><g><line x1="0" y1="158.2133331298828" x2="257.8759994506836" y2="158.2133331298828" fill="rgb(0, 0, 0)" stroke="rgb(153, 153, 153)" stroke-width="1.5px"></line></g></g><g><g><line x1="18.419714246477398" y1="0" x2="18.419714246477398" y2="177.98999977111816" fill="rgb(0, 0, 0)" stroke="rgb(153, 153, 153)" stroke-width="1.5px"></line></g></g><g><g><g><g><g><path style="fill: none;" stroke="rgb(255, 112, 67)" stroke-width="2px" d="M18.504905424867356,142.4720920576973L18.62002863890784,131.76844501386455L18.67712975307192,122.4760642330689L18.90277125259127,95.44299712051289L18.95987236675535,95.10455225502199L19.005921652371544,88.82079526338725L19.062101780823298,84.5171070090338L19.40010353724616,58.25139061621448L19.693897979477473,42.30903023530729L19.741789236518315,56.737752582068794L19.788759507846834,73.22799084516534L20.06597620725632,60.953354761706436L20.194914206981657,45.18947807299321L20.590938063280923,41.83906884675147L20.66645889169148,32.07083918401972L20.755794505786895,27.5896328950231L20.939070662539347,35.31597966650034L21.455743647153035,18.803307971425824L21.510081804180146,25.758009864744963L22.4421193450519,34.620597593419944L22.518561159174784,23.12131813433021L22.60329184470858,5.651027987524856L22.618948601818083,8.957258380815631L23.044444000911714,19.07838759550245L23.194564672020505,21.706146993571906L23.38889265732084,10.296613333113498L23.737025256579265,25.152289095260215L23.906486627646856,16.30282223855727L23.982928441769737,17.106635583877818L24.17633544135775,30.644176718406385L24.63590731180736,30.981311910843942L24.646959140355246,19.841872667355915L24.77866009721756,35.197119292711136L24.881810496997833,26.600582290012397L25.055876796627043,30.679169733905013L25.339540396022798,24.519952389530374L25.648070609651292,29.355422221772614L25.68030510958263,34.554365556151595L25.89489478055409,21.420420994997244L25.999887151759008,24.346315091169657L26.03764756596429,27.500249217973305L26.292760608278,23.754053173799775L26.642735178961072,18.749798472389813L26.695231364563533,24.263220258919745L26.99455172106879,19.19374746066984L27.186116749232156,20.493908787122933L27.26532152049201,24.983431801776163L27.397943463066646,16.915000842913287L28.04355444740568,35.925225086045685L28.11723330439159,17.43884592280608L28.50957321784156,29.34015276174992L28.565753346293313,34.04069609270081L28.6154865747588,19.537714680279606L29.087031259468624,10.460775116756565L29.118344773687635,21.476730900930704L29.489502015754155,13.667735913820792L29.66909422965731,16.832400910158185L29.785138429410114,16.422165441121905L30.32575704254423,12.624886112508818L30.470351799379074,17.20409457219648L30.495218413611823,11.512339977464876L31.630793796907152,29.905460762731963L31.97524245331628,26.299333346307975L32.07747186738423,29.29094043881517L32.16404452434268,29.161638892757452L32.716635951737,19.478894064713955L32.984642794023245,13.703477313921326L33.30882976476124,19.436296496002456L33.99128017759323,35.98545797577944L34.18376619146892,39.08472381448607L34.21231674855096,32.84025097909151L34.41493360526221,40.91431896390745L34.62307637624741,34.441443976300064L36.45399597234726,51.79753304699901L36.55438341499056,43.46518787949111L36.63819311481203,46.96159245670074L36.88133334286554,40.99518071307102L36.934750514180315,48.96962905079826L36.943039385591234,40.81109017172247L37.11065878523418,38.34110714674114L37.18341665650777,28.516640002392222L37.38234957036972,40.59374479846679L37.41826801315035,39.685061043124875L37.60338614132745,47.1095070520509L37.60614909846442,41.30627936379403L37.67338105546406,40.51418668699682L37.880602840736934,47.142955015468175L37.939545926325664,30.485301909854172L38.100718425982336,43.13443809760852L38.587919867801666,43.57431925345563L38.953551195594244,41.35975265067188L39.03183498114177,44.543863575939326L39.05762258108684,40.400661571176016L39.77599143669946,46.92646666328889L39.912297322123386,40.14746616134536L39.98137125054768,47.43183147180244L40.04215630756106,35.030470940874665L40.26595583565576,33.67408420352382L40.2945063927378,44.18450618911302L40.70526602043424,48.05433054123307L40.82959909159797,40.448425407784526L40.83144106302261,44.017906120154066L40.866438520090924,48.3886532560538L41.141813248075756,49.659724148787774L41.239437733582086,53.789056896977115L41.430081776033134,47.81980853429181L41.723876218264444,39.7726582537056L41.85097224656514,55.92206164887291L42.23870723145348,44.71200869697961L42.27094173138482,58.94510089465999L43.1458781580925,61.12692567111051L43.14679914380483,58.78142193979234L43.7979360424178,61.372613093483366L43.88819264222554,63.443423463745276L44.75391921180998,72.34443832758407L45.14718011097227,65.63863466799434L45.17112573949269,68.13696577745257L45.231910796506064,76.53383497543575L45.35992781051908,71.44020263233571L45.41702892468316,72.59519545209885L45.93830683785848,73.67230195502692L46.100400323227475,73.91713235632342L46.1243459517479,74.04728488809778L46.25604690861021,73.45830017104105L46.528658679458076,76.8177986489801L46.65943865060806,78.78160209188937L46.746011307566505,77.08659546361655L46.75890510753904,77.41027783929894L47.390701306193215,72.6265793225012L47.424777777549195,74.09573072035155L47.827248533834734,77.47229719550174L47.878823733724865,76.12264591956801L48.33839560417448,74.54532880530402L48.54285443231038,71.36888278684637L48.63955793210438,79.44557615312864L48.761128046131134,81.31808874532521L48.768495931829726,72.97242353897542L48.89006604585647,82.17975101330084L49.02545094556808,88.65829320365971L49.20412217375892,88.6950545795483L49.22990977370398,85.25998736289621L49.537519001620154,83.26110640945264L49.54857083016804,78.17991294267937L49.5817263158117,76.42948964170763L49.63145954427719,86.60132191317331L49.66553601563318,72.62151565571898L49.69961248698916,73.18731252083613L49.812893729604994,74.72320292616904L50.113135071822576,64.88371980690457L50.263255742931364,87.78893585207581L50.33140868564333,84.52328118199948L51.02675289844785,78.91005868759007L51.14556005533763,81.53048512363283L51.57842334012985,71.20151019184676L51.65578613996506,83.38048582417541L52.201009681660786,74.70645480302163L52.22863925303051,83.04450942079886L52.404547524084364,80.63142776700086L52.72873449482236,86.95387141426617L52.99305739425932,79.56514869936159L53.24632846514838,74.32237054753408L53.34947886492865,88.22779099677516L53.88272959236417,83.47366574247192L54.126790806129996,87.54444343092212L54.237309091608864,87.75831847235445L54.36716807704653,75.56543737129365L54.65727857642855,81.66327510759292L55.03119877563204,86.4860525784013L55.221842818083076,83.5911440188915L55.32407223215103,83.28985886302893L55.578264288752415,81.58822540981346L55.76614537406649,81.39879961049651L55.96876223077774,76.05261764105293L56.03599418777738,84.37492600539176L56.26347765872138,77.99411439453776L56.476225358268195,80.69662172240206L56.72304952917099,83.00048750719986L57.27103602800369,91.59289028850908L57.562067513098036,86.57028205827343L57.57864525591987,77.03413611716707L58.54568025385993,91.62546916013059L58.65711952505112,76.43953248023637L58.72343049633844,89.33521914679964L58.810003153296876,78.48217582681217L58.983148467213766,89.03640848841111L59.05682732419968,90.70493195835209L59.17379250966481,78.70715593007917L59.18023940965107,92.98573059840419L59.220762780993326,81.9030297713878L59.26957502374649,81.85353378654747L59.74111970845631,80.11969565401145L59.87742559388025,90.0929947683838L60.25318776450838,96.38133259802532L60.3775208356721,86.55482550210029L60.51658967823301,92.68694408145441L61.12444024836677,86.08381396095793L61.13917601976395,86.97934063216962L61.21193389103753,84.79204781983746L62.029769203581125,87.5941325472726L62.34014138863427,86.12364733493014L62.40184743135997,89.2686612001079L62.4377658741406,92.13164270684298L62.6459086451258,82.91026491515281L62.74353313063213,79.86782198795349L62.84023663042613,82.33179983004055L63.15429275832858,81.202312440339L63.845032042571475,78.87265756357402L63.91778991384506,78.67747403111017L64.03383411359786,83.03184120080377L64.52103555541719,76.0761555438547L64.56708484103339,83.17553104436898L64.6674722836767,83.95649451789272L64.69510185504642,83.14161835825537L65.2697969395365,84.88576488514664L65.41715465350832,80.06949956744675L65.55990743891851,80.80555996485636L65.64555911016465,86.48298058031767L66.17144195190157,85.5837663043337L66.62640889378956,87.1297538664326L66.98559332159587,85.64399919406745L67.19189412115642,85.90930153544178L67.2222866496631,90.94748099368474L67.36319746364866,85.01850055086952L67.37701224933352,85.6486222795921L67.70948809148243,88.828442064118L67.92868269101551,80.33322064458159L67.93881353385108,94.510033113127L68.07235646213805,83.42933602552861L68.11287983348029,81.65484371010216L68.31273373305457,84.027953176655L68.94268796028409,80.75249708243763L69.0624161028862,83.48551315354882L69.39581293074744,87.72593273224308L69.62053344455447,94.58666407514596L69.82591325840268,85.70218609686533L70.35179610013962,89.91865133293904L70.5212574712072,86.40262580136826L70.60138322817939,85.64294904148089L70.76623967068537,94.37172681040771L70.79663219919205,91.52595211415668L71.24331026966912,90.08408054211759L71.4081667121751,78.96342937335314L72.28862905315671,90.66657724750462L72.54558406689507,89.24177970803633L72.57045068112782,83.35809463971528L72.58610743823732,91.8881280139595L73.04752128011158,92.12623502455827L73.09080760859081,79.4451838547486L73.202246879782,88.47813771683083L73.39381190794536,92.0761898219859L73.89022320688792,93.73873225047137L73.89574912116187,92.69153699018061L73.91601080683299,97.55720776232542L73.99889952094215,93.41106653739175L74.1628349777358,92.50002295640996L74.83515454773222,101.80464042898267L74.90054453330721,88.99188563995762L75.27262276108605,88.86047171800746L75.69535520304271,85.09667052961012L76.07111737367086,90.75139215726696L76.9607895717757,89.63885809294239L77.10630531432288,95.04222509547486L77.28497654251372,90.51863851071568L77.88914316979817,86.18047024643747L78.22806591193336,90.46494795088888L78.59922315399987,83.1262523324776L78.88380773910795,91.56100548325223L78.92248913902554,86.00925312731357L79.29640933822904,86.76343167452083L79.97609679392406,91.14750488462218L80.15016309355326,88.72413897790771L80.19160745060785,89.24059677753655L80.57750046407155,90.93495158696255L81.35204944813592,87.10642116586038L81.44138506223133,93.74502713063092L81.636634033244,92.43870370193152L82.17172673210416,89.34699413356022L82.18462053207669,90.01183728659525L82.43328667440414,92.72636101560784L82.67642690245765,94.73478387272567L82.74918477373123,90.2154401458305L82.85694010207312,86.19229351607558L83.36071928671429,86.56675740821287L83.4693956007685,88.9175541499816L83.53939051490512,83.58615277642559L83.85252565709523,95.75620211176866L84.25039148481915,83.4106746933586L84.36643568457195,84.83853819555078L84.69062265530995,76.32026170198804L84.73759292663847,83.58959293145047L84.75785461230959,74.01979986005696L84.78824714081628,85.00321902012743L84.81127178362438,81.09251114144864L85.05072806882859,80.17450879074109L85.05257004025324,86.33810780625267L85.14651058291027,78.4197098539921L85.14927354004723,90.73857908863924L85.44306798227855,88.21037898406153L85.70646989600317,94.91566963807738L85.86303746709824,81.99631229079911L86.42944368017743,89.28195106215135L86.54917182277951,80.62960508837364L86.79139106512069,89.56843148068758L87.98867249114173,87.01837130330271L88.66191304685047,87.0445406229305L88.90505327490398,91.66634061596996L89.03767521747861,83.31559363675885L89.08096154595785,89.25658444536268L89.18871687429973,91.5241897891264L89.2955512169293,94.92430623779772L89.30199811691557,92.67146941920218L89.56447904492786,88.0777036719356L90.21193200069155,85.1982275271602L90.42744265737534,84.26379692736897L90.49467461437497,81.50847416683334L91.01687351326261,83.97523430973874L91.07950054170064,91.72201680913567L91.15041644154958,77.8755376826541L91.16331024152211,77.63905418381269L91.19922868430274,95.00149848826811L91.22870022709711,94.16364571428042L91.77392376879284,83.8614858856093L92.12205636805125,87.95645329570806L92.1736315679414,93.36017638446239L92.23717958209173,82.7267899804929L92.29704365339279,83.04935581463215L92.50426543866566,85.19206542491389L92.51900121006284,81.31004964621447L92.65162315263748,85.99070043161802L92.6755687811579,88.53533482063911L92.7096452525139,91.74314056806033L93.06238278033393,88.77177003660297L93.07988150886808,98.18952032661647L93.17382205152511,88.20006455434661L93.41696227957863,96.97573103272647L93.52103366507122,83.64845579453394L94.66489791977747,91.71202828884417L94.69621143399648,86.15871277474507L94.76896930527006,93.85876951940067L95.15394133302144,91.66867026481137L95.60982926062175,102.04781110636367L96.2057070164953,85.90187200765999L96.38253627326148,91.39965617722599L96.83197730087552,89.7112039495795L96.90565615786143,90.13645539353136L97.21787031433922,85.89184123985062L97.24642087142126,86.87708956825489L97.38180577113287,90.563046687335L97.6838890847751,89.27147367772471L98.38936414041518,90.22082972203614L98.46764792596272,82.08290159631113L98.59934888282504,91.3633897008322L98.95392838206972,89.2816674002458L99.0064245676722,97.72230502672086L99.20535748153414,82.7447994938161L99.35547815264293,91.95787263056904L99.63914175203868,96.68721066261409L100.13371107955659,91.93159467446677L100.26357006499427,88.18133683321997L100.75353446395057,94.25463479700848L100.76827023534776,89.56006043679372L101.12008677745547,89.67589106001716L101.33007151986531,86.88348704952921L101.3871726340294,77.28594942962808L101.5732117479188,88.27102227825438L102.36249650338037,84.52772924209303L102.55221956011908,88.81438571139354L102.85061893091202,79.03482164315879L102.87180160229548,92.85696016399947L102.95008538784299,89.67167234359192L102.95284834497997,81.58224436835793L103.30742784422465,88.64548013503197L103.86830814302989,93.22430233169929L103.92264630005701,94.64381289607671L104.23393947082248,95.71084638367756L104.3232750849179,91.01580730076647L104.5516795415742,87.73295185556577L104.94770339787347,97.13778647583676L105.53252932519912,90.4437638383673L105.76093378185546,96.42290415558905L106.01236288131987,87.23641677828273L106.25550310937336,91.20836545176397L106.3070783092635,87.68926188674989L106.33654985205787,96.66694996012549L106.40193983763285,92.00249204477761L106.83388213671276,95.30889746349945L106.8550648080962,89.63950387642952L107.15806910745076,100.55842314746347L107.37357976413455,93.18710037455313L107.4334438354356,100.35176036086399L108.00998089135034,98.01216524668504L108.18496817669187,94.98161197808048L108.35074560491017,93.68242837989762L108.53494274737494,97.41937221766217L108.60862160436085,94.23756076443766L108.70993003271649,99.81882602927392L108.91807280370166,93.02234109030047L109.15937106033053,95.17271560739202L109.6944637591907,90.25791097198845L110.10982831544877,80.90263872551441L110.20929477237974,99.68170265705442L110.45796091470717,93.75216092578775L111.08607317051207,84.45927619245776L111.10725584189552,86.54812625284131L111.35500099851063,84.45256487247941L111.40933915553774,93.26661623850522L111.48301801252364,96.92743004910531L111.55209194094795,87.03630839230958L111.70129162634441,93.23748355726828L111.79431118328911,85.73349150759168L111.94535284011023,85.02100522514199L112.33585078213555,100.6348428718932L112.35427049638203,89.97884197515494L112.87554840955734,93.97115998759924L112.90501995235171,80.86412709531491L113.03764189492634,98.36981462671828L113.2172341088295,92.56492721454589L113.24578466591153,98.33044597544242L113.29643888008935,98.86514866742247L113.32867338002069,91.2536065080209L113.33788323714393,86.85437850973103L113.51747545104708,84.4394138237089L113.80390200757981,79.29888673579612L114.19992586387907,88.75639797546552L114.50293016323361,92.57675651954371L114.5563473345484,81.6936329668475L115.07394130487442,84.88891534290624L115.08775609055928,88.00655281651765L115.09972890481949,87.08982996206497L115.25537549020223,80.56480946671218L115.56943161810466,82.85490859605082L115.73152510347367,91.4620799025282L115.88256676029478,90.05612475602072L115.89546056026731,85.71688219771721L116.28411653086798,77.08344500585693L116.33661271647046,87.01327142436232L116.44989395908628,89.07419587544747L116.61198744445528,74.43243740225095L116.70408601568768,90.96419894003368L117.1065567719732,90.18765938516474L117.78256028481893,86.89014405127034L118.4723785833495,90.24777760306432L119.07654521063397,91.10206466149539L119.0774661963463,93.48445047589601L119.13088336766107,91.03993666881811L119.31508051012585,88.70402312405176L119.61071692378181,96.18447123556689L119.95056065162932,75.87071793527284L119.980953180136,88.81036012647847L120.15962440832683,83.90030531915313L120.31435000799723,98.25360981119388L120.36500422217506,86.28295668938021L120.45341885055815,94.2586965940817L120.87430932109015,87.36806004390121L120.99311647797992,87.5687961072824L121.33848612010138,90.62537384688214L121.53834001967567,94.98388127332495L122.22815831820624,91.93540298643289L122.26407676098688,83.90027514235466L122.44735291773932,88.24395972539205L122.83416691691535,88.2675881585892L123.08007010210582,79.02134468496486L123.22005993037905,92.28860430637258L123.44017551562445,87.7114116568223L123.7275230578695,86.4713745836285L123.88132767182758,97.31525622760236L124.4679955705779,85.25555137352202L124.84559971263067,88.71425909409068L124.85665154117858,92.86611580465339L125.08413501212256,84.15720643983512L125.18820639761516,96.02994188599347L125.3364850972993,86.42151044184692L125.92039003891264,92.48516390084639L125.95538749598094,93.35517910663678L126.02169846726827,79.92517601111379L126.05761691004889,87.98878471758216L126.23628813823971,81.76768079491798L126.26483869532176,87.8698820962751L126.36430515225274,84.92332292851468L126.8063782941682,94.18912700290326L126.98136557950973,90.06458633030998L127.08819992213931,87.36578471329703L127.31752536450794,80.75026399935129L127.74209977788925,79.67549318062433L127.97879310595648,85.1662944390258L128.06168182006564,74.24579390375234L128.3416614766121,82.90369844380707L128.4963870762825,88.51037860830955L128.96516880385533,92.90264783687365L130.0823244729042,72.75428149824032L130.08324545861652,83.66207760136051L130.21126247262956,77.55405821325957L130.23889204399927,79.13227459611778L130.27665245820455,86.7155229892797L130.67451828592846,82.2363083689817L131.01528299948828,83.91663096712205L131.39933404152734,89.10819305659679L131.41038587007523,88.39860978215933L131.50708936986922,90.89665119435232L131.8100936692238,83.89654529006454L132.308346939591,89.39781789753295L132.33045059668675,86.21426222535725L132.36084312519344,94.83541746024275L132.84988653843743,97.45608531067322L133.36840149447576,92.8550952378544L133.42181866579057,93.6956096054666L133.62904045106345,94.09453481043863L133.85652392200743,93.29659387009917L135.14314096212388,83.70123501504713L135.3715454187802,92.87073285481834L135.42035766153336,94.01781331802428L135.52074510417665,97.61418155782506L135.81269757498333,96.7509682024084L135.93058374616078,93.61503151820855L136.01807738883156,98.4569169378042L136.15438327425548,94.90937475791783L136.18385481704982,99.54634764522488L136.2400349455016,84.1065637366532L136.45554560218537,92.06189809023344L136.63237485895155,100.06630595347553L136.72815737303324,85.73794560304493L137.13707502930504,96.7407201616501L137.40784482872826,100.40115374458954L137.566254371248,92.65316417325404L137.64730111393249,86.59085659946606L137.66572082817893,91.13128787312773L137.73571574231556,87.15671381818015L137.7753181279455,97.32235381060106L138.12529269862856,96.45702204393223L138.25975661262783,83.74868501295161L138.84181958281653,90.53842845514824L139.04719939666475,97.78226632526844L139.5776871669633,96.82038087423483L139.74162262375694,96.63472717472584L139.79135585222247,89.78404470571142L139.92213582337243,96.26471737804182L140.65892439323153,95.5296709210606L140.87996096418925,93.75790055285557L141.1470468207632,86.41448528316454L141.25019722054344,95.78818348278058L141.749371476623,96.31352533187717L141.8847563763346,100.29599967266259L142.22460010418212,90.26400064991846L142.2365729184423,100.25138629381371L142.31485670398982,88.75427956421336L142.68601394605636,97.83842534720955L142.7836384315627,86.40336211525079L143.36570140175138,98.645147735902L143.60239472981863,98.71672106649844L143.91276691487178,99.93285207994923L144.04999378600803,95.91548128942028L144.34010428539003,91.33627886509232L144.34470921395166,108.14407663146295L144.35852399963653,96.57037816968165L144.66244928470337,88.2614260563429L144.69192082749774,88.71542995387107L145.16162354078293,84.85482763136156L145.17912226931708,94.2817818449065L145.27398379768644,95.32470407053479L145.5309388114248,84.66802117815125L146.42705790951592,86.22315231018467L146.72085235174725,92.54914474894933L146.8543952800342,93.87645312330045L146.8967606228011,93.18227208679892L147.38119910748344,91.85094416289242L147.4180385359764,86.7264469903236L147.4456681073461,88.87791994287923L147.45487796446938,95.97676433174057L147.52487287860598,97.32644578447274L147.556186392825,89.7782326543273L147.6648627068792,86.50661504887452L148.09496303453443,99.35768230122922L148.31507861977985,96.68222545550786L148.52966829075132,84.40249552846828L149.1108102752277,99.99076739156095L149.14396576087134,92.93374201001076L149.42670837455475,104.73016033285414L149.42762936026708,105.94035858772695L149.70300408825193,90.54247214614239L149.93785544489452,99.11675677765395L150.0677144303322,98.11326355689846L150.3384842297554,96.61068833706959L150.48215800087792,102.34412916119909L150.6930637290001,107.12237774819427L150.89660157142367,111.68001281466015L151.01264577117647,103.04060363438387L151.2963093705722,105.25499521173653L151.35064752759934,101.99305228787125L151.46024482736587,103.92141006330495L151.57444705569404,92.38905683309888L152.66397315337318,92.1830519007059L152.73765201035908,101.70249196618272L153.21748556647984,94.71973772101163L153.5711440800122,92.00042191640298L154.30332772130967,89.30405254934624L154.9461757485117,84.60035876063571L155.0373533340318,86.11978470472678L155.16260739090782,86.07321586933745L155.27496764781134,99.51134859436658L155.32838481912611,85.67018058441464L155.39193283327648,92.25177050616767L155.39561677612576,81.53195171603817L155.48863633307047,80.75131415193785L155.56784110433034,90.7041051140742L156.10017084605352,89.11583985732752L156.3221284027236,99.37424936358585L156.5090885023253,82.36096268807597L156.55605877365386,85.13466311887605L156.6196067878042,87.95635672995296L157.12614892958234,88.88764290734427L157.31218804347174,89.55919134499796L157.40889154326575,89.81985249476857L157.57374798577172,86.16417477526701L157.58664178574426,89.53877975851705L157.6197972713879,83.71894879574539L157.65755768559322,89.28772086601762L157.74413034255164,90.92546400152554L157.7892586424555,82.17134979260852L157.95503607067383,83.30434372629156L158.035161827646,86.64190367174741L158.05173957046782,83.41447696996504L158.17607264163152,90.58284266712727L158.93772782572336,91.92653704304422L159.1615273538181,89.34666822413682L159.88910606655392,99.01233298424981L159.95081210927964,83.78334608366713L160.00699223773137,83.0292942790134L160.77785727894647,93.09907465343422L160.9095582358088,96.56525414930249L161.39307573477882,83.24508252946835L161.75686509114672,100.90812999414105L161.88211914802278,97.35129336032783L161.89593393370765,94.21760786529339L162.42457973258155,95.64169926767761L162.50102154670444,87.2680299923534L162.74047783190863,100.54390810740239L162.900729345853,86.8529903770017L162.96796130285261,86.80869687221654L163.1024252168519,96.88320293327676L163.11992394538606,95.91665818456036L163.18070900239942,87.66442638161416L163.3289877020836,93.43441734404303L163.41279740190504,96.05673284766964L163.4570047160966,94.71424554369122L163.63475495857512,90.5734818242438L163.80605830106734,96.06314239966333L163.91473461512155,100.21441971569556L164.0197269863265,94.66129733310663L164.88821651304792,91.70680166735023L165.0346532413074,100.21739514802408L165.2787144550732,89.59452234063937L165.38370682627814,90.98941467283002L165.6204001543454,97.5471287116385L166.00997711065838,98.96794894906925L166.05602639627458,87.99576762874668L166.21443593879428,91.63463083614421L166.24851241015025,85.405041197752L166.47599588109426,91.80246815384017L166.89136043735232,97.26678625390981L166.91714803729738,101.95114275016472L167.08016250837872,100.69476795828261L167.61986013580048,93.38230804845574L167.64104280718396,95.69024770104618L167.79668939256666,95.49794907051546L167.797610378279,91.78406030677725L167.8556324781554,80.37195558308974L168.2028440917015,90.58579999337671L168.26823407727647,81.935379299341L168.3925671484402,90.55630519055819L168.70478130491801,98.1259860951308L168.85950690458844,101.44764286779623L169.46735747472218,97.99532659314224L170.08073395912987,88.1819041570311L170.2621681444577,89.32361918547016L170.29900757295064,96.44819834806141L170.85528294319425,93.46559601221583L170.97869502864566,94.73655223311566L171.1656551282474,98.78157100639713L171.34708931357522,88.65435814914004L171.62430601298468,100.12379275454907L171.64548868436816,90.49535409302102L171.82231794113434,100.92991764263192L172.15110984043392,89.88432824236631L172.22202574028287,103.08995477059158L172.4080648541723,93.75077279305842L172.48634863971984,77.23377374508418L172.6355483251163,99.63483205368044L172.8639527817726,89.77182913769327L173.2259001667159,93.6750954178709L173.3576011235782,91.38687328539673L173.5500871374539,87.82928826698159L173.6974448514257,92.6625370868569L173.8549334082331,99.34733769471582L173.99952816506794,90.55868915763683L174.4102877927644,94.88910802006954L174.6230354923112,87.41893812611117L174.9168299345425,93.18467415995663L174.99971864865165,91.0492069813062L175.20694043392453,99.03479055766657L175.48968304760797,91.64036442785232L176.15002980334418,92.59208633316331L176.52579197397233,94.86718759366543L176.56171041675296,89.89217420996691L176.57092027387617,97.30745854287932L177.0885142442022,96.70954752883699L177.25889660098213,95.77373483167612L177.7709646570342,89.33413278205495L177.8824039282254,85.74368523011275L177.9570037709236,94.98254745883285L178.0684430421148,87.7486800029251L178.30882031303133,90.31679194115102L178.48288661266056,90.6064892064035L179.0990260542052,98.54826210675411L179.31361572517667,97.00968596635794L179.74003210998262,95.27137563228956L179.79529125272205,83.9693498340383L179.89015278109142,96.04227212584577L179.98685628088543,92.04811936405487L180.14618680911747,96.18715697063017L180.6343092366491,94.69679731881945L180.82034835053852,91.94070203224314L180.83416313622337,92.11123112036206L181.0966440642357,100.39617457284301L181.55897889182228,93.12747705614835L182.11157031921658,99.12735486927441L182.19630100475038,99.72090835361858L182.31234520450317,94.77233588073402L182.5785100753648,86.86914099953952L183.0104523744447,83.37740779073211L183.01597828871863,95.7625754516042L183.04729180293765,88.20125352020608L183.50317973053797,96.01709260520758L183.78960628707068,89.18777530950553L183.94893681530272,98.82425910550403L184.21233872902732,88.9147899552423L184.53376274262837,94.34948047458019L184.5613923139981,88.04320555593178L184.79992761348998,97.6385764817032L185.2097662554741,88.93404878802191L185.2134501983234,90.57883518829127L185.2641044125012,98.39057022870169L185.4105411407607,82.86063011703955L185.5339532262121,90.60879471380613L185.5910543403762,90.22095646458969L185.7503848686082,91.53869879382779L186.16574942486625,81.7077315670898L186.54795849548069,86.55507295184769L186.8546467376845,98.00450033987522L186.90437996615,78.95199236673537L186.95503418032783,87.78075793969212L186.95963910888946,97.38442748504109L187.2129101797785,86.52194486249412L187.25619650825774,88.51964892079762L187.2580384796824,94.35447171704611L187.45420843640736,86.42294082209409L187.55735883618763,95.77385553886998L187.85483722126824,95.434469157267L188.06482196367807,96.18563605998759L188.61372944822313,86.18522610987537L188.9019979761805,92.94432199555216L189.4149870179449,94.85045757659711L189.7741714457512,86.47518893095433L189.98323520244872,97.22123739430856L189.99520801670892,95.26872610938445L190.18861501629695,99.79447335291363L190.26413584470748,94.55916094102605L190.40320468726838,101.4760150937119L190.42899228721348,91.41391169682029L190.62147830108916,91.57891843082034L190.72186574373245,93.37765478613262L190.7734409436226,89.23154373799741L190.81949022923877,97.23698364774697L191.24314365690776,95.09791939471964L191.31129659961974,88.76566225259391L191.55904175623485,93.85071834957053L191.60140709900176,83.67585029217938L191.67600694169997,86.20613863121078L191.95782856967108,96.90033128408483L192.74527135370798,88.17487899834872L192.7646120536668,88.4600678499107L192.77105895365304,92.31528663157427L192.79224162503652,94.04028296216042L192.82908105352948,87.31299342206447L193.19931730988367,91.33785409397213L193.39180332375938,88.471003921674L193.76480253725052,92.16514498849749L193.8605850513322,96.75520502491271L195.49349271928244,95.99283045924268L196.52315474566052,75.57492495673067L196.68248527389252,80.06685004454164L196.89062804487773,96.78760283574346L197.56663155772347,91.08843681930914L197.70938434313365,84.76422481165385L198.01883554247448,90.72087134330067L198.3181558989797,89.90265159439355L198.33197068466458,86.4216009722423L198.42683221303395,90.8535647615057L198.53090359852655,93.40730650830315L198.6285280840329,91.55638843308726L199.4362325537409,88.34677207775822L199.64805926757538,94.0735559001466L199.6941085531916,93.65126781780388L199.90501428131378,99.30085335436219L200.0182955239296,83.7204395295895L200.74311127952848,90.77459811528563L201.00651319325308,88.06381630928254L201.1989992071288,96.7428868557798L201.6051539062636,93.44306601448275L201.60883784911292,91.98628106864285L201.9809160768918,97.4290227578109L202.00670367683685,96.33964033326774L202.35207331895828,86.85424573181778L202.35483627609526,89.88731574541424L202.7075738039153,90.36128461280605L202.8576944750241,91.97810919161886L202.9083486892019,87.57251992421283L203.49962151651383,88.97718953910574L203.9536674726895,99.27770774994045L204.30732598622185,93.37546998592384L204.4316590573856,92.32496734852145L204.82123601369858,94.27645262229781L204.93083331346511,90.65989610432472L205.1620007272584,84.50256179217423L205.39777306961332,99.58420142121787L205.63907132624217,91.97376976799977L206.46703748162133,87.25465563527426L207.04081158039912,97.83191922946077L207.1872483086586,90.76562353542249L207.538143865054,98.15911418448435L207.666160879067,89.38042399089842L207.79233592165536,92.37234492210962L208.2905891920226,99.99695967060572L208.6847710768972,98.22587733340566L209.15631576160703,94.3315614916524L209.67114677479609,96.61490705349482L209.8571858886855,95.51591030096111L209.92533883139745,92.52436959741054L210.33978240194318,95.8742778887978L210.4208291446277,96.757890759976L210.43280195888792,92.58664243872045L210.72014950113297,99.03036060365207L210.89145284362522,100.69590260590485L210.9227663578442,82.96523497123447L211.331684014116,95.49831722745671L211.38970611399242,85.4655517140316L211.852040941579,89.8526607100584L211.86217178441456,93.73563007558928L212.0491318840163,88.28685906208818L212.1559662266459,93.08169281751907L212.41384222609656,87.2562851823913L212.7232934254374,86.36864672629802L212.78499946816308,89.52896626365663L213.01616688195637,88.74226316306506L213.2943045670782,89.25201567807527L213.43521538106373,98.95963825877233L214.22726309366226,93.94654779077216L214.7273583354541,80.18188400028565L214.79827423530307,85.86646255234255L215.43467536251887,83.38295428628976L215.63545024780547,91.5754541343567L215.6676847477368,94.94681812945171L216.11896774677547,84.96610759337665L216.17606886093955,88.11331832948257L216.22672307511738,103.82114463272912L216.7820774596487,90.16091067100642L217.35585155842645,106.26940036281653L217.4203205582891,75.58956070398563L217.44702914394654,92.17267711739404L218.31643965638023,86.39980125303205L218.7364091411999,101.36184419440397L218.8321916552816,90.51489055234649L218.96573458356858,85.83469241891989L219.11861821181432,92.42123133562097L219.44372616826465,89.45016860750795L219.4649088396481,90.36236494219105L219.6030566964967,90.41862052988726L220.41260313762936,85.72717248599335L220.63548168001174,89.92213373548176L220.73126419409343,90.29686318344554L220.88967373661313,97.09656496913522L220.95506372218813,92.73725483985326L221.22675450732368,85.07260755051509L221.327141949967,91.6413059439644L221.74711143478666,90.72045490348188L221.85394577741624,89.74445274612691L222.25273259085245,97.29269001771114L222.31075469072886,99.57299375826842L222.6625712328366,104.55925101707457L222.87716090380803,89.02603974045894L222.96557553219114,93.1951937919011L223.71617888773508,102.97511998171744L223.83682801604954,95.55747582316515L224.34060720069067,100.61846290568705L224.49072787179946,90.19514926654345L224.7090014856202,92.74593972245114L224.82596667108538,89.11057098831574L225.30580022720608,83.36847545838683L225.46605174115044,92.06807829855883L225.5452565124103,96.63728616723557L225.57104411235537,97.24141963712115L225.87589038313456,92.93927039948933L226.83647848108836,94.060308285621L226.92673508089612,95.64124661570065L226.937786909444,93.75277049711673L227.02804350925172,98.6975708701933L227.15698150897708,91.49568478529748L227.3172330229214,93.0262278619426L227.90850585023333,87.92350626714527L227.99047357863017,88.11687315634161L228.26308534947805,99.6933026183839L228.41873193486077,90.44177820502838L228.42057390628543,87.96062976461543L228.6084549915995,94.51135485689971L228.98790110507693,94.75564207582386L228.9906640622139,89.95266058480775L229.07815770488466,85.79624717767699L229.32498187578747,106.22392392753159L229.37103116140366,89.29384675610578L229.6390380036899,90.53276125239674L229.78086980338776,91.72479910995403L229.89967696027756,94.69659815194959L229.91441273167476,92.2744151757349L230.09124198844094,97.36842171113588L230.23491575956345,98.95138792207231L230.51673738753453,90.4160072191403L230.63462355871198,98.28665340551176L230.81329478690282,83.13260756623407L231.23510624314716,96.2278835778369L231.7876976705415,89.45774298392236L232.19016842682703,89.73576786352903L232.29516079803193,90.34633502684709L232.31173854085378,77.49514706729853L232.53553806894845,93.56138924125932L232.95642853948047,86.54133647318696L233.48875828120367,87.91881075730431L233.49060025262833,83.29036583324313L233.50257306688854,86.42576537043031L233.63795796660014,90.87110955213255L233.80097243768148,87.34243994200544L233.91885860885893,93.28966527717188L233.96951282303675,91.24714867314964L234.11871250843322,92.33045952584187L234.1767346083096,92.04487234054017L234.39869216497965,90.92747377630323L234.5653905789103,88.67647170705429L234.82142460693632,89.43443442478892L234.9522045780863,81.74356349758571L235.09587834920885,88.95441209162527L235.18245100616727,86.09151507992587L235.57479091961724,78.50640779597859L235.99107646158765,76.67796540025856L236.3567077893802,79.03716336271958L236.4985395890781,84.16877018900647L236.6532651887485,78.63834679422202L236.78312417418616,87.13746102076024L237.11467903062277,92.85880094870575L237.15336043054035,93.36275348305121L237.70410988651003,90.26524393401516L237.9417242002896,93.29302093716106L238.22722977111,97.05980359324661L238.39484917075293,85.21918833137315L238.41050592786243,86.61264424795692L238.89310244112016,95.4151499708905L239.00546269802365,93.46232484726235L239.22465729755675,94.91397370200372L239.44753583993912,89.09161392352078L239.58936763963698,95.21889817976101L239.8831620818683,92.26895317521296L240.3537857808658,95.48506357757142L240.55271869472776,99.57325327873521L240.9128241082464,91.80825002842583L241.00308070805414,91.23070835334657L241.06478675077983,90.57228078766494L241.40370949291503,91.12550599854207L241.6459287352562,89.03677664535236L241.65882253522872,88.46134734616555L242.79163496138708,86.9342564952647L242.8846545183318,93.02758581787347L243.1425305177825,90.29262636094121L243.81669205920358,85.0514355087129L243.8176130449159,89.28201141574827L244.0156249730655,93.43193681120931L244.76530734289716,94.493767818755L245.07475854223796,95.34660035550012L245.08949431363516,95.06748307578906L245.7590509264946,91.72479307459434L245.89351484049388,91.83535482880602L246.41663472509384,87.9141454242618L246.533599910559,82.1117626863619L246.56030849621638,85.86716868942662L246.5888590532984,98.22323988121992L247.13960850926807,92.88472885394586L247.14145048069273,96.0645124263136L247.2713094661304,95.72680991006492L247.3532771945272,90.17913142191887L247.61760009396417,89.82520585881605L247.75482696510045,94.26117109155574L247.827584836374,89.83942516625218L248.4142527351243,93.20360104795313L248.66568183458872,87.44857174220262" fill="none"></path></g></g></g></g></g></g><g transform="translate(72, 177)" clip-path="url(#clip_1)"><clipPath id="clip_1"><rect width="257" height="22"></rect></clipPath><g><g><line x1="0" y1="0" x2="0" y2="5" style="visibility: inherit;" fill="rgb(0, 0, 0)" stroke="rgb(204, 204, 204)" stroke-width="1px"></line><line x1="18.419714246477398" y1="0" x2="18.419714246477398" y2="5" style="visibility: inherit;" fill="rgb(0, 0, 0)" stroke="rgb(204, 204, 204)" stroke-width="1px"></line><line x1="36.839428492954795" y1="0" x2="36.839428492954795" y2="5" style="visibility: inherit;" fill="rgb(0, 0, 0)" stroke="rgb(204, 204, 204)" stroke-width="1px"></line><line x1="55.25914273943219" y1="0" x2="55.25914273943219" y2="5" style="visibility: inherit;" fill="rgb(0, 0, 0)" stroke="rgb(204, 204, 204)" stroke-width="1px"></line><line x1="73.67885698590959" y1="0" x2="73.67885698590959" y2="5" style="visibility: inherit;" fill="rgb(0, 0, 0)" stroke="rgb(204, 204, 204)" stroke-width="1px"></line><line x1="92.098571232387" y1="0" x2="92.098571232387" y2="5" style="visibility: inherit;" fill="rgb(0, 0, 0)" stroke="rgb(204, 204, 204)" stroke-width="1px"></line><line x1="110.51828547886439" y1="0" x2="110.51828547886439" y2="5" style="visibility: inherit;" fill="rgb(0, 0, 0)" stroke="rgb(204, 204, 204)" stroke-width="1px"></line><line x1="128.9379997253418" y1="0" x2="128.9379997253418" y2="5" style="visibility: inherit;" fill="rgb(0, 0, 0)" stroke="rgb(204, 204, 204)" stroke-width="1px"></line><line x1="147.35771397181918" y1="0" x2="147.35771397181918" y2="5" style="visibility: inherit;" fill="rgb(0, 0, 0)" stroke="rgb(204, 204, 204)" stroke-width="1px"></line><line x1="165.77742821829662" y1="0" x2="165.77742821829662" y2="5" style="visibility: inherit;" fill="rgb(0, 0, 0)" stroke="rgb(204, 204, 204)" stroke-width="1px"></line><line x1="184.197142464774" y1="0" x2="184.197142464774" y2="5" style="visibility: inherit;" fill="rgb(0, 0, 0)" stroke="rgb(204, 204, 204)" stroke-width="1px"></line><line x1="202.6168567112514" y1="0" x2="202.6168567112514" y2="5" style="visibility: inherit;" fill="rgb(0, 0, 0)" stroke="rgb(204, 204, 204)" stroke-width="1px"></line><line x1="221.03657095772877" y1="0" x2="221.03657095772877" y2="5" style="visibility: inherit;" fill="rgb(0, 0, 0)" stroke="rgb(204, 204, 204)" stroke-width="1px"></line><line x1="239.4562852042062" y1="0" x2="239.4562852042062" y2="5" style="visibility: inherit;" fill="rgb(0, 0, 0)" stroke="rgb(204, 204, 204)" stroke-width="1px"></line><line x1="257.8759994506836" y1="0" x2="257.8759994506836" y2="5" style="visibility: inherit;" fill="rgb(0, 0, 0)" stroke="rgb(204, 204, 204)" stroke-width="1px"></line></g><g transform="translate(0, 8)"><text style="text-anchor: middle; visibility: hidden; font-family: &quot;Helvetica Neue&quot;, sans-serif; font-size: 12px; font-weight: 200;" x="0" y="0" dx="0em" dy="0.95em" fill="rgb(50, 49, 63)" stroke="none" stroke-width="1px">-1M</text><text style="text-anchor: middle; visibility: inherit; font-family: &quot;Helvetica Neue&quot;, sans-serif; font-size: 12px; font-weight: 200;" x="18.419714246477398" y="0" dx="0em" dy="0.95em" fill="rgb(50, 49, 63)" stroke="none" stroke-width="1px">0</text><text style="text-anchor: middle; visibility: hidden; font-family: &quot;Helvetica Neue&quot;, sans-serif; font-size: 12px; font-weight: 200;" x="36.839428492954795" y="0" dx="0em" dy="0.95em" fill="rgb(50, 49, 63)" stroke="none" stroke-width="1px">1M</text><text style="text-anchor: middle; visibility: inherit; font-family: &quot;Helvetica Neue&quot;, sans-serif; font-size: 12px; font-weight: 200;" x="55.25914273943219" y="0" dx="0em" dy="0.95em" fill="rgb(50, 49, 63)" stroke="none" stroke-width="1px">2M</text><text style="text-anchor: middle; visibility: hidden; font-family: &quot;Helvetica Neue&quot;, sans-serif; font-size: 12px; font-weight: 200;" x="73.67885698590959" y="0" dx="0em" dy="0.95em" fill="rgb(50, 49, 63)" stroke="none" stroke-width="1px">3M</text><text style="text-anchor: middle; visibility: inherit; font-family: &quot;Helvetica Neue&quot;, sans-serif; font-size: 12px; font-weight: 200;" x="92.098571232387" y="0" dx="0em" dy="0.95em" fill="rgb(50, 49, 63)" stroke="none" stroke-width="1px">4M</text><text style="text-anchor: middle; visibility: hidden; font-family: &quot;Helvetica Neue&quot;, sans-serif; font-size: 12px; font-weight: 200;" x="110.51828547886439" y="0" dx="0em" dy="0.95em" fill="rgb(50, 49, 63)" stroke="none" stroke-width="1px">5M</text><text style="text-anchor: middle; visibility: inherit; font-family: &quot;Helvetica Neue&quot;, sans-serif; font-size: 12px; font-weight: 200;" x="128.9379997253418" y="0" dx="0em" dy="0.95em" fill="rgb(50, 49, 63)" stroke="none" stroke-width="1px">6M</text><text style="text-anchor: middle; visibility: hidden; font-family: &quot;Helvetica Neue&quot;, sans-serif; font-size: 12px; font-weight: 200;" x="147.35771397181918" y="0" dx="0em" dy="0.95em" fill="rgb(50, 49, 63)" stroke="none" stroke-width="1px">7M</text><text style="text-anchor: middle; visibility: inherit; font-family: &quot;Helvetica Neue&quot;, sans-serif; font-size: 12px; font-weight: 200;" x="165.77742821829662" y="0" dx="0em" dy="0.95em" fill="rgb(50, 49, 63)" stroke="none" stroke-width="1px">8M</text><text style="text-anchor: middle; visibility: hidden; font-family: &quot;Helvetica Neue&quot;, sans-serif; font-size: 12px; font-weight: 200;" x="184.197142464774" y="0" dx="0em" dy="0.95em" fill="rgb(50, 49, 63)" stroke="none" stroke-width="1px">9M</text><text style="text-anchor: middle; visibility: inherit; font-family: &quot;Helvetica Neue&quot;, sans-serif; font-size: 12px; font-weight: 200;" x="202.6168567112514" y="0" dx="0em" dy="0.95em" fill="rgb(50, 49, 63)" stroke="none" stroke-width="1px">10M</text><text style="text-anchor: middle; visibility: hidden; font-family: &quot;Helvetica Neue&quot;, sans-serif; font-size: 12px; font-weight: 200;" x="221.03657095772877" y="0" dx="0em" dy="0.95em" fill="rgb(50, 49, 63)" stroke="none" stroke-width="1px">11M</text><text style="text-anchor: middle; visibility: inherit; font-family: &quot;Helvetica Neue&quot;, sans-serif; font-size: 12px; font-weight: 200;" x="239.4562852042062" y="0" dx="0em" dy="0.95em" fill="rgb(50, 49, 63)" stroke="none" stroke-width="1px">12M</text><text style="text-anchor: middle; visibility: hidden; font-family: &quot;Helvetica Neue&quot;, sans-serif; font-size: 12px; font-weight: 200;" x="257.8759994506836" y="0" dx="0em" dy="0.95em" fill="rgb(50, 49, 63)" stroke="none" stroke-width="1px">13M</text></g><line x1="0" y1="0" x2="257.8759994506836" y2="0" fill="rgb(0, 0, 0)" stroke="rgb(204, 204, 204)" stroke-width="1px"></line></g></g></g></g></svg>