<svg viewBox="0 0 330 200" xmlns="http://www.w3.org/2000/svg"><g><g><g><g><g><line x1="41.0620002746582" y1="177.98999977111816" x2="36.0620002746582" y2="177.98999977111816" style="visibility: inherit;" fill="rgb(0, 0, 0)" stroke="rgb(204, 204, 204)" stroke-width="1px"></line><line x1="41.0620002746582" y1="165.27642835889543" x2="36.0620002746582" y2="165.27642835889543" style="visibility: inherit;" fill="rgb(0, 0, 0)" stroke="rgb(204, 204, 204)" stroke-width="1px"></line><line x1="41.0620002746582" y1="152.56285694667272" x2="36.0620002746582" y2="152.56285694667272" style="visibility: inherit;" fill="rgb(0, 0, 0)" stroke="rgb(204, 204, 204)" stroke-width="1px"></line><line x1="41.0620002746582" y1="139.84928553445" x2="36.0620002746582" y2="139.84928553445" style="visibility: inherit;" fill="rgb(0, 0, 0)" stroke="rgb(204, 204, 204)" stroke-width="1px"></line><line x1="41.0620002746582" y1="127.13571412222726" x2="36.0620002746582" y2="127.13571412222726" style="visibility: inherit;" fill="rgb(0, 0, 0)" stroke="rgb(204, 204, 204)" stroke-width="1px"></line><line x1="41.0620002746582" y1="114.42214271000454" x2="36.0620002746582" y2="114.42214271000454" style="visibility: inherit;" fill="rgb(0, 0, 0)" stroke="rgb(204, 204, 204)" stroke-width="1px"></line><line x1="41.0620002746582" y1="101.70857129778182" x2="36.0620002746582" y2="101.70857129778182" style="visibility: inherit;" fill="rgb(0, 0, 0)" stroke="rgb(204, 204, 204)" stroke-width="1px"></line><line x1="41.0620002746582" y1="88.99499988555908" x2="36.0620002746582" y2="88.99499988555908" style="visibility: inherit;" fill="rgb(0, 0, 0)" stroke="rgb(204, 204, 204)" stroke-width="1px"></line><line x1="41.0620002746582" y1="76.28142847333636" x2="36.0620002746582" y2="76.28142847333636" style="visibility: inherit;" fill="rgb(0, 0, 0)" stroke="rgb(204, 204, 204)" stroke-width="1px"></line><line x1="41.0620002746582" y1="63.56785706111363" x2="36.0620002746582" y2="63.56785706111363" style="visibility: inherit;" fill="rgb(0, 0, 0)" stroke="rgb(204, 204, 204)" stroke-width="1px"></line><line x1="41.0620002746582" y1="50.85428564889091" x2="36.0620002746582" y2="50.85428564889091" style="visibility: inherit;" fill="rgb(0, 0, 0)" stroke="rgb(204, 204, 204)" stroke-width="1px"></line><line x1="41.0620002746582" y1="38.140714236668174" x2="36.0620002746582" y2="38.140714236668174" style="visibility: inherit;" fill="rgb(0, 0, 0)" stroke="rgb(204, 204, 204)" stroke-width="1px"></line><line x1="41.0620002746582" y1="25.42714282444547" x2="36.0620002746582" y2="25.42714282444547" style="visibility: inherit;" fill="rgb(0, 0, 0)" stroke="rgb(204, 204, 204)" stroke-width="1px"></line><line x1="41.0620002746582" y1="12.713571412222734" x2="36.0620002746582" y2="12.713571412222734" style="visibility: inherit;" fill="rgb(0, 0, 0)" stroke="rgb(204, 204, 204)" stroke-width="1px"></line><line x1="41.0620002746582" y1="0" x2="36.0620002746582" y2="0" style="visibility: inherit;" fill="rgb(0, 0, 0)" stroke="rgb(204, 204, 204)" stroke-width="1px"></line></g><g transform="translate(31.062000274658203, 0)"><text style="text-anchor: end; visibility: hidden; font-family: &quot;Helvetica Neue&quot;, sans-serif; font-size: 12px; font-weight: 200;" x="0" y="177.98999977111816" dx="0em" dy="0.3em" fill="rgb(50, 49, 63)" stroke="none" stroke-width="1px">-10</text><text style="text-anchor: end; visibility: inherit; font-family: &quot;Helvetica Neue&quot;, sans-serif; font-size: 12px; font-weight: 200;" x="0" y="165.27642835889543" dx="0em" dy="0.3em" fill="rgb(50, 49, 63)" stroke="none" stroke-width="1px">-5</text><text style="text-anchor: end; visibility: hidden; font-family: &quot;Helvetica Neue&quot;, sans-serif; font-size: 12px; font-weight: 200;" x="0" y="152.56285694667272" dx="0em" dy="0.3em" fill="rgb(50, 49, 63)" stroke="none" stroke-width="1px">0</text><text style="text-anchor: end; visibility: inherit; font-family: &quot;Helvetica Neue&quot;, sans-serif; font-size: 12px; font-weight: 200;" x="0" y="139.84928553445" dx="0em" dy="0.3em" fill="rgb(50, 49, 63)" stroke="none" stroke-width="1px">5</text><text style="text-anchor: end; visibility: hidden; font-family: &quot;Helvetica Neue&quot;, sans-serif; font-size: 12px; font-weight: 200;" x="0" y="127.13571412222726" dx="0em" dy="0.3em" fill="rgb(50, 49, 63)" stroke="none" stroke-width="1px">10</text><text style="text-anchor: end; visibility: inherit; font-family: &quot;Helvetica Neue&quot;, sans-serif; font-size: 12px; font-weight: 200;" x="0" y="114.42214271000454" dx="0em" dy="0.3em" fill="rgb(50, 49, 63)" stroke="none" stroke-width="1px">15</text><text style="text-anchor: end; visibility: hidden; font-family: &quot;Helvetica Neue&quot;, sans-serif; font-size: 12px; font-weight: 200;" x="0" y="101.70857129778182" dx="0em" dy="0.3em" fill="rgb(50, 49, 63)" stroke="none" stroke-width="1px">20</text><text style="text-anchor: end; visibility: inherit; font-family: &quot;Helvetica Neue&quot;, sans-serif; font-size: 12px; font-weight: 200;" x="0" y="88.99499988555908" dx="0em" dy="0.3em" fill="rgb(50, 49, 63)" stroke="none" stroke-width="1px">25</text><text style="text-anchor: end; visibility: hidden; font-family: &quot;Helvetica Neue&quot;, sans-serif; font-size: 12px; font-weight: 200;" x="0" y="76.28142847333636" dx="0em" dy="0.3em" fill="rgb(50, 49, 63)" stroke="none" stroke-width="1px">30</text><text style="text-anchor: end; visibility: inherit; font-family: &quot;Helvetica Neue&quot;, sans-serif; font-size: 12px; font-weight: 200;" x="0" y="63.56785706111363" dx="0em" dy="0.3em" fill="rgb(50, 49, 63)" stroke="none" stroke-width="1px">35</text><text style="text-anchor: end; visibility: hidden; font-family: &quot;Helvetica Neue&quot;, sans-serif; font-size: 12px; font-weight: 200;" x="0" y="50.85428564889091" dx="0em" dy="0.3em" fill="rgb(50, 49, 63)" stroke="none" stroke-width="1px">40</text><text style="text-anchor: end; visibility: inherit; font-family: &quot;Helvetica Neue&quot;, sans-serif; font-size: 12px; font-weight: 200;" x="0" y="38.140714236668174" dx="0em" dy="0.3em" fill="rgb(50, 49, 63)" stroke="none" stroke-width="1px">45</text><text style="text-anchor: end; visibility: hidden; font-family: &quot;Helvetica Neue&quot;, sans-serif; font-size: 12px; font-weight: 200;" x="0" y="25.42714282444547" dx="0em" dy="0.3em" fill="rgb(50, 49, 63)" stroke="none" stroke-width="1px">50</text><text style="text-anchor: end; visibility: inherit; font-family: &quot;Helvetica Neue&quot;, sans-serif; font-size: 12px; font-weight: 200;" x="0" y="12.713571412222734" dx="0em" dy="0.3em" fill="rgb(50, 49, 63)" stroke="none" stroke-width="1px">55</text><text style="text-anchor: end; visibility: hidden; font-family: &quot;Helvetica Neue&quot;, sans-serif; font-size: 12px; font-weight: 200;" x="0" y="0" dx="0em" dy="0.3em" fill="rgb(50, 49, 63)" stroke="none" stroke-width="1px">60</text></g><line x1="41.0620002746582" y1="0" x2="41.0620002746582" y2="177.98999977111816" fill="rgb(0, 0, 0)" stroke="rgb(204, 204, 204)" stroke-width="1px"></line></g></g><g transform="translate(41, 0)" clip-path="url(#clip_0)"><clipPath id="clip_0"><rect width="288" height="177"></rect></clipPath><g><g><g><line x1="0" y1="0" x2="0" y2="177.98999977111816" fill="rgb(0, 0, 0)" stroke="rgb(60, 60, 60)" stroke-width="1px" opacity="0.25"></line><line x1="20.638428551810126" y1="0" x2="20.638428551810126" y2="177.98999977111816" fill="rgb(0, 0, 0)" stroke="rgb(60, 60, 60)" stroke-width="1px" opacity="0.25"></line><line x1="41.27685710362025" y1="0" x2="41.27685710362025" y2="177.98999977111816" fill="rgb(0, 0, 0)" stroke="rgb(60, 60, 60)" stroke-width="1px" opacity="0.25"></line><line x1="61.91528565543038" y1="0" x2="61.91528565543038" y2="177.98999977111816" fill="rgb(0, 0, 0)" stroke="rgb(60, 60, 60)" stroke-width="1px" opacity="0.25"></line><line x1="82.5537142072405" y1="0" x2="82.5537142072405" y2="177.98999977111816" fill="rgb(0, 0, 0)" stroke="rgb(60, 60, 60)" stroke-width="1px" opacity="0.25"></line><line x1="103.19214275905064" y1="0" x2="103.19214275905064" y2="177.98999977111816" fill="rgb(0, 0, 0)" stroke="rgb(60, 60, 60)" stroke-width="1px" opacity="0.25"></line><line x1="123.83057131086076" y1="0" x2="123.83057131086076" y2="177.98999977111816" fill="rgb(0, 0, 0)" stroke="rgb(60, 60, 60)" stroke-width="1px" opacity="0.25"></line><line x1="144.4689998626709" y1="0" x2="144.4689998626709" y2="177.98999977111816" fill="rgb(0, 0, 0)" stroke="rgb(60, 60, 60)" stroke-width="1px" opacity="0.25"></line><line x1="165.107428414481" y1="0" x2="165.107428414481" y2="177.98999977111816" fill="rgb(0, 0, 0)" stroke="rgb(60, 60, 60)" stroke-width="1px" opacity="0.25"></line><line x1="185.74585696629117" y1="0" x2="185.74585696629117" y2="177.98999977111816" fill="rgb(0, 0, 0)" stroke="rgb(60, 60, 60)" stroke-width="1px" opacity="0.25"></line><line x1="206.38428551810128" y1="0" x2="206.38428551810128" y2="177.98999977111816" fill="rgb(0, 0, 0)" stroke="rgb(60, 60, 60)" stroke-width="1px" opacity="0.25"></line><line x1="227.02271406991142" y1="0" x2="227.02271406991142" y2="177.98999977111816" fill="rgb(0, 0, 0)" stroke="rgb(60, 60, 60)" stroke-width="1px" opacity="0.25"></line><line x1="247.66114262172152" y1="0" x2="247.66114262172152" y2="177.98999977111816" fill="rgb(0, 0, 0)" stroke="rgb(60, 60, 60)" stroke-width="1px" opacity="0.25"></line><line x1="268.29957117353166" y1="0" x2="268.29957117353166" y2="177.98999977111816" fill="rgb(0, 0, 0)" stroke="rgb(60, 60, 60)" stroke-width="1px" opacity="0.25"></line><line x1="288.9379997253418" y1="0" x2="288.9379997253418" y2="177.98999977111816" fill="rgb(0, 0, 0)" stroke="rgb(60, 60, 60)" stroke-width="1px" opacity="0.25"></line></g><g><line x1="0" y1="177.98999977111816" x2="288.9379997253418" y2="177.98999977111816" fill="rgb(0, 0, 0)" stroke="rgb(60, 60, 60)" stroke-width="1px" opacity="0.25"></line><line x1="0" y1="165.27642835889543" x2="288.9379997253418" y2="165.27642835889543" fill="rgb(0, 0, 0)" stroke="rgb(60, 60, 60)" stroke-width="1px" opacity="0.25"></line><line x1="0" y1="152.56285694667272" x2="288.9379997253418" y2="152.56285694667272" fill="rgb(0, 0, 0)" stroke="rgb(60, 60, 60)" stroke-width="1px" opacity="0.25"></line><line x1="0" y1="139.84928553445" x2="288.9379997253418" y2="139.84928553445" fill="rgb(0, 0, 0)" stroke="rgb(60, 60, 60)" stroke-width="1px" opacity="0.25"></line><line x1="0" y1="127.13571412222726" x2="288.9379997253418" y2="127.13571412222726" fill="rgb(0, 0, 0)" stroke="rgb(60, 60, 60)" stroke-width="1px" opacity="0.25"></line><line x1="0" y1="114.42214271000454" x2="288.9379997253418" y2="114.42214271000454" fill="rgb(0, 0, 0)" stroke="rgb(60, 60, 60)" stroke-width="1px" opacity="0.25"></line><line x1="0" y1="101.70857129778182" x2="288.9379997253418" y2="101.70857129778182" fill="rgb(0, 0, 0)" stroke="rgb(60, 60, 60)" stroke-width="1px" opacity="0.25"></line><line x1="0" y1="88.99499988555908" x2="288.9379997253418" y2="88.99499988555908" fill="rgb(0, 0, 0)" stroke="rgb(60, 60, 60)" stroke-width="1px" opacity="0.25"></line><line x1="0" y1="76.28142847333636" x2="288.9379997253418" y2="76.28142847333636" fill="rgb(0, 0, 0)" stroke="rgb(60, 60, 60)" stroke-width="1px" opacity="0.25"></line><line x1="0" y1="63.56785706111363" x2="288.9379997253418" y2="63.56785706111363" fill="rgb(0, 0, 0)" stroke="rgb(60, 60, 60)" stroke-width="1px" opacity="0.25"></line><line x1="0" y1="50.85428564889091" x2="288.9379997253418" y2="50.85428564889091" fill="rgb(0, 0, 0)" stroke="rgb(60, 60, 60)" stroke-width="1px" opacity="0.25"></line><line x1="0" y1="38.140714236668174" x2="288.9379997253418" y2="38.140714236668174" fill="rgb(0, 0, 0)" stroke="rgb(60, 60, 60)" stroke-width="1px" opacity="0.25"></line><line x1="0" y1="25.42714282444547" x2="288.9379997253418" y2="25.42714282444547" fill="rgb(0, 0, 0)" stroke="rgb(60, 60, 60)" stroke-width="1px" opacity="0.25"></line><line x1="0" y1="12.713571412222734" x2="288.9379997253418" y2="12.713571412222734" fill="rgb(0, 0, 0)" stroke="rgb(60, 60, 60)" stroke-width="1px" opacity="0.25"></line><line x1="0" y1="0" x2="288.9379997253418" y2="0" fill="rgb(0, 0, 0)" stroke="rgb(60, 60, 60)" stroke-width="1px" opacity="0.25"></line></g></g></g><g><g><line x1="0" y1="152.56285694667272" x2="288.9379997253418" y2="152.56285694667272" fill="rgb(0, 0, 0)" stroke="rgb(153, 153, 153)" stroke-width="1.5px"></line></g></g><g><g><line x1="20.638428551810126" y1="0" x2="20.638428551810126" y2="177.98999977111816" fill="rgb(0, 0, 0)" stroke="rgb(153, 153, 153)" stroke-width="1.5px"></line></g></g><g><g><g><g><g><path style="fill: none;" stroke="rgb(0, 119, 187)" stroke-width="2px" d="M20.77619006239346,146.27335007594178L20.9345900015286,135.5977486076531L20.96657956578391,118.90412960811284L20.99237760147367,140.14829773074254L21.02385120501518,111.20093544638553L21.430944208199637,120.76396907658457L21.586248383052006,126.3068566207645L21.880345989915305,113.26628457054545L21.922654768446513,126.64962409708679L21.972702957684653,122.50221814097463L22.364833100169047,103.39434264020763L23.00772014955793,123.45759348661107L23.338966927814482,116.41205738220457L23.737804559578215,122.73663043369862L24.146445444904053,128.41382224436302L24.152636973469598,111.5099237689274L24.284206955487388,108.17294106251643L24.54063943024363,108.41177156185836L24.71348626936504,84.78719883942145L24.73154489434787,98.40107563444118L25.074658769021717,114.30317607077501L25.4678208329337,35.33575926460202L25.57514066140311,101.59074922140832L26.05550008594649,116.09887394580484L26.31657620712689,120.24070258291519L26.3480498106684,94.43487434777593L26.640083574676513,41.61323064466529L26.86555840660504,79.25715610339478L27.33405073473113,127.21069511390309L27.415056566796984,116.7816711622959L28.065167066179004,104.97691418172985L28.258136373138427,110.599593761455L28.3154080123697,100.42316416251764L29.005247486713955,54.76225002549222L29.387574375636238,113.11688516893659L29.624916303982054,119.39392491300755L29.74152342529978,137.73132531765404L30.767253324324745,120.30284846612298L30.823493042128426,128.27127567036243L31.041228463350024,87.56073168121578L31.28734172383036,118.54886893722656L31.307464191668373,137.0371358208715L31.45038530938966,126.73119117502733L31.566476469993592,104.53737294596259L31.59949795567649,93.65792956161334L31.689791080590656,124.39761423054344L32.21142736223766,67.12665216914715L32.225874262223925,125.41078515056626L32.70468580462592,124.44657339169395L32.743382858160565,102.68726468668834L32.77743626527105,104.50225523562175L32.9028147187233,119.99098418691324L32.91880950085095,117.5066814088666L33.148927979203634,102.7902607942023L33.2392211041178,130.6805174343302L33.44818519320488,104.0476794877627L33.554989060960494,130.7232784966248L33.71958052866118,129.248101869864L34.51622387076105,115.81376139843326L35.63740650183814,118.02869906806383L35.650821480396814,107.61345836915498L36.08061675498826,117.7978611093436L36.41134757253102,120.5938899460856L36.484613993889944,133.15908891087219L36.5331143009867,95.42773897678963L36.89428680064338,104.67754794692675L36.9133773470538,-28.072402179041205L37.16774597895486,46.288585617487L37.42521037513869,104.26557321655616L37.81011706762995,98.5840407967556L38.09699122450011,103.72803606100611L38.10318275306565,126.05664354081631L38.121757338762286,118.49497748614142L38.149619217307226,118.47226082335499L38.16870976371765,29.05548467551L38.187800310128075,96.06718587510892L38.41946667062214,125.06178805141111L38.50356826697077,119.38716908225148L38.541749359791616,98.87623896418076L38.997858630786624,101.07686959811107L39.24036016627039,115.77226129521733L39.283700866229196,110.77626867790391L39.58914960879598,122.26755850627752L39.604628430209836,101.26983998573046L39.70317692654473,114.1877595163362L39.88479509780067,106.72500600169744L40.0328758226599,128.44359057830474L40.17476501895359,118.60127391155166L40.232552618898666,15.555676178683427L40.66802346134185,47.65887954795846L40.729938746997284,110.76780570254903L40.96521683248792,114.19006561649738L41.17469688228879,39.56307607740331L41.737610021039416,114.0757960498359L41.98423924223355,89.1677512793363L42.429513338238856,93.85490106938617L42.60184421664647,110.05031513694553L43.20603421250071,106.79176893507018L43.24318338389397,119.7703114983041L43.29168369099072,118.00080277336966L43.388684305184235,71.15345708907012L43.495488172939844,89.22547410608354L43.52180216934341,24.482703873895133L43.54914808717455,42.15009852193512L43.81331997263772,48.35731508194627L43.88968215827942,111.54072511934511L44.10019412950788,125.54975981548438L44.16984882587024,118.36931078934583L44.24775889365333,101.09222419981513L44.59654833617892,90.56567961300098L44.63730923256874,126.23170830951864L45.32405294263022,102.34506949179408L45.44066006394795,84.91443931014406L45.54952777455875,115.14188360257918L46.11244091330937,117.66738821852125L46.51695411292484,119.03143312678938L46.91063213755063,104.86296712960196L47.07315976239613,110.57971910643818L47.121144108779085,31.830875007024076L47.41575767635618,105.15884147772569L47.98744214724132,98.88890190323613L48.08341084000723,-35.27176074151711L48.27741206839425,97.9649389881863L48.480700589629585,129.1592188043459L48.96828346416609,-6.419096483967905L49.757703356272835,103.28306300151536L49.85264012761116,-55.60072961469373L50.00691238103594,55.537283973666376L50.98672177653312,-95.55039634624552L51.0006527158056,89.01647013879467L51.009424047940115,108.48423791014076L51.740024418674196,97.34247138884551L51.743120182956964,104.0691060924148L51.892748789957594,113.6966838529924L52.751307417712894,76.80716596181566L52.96181938894135,107.08951532244147L53.54175923124722,53.49421017661537L53.98032583797318,109.26000903439167L54.55923375885146,118.12063510950509L55.149492815433234,107.88208145165169L55.27022762246132,-50.482244522573154L55.48641516154153,89.89901054811031L56.38676660711425,69.02569534035887L56.526075999838966,101.79695482951107L56.66228962828092,96.30886323206308L56.76341792818478,87.97650868819281L57.045648438630785,101.45533191604481L57.106531802858626,67.08423544567788L57.14574481710706,118.51253876623315L57.32117145979745,119.49201782964255L57.544066488157,83.12125850342896L57.790695709351134,81.09527555173648L57.81700970575469,-7.666282009620659L57.828360841458185,99.84678461750207L57.84538754501342,5.073265159622565L58.21223561252185,83.14635158909441L58.359800376667295,26.787659472214614L59.63835102545194,33.624608695796724L60.01551830723626,60.58310872380014L60.3704992783274,104.99222513485043L60.37411100332396,-6.2532706654380945L61.04228012768881,72.77509896266055L61.40964415591103,41.761888020354775L61.43699007374218,28.217024485678962L61.453500816583635,83.17773007078276L62.16810640519006,99.83888907373257L62.283165644366406,20.950078516586558L62.48077859774999,116.1545283146788L62.49058185131209,90.81178002641568L63.652525378779,66.9803324175958L64.24175251393318,70.0244913268849L64.34081697098186,16.0449283012058L64.59260579931396,-7.780292109702486L65.06986945957456,91.93027982824798L65.46509536634173,8.798603862892207L65.50895202701433,23.43608843923201L65.58273440908704,57.687287100588264L65.78137928389822,111.58494113442279L66.16525405496189,69.14533125786859L66.44232495826994,39.49577966134342L66.78956651865414,64.52067653969446L66.79782189007487,67.70242548383644L67.11255792548997,101.06331913785803L67.24877155393192,12.181116891728237L67.79723779269628,75.80932539428385L67.96440906396593,14.267887770697627L67.97627616038322,66.77187648252189L68.22032557800837,52.75307662828688L68.78943024532455,52.99552996005866L68.91738850234577,94.36534215427272L69.13925160927772,77.23119740091533L69.59484491955894,96.75228434191854L69.73570219442504,48.94049895614401L69.90080962283952,88.76205224530338L69.95395357636043,109.71208226346384L70.37755732238634,49.36889525359294L71.24695112513133,-23.676776428293664L71.49873995346343,64.37946852225433L71.79851312817846,75.09726665240383L72.22624455991472,59.56990870472167L72.7287902951513,53.138571218005495L72.83920588790347,28.210739089656073L72.97490355563164,-3.8694275272202674L73.27828845534326,80.01241239340432L73.28860766961914,42.10660513340636L73.77206285844531,89.824788556803L73.78805764057296,91.29972754127589L73.8164354798317,101.85449336223911L73.83449410481452,104.52137331519137L73.83965371195248,44.563496601019864L74.32259294006484,79.51305804872479L74.49234401490348,63.411265342913765L74.5222697363036,67.16698346029402L74.81223965745653,85.49575114509425L74.8266865574428,69.01687832649341L74.91388391807419,81.50737637801492L75.08982652147837,40.5956269684967L75.26525316416877,40.257670536043804L75.51962179606983,49.401331000970316L75.6738940494946,75.97700385269074L76.32968011672837,11.82307241118366L76.716134691361,98.3553513183117L77.56127834055764,-30.908085753885928L77.66137471903393,95.2228282766638L77.77643395821026,26.95992588173081L78.12831916501864,-2.8079812738549492L78.32180443269185,-17.360341412699626L78.94302113210132,60.554368556491795L79.15972463189534,69.8685494875948L79.37591217097554,26.019522000232257L79.49922678157262,74.48938252979205L79.66020652427673,46.44639949602467L80.0750389381681,95.72953013289786L80.28658283082417,77.17147158917007L80.29277435938972,10.161370837632518L80.478520216356,18.41285425597681L80.88870898382322,43.9143160685818L80.90831549094746,78.57181514445463L80.94546466234071,73.8696793407391L81.08167829078266,99.82001348629346L81.38506319049426,34.2734497392521L81.48309572611537,2.659779783370851L81.5429471689156,58.361104833486436L81.67142138665062,-53.60897685214442L83.22033544946399,106.5963348274048L83.22085141017779,91.55727843309339L83.29256994939531,85.81742180606193L83.32920316007477,20.146285001733588L83.55209818843433,91.5856597120486L83.74300365253858,67.51479477293094L83.9581592701912,57.15546305963311L83.96435079875674,108.95421190828736L84.18827774854387,49.28326643246629L84.49682225539344,52.53140972194264L84.77079739441872,99.15858225142188L85.33474245459692,92.67753387795061L86.49668598206385,3.381436363776544L86.54570224987438,94.59825584563015L87.32428696699144,88.31514894845375L87.41303220976421,59.7008059567724L87.4584367525782,60.56853979659894L87.50796898110252,99.89004036374291L87.80155062725204,83.21411359004487L88.6317314157486,85.12414650461142L88.73285971565247,102.50110347809375L89.75652577182225,87.2383480933844L90.0227615001406,25.250055671374668L90.02946898941994,64.92339777036467L90.07332565009253,88.64007870365552L90.28125781775202,89.32407140635L90.6620368245329,77.05301418341462L90.9685174885273,78.92022783757524L91.2079232597283,81.96713175778173L91.21050306329727,44.15725438461459L91.40502025239809,-6.324485754327071L91.66816021643366,1.4815881186915476L92.37709023718834,52.27038149297357L92.54168170488903,70.07781049654201L92.61649600838933,71.90255892880725L92.64023020122391,86.30398711577821L92.91162553668022,78.13804522139357L92.93226396523204,58.50568834138332L92.94774278664589,109.67002442834772L92.95290239378384,27.358253154996163L92.99211540803228,58.73899486999217L93.31149508987154,33.5166027008664L93.43480970046862,79.5804660111647L93.5550285467829,93.18284867919813L93.89917434288434,60.66274313946052L94.05757428201949,103.47610128693128L94.05809024273329,-45.62177105731803L94.34393247817584,96.78527297135349L94.41668293882097,69.84537693960301L94.56837538867677,65.62746882146561L94.9460586311749,108.58073522855697L95.10497453102384,53.84687133186256L95.13541621313776,94.50400400434249L95.1968155380794,-87.55323867438295L96.18126858000073,22.19708944790534L96.37939749409811,12.86443061645727L96.78958626156535,82.47443984434207L97.14972683979444,93.97787367861176L97.36385053601947,92.75908883128463L97.39945182527133,24.093668899071048L97.40151566812652,60.15651656780226L97.79622561417989,33.58773049258838L97.92057214620453,66.89857377087215L98.02531217110499,81.56248028975263L98.47522991353443,-41.67527953102086L98.52940578848293,45.80327156716419L98.62176275625228,29.09193609256866L98.62898620624541,88.84239958782746L98.64756079194206,28.521846793418604L98.66871518120766,44.04663917435994L98.71721548830442,68.72634365508358L98.74249756328037,73.52150428990639L98.88025907386371,98.51946999224269L99.38590057338307,88.0798054859486L99.5112790268353,75.55728392367159L100.7614518363612,75.47794534841046L100.96525631831034,36.19198927775702L101.03542697538649,114.68101760885463L101.04316638609342,14.880345294890873L101.51630236064365,75.64203492328576L101.7288781747273,104.30858162082389L101.76293158183779,90.28994181139501L101.91771979597637,8.126978258853853L102.01730021373885,85.56956574962231L102.93829008786338,48.5233930922918L103.12971151268141,96.50419549303365L103.3479628946168,103.4160844846294L103.37376093030657,23.375669099993473L103.46250617307935,59.607291291561495L103.60903901579721,73.34029477061688L103.84173729771886,90.2222913568246L103.85618419770512,19.62342346992216L103.94750924404688,100.63412746622105L104.24986222233092,92.05706441376522L104.3819481650625,24.77498448864469L104.5764653541633,45.531059601135865L104.68275326120514,81.91514629484243L104.94434534309931,78.91390364281148L105.62850924959183,69.1050872638887L106.06243220989363,40.90190422901941L106.1315709455422,55.53463595960119L106.23631097044263,71.62722851398055L106.49325940591268,107.88244518984746L106.97619863402502,110.80801089778802L107.05978426965986,78.90201182873113L107.18774252668108,42.563848294701074L107.39051508720262,66.94408469392677L108.05404056514331,87.30398101342897L108.17322749003002,37.62862905513674L108.3378189577307,99.83930616019705L108.38425542197228,91.94525129238583L108.5003465825762,103.68615767006658L108.65874652171135,9.874919733700523L109.02869035350254,74.00236133487041L109.23920232473101,65.84639071689244L109.25932479256903,54.76225002549222L109.26448439970697,-28.188371615537562L109.93678120978218,72.9921779178955L109.99921245615141,-50.862743774403185L110.04100527396884,75.08645635322557L110.23810226663862,2.7151358869242586L110.33561884154592,-1.4627513299933241L110.68079655907495,93.47284016823562L110.80101540538925,66.44123361272526L111.79991534729685,95.19338003233435L112.41597243956838,82.5546707906435L112.63009613579341,41.54146267371877L112.87208171056338,53.13117035818223L112.8927201391152,79.86335733062079L113.14812069244385,-122.72798316432454L113.5454104420662,93.0723450153235L113.72548073118074,35.356051006083305L114.10419589510644,35.05421620139157L114.13463757722037,59.78082835984159L114.31780363061769,63.21657326116775L114.40706483410426,86.71737800019099L114.63976311602593,89.04559344366925L115.02570172994477,59.615681519277246L115.08194144774845,56.83929212018546L115.08452125131743,-47.575384657580344L115.22641044761112,69.91703821401211L115.2506606011595,72.18082834825577L115.36159215462548,-58.43835312658257L115.41937975457056,88.48716316615423L116.01118669329371,89.99310234459185L116.17268239671162,-4.4658320723735585L116.66129719267573,61.00473464096514L116.77842027470724,71.77450368452612L117.01369836019788,73.09996082006577L117.22111456714357,49.08966071546499L117.24691260283335,-10.464738192589095L117.522435624,63.89762695924043L117.66122905601092,38.089102211609855L117.6849632488455,-27.25504850424997L118.34023335536548,82.94211501709141L118.3727388803346,76.58805977236963L118.68799087646349,79.18892851755372L118.89695496555056,14.212929354238241L118.95061487978526,76.04078413285819L119.86541322534424,21.22442441336338L121.10681470273563,75.78043973169717L121.45560414526122,25.28360688255239L121.50874809878214,96.39910910335468L121.62174349510329,75.83564064028708L122.19291200527464,66.64440321935399L122.21871004096441,17.745418915953735L122.95395405812263,76.54576429496561L123.28932852208956,90.35452716543575L123.29139236494473,51.45908042175995L123.51428739330427,88.4970374457087L123.70777266097751,94.56428269814532L123.99103509285109,27.092695173029114L124.60502834226746,29.71236675801316L124.80315725636481,57.46251629497347L124.87281195272718,24.172440042746786L125.4140547414984,19.46433893262065L126.33452865490914,95.09391946008327L126.68486597957612,102.26455725462125L127.0346873435293,13.592440490682407L127.51969041449684,33.427278299670746L127.80811245350837,98.85877468094124L128.39579170652118,56.64389196141835L128.49176039928707,68.7154218095253L129.03558299162728,96.23287104820301L129.14032301652773,94.38573574244884L129.68208176601274,-87.70447616634107L129.91684389078958,74.54064536618243L130.6407367722443,90.82190649778589L130.68046574720654,87.8137867689336L131.03699460043907,83.37432329083198L131.14947403604643,35.38204616247427L131.16753266102927,90.84240678249942L131.42035341078895,72.02736962838213L131.480720814303,60.61304195239063L131.79184512472153,117.09755838595083L132.11328864941598,64.61598564667116L132.14940589938163,79.94223517083394L132.16436876008171,51.281032999852314L133.10083745562008,69.34312723888516L133.2829715875898,84.8493253232588L133.2948386840071,88.25245988287362L133.95062475124087,60.479360890681605L134.09302990824835,65.72071189549035L134.12966311892782,44.657913336956284L134.3381112473011,5.020217581151627L134.633240775592,32.14559099368864L134.85665176466534,63.54774961365152L135.2064731286185,14.36729014483737L135.25600535714287,47.73931903749212L136.02633470283916,68.9018788585191L136.70121131648335,112.51017470823649L136.88644121273586,55.22843629656023L137.4245882372243,56.896161374633294L137.47515238717625,24.603523153001788L137.48134391574177,77.55214543533407L138.02516650808198,76.57493609826628L138.31100874352455,84.60453436734886L138.31204066495215,66.99874242014432L138.41729665056636,51.46800413216282L138.62987246465002,51.79309878201332L138.6314203467914,65.80708759237895L138.84451212158885,79.77810679721775L138.99465668930327,-18.682408508254696L139.07411463922773,58.79029650512342L139.14067357130733,-50.784486714044135L139.48636724955014,33.72211963131849L139.88881660631043,29.605301632549214L140.4238678665161,100.19737004011206L140.48268738788877,40.738396635257345L140.4919746807371,60.74474427831467L140.61735313418933,111.30834006083221L141.15137247296744,44.97170785352489L141.15911188367434,81.44012846038116L141.23495810860226,49.167607385896986L141.326283154944,35.962931211274764L141.3923261263098,110.89896969594332L141.66114165819712,91.47655280284572L141.89796762582915,11.443514028820005L141.9712340471881,-19.293139488478687L142.05172391854015,66.48234087868977L142.1002242256369,49.32270535257288L142.92421348556792,87.84834674737425L143.5129246600083,79.27280654549806L143.805990345444,64.2212375572522L143.90866652748926,80.02849447149991L144.17902994151797,11.4391685698412L144.56909624114715,61.737322766614355L145.31053178687094,80.36946750605638L145.3610959368229,91.08219755067819L145.58553884732385,68.05846212954036L145.72845996504512,96.98288465835088L146.36309164301326,65.90358006095255L147.04880343164714,36.20789676151867L147.46879545267652,42.06004664434795L147.6421582525117,63.21563239170136L148.1008473270757,78.29881265408086L148.39391301251138,-35.31680607968113L148.49039766599108,20.37337403211609L148.79894217284067,91.47823569823147L148.8727245549134,51.87250040522838L149.14360392965588,82.2053172280565L149.5130318007333,70.44485628497122L149.69258612913404,69.53168911957182L149.8050655647414,50.781324616662246L150.12857293229104,66.02419564666957L150.3607552534989,-48.934795541234365L150.5547564818859,80.10645084161713L150.60686851397924,67.61749504004568L150.61357600325857,85.48632305105991L150.74617790670393,34.85186136832135L150.88703518157004,10.413194065327332L151.0139615171637,70.25566392474524L151.33127735614778,72.940953880246L151.45459196674483,44.416856759856245L151.89573837703975,50.434696665622226L151.96178134840557,42.65347338613856L152.05413831617494,-15.824920041034261L152.1000588197027,92.18127373285643L152.49838049075262,103.31896153651645L152.7733875512055,84.28591910722565L153.15261867584502,-26.819280446033474L153.263550229311,65.39770267796224L153.8398783466203,84.26940054329513L153.9146926501206,65.22372912384724L153.98847503219332,36.86500193678191L154.10095446780068,16.421780471392935L154.30269510689465,-0.1375027376859066L154.38112113539148,10.555798837439227L154.38679670324328,-39.061020370389855L154.70359658151355,109.2451685160043L154.85786883493833,33.5661292936023L154.9486779205663,65.96397030113543L155.11378534898077,25.231344978584303L155.33152077020236,31.25517928981654L156.03941886952944,61.296695166102396L156.13590352300915,0.9159218760020167L156.14364293371608,39.643370071658666L156.18027614439558,86.25127902628998L156.31184612641334,-10.385530563078419L156.54248056547982,59.20221303738269L156.87630714730534,99.68509086487622L157.0130367364611,53.1227316320404L157.39897535037994,63.91791870072173L157.55995509308406,40.26384923552925L157.7297061679227,55.43147010759587L157.77769051430565,-19.047310666250155L157.99955362123762,58.068814519051685L158.2750766424043,100.94877070524646L158.78329794549262,102.58737247844495L158.86739954184125,87.17203619537442L158.86843146326882,70.75665266638441L158.9143519667966,73.02858568637068L159.32196093069484,38.938008962423396L159.33692379139492,23.28871142199162L159.62379794826506,75.18492755758416L160.1753599513122,103.3597099141278L160.30538205118862,91.05376777329688L160.44365952248575,42.53880370746171L160.54220801882065,87.72388038662471L160.6108307937554,83.04558155933856L160.80225221857344,18.678334640462083L161.06900390760558,82.18823608238318L161.2088292610441,12.874004205769893L161.41882527155875,12.526765174560978L161.51530992503848,53.93043412003722L161.95129672819544,52.00377594500273L162.78663712383,107.46581946041364L162.78818500597134,64.38431836486457L162.8506162523406,56.19968517706002L163.4909234981605,75.04325880509604L163.8376490978309,36.65765176582312L164.5125257114751,98.58472947440626L164.58063252569605,56.06288081670999L164.66782988632747,24.47736904702387L164.88659722897665,73.73778787095326L164.89124087540083,42.37215341568819L164.9015600896767,94.22393529328558L165.10226880734308,60.23463783256821L165.3927546892098,84.8897196623596L165.47788820698602,111.83418909569154L165.62545297113147,96.30913482324925L165.8179063173771,85.28951643793584L165.95154014225008,73.97385396000733L166.03718962074007,71.36297028983307L166.30910091691018,71.3778835558596L166.526320377418,87.82152711773955L167.07117489118576,8.617898727234149L167.3792034373215,72.8881584935908L167.68000853346416,39.6461829803726L168.01589895814485,81.61154129759795L168.37552357566014,75.11276189954359L168.61750915043015,110.83852610749175L168.84040417878967,95.37136925613065L168.84453186450006,83.42075568398255L168.9699103179523,62.35035257223561L169.67884033870698,44.603633898462334L169.77016538504873,81.04310094493538L169.93269300989425,89.10059065886952L169.9904806098393,103.08533976813794L170.31089221310614,96.68039997474938L170.73965556627002,104.6844347234333L171.87528509733338,62.73404302050321L172.29269731479374,79.46621826879496L172.3829904397079,20.573750129401333L173.10894716401782,29.795366964445037L173.19408068179405,-8.530019579136365L173.8689572954382,60.670163398654196L174.62741954471727,74.25353953349804L174.65940910897254,92.1656038913827L175.04895944788797,81.77033969418548L175.21251899416106,31.71026912099228L175.84663471141545,66.30260571155377L175.90803403635707,34.71323346714988L175.99058775056432,103.31612922843208L176.00864637554713,71.6468849260799L176.4219309072971,54.0339588603957L176.7325392570019,48.607227471652635L176.76504478197097,73.34394185225979L177.06017431026186,54.22824355536244L177.55394871336392,52.107717771825676L177.6860346560955,60.44415103333117L178.21489438773563,26.195551887613988L178.83507916571753,91.47588837440811L179.2292731510571,57.34401524063453L179.8179843254975,80.021724091216L180.0470708824226,122.85453253247519L180.12652883234705,64.01582732333752L180.50730783912795,63.593066543001726L180.51607917126248,92.13115060947945L180.59450519975934,60.133799905015834L180.60895209974564,9.770783913173148L180.69253773538045,47.217951257204646L180.78953834957397,12.616225371349714L181.48350550962854,46.599402330692925L181.97263626630647,47.22477983559989L182.05931766622408,29.98644106360382L182.56547512645722,30.166176230739808L182.6531884478024,67.46013704671338L182.674342837068,70.66647469288935L182.85183332261357,52.327551437663246L183.10413811165944,91.1009761412651L183.3048468293258,1.7144775608359168L183.5215503291198,55.049729296057606L183.83473848239353,40.297633239152276L184.14379894995687,50.5390749782801L184.60919551380022,72.7436622828609L184.76862737436295,28.11504199527053L184.97655954202244,48.63524016256946L185.19274708110265,18.592230534759636L185.33876396310671,82.55601904688915L185.50593523437638,21.71453010818513L185.76701135555678,83.50784915757748L185.80416052695,38.51228007841013L185.94295395896094,75.41520778440422L185.9991936767646,99.64640852021684L186.18081184802054,63.44181935135836L186.240147330107,62.59814073087868L186.27574861935886,92.41030755012565L186.29019551934513,84.77760585073837L186.5110267048495,40.329642200379965L187.02956722221373,40.09977906002439L187.3494628647668,61.925933145727114L187.3706172540324,63.74283938249157L187.61724647522655,78.07943972329127L188.01814794984546,61.47323913680084L188.21679282465664,83.09343010653133L188.40924617090224,79.09702884993203L189.0887664309706,-12.695879186380523L189.2420067629678,70.73947452385889L189.9447452551569,94.99849395688392L190.20530541562354,68.64380903354228L190.20582137633733,74.68317254081256L190.46689749751772,65.8874203853752L190.8074315686226,96.6902063565073L190.9813103291716,85.73089576405239L191.12784317188945,107.90068544790462L191.4570261072908,16.981840296024984L191.80220382481983,83.82165337383131L191.96266760681016,89.56986142983764L191.97659854608264,61.4105500712207L192.05450861386572,79.99790166431444L192.1220994673729,92.02064209576223L192.3604733171463,67.75810167700214L192.4048459385327,20.002477468654348L192.63754422045437,57.38846889800011L192.6726295489924,56.69290447083756L192.89862034163477,78.49927119869047L193.24895766630172,91.42010548470498L193.2520534305845,60.86358482163632L193.26701629128456,38.98309309932833L193.8598551514353,80.26127721710685L194.25043741177834,27.549957733694242L194.25508105820248,3.810220648634271L194.4263800151825,90.4316008641979L195.45004607135226,12.856001590000659L195.46449297133853,92.3372543708874L195.54395092126302,73.69388224580263L195.8819051887989,6.634225802473509L197.0252741305692,93.52795377965855L197.04900832340374,52.5444945973051L197.05571581268313,-25.610137085815524L197.6980869013582,98.53150730160134L197.74142760131699,43.787870972047244L198.44003840779578,79.46620856910974L198.45551722920962,7.4680592424543875L198.55251784340314,93.72046343222995L198.8404239217009,18.343307512945785L198.89872748235973,72.35991363648199L199.78566394937377,26.301841038260307L200.3392897952761,24.68174141461995L200.523487770101,13.33170325226996L200.72110072348457,82.54093603637125L200.94296383041655,19.887381003827812L202.59713387884412,95.20162476477178L202.6322192073822,21.661705622474244L202.63479901095118,63.20020019251554L202.92992853924207,-69.6534783672005L203.4696234458719,73.72012959400932L204.7301154696737,50.74934475449024L205.36474714764188,10.101145492098397L205.44678490113532,55.88871326889057L205.48754579752514,59.21293118955134L205.50508846179417,26.682204494497284L205.70424929731917,9.621932543779252L205.82034045792307,24.98254805267831L206.11701786835533,55.766051049592036L206.32752983958383,80.44195325370924L206.60769650717464,59.76861645614896L206.66754794997487,89.49095449056881L206.83523518195832,0.0921373099095888L207.01427354964528,35.966073909286195L207.38782910643303,24.869352726154972L207.43065384567805,96.31768024592851L207.65251695261,69.59959661580058L207.85374163099016,67.45109694008788L208.01523733440808,-5.413588315269266L208.67205532306943,78.5014148291242L208.89701419428417,65.05389733532138L208.91146109427044,45.29211755541391L209.20504274041994,49.09777935199455L209.9794997718266,74.30924967556201L210.72661088540212,34.169973497319745L210.9355749744892,66.99762695634396L211.12751236002103,6.885137259757585L211.44328031686376,32.37818944527638L211.59600468814716,62.860284423648096L212.02734784487996,71.78321400185415L212.175944530453,-47.10413515082723L212.241471541105,13.642956451310823L212.2739770660741,36.05243020680439L212.48655288015775,27.713504126197222L213.5700703791278,90.83072351165133L213.85900837885313,109.93384616666029L214.1004779929093,55.411372359818984L214.20160629281315,78.64348126870635L214.30789419985499,97.54699895140512L214.4585547282832,79.09472517469216L214.60250776743206,79.591300559556L214.94252587782313,71.697056547883L215.18915509901728,71.35206784364522L215.2644853632314,54.56770343902451L215.27686842036246,9.457493780236007L215.35271464529038,86.47862024848821L215.39863514881813,55.49678778787077L215.68447738426073,12.062974725742464L215.84236136268206,4.580084664585911L216.38669991573607,109.20541920597066L216.61785031551634,60.38774736377391L216.66635062261307,61.055270000963986L216.8510645581518,84.05027495447867L216.95167689734186,79.57196908691154L217.0889224472114,75.87167497088126L217.60746296457566,14.552030349547152L217.8943371214458,14.165129305471567L218.11465234623637,70.91432104964375L218.25705750324386,77.70631708207142L218.36489329242707,82.7171502177722L218.7286455956527,0.6857095469785008L218.73432116350446,68.12545785535839L219.23686689874103,70.95661167720516L219.2951704593999,54.26039801186843L219.59649151625632,58.39881720962377L219.72393381256376,77.72472223477733L219.91225947309903,82.25171082246618L219.9906855015959,46.276024525126445L220.086138233648,90.41756056984123L220.6242852581365,76.8893465448464L220.70013148306438,68.97086301980733L220.73263700803346,-59.25877190190346L220.8734942828996,23.937591264187887L220.93231380427224,41.787563087133464L221.13611828622138,106.26198667785393L221.31515665390833,63.23442068197349L221.48851945374352,27.497269043576466L221.71605812852724,61.49726525709204L222.5446910348824,-7.9199093787664765L223.07200288438116,56.56939837892486L223.56164960177287,57.62721695001767L223.67258115523884,11.65324062265779L224.16325979405812,59.32355609949123L224.44961799021448,25.98506871832899L224.58376777580125,69.40828972419654L224.8071787648746,95.50121894217757L225.03110571466172,0.24105657710003925L225.09198907888958,-47.655174268204235L225.45367753926004,-7.930375339119394L225.78956796394075,84.69349018050613L225.9237177495275,-53.693577506637666L226.00885126730373,81.10341358763648L226.1435170136043,57.44438758329635L226.14867662074226,93.06149591740437L226.70385034878595,18.148964619867712L227.1764703626224,63.08262060827256L227.33332241961617,35.075342115801845L227.40142923383712,68.77496817709398L228.67894796119415,89.45918317162905L228.77233685039113,57.14625805835884L228.83270425390515,91.61921092322632L228.8724332288674,80.3592537375192L229.2418610999448,70.02007797010957L229.53957043180466,45.683121566337746L230.0457278920378,74.26144477695276L230.0911324348518,27.320191590190888L230.95278682688985,83.69006744412992L231.1756818552494,56.717793863113386L231.48577424424036,47.560194950525016L232.2179224971158,40.20738736786069L232.84326688223567,79.52383924884738L232.88247989648409,60.629812708136896L233.3050517210824,69.88434057513379L233.61772391364232,42.91087393283513L233.85661372412955,23.11757017596102L234.09653545604434,55.96601976009801L234.27866958801405,-8.572310206697779L234.82197621964045,89.95031218324158L234.88389150529588,-39.287023036027676L235.1418718621935,70.13084837532774L235.3838574369635,82.59804293310698L235.92922791144505,30.26945847896775L236.1366441183908,41.69978093588787L236.25841084684646,85.71364487388772L236.2625385325568,87.69545060924341L236.52206677159583,55.18976365158608L236.97404835688047,63.426319254376L237.32541760297502,59.21461893477972L237.6638878312247,37.77666565097212L238.1659176057475,78.23179267904978L238.18346027001652,57.50956946797815L238.55340410180776,10.003595757835768L238.65143663742882,86.98400294753229L238.67981447668757,64.35638327142952L238.6865219659669,68.07151790584716L239.18236021192416,87.34525802388484L239.3294090153558,63.30846807894683L239.98932276829993,76.69539163917715L239.9919025718689,43.248025291414734L240.29219170729772,-15.152382666585197L240.74623713543755,2.7534108448043924L240.78596611039978,53.577336478955104L241.0341432137353,-41.41980922168318L241.25600632066727,40.428287999072495L241.60995537033082,103.22266306164727L241.654843952431,7.123565222162881L241.8173715772765,63.38730712041911L242.59234456939697,21.995219599096174L242.62072240865572,53.47217249179437L242.6537438943386,74.85548259891226L242.8049203834806,42.78926897922565L242.93029883693285,80.58648826318002L243.52004193280084,61.87582457187797L243.62220215413228,80.77498224607012L243.6841174397877,44.01690963915908L243.72436237546376,106.9112593573016L244.4162656926632,-9.67026607523303L244.50088324972563,49.597924221019525L244.96215212785856,69.35121677635907L245.08649865988323,65.39647081793925L245.09114230630738,80.72561084829773L245.4022666167259,70.4246033422308L245.457474413102,17.51642874726801L245.4791447630814,47.027197247658165L245.75724758781706,29.093100054795144L246.36917699437822,31.598063162361456L246.8397331653595,97.54460312915565L246.90113249030114,88.06484857133857L247.10648485439162,-9.402690558740147L247.60903058962822,75.29244856825348L248.26946030328614,89.17633550075647L248.6873884814603,46.057859205146826L248.8736502991404,56.838564643793916L248.8937727669784,71.47747022401855L249.02121506328584,-21.359599226596345L249.07281113466536,25.735049632085207L249.08209842751367,106.37851384625048L249.28848271303175,59.134674129192305L249.6656499948161,81.27380795790512L249.69351187336105,72.60899185325938L250.2280471728529,68.9389607551171L250.47364447261947,97.91539299607996L250.50872980115756,-15.581651935703945L250.807471054445,92.62962713264652L251.58399192870687,22.63823113173399L252.0437129246984,41.85594586793803L252.07518652823995,5.908087967495931L252.17063926029206,18.77698043915464L252.35483723511695,-15.208194655343988L252.47041243500712,105.40060613184681L252.5787641849041,89.8976816912351L253.09524085941314,106.07439961553195L253.11226756296838,48.16365116683363L253.86608616582325,83.70085349409513L254.0342893585205,103.12842092004482L254.1870137298039,75.24120028139093L254.45789310454643,31.266877110192468L254.53373932947432,93.9487552235798L254.54096277946746,84.03471665938497L254.721033068582,20.298550660325105L254.94599193979673,57.315614562308895L255.14154105032512,75.48685935912809L255.80042288184165,77.1422561372859L256.6987104845592,0.7271466022405093L256.9783611914362,54.487923528085844L257.2316979019097,81.77310895431594L257.25904381974084,93.57153446535428L257.7750045335361,55.76129820383399L258.022149715444,42.078330550988596L258.2207945902552,74.24467402120649L258.5499775256566,70.03483119132996L258.71353707192964,67.33451642342261L258.8899956360476,52.38231586041823L259.3063759320804,1.4027975756453657L259.7423627352374,103.79390177349596L259.75165002808575,51.22719974687851L260.36564327750204,75.20861418889264L261.2670266445024,21.112034160713364L261.5848584442002,-45.53470668277876L261.6230395370211,-3.4919836762346677L261.6751515691144,88.58431521332282L262.0977233937127,3.965619305552025L262.4583799326556,-29.01088552286612L262.4692151076453,93.38133818770797L262.6859186074393,61.31019712792934L262.87837195368496,69.44654528270621L263.1569907391344,88.00085004825368L263.48462579239435,57.89141697605385L264.1894281274387,69.81142804133124L264.3060352487564,64.81164769693922L264.47733420573644,-43.2853302807728L264.55782407708847,87.32652308188142L264.6125159127508,7.128395665402678L264.66978755198204,82.58852269206307L266.0195407792704,79.51621529626406L266.45501162171365,-9.37794666174264L266.5138311430863,55.434661304033426L266.62940634297644,110.20998650520289L266.75014115000454,-8.700821336184276L266.86623231060844,38.19091980736951L266.8713919177464,90.29965604614335L267.07984004611967,55.44359471412152L267.5710346456528,19.45749095485496L267.6995088633878,101.9170660315966L267.71240788123265,54.20612827305969L267.85532899895395,64.1340664861755L267.9187921667508,65.98127453956882L268.24539529858316,15.681442297252516L268.56064729471206,69.18587594209032L268.78147848021644,49.28805807696523L268.94194226220674,86.76129817486945L269.01830444784844,85.43317847573677L269.0255278978416,94.35518173400425L269.0657728335176,90.4230360421482L270.76173569976265,60.62739748651698L270.90001317105975,95.29156509597892L270.9149760317598,72.01604039604457L270.97173171027725,73.69800461202135L271.718326863139,13.75888708906632L271.9118121308122,67.05142141057689L272.70226394434656,82.01309856604172L272.91122803343364,82.21906653185657L273.65059973630224,-10.182263959597492L273.74966419335095,100.01291112627368L273.7764941504683,78.69368198956509L274.09226210731094,68.36140269834722L274.6830371246065,97.67677588981289L274.78055369951386,12.296737139556654L275.67987322365894,60.29524146582594L275.7211500807626,46.71510017600315L275.96365161624635,50.28729054932617L276.55855431925227,90.86387703573502L276.83407734041896,86.9282006584587L277.4578738433974,65.39833315750158L277.9815739678996,99.26240768202219L278.09353744279315,68.28576455299772L278.1642240605831,10.69429094301762L278.2153041712488,9.144475238485029L278.61826948872294,81.77038819261158" fill="none"></path></g></g></g></g></g></g><g transform="translate(41, 177)" clip-path="url(#clip_1)"><clipPath id="clip_1"><rect width="288" height="22"></rect></clipPath><g><g><line x1="0" y1="0" x2="0" y2="5" style="visibility: inherit;" fill="rgb(0, 0, 0)" stroke="rgb(204, 204, 204)" stroke-width="1px"></line><line x1="20.638428551810126" y1="0" x2="20.638428551810126" y2="5" style="visibility: inherit;" fill="rgb(0, 0, 0)" stroke="rgb(204, 204, 204)" stroke-width="1px"></line><line x1="41.27685710362025" y1="0" x2="41.27685710362025" y2="5" style="visibility: inherit;" fill="rgb(0, 0, 0)" stroke="rgb(204, 204, 204)" stroke-width="1px"></line><line x1="61.91528565543038" y1="0" x2="61.91528565543038" y2="5" style="visibility: inherit;" fill="rgb(0, 0, 0)" stroke="rgb(204, 204, 204)" stroke-width="1px"></line><line x1="82.5537142072405" y1="0" x2="82.5537142072405" y2="5" style="visibility: inherit;" fill="rgb(0, 0, 0)" stroke="rgb(204, 204, 204)" stroke-width="1px"></line><line x1="103.19214275905064" y1="0" x2="103.19214275905064" y2="5" style="visibility: inherit;" fill="rgb(0, 0, 0)" stroke="rgb(204, 204, 204)" stroke-width="1px"></line><line x1="123.83057131086076" y1="0" x2="123.83057131086076" y2="5" style="visibility: inherit;" fill="rgb(0, 0, 0)" stroke="rgb(204, 204, 204)" stroke-width="1px"></line><line x1="144.4689998626709" y1="0" x2="144.4689998626709" y2="5" style="visibility: inherit;" fill="rgb(0, 0, 0)" stroke="rgb(204, 204, 204)" stroke-width="1px"></line><line x1="165.107428414481" y1="0" x2="165.107428414481" y2="5" style="visibility: inherit;" fill="rgb(0, 0, 0)" stroke="rgb(204, 204, 204)" stroke-width="1px"></line><line x1="185.74585696629117" y1="0" x2="185.74585696629117" y2="5" style="visibility: inherit;" fill="rgb(0, 0, 0)" stroke="rgb(204, 204, 204)" stroke-width="1px"></line><line x1="206.38428551810128" y1="0" x2="206.38428551810128" y2="5" style="visibility: inherit;" fill="rgb(0, 0, 0)" stroke="rgb(204, 204, 204)" stroke-width="1px"></line><line x1="227.02271406991142" y1="0" x2="227.02271406991142" y2="5" style="visibility: inherit;" fill="rgb(0, 0, 0)" stroke="rgb(204, 204, 204)" stroke-width="1px"></line><line x1="247.66114262172152" y1="0" x2="247.66114262172152" y2="5" style="visibility: inherit;" fill="rgb(0, 0, 0)" stroke="rgb(204, 204, 204)" stroke-width="1px"></line><line x1="268.29957117353166" y1="0" x2="268.29957117353166" y2="5" style="visibility: inherit;" fill="rgb(0, 0, 0)" stroke="rgb(204, 204, 204)" stroke-width="1px"></line><line x1="288.9379997253418" y1="0" x2="288.9379997253418" y2="5" style="visibility: inherit;" fill="rgb(0, 0, 0)" stroke="rgb(204, 204, 204)" stroke-width="1px"></line></g><g transform="translate(0, 8)"><text style="text-anchor: middle; visibility: hidden; font-family: &quot;Helvetica Neue&quot;, sans-serif; font-size: 12px; font-weight: 200;" x="0" y="0" dx="0em" dy="0.95em" fill="rgb(50, 49, 63)" stroke="none" stroke-width="1px">-1M</text><text style="text-anchor: middle; visibility: inherit; font-family: &quot;Helvetica Neue&quot;, sans-serif; font-size: 12px; font-weight: 200;" x="20.638428551810126" y="0" dx="0em" dy="0.95em" fill="rgb(50, 49, 63)" stroke="none" stroke-width="1px">0</text><text style="text-anchor: middle; visibility: hidden; font-family: &quot;Helvetica Neue&quot;, sans-serif; font-size: 12px; font-weight: 200;" x="41.27685710362025" y="0" dx="0em" dy="0.95em" fill="rgb(50, 49, 63)" stroke="none" stroke-width="1px">1M</text><text style="text-anchor: middle; visibility: inherit; font-family: &quot;Helvetica Neue&quot;, sans-serif; font-size: 12px; font-weight: 200;" x="61.91528565543038" y="0" dx="0em" dy="0.95em" fill="rgb(50, 49, 63)" stroke="none" stroke-width="1px">2M</text><text style="text-anchor: middle; visibility: hidden; font-family: &quot;Helvetica Neue&quot;, sans-serif; font-size: 12px; font-weight: 200;" x="82.5537142072405" y="0" dx="0em" dy="0.95em" fill="rgb(50, 49, 63)" stroke="none" stroke-width="1px">3M</text><text style="text-anchor: middle; visibility: inherit; font-family: &quot;Helvetica Neue&quot;, sans-serif; font-size: 12px; font-weight: 200;" x="103.19214275905064" y="0" dx="0em" dy="0.95em" fill="rgb(50, 49, 63)" stroke="none" stroke-width="1px">4M</text><text style="text-anchor: middle; visibility: hidden; font-family: &quot;Helvetica Neue&quot;, sans-serif; font-size: 12px; font-weight: 200;" x="123.83057131086076" y="0" dx="0em" dy="0.95em" fill="rgb(50, 49, 63)" stroke="none" stroke-width="1px">5M</text><text style="text-anchor: middle; visibility: inherit; font-family: &quot;Helvetica Neue&quot;, sans-serif; font-size: 12px; font-weight: 200;" x="144.4689998626709" y="0" dx="0em" dy="0.95em" fill="rgb(50, 49, 63)" stroke="none" stroke-width="1px">6M</text><text style="text-anchor: middle; visibility: hidden; font-family: &quot;Helvetica Neue&quot;, sans-serif; font-size: 12px; font-weight: 200;" x="165.107428414481" y="0" dx="0em" dy="0.95em" fill="rgb(50, 49, 63)" stroke="none" stroke-width="1px">7M</text><text style="text-anchor: middle; visibility: inherit; font-family: &quot;Helvetica Neue&quot;, sans-serif; font-size: 12px; font-weight: 200;" x="185.74585696629117" y="0" dx="0em" dy="0.95em" fill="rgb(50, 49, 63)" stroke="none" stroke-width="1px">8M</text><text style="text-anchor: middle; visibility: hidden; font-family: &quot;Helvetica Neue&quot;, sans-serif; font-size: 12px; font-weight: 200;" x="206.38428551810128" y="0" dx="0em" dy="0.95em" fill="rgb(50, 49, 63)" stroke="none" stroke-width="1px">9M</text><text style="text-anchor: middle; visibility: inherit; font-family: &quot;Helvetica Neue&quot;, sans-serif; font-size: 12px; font-weight: 200;" x="227.02271406991142" y="0" dx="0em" dy="0.95em" fill="rgb(50, 49, 63)" stroke="none" stroke-width="1px">10M</text><text style="text-anchor: middle; visibility: hidden; font-family: &quot;Helvetica Neue&quot;, sans-serif; font-size: 12px; font-weight: 200;" x="247.66114262172152" y="0" dx="0em" dy="0.95em" fill="rgb(50, 49, 63)" stroke="none" stroke-width="1px">11M</text><text style="text-anchor: middle; visibility: inherit; font-family: &quot;Helvetica Neue&quot;, sans-serif; font-size: 12px; font-weight: 200;" x="268.29957117353166" y="0" dx="0em" dy="0.95em" fill="rgb(50, 49, 63)" stroke="none" stroke-width="1px">12M</text><text style="text-anchor: middle; visibility: hidden; font-family: &quot;Helvetica Neue&quot;, sans-serif; font-size: 12px; font-weight: 200;" x="288.9379997253418" y="0" dx="0em" dy="0.95em" fill="rgb(50, 49, 63)" stroke="none" stroke-width="1px">13M</text></g><line x1="0" y1="0" x2="288.9379997253418" y2="0" fill="rgb(0, 0, 0)" stroke="rgb(204, 204, 204)" stroke-width="1px"></line></g></g></g></g></svg>