<svg viewBox="0 0 330 200" xmlns="http://www.w3.org/2000/svg"><g><g><g><g><g><line x1="72.1240005493164" y1="177.98999977111816" x2="67.1240005493164" y2="177.98999977111816" style="visibility: inherit;" fill="rgb(0, 0, 0)" stroke="rgb(204, 204, 204)" stroke-width="1px"></line><line x1="72.1240005493164" y1="160.19099979400636" x2="67.1240005493164" y2="160.19099979400636" style="visibility: inherit;" fill="rgb(0, 0, 0)" stroke="rgb(204, 204, 204)" stroke-width="1px"></line><line x1="72.1240005493164" y1="142.39199981689453" x2="67.1240005493164" y2="142.39199981689453" style="visibility: inherit;" fill="rgb(0, 0, 0)" stroke="rgb(204, 204, 204)" stroke-width="1px"></line><line x1="72.1240005493164" y1="124.59299983978272" x2="67.1240005493164" y2="124.59299983978272" style="visibility: inherit;" fill="rgb(0, 0, 0)" stroke="rgb(204, 204, 204)" stroke-width="1px"></line><line x1="72.1240005493164" y1="106.7939998626709" x2="67.1240005493164" y2="106.7939998626709" style="visibility: inherit;" fill="rgb(0, 0, 0)" stroke="rgb(204, 204, 204)" stroke-width="1px"></line><line x1="72.1240005493164" y1="88.99499988555908" x2="67.1240005493164" y2="88.99499988555908" style="visibility: inherit;" fill="rgb(0, 0, 0)" stroke="rgb(204, 204, 204)" stroke-width="1px"></line><line x1="72.1240005493164" y1="71.19599990844726" x2="67.1240005493164" y2="71.19599990844726" style="visibility: inherit;" fill="rgb(0, 0, 0)" stroke="rgb(204, 204, 204)" stroke-width="1px"></line><line x1="72.1240005493164" y1="53.39699993133546" x2="67.1240005493164" y2="53.39699993133546" style="visibility: inherit;" fill="rgb(0, 0, 0)" stroke="rgb(204, 204, 204)" stroke-width="1px"></line><line x1="72.1240005493164" y1="35.59799995422364" x2="67.1240005493164" y2="35.59799995422364" style="visibility: inherit;" fill="rgb(0, 0, 0)" stroke="rgb(204, 204, 204)" stroke-width="1px"></line><line x1="72.1240005493164" y1="17.798999977111805" x2="67.1240005493164" y2="17.798999977111805" style="visibility: inherit;" fill="rgb(0, 0, 0)" stroke="rgb(204, 204, 204)" stroke-width="1px"></line><line x1="72.1240005493164" y1="0" x2="67.1240005493164" y2="0" style="visibility: inherit;" fill="rgb(0, 0, 0)" stroke="rgb(204, 204, 204)" stroke-width="1px"></line></g><g transform="translate(62.124000549316406, 0)"><text style="text-anchor: end; visibility: hidden; font-family: &quot;Helvetica Neue&quot;, sans-serif; font-size: 12px; font-weight: 200;" x="0" y="177.98999977111816" dx="0em" dy="0.3em" fill="rgb(50, 49, 63)" stroke="none" stroke-width="1px">-500</text><text style="text-anchor: end; visibility: inherit; font-family: &quot;Helvetica Neue&quot;, sans-serif; font-size: 12px; font-weight: 200;" x="0" y="160.19099979400636" dx="0em" dy="0.3em" fill="rgb(50, 49, 63)" stroke="none" stroke-width="1px">0</text><text style="text-anchor: end; visibility: hidden; font-family: &quot;Helvetica Neue&quot;, sans-serif; font-size: 12px; font-weight: 200;" x="0" y="142.39199981689453" dx="0em" dy="0.3em" fill="rgb(50, 49, 63)" stroke="none" stroke-width="1px">500</text><text style="text-anchor: end; visibility: inherit; font-family: &quot;Helvetica Neue&quot;, sans-serif; font-size: 12px; font-weight: 200;" x="0" y="124.59299983978272" dx="0em" dy="0.3em" fill="rgb(50, 49, 63)" stroke="none" stroke-width="1px">1e+3</text><text style="text-anchor: end; visibility: hidden; font-family: &quot;Helvetica Neue&quot;, sans-serif; font-size: 12px; font-weight: 200;" x="0" y="106.7939998626709" dx="0em" dy="0.3em" fill="rgb(50, 49, 63)" stroke="none" stroke-width="1px">1.5e+3</text><text style="text-anchor: end; visibility: inherit; font-family: &quot;Helvetica Neue&quot;, sans-serif; font-size: 12px; font-weight: 200;" x="0" y="88.99499988555908" dx="0em" dy="0.3em" fill="rgb(50, 49, 63)" stroke="none" stroke-width="1px">2e+3</text><text style="text-anchor: end; visibility: hidden; font-family: &quot;Helvetica Neue&quot;, sans-serif; font-size: 12px; font-weight: 200;" x="0" y="71.19599990844726" dx="0em" dy="0.3em" fill="rgb(50, 49, 63)" stroke="none" stroke-width="1px">2.5e+3</text><text style="text-anchor: end; visibility: inherit; font-family: &quot;Helvetica Neue&quot;, sans-serif; font-size: 12px; font-weight: 200;" x="0" y="53.39699993133546" dx="0em" dy="0.3em" fill="rgb(50, 49, 63)" stroke="none" stroke-width="1px">3e+3</text><text style="text-anchor: end; visibility: hidden; font-family: &quot;Helvetica Neue&quot;, sans-serif; font-size: 12px; font-weight: 200;" x="0" y="35.59799995422364" dx="0em" dy="0.3em" fill="rgb(50, 49, 63)" stroke="none" stroke-width="1px">3.5e+3</text><text style="text-anchor: end; visibility: inherit; font-family: &quot;Helvetica Neue&quot;, sans-serif; font-size: 12px; font-weight: 200;" x="0" y="17.798999977111805" dx="0em" dy="0.3em" fill="rgb(50, 49, 63)" stroke="none" stroke-width="1px">4e+3</text><text style="text-anchor: end; visibility: hidden; font-family: &quot;Helvetica Neue&quot;, sans-serif; font-size: 12px; font-weight: 200;" x="0" y="0" dx="0em" dy="0.3em" fill="rgb(50, 49, 63)" stroke="none" stroke-width="1px">4.5e+3</text></g><line x1="72.1240005493164" y1="0" x2="72.1240005493164" y2="177.98999977111816" fill="rgb(0, 0, 0)" stroke="rgb(204, 204, 204)" stroke-width="1px"></line></g></g><g transform="translate(72, 0)" clip-path="url(#clip_0)"><clipPath id="clip_0"><rect width="257" height="177"></rect></clipPath><g><g><g><line x1="0" y1="0" x2="0" y2="177.98999977111816" fill="rgb(0, 0, 0)" stroke="rgb(60, 60, 60)" stroke-width="1px" opacity="0.25"></line><line x1="18.419714246477398" y1="0" x2="18.419714246477398" y2="177.98999977111816" fill="rgb(0, 0, 0)" stroke="rgb(60, 60, 60)" stroke-width="1px" opacity="0.25"></line><line x1="36.839428492954795" y1="0" x2="36.839428492954795" y2="177.98999977111816" fill="rgb(0, 0, 0)" stroke="rgb(60, 60, 60)" stroke-width="1px" opacity="0.25"></line><line x1="55.25914273943219" y1="0" x2="55.25914273943219" y2="177.98999977111816" fill="rgb(0, 0, 0)" stroke="rgb(60, 60, 60)" stroke-width="1px" opacity="0.25"></line><line x1="73.67885698590959" y1="0" x2="73.67885698590959" y2="177.98999977111816" fill="rgb(0, 0, 0)" stroke="rgb(60, 60, 60)" stroke-width="1px" opacity="0.25"></line><line x1="92.098571232387" y1="0" x2="92.098571232387" y2="177.98999977111816" fill="rgb(0, 0, 0)" stroke="rgb(60, 60, 60)" stroke-width="1px" opacity="0.25"></line><line x1="110.51828547886439" y1="0" x2="110.51828547886439" y2="177.98999977111816" fill="rgb(0, 0, 0)" stroke="rgb(60, 60, 60)" stroke-width="1px" opacity="0.25"></line><line x1="128.9379997253418" y1="0" x2="128.9379997253418" y2="177.98999977111816" fill="rgb(0, 0, 0)" stroke="rgb(60, 60, 60)" stroke-width="1px" opacity="0.25"></line><line x1="147.35771397181918" y1="0" x2="147.35771397181918" y2="177.98999977111816" fill="rgb(0, 0, 0)" stroke="rgb(60, 60, 60)" stroke-width="1px" opacity="0.25"></line><line x1="165.77742821829662" y1="0" x2="165.77742821829662" y2="177.98999977111816" fill="rgb(0, 0, 0)" stroke="rgb(60, 60, 60)" stroke-width="1px" opacity="0.25"></line><line x1="184.197142464774" y1="0" x2="184.197142464774" y2="177.98999977111816" fill="rgb(0, 0, 0)" stroke="rgb(60, 60, 60)" stroke-width="1px" opacity="0.25"></line><line x1="202.6168567112514" y1="0" x2="202.6168567112514" y2="177.98999977111816" fill="rgb(0, 0, 0)" stroke="rgb(60, 60, 60)" stroke-width="1px" opacity="0.25"></line><line x1="221.03657095772877" y1="0" x2="221.03657095772877" y2="177.98999977111816" fill="rgb(0, 0, 0)" stroke="rgb(60, 60, 60)" stroke-width="1px" opacity="0.25"></line><line x1="239.4562852042062" y1="0" x2="239.4562852042062" y2="177.98999977111816" fill="rgb(0, 0, 0)" stroke="rgb(60, 60, 60)" stroke-width="1px" opacity="0.25"></line><line x1="257.8759994506836" y1="0" x2="257.8759994506836" y2="177.98999977111816" fill="rgb(0, 0, 0)" stroke="rgb(60, 60, 60)" stroke-width="1px" opacity="0.25"></line></g><g><line x1="0" y1="177.98999977111816" x2="257.8759994506836" y2="177.98999977111816" fill="rgb(0, 0, 0)" stroke="rgb(60, 60, 60)" stroke-width="1px" opacity="0.25"></line><line x1="0" y1="160.19099979400636" x2="257.8759994506836" y2="160.19099979400636" fill="rgb(0, 0, 0)" stroke="rgb(60, 60, 60)" stroke-width="1px" opacity="0.25"></line><line x1="0" y1="142.39199981689453" x2="257.8759994506836" y2="142.39199981689453" fill="rgb(0, 0, 0)" stroke="rgb(60, 60, 60)" stroke-width="1px" opacity="0.25"></line><line x1="0" y1="124.59299983978272" x2="257.8759994506836" y2="124.59299983978272" fill="rgb(0, 0, 0)" stroke="rgb(60, 60, 60)" stroke-width="1px" opacity="0.25"></line><line x1="0" y1="106.7939998626709" x2="257.8759994506836" y2="106.7939998626709" fill="rgb(0, 0, 0)" stroke="rgb(60, 60, 60)" stroke-width="1px" opacity="0.25"></line><line x1="0" y1="88.99499988555908" x2="257.8759994506836" y2="88.99499988555908" fill="rgb(0, 0, 0)" stroke="rgb(60, 60, 60)" stroke-width="1px" opacity="0.25"></line><line x1="0" y1="71.19599990844726" x2="257.8759994506836" y2="71.19599990844726" fill="rgb(0, 0, 0)" stroke="rgb(60, 60, 60)" stroke-width="1px" opacity="0.25"></line><line x1="0" y1="53.39699993133546" x2="257.8759994506836" y2="53.39699993133546" fill="rgb(0, 0, 0)" stroke="rgb(60, 60, 60)" stroke-width="1px" opacity="0.25"></line><line x1="0" y1="35.59799995422364" x2="257.8759994506836" y2="35.59799995422364" fill="rgb(0, 0, 0)" stroke="rgb(60, 60, 60)" stroke-width="1px" opacity="0.25"></line><line x1="0" y1="17.798999977111805" x2="257.8759994506836" y2="17.798999977111805" fill="rgb(0, 0, 0)" stroke="rgb(60, 60, 60)" stroke-width="1px" opacity="0.25"></line><line x1="0" y1="0" x2="257.8759994506836" y2="0" fill="rgb(0, 0, 0)" stroke="rgb(60, 60, 60)" stroke-width="1px" opacity="0.25"></line></g></g></g><g><g><line x1="0" y1="160.19099979400636" x2="257.8759994506836" y2="160.19099979400636" fill="rgb(0, 0, 0)" stroke="rgb(153, 153, 153)" stroke-width="1.5px"></line></g></g><g><g><line x1="18.419714246477398" y1="0" x2="18.419714246477398" y2="177.98999977111816" fill="rgb(0, 0, 0)" stroke="rgb(153, 153, 153)" stroke-width="1.5px"></line></g></g><g><g><g><g><g><path style="fill: none;" stroke="rgb(0, 119, 187)" stroke-width="2px" d="M18.544047317641123,159.47294596768208L18.77429374572209,158.5209864049948L18.88849597405025,157.81924529588133L18.897705831173486,157.97709517965052L18.96954271673475,157.69306647510547L19.339778973088947,155.07811592091196L19.453981201417104,154.82207876196995L19.53318597267696,153.825812220557L19.54607977264949,153.78087148379836L19.634494401032583,153.0910515982108L19.658440029553006,153.22716875526234L19.7818521150044,152.72620740553424L19.954997428921292,151.24710659652314L20.334443542398724,148.84479781836234L20.922032426861357,146.26162234658645L20.929400312559945,145.9421289933596L21.017814940943037,146.11647858487123L21.03070874091557,146.62976094035133L21.11175548360007,145.62149278442132L21.581458196885247,142.8981425832725L21.660662968145097,142.87758095774961L21.666188882419043,144.6151561850074L21.924064881869725,141.27320708456858L21.997743738855633,141.9147684754672L22.216938338388715,138.97560431323112L22.517179680606297,138.98088187316085L22.716112594468253,138.76001740237552L22.867154251289367,135.76026885105722L23.04398350805555,138.05441698250652L23.045825479480197,136.0418567656121L23.06792913657597,135.05846201687666L23.412377792985097,137.00558179428003L24.062593705885753,133.28162339501606L24.416252219418116,131.77030535313625L24.44572376221248,130.32780851783298L24.5544000762667,132.18607017730864L25.13093713218144,130.38826906133434L25.134621075030736,128.75314237496042L25.22671964626312,129.80238386360142L25.35749961741311,130.71119315442496L25.4919635314124,128.7803536390856L25.50485733138493,128.02583856022187L25.753523473712377,127.95446874195426L26.41847515801021,126.49871173857721L26.57135878625597,127.33324627180585L26.740820157323565,125.59872155675114L26.772133671542576,125.48509214991485L27.07974289945875,124.35136190234931L27.286043699019295,126.60663990323337L27.62312446972983,121.59466356263249L27.923365811947413,122.01556037385883L28.312021782548086,121.37201528093638L28.337809382493155,122.88722033587271L29.00828698106493,121.49118949342962L29.268004951940263,119.54529730818774L29.34720972320012,120.30549624739572L29.500093351445877,121.22437396667311L29.886907350621904,118.05135023857565L29.92190480769021,120.33970804593572L30.050842807415556,122.32786851066425L30.57580466344016,118.66246951659839L30.806051091521127,118.35364643789396L30.8281547486169,116.43812466545481L31.091556662341528,115.57794106060393L31.297857461902073,116.52294367926177L31.645990061160497,113.19254046332958L32.06411757455553,112.24198434809684L32.20779134567806,114.22193189535545L32.213317259952,112.75271483279164L32.30173188833509,112.20188879809956L32.830377687208994,113.05051782752587L32.89484668707166,110.39076233216683L33.18587817216601,110.60876097275563L33.32402602901459,110.24412481892766L33.534010771424434,109.95723761714814L33.60953159983499,108.35467145490227L33.87109154213496,110.43077097298452L34.11975768446241,109.87918013751218L34.13817739870889,110.58267518250598L34.30948074120113,104.97760235499688L34.819706825828554,108.84579957414377L34.924699197033476,107.07957039037986L35.03153353966304,107.79300350005813L35.52333991004399,108.69496869299006L35.906469966370715,106.00200520011512L36.06487950889043,103.88443262153933L36.08882513741085,104.31598884364064L36.330123394039695,103.21016078817789L36.59720925061362,104.28058204388148L36.71509542179108,99.52898343256004L37.394782877486094,99.43545177350063L37.40767667745863,100.4420903823136L37.62134536271777,101.32135489754035L37.76870307668958,98.89101356350737L37.847907847949436,97.98112225339813L38.004475419044496,101.83411905703723L38.323136475508555,99.59659008335201L38.547856989315584,95.72091867476162L38.55338290358952,96.11590351409744L38.66574316049304,100.43089213452525L38.680478931890214,98.66650107990937L38.765209617424006,97.55482838212015L38.91625127424513,97.94090068509048L39.50015621585846,95.22531473277196L39.59778070136479,91.14907431955668L39.70829898684365,94.29854131453014L39.77092601528168,94.38972208028203L39.99012061481476,95.47452680520541L40.12642650023869,96.12907460026214L40.513240499414714,94.52522652761755L40.52245035653795,93.66547746866452L40.872424927221026,91.7848410409071L41.10451332672664,92.05994335793615L41.80630443951743,87.34316490941173L42.18575055299486,86.3342492800939L42.47494006666456,89.08390363080609L42.52467329513005,90.16871704664743L43.418029436084204,84.22304279892202L43.511969978741234,87.89085352272112L43.554335321508134,80.8445874976024L43.9043098921912,82.35947533403326L44.401642176846096,85.14961632605082L44.661360147721425,82.6204288366274L44.79582406172071,75.75894041820466L44.876870804405215,87.83985956160505L45.07764568969181,81.91332706068121L45.42946223179954,77.95755146127586L45.484721374538964,76.37044209661754L45.68918020267486,76.84855556621757L45.86232551659175,78.41780509447307L46.9675083713804,74.81057006883826L47.03013539981842,76.34831501949755L47.45931474176134,73.18920979650913L47.50352205595289,73.13410068574017L48.151895997428895,71.20276144261827L48.396878196907046,74.27706068817665L48.529500139481684,68.28599377595884L49.42838219470978,69.486383364259L49.51679682309287,71.52574202667557L49.90176885084425,69.4913371874948L49.958869965008326,67.9045928413907L50.36410367843083,66.2059442356649L50.40462704977308,67.57972632813659L50.78038922040122,68.47577735139839L50.80617682034629,66.6613396457238L50.85959399166107,67.75989774831505L52.452899273981366,65.45509237872028L53.67781027137212,62.703721571711455L53.77543475687845,60.53614579666677L54.442228412600926,65.72494538130293L54.64300329788753,60.55903767456701L54.668790897832594,61.533324341282906L54.810622697530476,65.00114835196025L55.02244941136496,60.9963299025203L55.29690315363747,59.31877415467751L55.40373749626705,62.5123823219575L55.42031523908888,63.16825113654379L55.56030506736211,61.195890760662124L55.75555403837476,60.299857119236236L55.770289809771945,60.2597137691902L55.90106978092194,59.776142403112814L56.11658043760573,59.948300796934404L56.29893560864585,58.03890612165536L56.300777580070495,59.47769628044972L56.37077249420711,60.45337349403883L56.741008750561306,57.22756547572604L56.74653466483525,62.25700838869216L56.83679126464298,58.148090123956365L56.88099857883453,61.96665351064755L57.29544214938028,58.21222909848326L57.41332832055773,63.14933969906811L57.57542180592673,60.02894382466275L57.73567331987108,60.88472982502711L57.86829526244572,61.18789511614116L58.11143549049922,59.824750707249535L58.71007620350974,58.603624588702615L59.44133885909489,58.909883846609574L59.52791151605334,56.6164635795392L59.59790643018995,60.77698851510705L59.64948163008009,58.50934551069885L59.859466372489926,59.17149785896848L60.5373118567603,59.1435913214067L61.08621934130532,61.86359660550663L61.1046390555518,61.69311555885085L61.1856857982363,57.48067107940446L61.233577055277145,60.29807548105492L61.35883111215319,58.98006300911699L61.496978969001766,57.18932543671271L61.61854908302852,57.853980769354095L61.82669185401372,58.88149930856014L62.066148139217916,59.25282746921546L62.086409824889046,57.11394910526667L62.123249253382006,57.985509121724036L62.55979648102352,60.54221205740116L62.94476850877489,56.598508143038856L63.193434651102336,55.95615370587659L63.197118593951636,57.98866392494263L63.267113508088244,57.79150176015712L63.30947885085515,57.10580571514042L63.81786296405792,59.8725681378521L63.998376163673406,57.82552670396102L64.01311193507058,60.46322030408476L64.33361496295929,58.57297172106627L64.39440001997266,55.24500196216219L64.5307059053966,55.80976388379922L64.98198890443528,58.32315128437578L65.12750464698247,56.24901156829297L65.23618096103668,54.94606914809346L66.01165093081339,54.90375306855803L66.07611993067606,56.709934402172934L66.21242581609998,59.41544323511961L66.47951167267391,55.302240347830775L66.64344712946755,53.57016647164011L66.91605890031542,54.37161685293373L67.2236681282316,53.95168907905966L67.8259927840914,55.87487624113737L67.82783475551605,57.93371994161484L67.88493586968012,55.99752247535466L68.46147292559486,51.869918737010096L68.48357658269065,54.072345093064655L68.49094446838923,55.05755624365324L68.49278643981388,55.511882670803374L68.70461315364838,55.673090507998424L69.130108552742,52.169034060355926L69.31062175235748,54.015784598996774L69.37509075222016,52.64321054412116L69.71953940862929,56.44705151579221L69.88715880827222,52.77835431836145L69.98294132235391,53.457662538679315L70.84866789193835,55.321117021634606L70.87261352045877,49.56706013303781L71.04207489152635,53.63210664392375L71.09549206284115,53.093504385339L71.82859668985094,51.808465256132095L71.87648794689179,54.479288635510116L71.99805806091854,56.17235767190718L72.25409208894456,51.43460803835113L72.36829431727273,53.71168937966125L72.75142437359946,54.16518147868747L72.78089591639383,53.66031736361403L72.91720180181777,50.1928583714909L73.00930037305014,52.05753827387822L73.41085014362335,54.67098421290032L73.73503711436135,53.84789344589235L73.78292837140219,51.334097572171785L73.8952886283057,49.1232323347804L74.04633028512681,52.68434465881437L74.17342631342751,51.669888569298564L74.32815191309793,46.750507441347196L74.59155382682256,51.94518208652269L74.85311376912253,52.12341543199662L75.02625908303942,49.668735182223486L75.0520466829845,54.08139233865849L76.31563908029284,51.54262745764582L76.38379202300482,53.51859456447987L76.84981079344068,53.44132361291908L77.18873353557586,53.75483109640264L77.29188393535614,53.44223615930461L77.30846167817796,52.4195932250728L77.41713799223218,52.33567372127446L77.7302731344223,53.23517503896542L77.79105819143568,53.630255478398794L78.21102767625536,52.71684000105775L78.40811861869267,52.32655694833696L78.61994533252717,56.55934686672204L78.81335233211517,52.86803590076565L79.05649256016868,49.48920688997384L79.07122833156585,52.24887752363216L79.31436855961937,51.66874136812818L79.53172118772778,50.50782592919134L79.58145441619328,50.128841069815394L79.58513835904259,50.66353241531924L79.75091578726087,53.67938523761295L79.87985378698622,49.88263605499529L79.94248081542423,54.39481291296249L79.99405601531437,49.65709804307829L80.5926967283249,49.50139155695038L80.60927447114672,54.0144461976313L80.63137812824249,49.33036298246327L80.6663755853108,47.70783812712784L80.69768909952981,52.41204081736767L80.7971555564608,52.52745620784424L80.81925921355656,51.865051822953845L80.86530849917276,50.11974167871382L80.93346144188473,52.491362825566426L81.1250264700481,49.956222057342075L81.16002392711638,49.44735142909019L81.3534309267044,49.80692946866685L81.76050661155156,48.723258908536934L81.79918801146916,48.56469311040098L82.06074795376914,49.405174404242075L82.19705383919307,48.23913132371027L82.53597658132826,48.34067600912658L83.54906086488451,50.84425136332902L83.58774226480212,48.10770726235583L83.60247803619929,48.243415946263354L83.63010760756902,47.18076871667279L83.82535657858166,52.08272455411925L83.99113400679997,48.7299682972002L84.35584434888023,48.781609731704094L84.36873814885276,52.41629936716687L84.49951812000275,47.22746501885885L84.69108314816611,49.87643073957358L84.72239666238512,50.60426035484859L84.84580874783651,49.73016259034759L85.23078077558789,48.38191441483525L85.28419794690268,47.0710111137866L85.93625583122798,45.85347434435619L85.99151497396741,47.67524718478694L86.19044788782938,47.836820040536196L86.28623040191106,46.81208259507659L86.34333151607512,48.35363416780132L86.44832388728005,46.33099683153509L86.99170545755115,48.05307615207451L87.45772422798701,48.65294938226015L87.52035125642504,46.64079329305076L88.02689339820317,47.35183205483173L88.23319419776372,43.030829319177286L88.8152571679524,48.108028826320265L89.2702241098404,46.07393686018594L89.29969565263475,44.64823522383571L89.78781808016642,51.48708380097895L90.00885465112414,49.25092799233104L90.26857262199947,53.73827489769347L90.312779936191,47.51868029778126L90.8487936207635,49.02436445209506L91.5966340191705,50.84001888628369L91.64820921906062,52.56839043142442L91.74214976171766,49.96559086690033L91.92082098990849,53.64621200376888L91.97792210407258,51.70537358731934L91.9871319611958,52.16242027179021L92.18238093220847,51.239496930203586L92.69076504541125,52.55498034501586L93.06652721603939,51.818529339126954L93.3372970154626,57.08786766047598L93.36676855825696,55.847100067344954L93.37413644395556,55.27840115987314L93.43492150096894,52.60632628830923L93.47176092946188,51.928052287228326L93.60622484346118,52.54315200567562L94.06119178534917,50.504488616695625L94.4369539559773,50.96226533827492L94.4866871844428,55.43143953418806L94.61562518416814,50.862667418481124L94.98033552624838,50.70437103880187L95.00980706904275,55.78894044437287L95.8534299815314,47.582254362640896L96.07630852391378,47.64011849440243L96.27892538062505,53.05633332923446L96.65837149410248,47.30816888301288L96.69152697974614,50.98439241539491L97.07834097892217,46.33756716551102L97.63645832059042,47.42303674565815L98.18352383371081,40.62693010303022L98.62559697562627,43.38685277330933L98.69006597548893,41.22869795333065L98.7895324324199,41.053228319767214L98.84847551800864,46.91095047776196L98.98109746058327,43.37253014051524L99.03083068904877,40.07494383079086L99.03819857474735,45.3493141936373L99.15424277450018,41.997896338083706L99.50053340233394,45.92154161379989L99.64789111630576,39.445434570369855L99.88182148723601,41.91255152374032L99.89471528720857,47.10031688913955L99.97576202989306,43.862063476311505L100.07338651539939,41.918939348439125L100.59098048572541,37.805075951385504L100.99068828487397,41.443102899343984L101.01647588481903,38.13700818093912L101.28908765566689,40.086754788295195L101.92640976859501,38.30772388237975L101.94298751141685,41.57218041284989L102.04061199692318,36.11577877338203L102.28927813925063,35.90471113986439L102.56741582437243,39.87280177001563L103.25815510861534,38.89795019363248L103.36314747982024,35.96202774379458L103.50866322236743,35.232633763287225L103.57497419365474,38.39711866449136L103.78311696463993,40.12643751968946L103.8125885074343,41.00347281446011L103.95810424998147,40.52637618226112L104.11651379250118,41.311522401466306L105.4832565895898,41.12301639096654L105.59377487506866,35.62902653133219L105.63061430356161,42.4472341783262L105.94006550290243,37.061750429392134L106.11689475966863,38.40846900334395L106.21451924517496,44.161900145847824L106.27162035933902,42.99967237829938L106.33793133062636,38.795727616615494L106.40976821618762,40.124942681800775L106.66396027278901,41.095935490610714L106.78368841539111,42.17142789694256L106.82605375815801,42.89290445119059L107.02130272917066,42.40458784390836L107.21470972875866,41.04656238569376L107.29944041429248,39.842261884312705L107.84282198456356,42.84273178182153L108.43593678330012,42.9319875092458L109.22430055304936,43.63856783011454L109.32376700998034,44.859441912040666L109.36981629559654,42.51802170509063L109.60190469510215,42.30448585087302L109.75110438049862,43.19772970763455L109.86346463740213,43.18085194496095L110.57630757874081,43.412308472007055L110.66840614997318,42.44673879600259L110.83970949246543,45.92702558303111L110.8691810352598,39.136263854947146L110.92444017799923,43.84261320192246L111.05890409199851,46.332065814443865L111.72385577629635,42.287860124820185L112.0738303469794,38.5572662096956L112.36854577492306,41.29608733117368L112.65405134574345,45.457959359024926L112.82535468823569,45.71468907549166L112.92666311659131,42.80051999330158L113.03718140207017,43.375067888558846L113.78870574332646,39.8632591420982L113.87712037170955,42.28893779864694L113.89185614310674,38.00813924946422L114.1644679139546,39.769379846320476L114.25104057091303,42.072803359960005L114.37261068493979,40.40240892851426L114.6857458271299,41.35878361331959L114.78705425548553,37.12604584044226L114.89941451238906,38.888259820109795L115.18860402605874,36.281618869848444L115.2217595117024,39.38707505628477L115.50542311109815,40.00725896173725L115.91802471021924,36.04709444876332L115.97880976723262,36.864449209919286L116.26063139520373,37.87954842736394L116.28826096657345,34.023996493845345L116.95321265087128,32.89989578337679L117.39160184993743,33.41220801513987L117.40449564990998,34.82382167348089L117.41186353560856,32.57411672373712L117.41923142130716,35.90929994454598L117.67894939218249,34.560730205069206L117.759996134867,32.54394185658842L118.06576339135852,36.04638179349078L118.09339296272823,29.860681773613123L118.13207436264582,32.18402487121142L118.15970393401555,34.035173014338795L118.37705656212398,30.814822892503344L119.20594370321547,29.602969983417154L119.4196123884746,32.473658403065514L119.6590686736788,30.410191134234623L119.74195738778796,28.57380886071715L120.13061335838863,34.38705090060503L120.32586232940129,28.702599573930456L120.33138824367524,26.925949979535403L120.37927950071608,26.619412612253797L120.43638061488015,30.96918228634783L120.77530335701533,28.331558213567718L120.79003912841252,27.665190770088714L121.08843849920545,28.936037630270874L121.18606298471178,25.521123928119238L121.7847036977223,26.012934284420396L122.23782866818564,28.69707215010942L122.55096381037576,29.513436146618233L122.57675141032082,27.923337106182515L122.73700292426518,27.75958283002592L123.06671580927713,29.835113092981942L123.1275008662905,27.80720036951547L123.45721375130245,31.028445655900526L124.00980517869678,27.439183448601995L124.02085700724466,26.323877947106496L124.3505698922566,28.196032038937318L124.85895400545937,23.60846146768816L125.84440871764592,24.184173945951756L126.11149457421985,26.0196958185914L126.32516325947897,22.742863420949703L126.48173083057404,24.663434616722185L126.62540460169656,28.50018809469853L126.67513783016206,24.199513416146857L126.70645134438107,23.880808763724673L127.198257714762,28.58658451011479L127.62927902812957,26.58072933642464L127.71585168508803,27.784152055091965L127.93873022747039,28.74876573012108L128.32186028379712,27.16185625657579L128.37711942653655,30.562621144292507L128.50053151198796,28.616055412908906L129.31468288168224,29.157325783306646L129.32573471023014,31.810689108507916L129.3662580815724,30.410929862260986L129.5320355097907,28.708631070992993L129.859906423378,33.77779147902521L131.05166193512508,31.769363793619647L131.20454556337083,32.639941736347765L131.33532553452082,35.18110531071676L131.63372490531376,33.74857261285186L131.81055416207994,37.725849543284255L132.0794819900785,35.12786474730865L132.92494687399181,38.30502969781293L133.07230458796363,40.371391042323694L133.61937010108403,37.381463228297434L133.6764712152481,38.64228946007452L133.6912069866453,37.27094082463097L134.27879587110792,43.391050486682815L134.55509158480507,42.91882076854006L134.91611798403602,45.825185406404245L135.17031004063745,41.92639615604671L135.29924804036276,46.23558793419684L135.3010900117874,45.30625938607548L135.45581561145784,44.71452954601608L135.74684709655216,45.353520597928764L136.10418955293383,47.169731250866676L136.33075203816549,46.33690665574625L136.53336889487676,47.57365904478087L136.76729926580703,48.38784162088234L137.29410309325627,49.35356773340999L137.31252280750275,48.59910045459503L137.61829006399427,52.208082354739304L137.9903682917731,49.21430446405782L138.29429357683998,51.82592531030885L138.6461101189477,57.63821134922141L138.73268277590614,53.09052340047954L138.88556640415192,54.7823235628548L139.02371426100052,55.902365614637176L139.08081537516458,54.30792111522267L139.3018519461223,58.15946653556284L139.3792147459575,55.50613797403342L139.50078485998424,59.56125076569384L139.86549520206452,57.906891077879806L140.12705514436448,58.00636732482221L140.58570602910177,62.42685499833701L141.22855405630384,62.156289340481806L141.4864300557545,62.56448437511315L141.7829874551228,63.764587163120694L141.83456265501295,65.38029833877738L141.9174513691221,65.00586752041121L142.6892373960495,66.29971924042711L142.75186442448754,67.97805717088609L142.82370131004876,65.38593005361389L144.2051798785346,71.1306876599961L144.23833536417825,71.13623246565304L144.4170065923691,69.54275265813182L144.5109471350261,71.5906371110648L144.66383076327187,74.64843230342176L144.80750453439438,72.73221525754602L145.43193284734997,73.6008029800619L145.5406091614042,72.06708192441697L145.87768993211472,74.74453647419662L145.90347753205978,72.87774467874561L146.4008098167147,75.55411286378057L146.4394912166323,74.53160029331809L146.7820979016168,74.61438997778194L146.8870902728217,75.14305851714117L147.03260601536886,76.15195241916413L147.24811667205265,72.4903122471149L148.25567504133497,75.40346449190397L148.31277615549905,75.90245354643808L148.4730276694434,74.68677663345058L148.61301749771664,75.37176002319474L149.0900880967004,77.3436684713426L149.23928778209688,78.34164658041084L149.82503469513483,74.36754183503297L150.0350194375447,78.03231942846486L150.2671078370503,78.55583425347525L150.31499909409112,76.30818036036948L150.5286677793503,79.53411005153367L150.81233137874605,78.73205130598303L150.9154817785263,78.0839347902149L151.00942232118334,80.2236474822876L151.0499456925256,79.5184316355382L151.110730749539,78.40166605982586L151.15678003515515,81.43687355641109L151.4514954630988,80.51269003172061L151.59516923422132,81.79915447147256L151.63569260556358,80.65556872294313L151.63937654841288,79.34722924269195L151.82725763372693,81.3120545927044L151.83278354800086,80.76894174769967L152.11644714739666,83.25964585240698L152.4203724324635,81.14658820571015L152.69666814616068,78.9977674316179L152.94717625991277,81.11052089618622L153.26031140210287,82.8841286692961L153.5163454301289,82.71328260408612L154.38391397113799,84.12791201095843L154.39312382826125,84.84215772146574L154.47969648521968,82.63110997479725L154.59021477069854,83.73529979222499L154.63258011346545,83.50512952103662L154.79283162740978,85.6925553526964L155.11701859814778,85.41902609181768L155.12991239812033,84.02760143589211L156.36587522405895,87.11770077029738L156.43218619534628,87.90766610351004L156.8724173658371,89.20202189676748L156.92951848000118,88.66875151634972L157.4784259645462,89.2546019504108L157.51158145018988,89.66021578240874L157.6589391641617,90.10571658237298L157.77314139248986,89.68060902139618L157.8983954493659,91.07743073737342L158.3238908484595,91.30323816774711L158.55966319081443,90.60274583490765L158.6388679620743,90.41373575116633L158.85806256160737,93.20281210573408L159.25040247505734,93.13331518028635L159.34434301771438,92.7393384874336L159.60958690286364,95.39396634119768L159.6961595598221,93.99995179172075L159.7551026454108,93.6873612000817L159.91167021650588,94.8247894332382L160.125338901765,94.86470681941734L160.13823270173754,95.89675332687926L160.15849438740867,96.50839405997945L160.66319455776215,97.44999852971588L160.89528295726774,97.44729565423108L161.14579107101986,97.23000532345581L161.2747290707452,98.16708617039532L161.4828718417304,97.39724031225443L161.7757452982494,99.93694381240653L161.9581004692895,99.31843290866087L162.38912178265707,102.12085851321146L162.52358569665634,101.08079897939265L162.6285780678613,99.97454072349099L163.56798349443162,103.16149164761548L163.69323755130767,104.26631155659514L163.83506935100556,103.74315305922102L163.86085695095062,103.65727375342324L163.9326938365119,104.20816931545897L163.9916369221006,104.27815727777131L164.55159623519353,105.9202149712164L164.75237112048012,105.98904269598141L165.08208400549208,106.41268149182336L165.124449348259,106.714499690654L165.47810786179136,106.15134558883909L165.77834920400895,107.26290095923589L165.8207145467758,109.13027504619005L165.8814996037892,107.90118370133503L165.88886748948778,108.08669134513946L166.0085956320899,108.53239638167568L166.128323774692,109.07866837535798L166.47093045967645,109.64441671618322L166.54276734523773,110.01253792811218L166.5722388880321,110.41739999570679L166.83748277318136,109.55569982567229L166.8853740302222,110.06959380450365L166.95352697293418,109.262620344848L167.34586688638416,109.61561935953078L167.65900202857426,111.48012109809997L167.69399948564256,111.52012973891767L167.88188057095664,110.16427701019244L168.36816102706365,113.21679246989018L168.57630379804883,112.25400388763217L168.64077279791152,113.69461044827965L169.4199267105375,113.65130360409707L169.65569905289243,113.88710993558094L170.86403230746134,116.34445829716707L170.92665933589936,118.14928384758056L171.03901959280287,117.86849332474829L171.07217507844652,116.62452312834989L171.2103229352951,117.14502655028798L171.48846062041693,119.44213611203133L171.58424313449862,119.2066904536427L171.8421191339493,118.80815102886223L172.2897181901387,119.8368080783207L172.7538949891499,119.47633921965337L173.05045238851818,120.48883116171076L173.1388670169013,121.40862142737367L173.49620947328296,122.64666876318398L173.55515255887167,121.4070614076003L173.56988833026887,120.8914770452262L173.9180209295273,121.3594916681595L173.945650500897,121.69601270239474L174.06722061492377,122.77428620247301L174.29930901442935,121.38214020035696L174.45587658552444,123.20646382520827L174.5553430424554,122.77333889241564L174.6990168135779,122.25433899928419L175.07109504135678,124.58783091632745L175.1300381269455,123.01020117043134L175.19819106965747,123.62765178218618L175.34554878362928,123.85313547586595L175.6236864687511,124.11456263348876L175.96997709658487,124.3052913462562L176.02707821074895,124.27369985948042L176.08786326776234,124.64252069030496L176.29784801017215,125.04970323299426L176.413892209925,123.5644123176679L176.84859746614185,123.78651958972115L176.90201463745663,124.3114988344074L177.70879812145233,125.07344247539538L178.0587726921354,125.9147537519014L178.07166649210794,125.57451300478033L178.3129647487368,125.72663883270971L178.33691037725723,125.16304149407898L178.42164106279102,125.97906437205796L178.46953231983184,126.3200894745247L178.73293423355648,123.78064670191132L179.44209323204583,125.2966621849472L179.5470856032508,126.58861276665986L179.74233457426342,128.7757626616745L179.86206271686552,128.8251944302877L179.94495143097467,129.32659956001402L180.24519277319226,127.35710718705835L180.73147322929927,127.88381375168868L180.81251997198376,128.3098316863215L181.24906719962527,129.57294362952146L181.37247928507668,128.0016821537588L181.8016586270196,128.32494519264972L181.9711199980872,128.36160783005374L182.06137659789493,129.5634879107836L182.25846754033225,128.6720843558996L182.8847378247125,128.83758333383622L183.04130539580754,129.60324668771003L183.0707769386019,129.007140970459L183.77441002281734,130.36353905428606L183.80572353703636,129.64488270291528L184.01018236517226,129.59060574754074L184.04517982224056,130.36487093746305L184.19437950763702,128.26609029624103L184.3085817359652,130.13325145570525L184.68065996374403,129.50223649374811L185.07299987719398,129.6916289778796L186.2223900461742,129.52608219989423L186.25922947466714,129.42073741060096L186.63867558814457,131.4770672630592L186.95917861603328,131.4049478531178L187.23547432973044,130.61582553894698L187.2723137582234,131.63677591690657L187.27783967249735,131.93637793165803L187.3920419008255,129.94801974854596L187.4344072435924,131.21070149130702L187.43993315786634,130.66923992071423L188.10120089931488,131.8086214376817L188.14909215635572,129.15382193828796L188.38118055586133,131.26733151271858L188.49722475561416,130.91284635106504L189.2708527539662,131.95464189574588L189.37952906802042,132.35122803671538L189.38321301086972,131.33790611199305L189.44031412503378,132.13104580298975L189.57109409618377,131.54187543826885L190.00211540955135,132.67323523796148L190.1807866377422,132.27071537275643L190.6375955510548,132.5395863016099L191.42964326365336,132.4273691689417L191.724358691597,131.3397811775424L192.31194757605962,132.18790613372718L192.39299431874412,131.7732233288405L192.59929511830467,132.63770241989192L193.0561040316173,133.019937682584L193.2531949740546,132.7848548700201L193.50922900208064,132.8699302659068L193.55896223054614,133.47186976183684L193.7928926014764,131.68305722776017L194.04524268665313,132.62937652048856L194.1483930864334,133.61318626055646L194.20733617202214,133.08704026013442L194.33811614317213,132.64209785164897L195.03806528453828,132.73439105489945L195.20200074133191,132.72174576927117L195.24436608409883,131.55404706886844L195.35488436957766,133.4585596209848L195.85037468280794,133.86966394040246L195.99773239677975,132.49509749258507L196.15245799645015,134.29714846744062L196.22613685343606,133.5232091869417L196.2813959961755,132.47168415960738L196.4011241387776,132.8598249010516L196.46006722436633,132.0883647049001L197.17106819428037,133.94716520128912L197.42526025088173,133.46966661413458L197.55419825060707,133.5963823706855L197.68313625033244,133.28067608495866L197.90417282129016,133.14933024186584L197.98521956397465,133.82750647011974L198.23572767772674,135.150887756626L198.34072004893164,133.49873773470267L198.5046555057253,132.71377185204508L198.6041219626563,133.75727950756357L198.75147967662812,132.41321818177727L198.95409653333937,132.85416059527276L198.97251624758584,133.69818561091103L199.23591816131045,133.78772162043947L199.37038207530975,132.49321373611775L199.72404058884212,132.1211381565181L199.85297858856745,133.42272044805725L199.94323518837518,132.10971177213338L200.0942768451963,132.90046580615072L200.36873058746883,133.87803763985457L200.8034358436857,133.87259495248364L200.9231639862878,131.49894230355844L201.75389309880393,132.89640280200555L201.79257449872154,132.4475277531443L201.9491420698166,132.76372073027676L201.9528260126659,133.74422574879128L202.45015829732077,133.33635879631285L203.18694686717987,132.14130108617968L203.25878375274112,131.1491915194623L203.56455100923264,132.59795667934245L203.70638280893053,131.40872622969982L203.74874815169744,133.50323745747522L204.04714752249038,133.33400355754634L204.24423846492766,132.00493841069584L204.3031815505164,131.58409157224776L204.3529147789819,133.3430030030914L204.36949252180372,132.76481578593942L204.5002724929537,132.68223468350655L204.6384203498023,132.38886840238965L204.79130397804806,130.54238945493498L204.93681972059522,133.52634009013593L205.12285883448465,130.66996778509318L205.1596982629776,133.7920974976311L205.29968809125083,132.1217095843738L205.40468046245576,132.21380072378176L205.42494214812686,131.77014457115405L206.20593803217753,132.50741686878993L206.24277746067048,131.77118096312046L206.90036125926972,132.18313047430948L206.91325505924223,132.4787259758825L207.2227062585831,132.24094897875173L207.2853332870211,132.3841448884797L207.34427637260984,131.84185985341043L207.44374282954078,132.1462375275796L207.6095202577591,133.64737850453105L207.96870468556543,131.4255909559965L208.02580579972948,134.03425689014196L208.1271142280851,133.03127933051863L208.19158322794777,133.71985424210877L208.21000294219425,132.53048039231984L208.56918737000055,133.07884255177095L208.77364619813645,131.6683000490682L209.0407320547104,132.55979920404974L209.142040483066,131.69883993477112L209.53253842509133,132.35937359957114L209.93408819566454,132.17459599287514L210.54009679437365,132.6616936989138L210.6469311370032,134.02545733570992L211.32846056412288,133.39620228463923L211.52002559228626,131.49396023483925L211.54581319223132,132.40422742715018L211.58081064929962,133.881635679889L211.65633147771018,131.74729397511408L211.68211907765524,133.05735425712083L211.70974864902496,132.69190332973434L211.73369427754537,131.1235033387092L211.80553116310665,131.45351052993522L211.87921002009256,133.6142269979819L211.89578776291438,132.22058398524766L212.00078013411928,132.73204885250988L212.04498744831085,132.48980037808994L212.35812259050095,131.1976173143219L212.36180653335026,132.3635213401664L212.67309970411574,132.5668518839723L212.99728667485374,132.73395650900156L213.16674804592134,133.9893661261616L213.29936998849598,133.18705534399018L213.32515758844104,133.40220336348892L213.68065807339806,133.5315242226976L214.10246952964238,133.38661837486148L214.2074619008473,132.15070683213926L214.43402438607896,131.90392821673396L214.75821135681696,133.40770036909709L214.94240849928175,134.43447366208824L215.13213155602048,134.17203835798236L215.7473500118528,132.88243649684773L216.96489312354498,132.67495821244657L217.03857198053086,133.3441328224259L217.09935703754425,134.5905603758768L217.43827977967945,135.14081063725416L218.22664354942867,133.64615525782853L218.47899363460542,133.00810717051425L218.9836938049589,135.35752084925576L219.42208300402504,133.96275888083449L219.68732688917433,135.54753690675068L219.68916886059898,135.48007365610502L219.79600320322854,134.6839486347899L220.1570296024595,135.510089914001L220.1643974881581,135.5708220486885L220.30991323070526,136.31811280200003L220.75567031547,135.94232620043246L221.1995854288101,136.26199119928899L221.43535777116503,132.951416312677L221.49614282817842,134.39789141567533L221.6471844849995,134.90474792369054L221.85348528456007,133.21480327229924L221.96400357003893,136.30046154762817L222.16293648390086,134.96001129825328L222.22924745518822,137.05781203847556L222.26424491225652,135.6357410331021L222.4410741690227,135.11281067232437L222.5221209117072,136.0198339795076L223.28285511008673,135.15976552931966L223.35837593849726,135.7091792898436L223.52046942386627,136.61494893211147L223.92938708013807,135.73549104396017L223.9956980514254,136.53854272688747L224.21120870810915,135.59365526289255L224.55934130736762,136.14547423496128L224.61091650725774,133.62020200407773L225.63321064793723,134.80604516844636L225.99055310431888,137.10502979573909L226.06238998988016,133.84102084754377L226.42894230338504,136.36700573369984L227.2025703017371,136.2931198946835L227.46228827261245,135.51235607085843L227.69437667211807,136.96237706838346L227.9743563286645,136.45960963726728L228.41458749915532,136.02767101477585L228.9892825836454,135.70007772601252L229.0003344121933,136.67999610756493L229.2968918115616,136.3618324647856L229.31162758295875,135.99409148051728L229.7463328391756,136.48190836001692L229.96184349585943,135.23794250907753L230.4702276090622,136.63240029537027L230.56785209456854,136.3984364384934L231.22543589316777,136.6331781325275L231.24753955026355,137.620648921785L231.7025064921515,133.5120674301201L231.71540029212406,136.9843477089802L231.91064926313672,136.39809749269307L232.207206662505,138.79346874559423L232.37298409072332,138.03825839329392L232.84821271828244,135.43805306778015L232.9697828323092,135.65016143872322L233.28475994592395,136.97338628870622L233.37501654573168,136.17335687249866L233.4450114598683,135.5104723143911L233.5076384883063,136.7296386309386L233.57763340244293,137.27610834300444L233.6494702880042,135.54359557545692L233.765514487757,137.20016275643218L233.86313897326332,135.6086992418771L233.9349758588246,136.22302764135569L234.00681274438585,137.95489945370383L234.03260034433092,136.52349005698494L234.06391385854994,136.72335292452578L234.2628467724119,135.5882821028653L234.29968620090486,136.32539144578948L234.36231322934287,137.36779535472735L234.46914757197243,137.06852794031727L235.1469930562428,135.58572914571525L235.24093359889983,135.37361208385423L235.49696762692588,137.69678353582285L235.71063631218502,136.07021740363714L236.1158700256075,136.3853283614839L236.1692871969223,135.686361284746L237.0184360236849,135.9465825775022L237.4918226798194,134.9374714025303L237.54523985113417,136.68009605312145L237.65760010803766,136.82145600643088L238.2175594211306,136.74304654461764L238.48464527770452,136.59059697999436L238.5270106204714,134.00008420073277L238.67252636301856,136.92945369843068L239.4645740756171,136.77621543300273L239.49220364698684,135.25841179359708L239.85875596049172,134.92586033613898L240.0392691601072,133.11371051461674L240.38187584509166,135.071094266128L241.07629907218387,138.12069609558046L241.18681735766273,137.40575728436605L241.6988854137148,135.85533662986563L241.70072738513946,136.02000345240776L241.90518621327536,135.04953427140475L241.95676141316548,134.30449663857377L242.0120205559049,136.1463281176506L242.0875413843155,134.0902329199772L242.30121006957464,135.65113264880497L242.43751595499856,134.70983887938553L242.8832730397633,135.38380435788898L242.9606358395985,133.9109110370291L243.02694681088585,133.54467358156742L243.3640275815964,136.17436719171124L243.56480246688298,137.84130481053936L243.62190358104706,135.73830690137842L243.7508415807724,136.4901299684048L244.16160120846885,135.8210053312037L244.33290455096108,135.7452357357201L244.35500820805686,135.24550795315957L244.54841520764487,136.71904005648935L245.15442380635398,134.35758945637656L246.04225403303417,136.35041259858934L246.1509303470884,136.55661549078025L246.19513766127994,136.39754127394377L246.25592271829333,135.31412492316412L247.06086423086438,136.2675599049703L247.18243434489113,136.4151968737746L247.23400954478126,136.75384935563892L247.27453291612352,138.41932255479117L247.85106997203826,136.0560316528009L248.18078285705022,136.34660597652393L248.27103945685795,135.9629301941804L248.2765653711319,136.69145942835098L248.296827056803,136.0188910149092L248.37787379948753,136.8963456464713L248.66522134173258,135.80700426237405" fill="none"></path></g></g></g></g></g></g><g transform="translate(72, 177)" clip-path="url(#clip_1)"><clipPath id="clip_1"><rect width="257" height="22"></rect></clipPath><g><g><line x1="0" y1="0" x2="0" y2="5" style="visibility: inherit;" fill="rgb(0, 0, 0)" stroke="rgb(204, 204, 204)" stroke-width="1px"></line><line x1="18.419714246477398" y1="0" x2="18.419714246477398" y2="5" style="visibility: inherit;" fill="rgb(0, 0, 0)" stroke="rgb(204, 204, 204)" stroke-width="1px"></line><line x1="36.839428492954795" y1="0" x2="36.839428492954795" y2="5" style="visibility: inherit;" fill="rgb(0, 0, 0)" stroke="rgb(204, 204, 204)" stroke-width="1px"></line><line x1="55.25914273943219" y1="0" x2="55.25914273943219" y2="5" style="visibility: inherit;" fill="rgb(0, 0, 0)" stroke="rgb(204, 204, 204)" stroke-width="1px"></line><line x1="73.67885698590959" y1="0" x2="73.67885698590959" y2="5" style="visibility: inherit;" fill="rgb(0, 0, 0)" stroke="rgb(204, 204, 204)" stroke-width="1px"></line><line x1="92.098571232387" y1="0" x2="92.098571232387" y2="5" style="visibility: inherit;" fill="rgb(0, 0, 0)" stroke="rgb(204, 204, 204)" stroke-width="1px"></line><line x1="110.51828547886439" y1="0" x2="110.51828547886439" y2="5" style="visibility: inherit;" fill="rgb(0, 0, 0)" stroke="rgb(204, 204, 204)" stroke-width="1px"></line><line x1="128.9379997253418" y1="0" x2="128.9379997253418" y2="5" style="visibility: inherit;" fill="rgb(0, 0, 0)" stroke="rgb(204, 204, 204)" stroke-width="1px"></line><line x1="147.35771397181918" y1="0" x2="147.35771397181918" y2="5" style="visibility: inherit;" fill="rgb(0, 0, 0)" stroke="rgb(204, 204, 204)" stroke-width="1px"></line><line x1="165.77742821829662" y1="0" x2="165.77742821829662" y2="5" style="visibility: inherit;" fill="rgb(0, 0, 0)" stroke="rgb(204, 204, 204)" stroke-width="1px"></line><line x1="184.197142464774" y1="0" x2="184.197142464774" y2="5" style="visibility: inherit;" fill="rgb(0, 0, 0)" stroke="rgb(204, 204, 204)" stroke-width="1px"></line><line x1="202.6168567112514" y1="0" x2="202.6168567112514" y2="5" style="visibility: inherit;" fill="rgb(0, 0, 0)" stroke="rgb(204, 204, 204)" stroke-width="1px"></line><line x1="221.03657095772877" y1="0" x2="221.03657095772877" y2="5" style="visibility: inherit;" fill="rgb(0, 0, 0)" stroke="rgb(204, 204, 204)" stroke-width="1px"></line><line x1="239.4562852042062" y1="0" x2="239.4562852042062" y2="5" style="visibility: inherit;" fill="rgb(0, 0, 0)" stroke="rgb(204, 204, 204)" stroke-width="1px"></line><line x1="257.8759994506836" y1="0" x2="257.8759994506836" y2="5" style="visibility: inherit;" fill="rgb(0, 0, 0)" stroke="rgb(204, 204, 204)" stroke-width="1px"></line></g><g transform="translate(0, 8)"><text style="text-anchor: middle; visibility: hidden; font-family: &quot;Helvetica Neue&quot;, sans-serif; font-size: 12px; font-weight: 200;" x="0" y="0" dx="0em" dy="0.95em" fill="rgb(50, 49, 63)" stroke="none" stroke-width="1px">-1M</text><text style="text-anchor: middle; visibility: inherit; font-family: &quot;Helvetica Neue&quot;, sans-serif; font-size: 12px; font-weight: 200;" x="18.419714246477398" y="0" dx="0em" dy="0.95em" fill="rgb(50, 49, 63)" stroke="none" stroke-width="1px">0</text><text style="text-anchor: middle; visibility: hidden; font-family: &quot;Helvetica Neue&quot;, sans-serif; font-size: 12px; font-weight: 200;" x="36.839428492954795" y="0" dx="0em" dy="0.95em" fill="rgb(50, 49, 63)" stroke="none" stroke-width="1px">1M</text><text style="text-anchor: middle; visibility: inherit; font-family: &quot;Helvetica Neue&quot;, sans-serif; font-size: 12px; font-weight: 200;" x="55.25914273943219" y="0" dx="0em" dy="0.95em" fill="rgb(50, 49, 63)" stroke="none" stroke-width="1px">2M</text><text style="text-anchor: middle; visibility: hidden; font-family: &quot;Helvetica Neue&quot;, sans-serif; font-size: 12px; font-weight: 200;" x="73.67885698590959" y="0" dx="0em" dy="0.95em" fill="rgb(50, 49, 63)" stroke="none" stroke-width="1px">3M</text><text style="text-anchor: middle; visibility: inherit; font-family: &quot;Helvetica Neue&quot;, sans-serif; font-size: 12px; font-weight: 200;" x="92.098571232387" y="0" dx="0em" dy="0.95em" fill="rgb(50, 49, 63)" stroke="none" stroke-width="1px">4M</text><text style="text-anchor: middle; visibility: hidden; font-family: &quot;Helvetica Neue&quot;, sans-serif; font-size: 12px; font-weight: 200;" x="110.51828547886439" y="0" dx="0em" dy="0.95em" fill="rgb(50, 49, 63)" stroke="none" stroke-width="1px">5M</text><text style="text-anchor: middle; visibility: inherit; font-family: &quot;Helvetica Neue&quot;, sans-serif; font-size: 12px; font-weight: 200;" x="128.9379997253418" y="0" dx="0em" dy="0.95em" fill="rgb(50, 49, 63)" stroke="none" stroke-width="1px">6M</text><text style="text-anchor: middle; visibility: hidden; font-family: &quot;Helvetica Neue&quot;, sans-serif; font-size: 12px; font-weight: 200;" x="147.35771397181918" y="0" dx="0em" dy="0.95em" fill="rgb(50, 49, 63)" stroke="none" stroke-width="1px">7M</text><text style="text-anchor: middle; visibility: inherit; font-family: &quot;Helvetica Neue&quot;, sans-serif; font-size: 12px; font-weight: 200;" x="165.77742821829662" y="0" dx="0em" dy="0.95em" fill="rgb(50, 49, 63)" stroke="none" stroke-width="1px">8M</text><text style="text-anchor: middle; visibility: hidden; font-family: &quot;Helvetica Neue&quot;, sans-serif; font-size: 12px; font-weight: 200;" x="184.197142464774" y="0" dx="0em" dy="0.95em" fill="rgb(50, 49, 63)" stroke="none" stroke-width="1px">9M</text><text style="text-anchor: middle; visibility: inherit; font-family: &quot;Helvetica Neue&quot;, sans-serif; font-size: 12px; font-weight: 200;" x="202.6168567112514" y="0" dx="0em" dy="0.95em" fill="rgb(50, 49, 63)" stroke="none" stroke-width="1px">10M</text><text style="text-anchor: middle; visibility: hidden; font-family: &quot;Helvetica Neue&quot;, sans-serif; font-size: 12px; font-weight: 200;" x="221.03657095772877" y="0" dx="0em" dy="0.95em" fill="rgb(50, 49, 63)" stroke="none" stroke-width="1px">11M</text><text style="text-anchor: middle; visibility: inherit; font-family: &quot;Helvetica Neue&quot;, sans-serif; font-size: 12px; font-weight: 200;" x="239.4562852042062" y="0" dx="0em" dy="0.95em" fill="rgb(50, 49, 63)" stroke="none" stroke-width="1px">12M</text><text style="text-anchor: middle; visibility: hidden; font-family: &quot;Helvetica Neue&quot;, sans-serif; font-size: 12px; font-weight: 200;" x="257.8759994506836" y="0" dx="0em" dy="0.95em" fill="rgb(50, 49, 63)" stroke="none" stroke-width="1px">13M</text></g><line x1="0" y1="0" x2="257.8759994506836" y2="0" fill="rgb(0, 0, 0)" stroke="rgb(204, 204, 204)" stroke-width="1px"></line></g></g></g></g></svg>