<svg viewBox="0 0 330 200" xmlns="http://www.w3.org/2000/svg"><g><g><g><g><g><line x1="30.70800018310547" y1="177.98999977111816" x2="25.70800018310547" y2="177.98999977111816" style="visibility: inherit;" fill="rgb(0, 0, 0)" stroke="rgb(204, 204, 204)" stroke-width="1px"></line><line x1="30.70800018310547" y1="163.15749979019165" x2="25.70800018310547" y2="163.15749979019165" style="visibility: inherit;" fill="rgb(0, 0, 0)" stroke="rgb(204, 204, 204)" stroke-width="1px"></line><line x1="30.70800018310547" y1="148.32499980926514" x2="25.70800018310547" y2="148.32499980926514" style="visibility: inherit;" fill="rgb(0, 0, 0)" stroke="rgb(204, 204, 204)" stroke-width="1px"></line><line x1="30.70800018310547" y1="133.49249982833862" x2="25.70800018310547" y2="133.49249982833862" style="visibility: inherit;" fill="rgb(0, 0, 0)" stroke="rgb(204, 204, 204)" stroke-width="1px"></line><line x1="30.70800018310547" y1="118.65999984741211" x2="25.70800018310547" y2="118.65999984741211" style="visibility: inherit;" fill="rgb(0, 0, 0)" stroke="rgb(204, 204, 204)" stroke-width="1px"></line><line x1="30.70800018310547" y1="103.8274998664856" x2="25.70800018310547" y2="103.8274998664856" style="visibility: inherit;" fill="rgb(0, 0, 0)" stroke="rgb(204, 204, 204)" stroke-width="1px"></line><line x1="30.70800018310547" y1="88.99499988555908" x2="25.70800018310547" y2="88.99499988555908" style="visibility: inherit;" fill="rgb(0, 0, 0)" stroke="rgb(204, 204, 204)" stroke-width="1px"></line><line x1="30.70800018310547" y1="74.16249990463257" x2="25.70800018310547" y2="74.16249990463257" style="visibility: inherit;" fill="rgb(0, 0, 0)" stroke="rgb(204, 204, 204)" stroke-width="1px"></line><line x1="30.70800018310547" y1="59.329999923706055" x2="25.70800018310547" y2="59.329999923706055" style="visibility: inherit;" fill="rgb(0, 0, 0)" stroke="rgb(204, 204, 204)" stroke-width="1px"></line><line x1="30.70800018310547" y1="44.49749994277954" x2="25.70800018310547" y2="44.49749994277954" style="visibility: inherit;" fill="rgb(0, 0, 0)" stroke="rgb(204, 204, 204)" stroke-width="1px"></line><line x1="30.70800018310547" y1="29.664999961853027" x2="25.70800018310547" y2="29.664999961853027" style="visibility: inherit;" fill="rgb(0, 0, 0)" stroke="rgb(204, 204, 204)" stroke-width="1px"></line><line x1="30.70800018310547" y1="14.832499980926514" x2="25.70800018310547" y2="14.832499980926514" style="visibility: inherit;" fill="rgb(0, 0, 0)" stroke="rgb(204, 204, 204)" stroke-width="1px"></line><line x1="30.70800018310547" y1="0" x2="25.70800018310547" y2="0" style="visibility: inherit;" fill="rgb(0, 0, 0)" stroke="rgb(204, 204, 204)" stroke-width="1px"></line></g><g transform="translate(20.70800018310547, 0)"><text style="text-anchor: end; visibility: hidden; font-family: &quot;Helvetica Neue&quot;, sans-serif; font-size: 12px; font-weight: 200;" x="0" y="177.98999977111816" dx="0em" dy="0.3em" fill="rgb(50, 49, 63)" stroke="none" stroke-width="1px">-2</text><text style="text-anchor: end; visibility: inherit; font-family: &quot;Helvetica Neue&quot;, sans-serif; font-size: 12px; font-weight: 200;" x="0" y="163.15749979019165" dx="0em" dy="0.3em" fill="rgb(50, 49, 63)" stroke="none" stroke-width="1px">0</text><text style="text-anchor: end; visibility: hidden; font-family: &quot;Helvetica Neue&quot;, sans-serif; font-size: 12px; font-weight: 200;" x="0" y="148.32499980926514" dx="0em" dy="0.3em" fill="rgb(50, 49, 63)" stroke="none" stroke-width="1px">2</text><text style="text-anchor: end; visibility: inherit; font-family: &quot;Helvetica Neue&quot;, sans-serif; font-size: 12px; font-weight: 200;" x="0" y="133.49249982833862" dx="0em" dy="0.3em" fill="rgb(50, 49, 63)" stroke="none" stroke-width="1px">4</text><text style="text-anchor: end; visibility: hidden; font-family: &quot;Helvetica Neue&quot;, sans-serif; font-size: 12px; font-weight: 200;" x="0" y="118.65999984741211" dx="0em" dy="0.3em" fill="rgb(50, 49, 63)" stroke="none" stroke-width="1px">6</text><text style="text-anchor: end; visibility: inherit; font-family: &quot;Helvetica Neue&quot;, sans-serif; font-size: 12px; font-weight: 200;" x="0" y="103.8274998664856" dx="0em" dy="0.3em" fill="rgb(50, 49, 63)" stroke="none" stroke-width="1px">8</text><text style="text-anchor: end; visibility: hidden; font-family: &quot;Helvetica Neue&quot;, sans-serif; font-size: 12px; font-weight: 200;" x="0" y="88.99499988555908" dx="0em" dy="0.3em" fill="rgb(50, 49, 63)" stroke="none" stroke-width="1px">10</text><text style="text-anchor: end; visibility: inherit; font-family: &quot;Helvetica Neue&quot;, sans-serif; font-size: 12px; font-weight: 200;" x="0" y="74.16249990463257" dx="0em" dy="0.3em" fill="rgb(50, 49, 63)" stroke="none" stroke-width="1px">12</text><text style="text-anchor: end; visibility: hidden; font-family: &quot;Helvetica Neue&quot;, sans-serif; font-size: 12px; font-weight: 200;" x="0" y="59.329999923706055" dx="0em" dy="0.3em" fill="rgb(50, 49, 63)" stroke="none" stroke-width="1px">14</text><text style="text-anchor: end; visibility: inherit; font-family: &quot;Helvetica Neue&quot;, sans-serif; font-size: 12px; font-weight: 200;" x="0" y="44.49749994277954" dx="0em" dy="0.3em" fill="rgb(50, 49, 63)" stroke="none" stroke-width="1px">16</text><text style="text-anchor: end; visibility: hidden; font-family: &quot;Helvetica Neue&quot;, sans-serif; font-size: 12px; font-weight: 200;" x="0" y="29.664999961853027" dx="0em" dy="0.3em" fill="rgb(50, 49, 63)" stroke="none" stroke-width="1px">18</text><text style="text-anchor: end; visibility: inherit; font-family: &quot;Helvetica Neue&quot;, sans-serif; font-size: 12px; font-weight: 200;" x="0" y="14.832499980926514" dx="0em" dy="0.3em" fill="rgb(50, 49, 63)" stroke="none" stroke-width="1px">20</text><text style="text-anchor: end; visibility: hidden; font-family: &quot;Helvetica Neue&quot;, sans-serif; font-size: 12px; font-weight: 200;" x="0" y="0" dx="0em" dy="0.3em" fill="rgb(50, 49, 63)" stroke="none" stroke-width="1px">22</text></g><line x1="30.70800018310547" y1="0" x2="30.70800018310547" y2="177.98999977111816" fill="rgb(0, 0, 0)" stroke="rgb(204, 204, 204)" stroke-width="1px"></line></g></g><g transform="translate(30, 0)" clip-path="url(#clip_0)"><clipPath id="clip_0"><rect width="299" height="177"></rect></clipPath><g><g><g><line x1="0" y1="0" x2="0" y2="177.98999977111816" fill="rgb(0, 0, 0)" stroke="rgb(60, 60, 60)" stroke-width="1px" opacity="0.25"></line><line x1="21.377999986921036" y1="0" x2="21.377999986921036" y2="177.98999977111816" fill="rgb(0, 0, 0)" stroke="rgb(60, 60, 60)" stroke-width="1px" opacity="0.25"></line><line x1="42.75599997384207" y1="0" x2="42.75599997384207" y2="177.98999977111816" fill="rgb(0, 0, 0)" stroke="rgb(60, 60, 60)" stroke-width="1px" opacity="0.25"></line><line x1="64.1339999607631" y1="0" x2="64.1339999607631" y2="177.98999977111816" fill="rgb(0, 0, 0)" stroke="rgb(60, 60, 60)" stroke-width="1px" opacity="0.25"></line><line x1="85.51199994768415" y1="0" x2="85.51199994768415" y2="177.98999977111816" fill="rgb(0, 0, 0)" stroke="rgb(60, 60, 60)" stroke-width="1px" opacity="0.25"></line><line x1="106.88999993460519" y1="0" x2="106.88999993460519" y2="177.98999977111816" fill="rgb(0, 0, 0)" stroke="rgb(60, 60, 60)" stroke-width="1px" opacity="0.25"></line><line x1="128.2679999215262" y1="0" x2="128.2679999215262" y2="177.98999977111816" fill="rgb(0, 0, 0)" stroke="rgb(60, 60, 60)" stroke-width="1px" opacity="0.25"></line><line x1="149.64599990844727" y1="0" x2="149.64599990844727" y2="177.98999977111816" fill="rgb(0, 0, 0)" stroke="rgb(60, 60, 60)" stroke-width="1px" opacity="0.25"></line><line x1="171.0239998953683" y1="0" x2="171.0239998953683" y2="177.98999977111816" fill="rgb(0, 0, 0)" stroke="rgb(60, 60, 60)" stroke-width="1px" opacity="0.25"></line><line x1="192.40199988228935" y1="0" x2="192.40199988228935" y2="177.98999977111816" fill="rgb(0, 0, 0)" stroke="rgb(60, 60, 60)" stroke-width="1px" opacity="0.25"></line><line x1="213.77999986921037" y1="0" x2="213.77999986921037" y2="177.98999977111816" fill="rgb(0, 0, 0)" stroke="rgb(60, 60, 60)" stroke-width="1px" opacity="0.25"></line><line x1="235.15799985613143" y1="0" x2="235.15799985613143" y2="177.98999977111816" fill="rgb(0, 0, 0)" stroke="rgb(60, 60, 60)" stroke-width="1px" opacity="0.25"></line><line x1="256.5359998430524" y1="0" x2="256.5359998430524" y2="177.98999977111816" fill="rgb(0, 0, 0)" stroke="rgb(60, 60, 60)" stroke-width="1px" opacity="0.25"></line><line x1="277.9139998299735" y1="0" x2="277.9139998299735" y2="177.98999977111816" fill="rgb(0, 0, 0)" stroke="rgb(60, 60, 60)" stroke-width="1px" opacity="0.25"></line><line x1="299.29199981689453" y1="0" x2="299.29199981689453" y2="177.98999977111816" fill="rgb(0, 0, 0)" stroke="rgb(60, 60, 60)" stroke-width="1px" opacity="0.25"></line></g><g><line x1="0" y1="177.98999977111816" x2="299.29199981689453" y2="177.98999977111816" fill="rgb(0, 0, 0)" stroke="rgb(60, 60, 60)" stroke-width="1px" opacity="0.25"></line><line x1="0" y1="163.15749979019165" x2="299.29199981689453" y2="163.15749979019165" fill="rgb(0, 0, 0)" stroke="rgb(60, 60, 60)" stroke-width="1px" opacity="0.25"></line><line x1="0" y1="148.32499980926514" x2="299.29199981689453" y2="148.32499980926514" fill="rgb(0, 0, 0)" stroke="rgb(60, 60, 60)" stroke-width="1px" opacity="0.25"></line><line x1="0" y1="133.49249982833862" x2="299.29199981689453" y2="133.49249982833862" fill="rgb(0, 0, 0)" stroke="rgb(60, 60, 60)" stroke-width="1px" opacity="0.25"></line><line x1="0" y1="118.65999984741211" x2="299.29199981689453" y2="118.65999984741211" fill="rgb(0, 0, 0)" stroke="rgb(60, 60, 60)" stroke-width="1px" opacity="0.25"></line><line x1="0" y1="103.8274998664856" x2="299.29199981689453" y2="103.8274998664856" fill="rgb(0, 0, 0)" stroke="rgb(60, 60, 60)" stroke-width="1px" opacity="0.25"></line><line x1="0" y1="88.99499988555908" x2="299.29199981689453" y2="88.99499988555908" fill="rgb(0, 0, 0)" stroke="rgb(60, 60, 60)" stroke-width="1px" opacity="0.25"></line><line x1="0" y1="74.16249990463257" x2="299.29199981689453" y2="74.16249990463257" fill="rgb(0, 0, 0)" stroke="rgb(60, 60, 60)" stroke-width="1px" opacity="0.25"></line><line x1="0" y1="59.329999923706055" x2="299.29199981689453" y2="59.329999923706055" fill="rgb(0, 0, 0)" stroke="rgb(60, 60, 60)" stroke-width="1px" opacity="0.25"></line><line x1="0" y1="44.49749994277954" x2="299.29199981689453" y2="44.49749994277954" fill="rgb(0, 0, 0)" stroke="rgb(60, 60, 60)" stroke-width="1px" opacity="0.25"></line><line x1="0" y1="29.664999961853027" x2="299.29199981689453" y2="29.664999961853027" fill="rgb(0, 0, 0)" stroke="rgb(60, 60, 60)" stroke-width="1px" opacity="0.25"></line><line x1="0" y1="14.832499980926514" x2="299.29199981689453" y2="14.832499980926514" fill="rgb(0, 0, 0)" stroke="rgb(60, 60, 60)" stroke-width="1px" opacity="0.25"></line><line x1="0" y1="0" x2="299.29199981689453" y2="0" fill="rgb(0, 0, 0)" stroke="rgb(60, 60, 60)" stroke-width="1px" opacity="0.25"></line></g></g></g><g><g><line x1="0" y1="163.15749979019165" x2="299.29199981689453" y2="163.15749979019165" fill="rgb(0, 0, 0)" stroke="rgb(153, 153, 153)" stroke-width="1.5px"></line></g></g><g><g><line x1="21.377999986921036" y1="0" x2="21.377999986921036" y2="177.98999977111816" fill="rgb(0, 0, 0)" stroke="rgb(153, 153, 153)" stroke-width="1.5px"></line></g></g><g><g><g><g><g><path style="fill: none;" stroke="rgb(255, 112, 67)" stroke-width="2px" d="M21.520698136833737,146.9006684777575L21.684774286733354,116.26447364042292L21.717910186713084,145.04141285960918L21.744632686696733,135.9082998930145L21.777234136676785,118.00631027484553L22.198915186418805,109.76240382623428L22.359784636320384,120.21342363276995L22.664421136134013,-261.18132233412325L22.708246036107198,125.08748817570995L22.760087686075483,-75.55474422275802L23.166269685826983,51.35063672853403L23.832194385419573,89.76695539613638L24.175311285209656,140.36156430553228L24.588441134956906,114.31199470125466L25.01172553469794,127.78011675138714L25.01813893469402,-209.73731198996757L25.15442368461064,110.40822503435766L25.420045334448133,128.38169122876297L25.599086084338598,-90.94943795906511L25.617791834327154,115.78822717916705L25.973201084109718,128.8388838708638L26.380451983860564,39.123530800100525L26.49161758379255,-139.30225966183298L26.989190533488134,141.52117203007862L27.259622233322688,139.00110641158557L27.29222368330274,114.94057977081798L27.594722383117677,121.96840839258573L27.82827703297479,143.1333539320234L28.313557632677895,128.68312915466777L28.39746628262656,43.11621828972102L29.070873282214574,132.61645558112264L29.270757582092283,122.49918173534707L29.330081532055992,125.5866218525507L30.044641181618825,134.74978666680306L30.44066863137654,136.84061620728772L30.686515631226133,140.10701122267824L30.80730133115223,-20.94219833065199L31.869787930502213,139.83976443457976L31.92804298046657,136.92611261760726L32.15358088032858,135.6653177263214L32.40851353017262,120.2405898240745L32.42935708015987,148.6234389158226L32.577399730069295,146.96690596099495L32.69765097999573,-145.21839270991222L32.7318557799748,108.95442004736606L32.82538452991758,15.485606056804045L33.365713479587015,139.42075546217575L33.380678079577855,128.87108227906845L33.87664767927442,27.39379037672279L33.9167314292499,138.43571403344595L33.95200512922832,131.7147268705579L34.08187647914887,151.39321989916596L34.09844442913873,142.1384284230155L34.3368091289929,137.47417868042578L34.43033787893568,138.13120656132241L34.646790128803254,146.84206772845943L34.75742127873557,147.65251103428056L34.92791082863126,-30.90223926861927L35.753101628126416,137.4509731939196L36.914461477415905,130.11548975425103L36.9283571774074,153.59057118066545L37.37355402713503,-100.21703453528244L37.71613647692544,152.28236099479335L37.79202837687901,-178.31466440159056L37.842266676848276,124.84830757835459L38.2163816766194,121.43657061040983L38.2361563266073,127.79261772590701L38.4996401764461,143.4762519499426L38.76633072628294,135.98325976766728L39.16503042603902,135.3028460467424L39.46218462585722,151.5701767632358L39.46859802585329,113.98998586480332L39.48783822584153,132.27856148935496L39.51669852582386,145.22324634146202L39.536473175811764,135.1732673456513L39.556247825799666,-114.71213904888464L39.796215875652855,143.44765000314862L39.88333122559956,139.7684275439144L39.922880525575366,103.7842362392505L40.39533432528632,-214.90258028052085L40.64652582513264,94.78945442408258L40.691419625105176,129.4921950546684L41.0078140249116,-65.71595743311809L41.0238475249018,138.59238819897018L41.125927474839344,128.5101100091631L41.31405387472426,137.62591257398276L41.46744102463041,29.064896603402303L41.61441477454049,134.36498120940786L41.674273174503874,123.20606145154966L42.125348974227904,-98.39561956150465L42.189482974188664,132.51441792375454L42.43319217403957,120.6501903544106L42.65017887390682,110.02654393650653L43.23326382355009,122.05440165917685L43.488730923393796,-169.62269968631972L43.94996127311162,114.9577381098195L44.12846757300241,116.58816224007L44.754308522619525,117.4544886151557L44.79278892259598,113.93310377848024L44.84302722256524,118.8679050222346L44.94350382250377,132.39964942953452L45.05413497243608,113.3554173019196L45.081391922419414,74.94763890403874L45.10971777240208,137.12593371102878L45.38335617223467,124.01426448371922L45.462454772186284,111.36570066495949L45.68051037205287,-116.84090471501622L45.75266112200873,126.94332591779789L45.83336307195936,142.73869798961402L46.19465127173833,120.78269714797761L46.236872821712495,123.11197703087043L46.948225771277286,-103.90897722233785L47.069011471203396,-2.792098847613488L47.181780421134405,125.93708057302251L47.76486537077768,122.37943406938052L48.18387417052132,67.07284538823092L48.59165952027185,102.32852869941826L48.760011270168846,106.0283362145733L48.809715120138435,-326.03514749562964L49.11488606995174,-203.95561657904454L49.70705666958945,106.26941582842574L49.80646436952863,91.10342450347616L50.00741756940569,118.58851973483218L50.21799086927687,132.64624573935612L50.72304611896787,114.24770397515249L51.54075461846761,94.6624431084233L51.63909341840744,-26.01246628754143L51.79889396830968,75.36854866111162L52.81381451768875,85.57136665784492L52.828244667679925,95.12242238925728L52.837330317674365,114.21517668699585L53.59411151721137,-168.23467068972968L53.597318217209406,108.77920129616086L53.75230871711459,19.607921756325595L54.6416335165705,95.8471677131754L54.85968911643709,89.15329369643837L55.46041091606958,99.39189241741269L55.914693415791646,98.5986056824213L56.51434631542478,104.32259503896944L57.125757115050725,101.79918050311562L57.25081841497421,109.6085375175046L57.47475296483721,90.12995399090732L58.40736821426664,110.26907698756622L58.55166971417836,82.22912591373733L58.69276451409204,77.45787702375083L58.79751671402795,-187.0102220419285L59.0898608638491,110.67700129105015L59.15292596381051,84.40222318286214L59.19354416378566,114.76259559894106L59.37525716367449,106.52425181876538L59.60613956353324,114.67641136979717L59.861606663376946,-76.29494336807693L59.88886361336027,109.07498814504083L59.90062151335307,107.62201066244461L59.91825836334228,117.00682995531952L60.298252313109806,100.70555918141326L60.45110501301629,115.46444663458715L61.77547211220605,-309.4792316939365L62.16615506196703,119.62634816403101L62.53385666174208,125.34987779591506L62.537597811739786,109.05766006154795L63.22971056131635,103.39255082543991L63.610238961083546,114.97734359857145L63.63856481106622,110.92285143237848L63.65566721105576,81.18564994385724L64.3958804606029,115.09615059714838L64.51506281052998,128.58660819326883L64.71975716040475,69.04819739760978L64.72991171039854,94.07845133127739L65.9334931096622,81.10854350865748L66.54383500928878,87.05889421711981L66.64644940922601,-5.068881710210007L66.90726100906645,117.76381965990868L67.401627258764,100.17506520979396L67.81101595851354,116.04186788538004L67.85644420848574,122.01084097908188L67.93287055843898,-33.63430514778884L68.1386338083131,-66.33566628032077L68.53626460806983,96.35004991420033L68.82326425789424,-79.54874723218654L69.18294910767419,98.66238010236225L69.19150030766896,-87.4789552517359L69.51751480746951,97.67259290056154L69.65860960738318,110.14652853749226L70.22672995703562,105.83972886661218L70.39989175692968,125.78710777856338L70.41218410692215,112.42461277452253L70.66497895676748,100.52145006247315L71.25447730640684,102.52989517497986L71.38702090632574,65.48456740064739L71.61683440618515,96.66245050517205L72.08875375589643,112.39028902383234L72.23465860580717,-49.849119394096306L72.40568260570254,116.79149492265651L72.46073095566885,101.65936762373303L72.89951440540041,102.57528768104407L73.80006265484946,67.99409825164548L74.0608742546899,100.31564193938766L74.37138970449993,-273.03118527588595L74.81444875422886,91.61210630795586L75.3350030539104,96.04581827687525L75.44937535384041,112.85818971426306L75.58993570375443,100.87538854501781L75.90419230356217,111.45848371120496L75.91488130355562,110.89297993824289L76.41566095324926,124.8149846128947L76.43222890323912,107.20016377432569L76.46162365322114,111.39415762166709L76.48032940320968,114.39124062431426L76.48567390320642,-71.41403953667259L76.98591910290037,108.14082762759585L77.1617531527928,75.4912951464255L77.19275125277383,97.38531449431093L77.49311215259007,11.701421384069363L77.50807675258092,114.9050182998783L77.59839880252565,103.46060422110054L77.78064625241416,95.57972819435236L77.96235925230299,68.67635087122676L78.2258431021418,106.75487092833782L78.38564365204401,99.20215343950917L79.06492960162844,10.017103377812418L79.46523265138353,102.40835104647977L80.34066175084796,112.55423391173645L80.44434505078452,102.15200150109217L80.5635274007116,114.8710481835451L80.92802230048862,115.85426132264922L81.12844105036599,124.91371225268131L81.77191884997231,113.11717737195386L81.99638784983499,108.70896244017399L82.22032239969798,108.77077065309004L82.34805594961983,118.1304606885567L82.51480434951782,110.60373532496737L82.94450214925493,103.14661227552233L83.16362664912089,-108.8496452600748L83.17004004911696,78.82707852717431L83.36244204899924,-209.9333385867385L83.7873297987393,119.44494081157836L83.80763889872688,112.97838649586299L83.84611929870333,122.20850136658214L83.987214098617,120.71368186686595L84.30147069842475,110.87944988774416L84.40301619836262,100.29647495723839L84.46501239832469,107.75409309478323L84.59809044824327,16.347908072907103L86.20250934726171,111.26622685667962L86.20304379726139,84.11940056950971L86.27733234721592,97.8445299249338L86.3152782971927,104.0138015184391L86.54616069705146,98.02627676636916L86.74390719693048,110.96555985367308L86.96677284679414,93.93237912377595L86.9731862467902,-8.249553989292508L87.20513754664829,91.85362442841097L87.52473864645278,99.60360623426004L87.80853159627915,119.59580122827356L88.39268544592176,92.72681838270955L89.59626684518543,122.02345158025241L89.64703959515435,96.59367569542314L90.45352464466096,110.17240749973735L90.5454500446047,107.88048201397419L90.59248164457594,100.60238282141563L90.64378884454455,104.90513337890809L90.94789089435851,63.09679993145073L91.80782094383241,104.72450048569726L91.91257314376831,95.86194255661076L92.9729219431196,100.3095240650116L93.24869814295089,120.30692809310369L93.25564599294663,-123.89336396974886L93.30107424291883,92.7279075765291L93.51645759278706,102.45360209880118L93.91088169254574,102.54754860208118L94.22834499235152,97.6271791764359L94.47632979219982,92.11530677990208L94.47900204219818,98.91948642527382L94.68048969207491,100.58040090978466L94.95305919190815,89.49803768570109L95.68739349145889,98.07353646183833L95.85788304135458,119.37011178163766L95.93537829130717,109.09193783977173L95.95996299129213,114.80641796846021L96.24108369112014,118.46274260307882L96.26246169110708,91.61618017574847L96.27849519109726,125.70377737868046L96.28383969109399,110.73561264937894L96.32445789106914,96.17830385238085L96.65528244086674,-43.92215098931865L96.7830159907886,106.36008060487279L96.90754284071241,98.5674151321341L97.26402099049433,114.87123914609788L97.42809714039394,99.33178872209737L97.42863159039362,114.73258265106267L97.72471689021246,124.85032683053305L97.80007434016636,119.38282493677173L97.95720264007022,-126.6507217781309L98.3484200398309,102.47381583864717L98.51303063973019,82.06450204786779L98.54456318971089,113.41200940806993L98.60816273967198,-88.78989195850045L99.62789333904811,109.21836919508553L99.83312213892255,104.71671699349974L100.25800988866261,94.63075747003631L100.63105598843438,95.35797116176627L100.8528527382987,102.36389213511802L100.88972978827613,78.43593063758635L100.89186758827482,89.09578567730341L101.30072183802469,92.85588077763941L101.42952428794588,108.09144258964113L101.53801763787952,89.70951103118568L102.00405803759438,123.71413500493532L102.06017528756004,82.13589375185848L102.15584183750153,92.4741395619476L102.16332413749694,103.77373329884767L102.18256433748518,100.3146941993109L102.20447678747178,85.13462822695283L102.25471508744104,107.40724851743994L102.28090313742501,112.06332577003946L102.4236012873377,103.46464272545745L102.94736228701728,118.39589863691913L103.07723363693782,106.86987635757703L104.37220598614557,84.93117530868494L104.58331373601641,107.9165350366701L104.65599893597195,99.79788587730741L104.66401568596704,100.54485358421925L105.1541063356672,-90.05629902703186L105.37429973553249,95.35733461992368L105.40957343551091,80.89835739223236L105.56990843541283,107.32073540834404L105.6730572853497,54.09353089171486L106.62705053476606,101.80651487967975L106.82533148464475,113.15435495190502L107.05140383450643,105.63413292414089L107.0781263344901,-140.15519744016274L107.17005173443386,-4.862613862460421L107.32183553434099,83.89770719110788L107.56287248419352,109.20505486154457L107.57783708418437,108.02368978318395L107.6724347341265,81.87761336288168L107.98562243393489,99.88925084978132L108.12244163385118,-59.79048843801411L108.32392928372792,106.2543439321305L108.43402598366056,99.68744586761704L108.70499213349478,109.71807222324105L109.41367283306121,121.21850905685437L109.86314528278623,98.66214670368663L109.93476158274241,122.2685414077132L110.04325493267604,116.41822324981479L110.30941103251321,131.47730383595683L110.80965623220716,113.49434963175327L110.8962371321542,96.91908295804524L111.0287807320731,114.27307016757993L111.2388195819446,101.58487808277505L111.92612228152412,117.42824187317933L112.04958023144857,114.01538742066646L112.22006978134428,118.66269100486886L112.26817028131485,134.21290605869638L112.38842153124128,103.19776194891847L112.5524976811409,86.94940902019334L112.93569833090646,82.681155494226L113.15375393077305,131.99206107868974L113.17459748076031,-6.067884623354075L113.17994198075704,123.07415583638954L113.87633033033097,126.75151464256237L113.94099878029142,121.18547253522365L113.98428923026493,122.01694470808366L114.18844913014003,67.68097624658549L114.28946018007824,118.4812730433855L114.6470072298595,119.41036951683827L114.77153407978331,112.80235084929313L115.80622927915027,16.079018653220373L116.44436257875986,-104.16155702547985L116.66615932862418,84.43523848643144L116.91681637847083,88.26817519162182L116.93819437845775,107.03452851419513L117.2027471282959,113.60591419869888L117.61427362804413,-49.6304743438518L117.80079667793001,-0.780315426776724L118.19308297769001,117.62403507127465L118.22461552767072,107.60477452388454L118.41434527755465,93.01268932421931L118.50680512749808,115.69282016599266L118.74784207735063,114.44253528779677L119.14761067710604,100.12893714426718L119.20586572707039,119.75723531224298L119.20853797706876,93.59527363662437L119.35551172697883,114.60452104136311L119.38063087696348,112.56904765495108L119.49553762689318,106.00554094392123L119.55539602685656,55.067927926299035L120.16841017648152,104.19304109228335L120.33569302637918,126.1502867268564L120.84181717606954,106.21405083349418L120.9631373259953,102.87130085591252L121.2068465258462,111.91993057462048L121.42169542571476,121.95148698860339L121.44841792569842,119.99697111553883L121.7338142255238,108.18455805218218L121.87758127543586,115.35780112154737L121.90216597542081,-9.17593455088354L122.58091747500556,116.88096795132049L122.61458782498497,112.30558652264426L122.94113677478518,120.01921825293755L123.15758902465276,101.03348432065718L123.21317182461874,103.39857675488315L124.16075167403902,39.65296386864884L125.44663837325233,109.77711501548538L125.8079265730313,107.98885326267612L125.86297492299761,63.52313443955995L125.980019472926,64.88940077782036L126.57165562256405,112.6115297502572L126.5983781225477,117.82207738388047L127.35996937208176,112.09037879834978L127.70736187186922,103.94957798286475L127.7094996718679,103.21922755438823L127.94038207172666,104.03504787060751L128.14080082160405,105.935132343443L128.43421387142453,108.52612640491907L129.07020937103545,123.17614398494766L129.27543817090987,99.10088670503933L129.34758892086575,94.35653524424606L129.90822697052275,117.42438725868806L130.8616857699394,114.8233570541604L131.2245773197174,99.28791684376824L131.58693441949572,113.31385465594167L132.08931741918838,120.9526750380121L132.38807496900557,116.14733579601102L132.99681351863316,38.91449045899208L133.09622121857234,80.19299830376485L133.6595315182277,101.95432696821763L133.76802486816135,102.92972832437567L134.329197367818,117.41163520377472L134.57237211766926,109.12776100013559L135.3222054672105,123.34790772848498L135.36335811718533,111.61364785802482L135.7326630669594,113.13360015149283L135.84917316688808,101.81512233992908L135.86787891687666,112.00636942050141L136.12975941671644,11.044764819247575L136.1922900666782,109.35310034875806L136.51456341648102,104.51859688133538L136.84752576627733,102.39172315901374L136.88493726625444,97.05568483746629L136.90043631624494,125.25235604928582L137.87046306565148,125.83369203241068L138.05912391553608,105.94088951077492L138.07141626552854,106.34903306756019L138.75070221511297,113.35853635694832L138.8982104150227,112.56218361208175L138.9361563649995,101.65564031761028L139.1520741648674,112.47184417924313L139.45777956468038,115.12762405492117L139.6891964145388,109.43016434783499L140.0515535143171,122.39781244691369L140.10286071428573,82.45734738236933L140.90079456379755,117.53741587187164L141.59985516336985,121.18965602966693L141.79172271325248,93.71483034003813L142.34915406291145,-93.2691095964783L142.4015301628794,108.866181202608L142.40794356287546,115.42142347871481L142.97125386253086,108.24432933120193L143.26733916234969,124.65764561477931L143.26840806234904,122.3571869319818L143.37743586228234,121.81545092415354L143.59762926214762,110.43334721907877L143.59923261214664,-68.73132686836561L143.8199604620116,113.4167834718894L143.97548541191645,105.22522551714451L144.05779071186612,120.98846637128383L144.12673476182394,111.73026232358836L144.48481626160486,117.55778874717828L144.90168726134982,113.12143159326854L145.45591191101073,111.2313655817668L145.51683921097347,104.86806188926403L145.52645931096757,119.43715378303727L145.65633066088813,114.16725923162267L146.20948641054972,113.70358800810163L146.2175031605448,107.07480393111359L146.29606731049674,106.99604248712308L146.39066496043887,125.38563730209466L146.45907456039703,89.75668585440917L146.73752301022665,112.29098142370026L146.98283556007658,100.30388713336106L147.05872746003016,129.16390920838035L147.14210165997915,25.49741906463578L147.1923399599484,119.53106492288157L148.0458566094262,107.87955195561528L148.65566405905315,58.96460368799467L148.95923165886742,111.29369010084406L149.06558720880236,119.37970941808658L149.34563900863103,112.11728330023016L149.74968320838383,115.93694457165884L150.51768785791396,-63.80271068951515L150.57006395788193,-114.3542044981059L150.8025497077397,98.4410545036917L150.95059235764913,98.45113308286614L151.60796585724694,100.94331463230992L152.31824990681238,112.24184039345187L152.75329220654626,96.69366227352066L152.93286740643637,127.20824048731197L153.4079934561457,17.505721103091673L153.71156105595998,102.59320279756957L153.81150320589882,103.65494044564502L154.1311043057033,119.77161408519851L154.20753065565654,-14.50272887033907L154.48811690548487,129.80973748919087L154.87078310525075,105.4632709482139L155.05677170513698,103.9171461759845L155.1732818050657,112.69887743643562L155.50838195486068,99.15455425505729L155.74888445471356,-3.084964676704658L155.9498376545906,61.722081732058086L156.00381710455758,122.78607821649211L156.0107649545533,105.76121850301513L156.1481186044693,114.8278800375864L156.29402345438004,110.96406398034298L156.4254981542996,100.89247615714794L156.75418490409854,118.71920531146066L156.88191845402037,106.40161849644574L157.33887320374077,121.74569301089218L157.40728280369893,120.62713339433435L157.50294935364045,117.64143388163893L157.5505154036113,99.78319590611773L157.96311080335892,110.96673391973832L158.2479726531846,121.18471575769968L158.6407934029443,103.49511186165637L158.755700152874,115.15930969330816L159.3526808025088,113.74140212989539L159.43017605246135,-91.09756831852428L159.50660240241461,111.66458181446319L159.6231125023433,111.42081457949757L159.83208245221547,112.41222142665333L159.91331885216576,87.17391025538973L159.9191978021622,111.11160377042597L160.24735010196142,105.37374841073995L160.40715065186365,117.07975643241957L160.50121385180609,119.61397803422324L160.67223785170145,134.97096197087188L160.89777575156347,35.66982450666728L161.63104115111486,109.12474096272683L161.73098330105373,104.22797663041115L161.7390000510488,127.92977481126854L161.77694600102564,-117.10573441228462L161.9132307509422,103.39141919549752L162.15212990079607,111.22434947612396L162.4979190505845,120.04919583738024L162.6395483004979,117.7324735105044L163.03931690025328,124.16504002816873L163.2060653001513,118.85667713139992L163.3818993500437,-88.56234946783388L163.43160320001329,111.50622081305607L163.6614166998727,110.2719414258579L163.9468129996981,122.34700579884384L164.47324624937602,112.86290012389827L164.56036159932273,86.75131719877754L164.56143049932209,121.01780034119679L164.60899654929295,88.64123822019292L165.03121204903465,111.8619769761957L165.04671109902517,-105.89334690782016L165.34386529884338,106.67260850421303L165.91519234849383,-33.1683848097573L166.04987374841147,122.53910351790853L166.19310634832382,120.94903967682217L166.29518629826137,109.72177123861525L166.3662681482179,80.02698819121588L166.5645490980966,-17.00305108268094L166.8408597479275,108.49173900004462L166.98569569783893,112.48320998747704L167.20321684770582,119.53435372240165L167.30315899764472,-118.56726277363305L167.7547692473684,116.42843621004488L168.62004379683904,115.69915375732648L168.62164714683803,105.99153348704056L168.6863155967985,116.93688815219252L169.3495680463927,113.8921317018785L169.70871844617298,116.24192591382075L170.40777904574531,115.98186320768468L170.47832644570212,65.98712425806389L170.56864849564687,110.32984197912913L170.79525529550824,55.907215418448686L170.80006534550532,118.53360385553401L170.81075434549876,115.5460194717158L171.01865539537158,121.492876272731L171.31955074518748,125.32322083808458L171.40773499513355,112.47852079590325L171.56058769504003,124.15860388287138L171.75993754491805,117.06444406476157L171.89836009483338,116.79609216929748L171.98707879477908,111.59281879439766L172.2687339446068,108.66051453326531L172.49373739446912,112.29615155799956L173.05811659412385,104.18662970139098L173.3771832439286,107.829456112603L173.68876759373802,111.82084930047688L174.03669454352513,35.30198819389261L174.40920619329725,117.22463335579437L174.65986324314392,119.82223330705915L174.89074564300265,117.49225676448305L174.89502124300003,120.94073634211986L175.02489259292057,99.00792330527179L175.75922689247133,118.3851127890307L175.85382454241343,109.64634810295479L176.02217629231043,122.65896434686931L176.08203469227382,116.44069317685842L176.41392814207074,133.9310064310157L176.85805609179906,123.02920537327157L178.0343805410794,121.0739716224623L178.46675059081488,119.40416677021653L178.56027934075763,106.1534485137355L179.3122504902976,117.80955165495561L179.40043474024364,98.24016897085562L180.09949533981595,123.42914461297448L180.88513683933533,124.40864459133013L180.91827273931503,115.57525442400879L181.32178248906817,123.33602207774629L181.49120313896452,77.15437387320117L182.14804218856267,114.33834753353813L182.21164173852375,127.59930350465424L182.29715373847145,126.58083655650103L182.31585948845998,122.90886713792884L182.74395393819808,130.36409824356394L183.06569283800124,7.117273359683168L183.09936318798063,78.54332939180654L183.40506858779364,121.50140946976535L183.9165372374807,115.83667154973216L184.05335643739699,-39.72088995594095L184.60116768706186,130.8499458776123L185.24357658666884,85.39305714235957L185.65189638641903,120.87969905210207L186.26170383604594,121.37378990301204L186.49899963590076,116.27878168650705L186.58130493585043,126.71736417270711L186.9757290356091,95.6545996604159L186.98481468560357,67.82240877132313L187.06605108555382,120.8717917878796L187.0810156855447,120.89164835702502L187.16759658549174,105.51401040575593L187.26807318543027,114.13051308558704L187.98690843499045,117.03329595059722L188.4935670346805,112.84169974419626L188.58335463462558,60.96302680282406L189.10765008430482,111.37963032228163L189.19850658424923,115.09886297266655L189.22041903423582,120.42857477556731L189.4042698341233,124.8767998984979L189.66561588396343,121.83488313207056L189.87351693383627,14.07761793710506L190.0979859336989,116.93649915439983L190.42239708350044,119.99143320150824L190.7425326333046,127.00626576065633L191.22460653300968,128.84414595009594L191.38975158290864,122.01463901207603L191.60513493277688,98.33490054240815L191.82906948263985,72.29413643361977L191.98031883254734,125.6892606883257L192.1534806324414,123.34148926490548L192.42391233227593,116.68170913652659L192.4623927322524,123.37329513897384L192.60615978216444,120.9375996053733L192.66441483212878,119.49676946293994L192.8525412320137,121.94347009773026L192.9140029819761,121.56288526638582L192.95088003195355,98.86385974091809L192.96584463194438,129.56817693261291L193.19458923180446,121.40833290700357L193.73171148147583,123.2662217283621L194.06307048127312,121.87322770539981L194.0849829312597,5.786221930692591L194.34045003110342,116.89054083336441L194.75571768084936,116.2861478901633L194.96148093072347,120.89659570167942L195.1608307806015,122.95303253277427L195.86470143017087,122.96088675184319L196.02343308007377,58.52302046641171L196.75135397962842,115.49856527735028L197.0212512294633,114.31647878490139L197.02178567946297,110.06962013753241L197.29221737929754,116.23747719360972L197.64495437908175,116.82733222839465L197.82506402897155,123.13589332243419L197.97684782887868,126.0060923177906L198.31782692867006,105.64259539430384L198.67537397845132,122.59225476176528L198.84158792834964,128.79355148264028L198.8560180783408,125.96559057488366L198.93672002829143,-25.29267891730842L199.00673297824858,118.13412080415162L199.25364887809752,117.98518769470206L199.29961157806943,79.91520437096892L199.54064852792195,128.58556143557212L199.5769911278997,132.84541968190433L199.81108022775652,128.93277379264669L200.1739717775345,117.09623932979923L200.17717847753252,-50.4021469469435L200.19267752752305,127.11729280337931L200.80676057714734,123.97323582562035L201.21133922689984,122.28360269497773L201.21614927689689,122.32131072646439L201.39358667678835,117.38752441331462L202.4539354761396,124.08111198622248L202.46890007613044,96.74095733242552L202.5512053760801,124.75478897264657L202.90127012586592,82.3866912378412L204.08561132514137,106.07025249490823L204.1101960251263,111.1159711547349L204.11714387512208,128.5587099788453L204.782534124715,119.64734697214953L204.82742792468753,108.32436385887763L205.5510732242448,121.5289894132676L205.567106724235,102.12070486049788L205.66758332417353,131.317896076853L205.96580642399107,115.84278588776465L206.02619927395412,125.11739856962481L206.94491882339204,121.1594591919229L207.51838367304123,121.95971252374716L207.70918232292448,76.58597029851171L207.91387667279923,98.57919822890926L208.14369017265867,-76.97428911324369L209.85713687161038,100.68929907367851L209.89347947158814,118.91070538846202L209.8961517215865,123.55859954204061L210.20185712139948,124.49853844487893L210.76089182105744,117.18409271310816L212.06655317025866,46.70065613224915L212.7239266698565,106.13008742811223L212.8089042198045,118.75026148069219L212.85112576977866,119.10405497315048L212.86929706976755,125.57470437471989L213.07559476964136,119.51011562357303L213.19584601956774,12.244151104440789L213.50315476937973,119.21594842004811L213.72121036924636,118.03827528437455L214.01141671906882,63.16655077202495L214.0734129190309,109.81783601169366L214.2471091689246,116.94117420059933L214.43256331881113,121.43514546395113L214.8195051185744,120.11676829031535L214.86386446854726,107.04076662425257L215.09367796840667,94.21016598388474L215.30211346827915,116.88928896774064L215.46939631817682,122.01290266738317L216.14975116776057,117.93983055207354L216.38277136761803,124.08927386718199L216.39773596760887,-27.907154300089132L216.70183801742283,123.68227962205697L217.504047466932,124.62707746096044L218.27793106645856,36.025425070689835L218.49438331632615,120.58439314594762L218.6931987162045,112.89910520936769L219.0202821160044,121.00098502752155L219.17847931590762,108.08938797402698L219.62527951563425,77.62682937415002L219.77920111554008,90.53469558517827L219.84707626549857,121.01214219148483L219.88074661547796,112.31779398064782L220.10094001534327,109.85152675688482L221.22328501465662,106.58160070243969L221.5225770144735,109.17790281561429L221.7726996143205,-31.09704936320213L221.8774518142564,99.83981983936019L221.98754851418903,81.96902077147843L222.14360791409356,103.72688381923263L222.29271946400232,85.06872492818275L222.64492201378684,114.50632385311201L222.90038911363055,112.30153387291307L222.97841881358283,99.72913228561993L222.99124561357496,119.35901473551507L223.06980976352693,114.27947448578516L223.1173758134978,107.93631380625698L223.41346111331669,100.926439200794L223.5770028132166,94.51326599126742L224.14084756287167,101.0581467807142L224.3802811627252,112.05454856529877L224.43051946269443,96.40588877917025L224.62185256257737,98.12999772327657L224.72607031251363,81.90257994848571L224.86823401242665,88.49945913378542L225.40535626209805,-4.436442026155419L225.70251046191626,27.365952280139936L225.93072061177662,77.7984693456624L226.07822881168636,118.74499940146006L226.18992886161806,96.23721933625666L226.5667161113875,100.52659897871104L226.5725950613839,99.78546623868965L227.09314936106546,100.49946107815504L227.1535422110285,-142.80773802513067L227.46566101083755,39.99666817290199L227.5976701607568,104.27424968602429L227.79274441063743,106.45604989667481L227.87398081058774,107.12250920587257L227.97285406052725,120.84710810976117L228.53028541018622,109.4334602200422L228.60884956013817,110.75159692231523L228.64251991011756,115.64620054870966L228.7884247600283,119.40870389901681L228.84935205999102,104.09029970254483L229.06045980986187,122.31364039726111L229.2459139597484,118.95080752454555L229.42548915963854,113.91477137341349L229.66118160949435,109.13424665424293L230.51950830896922,109.27643949284811L231.06571620863508,122.09045114552919L231.57290925832476,83.38338138229051L231.68781600825446,32.19487186106562L232.1960779579435,120.86266802146906L232.49269770776203,120.54935505385629L232.63165470767703,125.5787782425125L232.86307155753545,95.39736602913581L233.09502285739353,95.2676388016148L233.15808795735495,8.948901293691051L233.53273740712575,91.94964322902297L233.8806643569129,107.09874497708233L234.01962135682786,86.88350572142326L234.10780560677392,118.55365138723221L234.24729705668858,109.69705926974825L234.25264155668532,105.64287476544587L234.8277097563335,122.95360895677618L235.317265956034,103.67705673833166L235.4797387559346,117.56666143319535L235.5502861558914,127.71857730058241L236.87358435508182,120.86303226485677L236.97031980502265,109.11307810163305L237.03285045498438,122.01389637992634L237.07400310495922,115.08520207745573L237.45666930472512,122.64720600449914L237.76504695453644,108.70925949303387L238.2893424042157,116.427456642876L238.33637400418692,104.27211019816446L239.22890550364085,64.3293712647046L239.4597879034996,117.67561264224275L239.7809923533031,115.88798035858895L240.5393769028391,84.60007453291519L241.18713030244282,126.77542032509541L241.22774850241797,105.80790177448239L241.6654630521502,123.01995076214894L241.98933975195203,58.42796355125074L242.23679010180064,122.1390723332728L242.48530935164862,122.4208623343028L242.67397020153317,125.45858499725614L243.23674605118887,112.64686489520841L243.30088005114965,125.43226752840837L243.56810505098616,-173.38432248707795L243.81876210083283,93.91746282659778L244.38367575048719,105.36377592187262L244.59852465035576,109.56037959076866L244.7246548502786,117.9935688289629L244.72893045027595,105.59727361511102L244.9977588001115,108.24762166706557L245.46593699982506,-143.01561844554817L245.82989744960238,125.52818731140042L246.1804966493879,114.90535071617387L246.70051649906978,111.67467100266833L246.7186877990586,127.15760358373348L247.1018884488242,114.72047421067907L247.20343394876207,113.86304881235901L247.2328286987441,107.42264575734362L247.23977654873985,90.13375909658862L247.75338299842562,122.61532233087223L247.90570124833243,-39.97379510269138L248.58926279791424,114.79282072743365L248.59193504791259,104.67537360082315L248.9029849477223,111.30369088045995L249.37330094743456,103.60953379420653L249.4144535974094,118.85132310723498L249.6715240472521,124.1977653515653L249.90133754711152,105.47959824647648L250.26797024688722,47.323278926553485L250.31446739685876,85.60537213761381L250.48281914675576,100.02302365434639L251.28556304626466,89.20315614077504L251.3149577962467,113.6975974420941L251.34916259622574,82.22444379485069L251.50575644612994,106.93606610017628L251.63562779605047,109.30613770614877L252.24650414567677,106.15008545100045L252.352325245612,113.99096189562863L252.41645924557278,-128.79312358506832L252.45814634554725,107.93629258819556L253.17484379510879,116.9413439450907L253.2624935950552,108.56140143202958L253.74029189476283,115.71901386281547L253.86909434468407,106.92673015315154L253.87390439468112,118.69666465754563L254.19617774448395,104.74695273102304L254.25336389444897,-115.72158124824728L254.27581079443522,115.1057128701616L254.563879344259,-62.89996704834584L255.19773704387117,117.06842952396494L255.685155443573,59.56298838347038L255.74875499353408,111.78154991438373L255.96146609340394,108.99062866917905L256.48202039308546,97.62580000244361L257.16611639266694,-80.65992296337026L257.5990208924021,113.11691568252968L257.7919573422841,114.72971467642742L257.8128008922713,111.23036126019292L257.94481004219057,109.63420783547906L257.9982550421579,107.79947145547317L258.007875142152,-55.27169204280108L258.2216551420212,103.23671123699819L258.61233809178214,113.4914356846516L258.6411983917645,-153.15711624477808L259.19488859142575,121.82243873904781L259.44928679127014,104.9222811088789L259.4856293912479,105.65032937769138L259.79507594105854,103.48838573618627L260.5994231905665,125.77266888776717L261.07561814027514,55.90834704839108L261.1082195902552,102.4787242835223L261.2070928401947,105.76207429815906L261.397891490078,123.25528381770016L261.5176082900048,111.87443551459273L261.62984278993605,114.36818012789445L262.16482723960877,106.98229671966658L262.18246408959794,131.71759484519316L262.9632955391203,119.5269380099354L263.13752623901365,122.46301908600049L263.29572343891687,116.90479229795142L263.57630968874525,117.45947485958936L263.65487383869714,111.61182664108628L263.6623561386926,108.63936012602971L263.84887918857845,-55.91264724217217L264.08189938843594,114.04087738511885L264.28445593831196,115.5249110369466L264.9669485878944,116.5577744397732L265.8974260373252,111.72593383905871L266.18709793714794,16.993686844907643L266.4495128869874,124.13367266070304L266.47783873697006,117.42947252074168L267.0122887366431,-24.056189315379015L267.2682902864865,129.49831292904446L267.4740535363606,-41.97495534744394L267.815032636152,55.76594556551527L267.98445328604834,112.23513548604319L268.16723518593653,-105.2288538056473L268.59853633567263,128.15871062130168L269.05014658539636,130.52840030216862L269.0597666853905,118.10221237611972L269.69576218500134,115.59324026740569L270.62944633443016,118.0102709796439L270.9586675342287,113.4227669652098L270.9982168342045,115.83993205850368L271.0521962841715,120.9914156818212L271.4899108339037,123.26472231868843L271.8634913836751,129.13005932772853L271.8747148336683,119.68419213580512L272.09918383353096,120.29409823863182L272.298533683409,121.16513855969629L272.5871366832325,96.76850544883564L272.9265124330248,87.66073745660697L273.65657113257816,-92.50424091841523L273.77735683250427,123.97234466704072L273.9547942323957,105.07992423254132L274.0381684323447,-119.85310558642504L274.09482013231,121.26267798804338L274.1541440822738,130.41809467353391L275.5522652814184,-90.30602146456931L276.0033410811424,129.0509583947553L276.06426838110514,56.886711860460764L276.1839851810319,125.09948345309931L276.3090464809554,128.08067059139944L276.42929773088184,95.82798658565184L276.4346422308786,120.27340001971675L276.6505600307465,132.57359509705452L277.1593564304352,125.97159174992191L277.2924344803538,121.10219518049428L277.30579573034555,123.38549906063383L277.453838380255,121.72151149356068L277.5195757302148,7.202287059105402L277.8578825800078,127.42873504524357L278.1844315298081,122.71460871294289L278.4131761296681,110.3683492242626L278.5793900795664,113.79376476913603L278.65848867951803,123.08068392661971L278.6659709795134,118.97449395377726L278.70765807948794,110.2975127262124L280.4643952284132,124.50060720586737L280.6076278283256,96.17846652418507L280.62312687831604,122.16327860500928L280.6819163782801,129.09635797350666L281.45526552780694,116.12738728193278L281.6556842776844,120.0435942691654L282.47446167718346,128.36735135558672L282.690913927051,129.04699768995692L283.45678077658243,114.59662084982779L283.5593951765197,-27.459311750387315L283.5871865765027,111.07385683916004L283.91426997630253,123.71516054457061L284.5262152259282,69.60186856498672L284.62722627586635,122.21863299091012L285.55877262529646,123.21949248442843L285.6015286252703,112.74601689622341L285.85272012511666,115.00994868628663L286.4689409747396,116.36283350047825L286.75433727456505,103.55051222002362L287.4004873241697,128.8458929038195L287.9429540738378,113.67727053925387L288.0589297237669,116.11033503323836L288.1321493737221,91.43912252588689L288.1850599236897,108.85105626115921L288.6024653734343,112.21959679239671" fill="none"></path></g></g></g></g></g></g><g transform="translate(30, 177)" clip-path="url(#clip_1)"><clipPath id="clip_1"><rect width="299" height="22"></rect></clipPath><g><g><line x1="0" y1="0" x2="0" y2="5" style="visibility: inherit;" fill="rgb(0, 0, 0)" stroke="rgb(204, 204, 204)" stroke-width="1px"></line><line x1="21.377999986921036" y1="0" x2="21.377999986921036" y2="5" style="visibility: inherit;" fill="rgb(0, 0, 0)" stroke="rgb(204, 204, 204)" stroke-width="1px"></line><line x1="42.75599997384207" y1="0" x2="42.75599997384207" y2="5" style="visibility: inherit;" fill="rgb(0, 0, 0)" stroke="rgb(204, 204, 204)" stroke-width="1px"></line><line x1="64.1339999607631" y1="0" x2="64.1339999607631" y2="5" style="visibility: inherit;" fill="rgb(0, 0, 0)" stroke="rgb(204, 204, 204)" stroke-width="1px"></line><line x1="85.51199994768415" y1="0" x2="85.51199994768415" y2="5" style="visibility: inherit;" fill="rgb(0, 0, 0)" stroke="rgb(204, 204, 204)" stroke-width="1px"></line><line x1="106.88999993460519" y1="0" x2="106.88999993460519" y2="5" style="visibility: inherit;" fill="rgb(0, 0, 0)" stroke="rgb(204, 204, 204)" stroke-width="1px"></line><line x1="128.2679999215262" y1="0" x2="128.2679999215262" y2="5" style="visibility: inherit;" fill="rgb(0, 0, 0)" stroke="rgb(204, 204, 204)" stroke-width="1px"></line><line x1="149.64599990844727" y1="0" x2="149.64599990844727" y2="5" style="visibility: inherit;" fill="rgb(0, 0, 0)" stroke="rgb(204, 204, 204)" stroke-width="1px"></line><line x1="171.0239998953683" y1="0" x2="171.0239998953683" y2="5" style="visibility: inherit;" fill="rgb(0, 0, 0)" stroke="rgb(204, 204, 204)" stroke-width="1px"></line><line x1="192.40199988228935" y1="0" x2="192.40199988228935" y2="5" style="visibility: inherit;" fill="rgb(0, 0, 0)" stroke="rgb(204, 204, 204)" stroke-width="1px"></line><line x1="213.77999986921037" y1="0" x2="213.77999986921037" y2="5" style="visibility: inherit;" fill="rgb(0, 0, 0)" stroke="rgb(204, 204, 204)" stroke-width="1px"></line><line x1="235.15799985613143" y1="0" x2="235.15799985613143" y2="5" style="visibility: inherit;" fill="rgb(0, 0, 0)" stroke="rgb(204, 204, 204)" stroke-width="1px"></line><line x1="256.5359998430524" y1="0" x2="256.5359998430524" y2="5" style="visibility: inherit;" fill="rgb(0, 0, 0)" stroke="rgb(204, 204, 204)" stroke-width="1px"></line><line x1="277.9139998299735" y1="0" x2="277.9139998299735" y2="5" style="visibility: inherit;" fill="rgb(0, 0, 0)" stroke="rgb(204, 204, 204)" stroke-width="1px"></line><line x1="299.29199981689453" y1="0" x2="299.29199981689453" y2="5" style="visibility: inherit;" fill="rgb(0, 0, 0)" stroke="rgb(204, 204, 204)" stroke-width="1px"></line></g><g transform="translate(0, 8)"><text style="text-anchor: middle; visibility: hidden; font-family: &quot;Helvetica Neue&quot;, sans-serif; font-size: 12px; font-weight: 200;" x="0" y="0" dx="0em" dy="0.95em" fill="rgb(50, 49, 63)" stroke="none" stroke-width="1px">-1M</text><text style="text-anchor: middle; visibility: inherit; font-family: &quot;Helvetica Neue&quot;, sans-serif; font-size: 12px; font-weight: 200;" x="21.377999986921036" y="0" dx="0em" dy="0.95em" fill="rgb(50, 49, 63)" stroke="none" stroke-width="1px">0</text><text style="text-anchor: middle; visibility: hidden; font-family: &quot;Helvetica Neue&quot;, sans-serif; font-size: 12px; font-weight: 200;" x="42.75599997384207" y="0" dx="0em" dy="0.95em" fill="rgb(50, 49, 63)" stroke="none" stroke-width="1px">1M</text><text style="text-anchor: middle; visibility: inherit; font-family: &quot;Helvetica Neue&quot;, sans-serif; font-size: 12px; font-weight: 200;" x="64.1339999607631" y="0" dx="0em" dy="0.95em" fill="rgb(50, 49, 63)" stroke="none" stroke-width="1px">2M</text><text style="text-anchor: middle; visibility: hidden; font-family: &quot;Helvetica Neue&quot;, sans-serif; font-size: 12px; font-weight: 200;" x="85.51199994768415" y="0" dx="0em" dy="0.95em" fill="rgb(50, 49, 63)" stroke="none" stroke-width="1px">3M</text><text style="text-anchor: middle; visibility: inherit; font-family: &quot;Helvetica Neue&quot;, sans-serif; font-size: 12px; font-weight: 200;" x="106.88999993460519" y="0" dx="0em" dy="0.95em" fill="rgb(50, 49, 63)" stroke="none" stroke-width="1px">4M</text><text style="text-anchor: middle; visibility: hidden; font-family: &quot;Helvetica Neue&quot;, sans-serif; font-size: 12px; font-weight: 200;" x="128.2679999215262" y="0" dx="0em" dy="0.95em" fill="rgb(50, 49, 63)" stroke="none" stroke-width="1px">5M</text><text style="text-anchor: middle; visibility: inherit; font-family: &quot;Helvetica Neue&quot;, sans-serif; font-size: 12px; font-weight: 200;" x="149.64599990844727" y="0" dx="0em" dy="0.95em" fill="rgb(50, 49, 63)" stroke="none" stroke-width="1px">6M</text><text style="text-anchor: middle; visibility: hidden; font-family: &quot;Helvetica Neue&quot;, sans-serif; font-size: 12px; font-weight: 200;" x="171.0239998953683" y="0" dx="0em" dy="0.95em" fill="rgb(50, 49, 63)" stroke="none" stroke-width="1px">7M</text><text style="text-anchor: middle; visibility: inherit; font-family: &quot;Helvetica Neue&quot;, sans-serif; font-size: 12px; font-weight: 200;" x="192.40199988228935" y="0" dx="0em" dy="0.95em" fill="rgb(50, 49, 63)" stroke="none" stroke-width="1px">8M</text><text style="text-anchor: middle; visibility: hidden; font-family: &quot;Helvetica Neue&quot;, sans-serif; font-size: 12px; font-weight: 200;" x="213.77999986921037" y="0" dx="0em" dy="0.95em" fill="rgb(50, 49, 63)" stroke="none" stroke-width="1px">9M</text><text style="text-anchor: middle; visibility: inherit; font-family: &quot;Helvetica Neue&quot;, sans-serif; font-size: 12px; font-weight: 200;" x="235.15799985613143" y="0" dx="0em" dy="0.95em" fill="rgb(50, 49, 63)" stroke="none" stroke-width="1px">10M</text><text style="text-anchor: middle; visibility: hidden; font-family: &quot;Helvetica Neue&quot;, sans-serif; font-size: 12px; font-weight: 200;" x="256.5359998430524" y="0" dx="0em" dy="0.95em" fill="rgb(50, 49, 63)" stroke="none" stroke-width="1px">11M</text><text style="text-anchor: middle; visibility: inherit; font-family: &quot;Helvetica Neue&quot;, sans-serif; font-size: 12px; font-weight: 200;" x="277.9139998299735" y="0" dx="0em" dy="0.95em" fill="rgb(50, 49, 63)" stroke="none" stroke-width="1px">12M</text><text style="text-anchor: middle; visibility: hidden; font-family: &quot;Helvetica Neue&quot;, sans-serif; font-size: 12px; font-weight: 200;" x="299.29199981689453" y="0" dx="0em" dy="0.95em" fill="rgb(50, 49, 63)" stroke="none" stroke-width="1px">13M</text></g><line x1="0" y1="0" x2="299.29199981689453" y2="0" fill="rgb(0, 0, 0)" stroke="rgb(204, 204, 204)" stroke-width="1px"></line></g></g></g></g></svg>