<svg viewBox="0 0 330 200" xmlns="http://www.w3.org/2000/svg"><g><g><g><g><g><line x1="82.47800064086914" y1="177.98999977111816" x2="77.47800064086914" y2="177.98999977111816" style="visibility: inherit;" fill="rgb(0, 0, 0)" stroke="rgb(204, 204, 204)" stroke-width="1px"></line><line x1="82.47800064086914" y1="161.80909070101652" x2="77.47800064086914" y2="161.80909070101652" style="visibility: inherit;" fill="rgb(0, 0, 0)" stroke="rgb(204, 204, 204)" stroke-width="1px"></line><line x1="82.47800064086914" y1="145.62818163091487" x2="77.47800064086914" y2="145.62818163091487" style="visibility: inherit;" fill="rgb(0, 0, 0)" stroke="rgb(204, 204, 204)" stroke-width="1px"></line><line x1="82.47800064086914" y1="129.44727256081322" x2="77.47800064086914" y2="129.44727256081322" style="visibility: inherit;" fill="rgb(0, 0, 0)" stroke="rgb(204, 204, 204)" stroke-width="1px"></line><line x1="82.47800064086914" y1="113.26636349071156" x2="77.47800064086914" y2="113.26636349071156" style="visibility: inherit;" fill="rgb(0, 0, 0)" stroke="rgb(204, 204, 204)" stroke-width="1px"></line><line x1="82.47800064086914" y1="97.0854544206099" x2="77.47800064086914" y2="97.0854544206099" style="visibility: inherit;" fill="rgb(0, 0, 0)" stroke="rgb(204, 204, 204)" stroke-width="1px"></line><line x1="82.47800064086914" y1="80.90454535050826" x2="77.47800064086914" y2="80.90454535050826" style="visibility: inherit;" fill="rgb(0, 0, 0)" stroke="rgb(204, 204, 204)" stroke-width="1px"></line><line x1="82.47800064086914" y1="64.72363628040661" x2="77.47800064086914" y2="64.72363628040661" style="visibility: inherit;" fill="rgb(0, 0, 0)" stroke="rgb(204, 204, 204)" stroke-width="1px"></line><line x1="82.47800064086914" y1="48.542727210304946" x2="77.47800064086914" y2="48.542727210304946" style="visibility: inherit;" fill="rgb(0, 0, 0)" stroke="rgb(204, 204, 204)" stroke-width="1px"></line><line x1="82.47800064086914" y1="32.3618181402033" x2="77.47800064086914" y2="32.3618181402033" style="visibility: inherit;" fill="rgb(0, 0, 0)" stroke="rgb(204, 204, 204)" stroke-width="1px"></line><line x1="82.47800064086914" y1="16.18090907010165" x2="77.47800064086914" y2="16.18090907010165" style="visibility: inherit;" fill="rgb(0, 0, 0)" stroke="rgb(204, 204, 204)" stroke-width="1px"></line><line x1="82.47800064086914" y1="0" x2="77.47800064086914" y2="0" style="visibility: inherit;" fill="rgb(0, 0, 0)" stroke="rgb(204, 204, 204)" stroke-width="1px"></line></g><g transform="translate(72.47800064086914, 0)"><text style="text-anchor: end; visibility: hidden; font-family: &quot;Helvetica Neue&quot;, sans-serif; font-size: 12px; font-weight: 200;" x="0" y="177.98999977111816" dx="0em" dy="0.3em" fill="rgb(50, 49, 63)" stroke="none" stroke-width="1px">900</text><text style="text-anchor: end; visibility: inherit; font-family: &quot;Helvetica Neue&quot;, sans-serif; font-size: 12px; font-weight: 200;" x="0" y="161.80909070101652" dx="0em" dy="0.3em" fill="rgb(50, 49, 63)" stroke="none" stroke-width="1px">950</text><text style="text-anchor: end; visibility: hidden; font-family: &quot;Helvetica Neue&quot;, sans-serif; font-size: 12px; font-weight: 200;" x="0" y="145.62818163091487" dx="0em" dy="0.3em" fill="rgb(50, 49, 63)" stroke="none" stroke-width="1px">1e+3</text><text style="text-anchor: end; visibility: inherit; font-family: &quot;Helvetica Neue&quot;, sans-serif; font-size: 12px; font-weight: 200;" x="0" y="129.44727256081322" dx="0em" dy="0.3em" fill="rgb(50, 49, 63)" stroke="none" stroke-width="1px">1.05e+3</text><text style="text-anchor: end; visibility: hidden; font-family: &quot;Helvetica Neue&quot;, sans-serif; font-size: 12px; font-weight: 200;" x="0" y="113.26636349071156" dx="0em" dy="0.3em" fill="rgb(50, 49, 63)" stroke="none" stroke-width="1px">1.1e+3</text><text style="text-anchor: end; visibility: inherit; font-family: &quot;Helvetica Neue&quot;, sans-serif; font-size: 12px; font-weight: 200;" x="0" y="97.0854544206099" dx="0em" dy="0.3em" fill="rgb(50, 49, 63)" stroke="none" stroke-width="1px">1.15e+3</text><text style="text-anchor: end; visibility: hidden; font-family: &quot;Helvetica Neue&quot;, sans-serif; font-size: 12px; font-weight: 200;" x="0" y="80.90454535050826" dx="0em" dy="0.3em" fill="rgb(50, 49, 63)" stroke="none" stroke-width="1px">1.2e+3</text><text style="text-anchor: end; visibility: inherit; font-family: &quot;Helvetica Neue&quot;, sans-serif; font-size: 12px; font-weight: 200;" x="0" y="64.72363628040661" dx="0em" dy="0.3em" fill="rgb(50, 49, 63)" stroke="none" stroke-width="1px">1.25e+3</text><text style="text-anchor: end; visibility: hidden; font-family: &quot;Helvetica Neue&quot;, sans-serif; font-size: 12px; font-weight: 200;" x="0" y="48.542727210304946" dx="0em" dy="0.3em" fill="rgb(50, 49, 63)" stroke="none" stroke-width="1px">1.3e+3</text><text style="text-anchor: end; visibility: inherit; font-family: &quot;Helvetica Neue&quot;, sans-serif; font-size: 12px; font-weight: 200;" x="0" y="32.3618181402033" dx="0em" dy="0.3em" fill="rgb(50, 49, 63)" stroke="none" stroke-width="1px">1.35e+3</text><text style="text-anchor: end; visibility: hidden; font-family: &quot;Helvetica Neue&quot;, sans-serif; font-size: 12px; font-weight: 200;" x="0" y="16.18090907010165" dx="0em" dy="0.3em" fill="rgb(50, 49, 63)" stroke="none" stroke-width="1px">1.4e+3</text><text style="text-anchor: end; visibility: hidden; font-family: &quot;Helvetica Neue&quot;, sans-serif; font-size: 12px; font-weight: 200;" x="0" y="0" dx="0em" dy="0.3em" fill="rgb(50, 49, 63)" stroke="none" stroke-width="1px">1.45e+3</text></g><line x1="82.47800064086914" y1="0" x2="82.47800064086914" y2="177.98999977111816" fill="rgb(0, 0, 0)" stroke="rgb(204, 204, 204)" stroke-width="1px"></line></g></g><g transform="translate(82, 0)" clip-path="url(#clip_0)"><clipPath id="clip_0"><rect width="247" height="177"></rect></clipPath><g><g><g><line x1="0" y1="0" x2="0" y2="177.98999977111816" fill="rgb(0, 0, 0)" stroke="rgb(60, 60, 60)" stroke-width="1px" opacity="0.25"></line><line x1="17.68014281136649" y1="0" x2="17.68014281136649" y2="177.98999977111816" fill="rgb(0, 0, 0)" stroke="rgb(60, 60, 60)" stroke-width="1px" opacity="0.25"></line><line x1="35.36028562273298" y1="0" x2="35.36028562273298" y2="177.98999977111816" fill="rgb(0, 0, 0)" stroke="rgb(60, 60, 60)" stroke-width="1px" opacity="0.25"></line><line x1="53.04042843409947" y1="0" x2="53.04042843409947" y2="177.98999977111816" fill="rgb(0, 0, 0)" stroke="rgb(60, 60, 60)" stroke-width="1px" opacity="0.25"></line><line x1="70.72057124546596" y1="0" x2="70.72057124546596" y2="177.98999977111816" fill="rgb(0, 0, 0)" stroke="rgb(60, 60, 60)" stroke-width="1px" opacity="0.25"></line><line x1="88.40071405683246" y1="0" x2="88.40071405683246" y2="177.98999977111816" fill="rgb(0, 0, 0)" stroke="rgb(60, 60, 60)" stroke-width="1px" opacity="0.25"></line><line x1="106.08085686819894" y1="0" x2="106.08085686819894" y2="177.98999977111816" fill="rgb(0, 0, 0)" stroke="rgb(60, 60, 60)" stroke-width="1px" opacity="0.25"></line><line x1="123.76099967956543" y1="0" x2="123.76099967956543" y2="177.98999977111816" fill="rgb(0, 0, 0)" stroke="rgb(60, 60, 60)" stroke-width="1px" opacity="0.25"></line><line x1="141.44114249093192" y1="0" x2="141.44114249093192" y2="177.98999977111816" fill="rgb(0, 0, 0)" stroke="rgb(60, 60, 60)" stroke-width="1px" opacity="0.25"></line><line x1="159.12128530229842" y1="0" x2="159.12128530229842" y2="177.98999977111816" fill="rgb(0, 0, 0)" stroke="rgb(60, 60, 60)" stroke-width="1px" opacity="0.25"></line><line x1="176.8014281136649" y1="0" x2="176.8014281136649" y2="177.98999977111816" fill="rgb(0, 0, 0)" stroke="rgb(60, 60, 60)" stroke-width="1px" opacity="0.25"></line><line x1="194.48157092503138" y1="0" x2="194.48157092503138" y2="177.98999977111816" fill="rgb(0, 0, 0)" stroke="rgb(60, 60, 60)" stroke-width="1px" opacity="0.25"></line><line x1="212.16171373639787" y1="0" x2="212.16171373639787" y2="177.98999977111816" fill="rgb(0, 0, 0)" stroke="rgb(60, 60, 60)" stroke-width="1px" opacity="0.25"></line><line x1="229.84185654776437" y1="0" x2="229.84185654776437" y2="177.98999977111816" fill="rgb(0, 0, 0)" stroke="rgb(60, 60, 60)" stroke-width="1px" opacity="0.25"></line><line x1="247.52199935913086" y1="0" x2="247.52199935913086" y2="177.98999977111816" fill="rgb(0, 0, 0)" stroke="rgb(60, 60, 60)" stroke-width="1px" opacity="0.25"></line></g><g><line x1="0" y1="177.98999977111816" x2="247.52199935913086" y2="177.98999977111816" fill="rgb(0, 0, 0)" stroke="rgb(60, 60, 60)" stroke-width="1px" opacity="0.25"></line><line x1="0" y1="161.80909070101652" x2="247.52199935913086" y2="161.80909070101652" fill="rgb(0, 0, 0)" stroke="rgb(60, 60, 60)" stroke-width="1px" opacity="0.25"></line><line x1="0" y1="145.62818163091487" x2="247.52199935913086" y2="145.62818163091487" fill="rgb(0, 0, 0)" stroke="rgb(60, 60, 60)" stroke-width="1px" opacity="0.25"></line><line x1="0" y1="129.44727256081322" x2="247.52199935913086" y2="129.44727256081322" fill="rgb(0, 0, 0)" stroke="rgb(60, 60, 60)" stroke-width="1px" opacity="0.25"></line><line x1="0" y1="113.26636349071156" x2="247.52199935913086" y2="113.26636349071156" fill="rgb(0, 0, 0)" stroke="rgb(60, 60, 60)" stroke-width="1px" opacity="0.25"></line><line x1="0" y1="97.0854544206099" x2="247.52199935913086" y2="97.0854544206099" fill="rgb(0, 0, 0)" stroke="rgb(60, 60, 60)" stroke-width="1px" opacity="0.25"></line><line x1="0" y1="80.90454535050826" x2="247.52199935913086" y2="80.90454535050826" fill="rgb(0, 0, 0)" stroke="rgb(60, 60, 60)" stroke-width="1px" opacity="0.25"></line><line x1="0" y1="64.72363628040661" x2="247.52199935913086" y2="64.72363628040661" fill="rgb(0, 0, 0)" stroke="rgb(60, 60, 60)" stroke-width="1px" opacity="0.25"></line><line x1="0" y1="48.542727210304946" x2="247.52199935913086" y2="48.542727210304946" fill="rgb(0, 0, 0)" stroke="rgb(60, 60, 60)" stroke-width="1px" opacity="0.25"></line><line x1="0" y1="32.3618181402033" x2="247.52199935913086" y2="32.3618181402033" fill="rgb(0, 0, 0)" stroke="rgb(60, 60, 60)" stroke-width="1px" opacity="0.25"></line><line x1="0" y1="16.18090907010165" x2="247.52199935913086" y2="16.18090907010165" fill="rgb(0, 0, 0)" stroke="rgb(60, 60, 60)" stroke-width="1px" opacity="0.25"></line><line x1="0" y1="0" x2="247.52199935913086" y2="0" fill="rgb(0, 0, 0)" stroke="rgb(60, 60, 60)" stroke-width="1px" opacity="0.25"></line></g></g></g><g><g><line x1="0" y1="469.2463630329479" x2="247.52199935913086" y2="469.2463630329479" fill="rgb(0, 0, 0)" stroke="rgb(153, 153, 153)" stroke-width="1.5px"></line></g></g><g><g><line x1="17.68014281136649" y1="0" x2="17.68014281136649" y2="177.98999977111816" fill="rgb(0, 0, 0)" stroke="rgb(153, 153, 153)" stroke-width="1.5px"></line></g></g><g><g><g><g><g><path style="fill: none;" stroke="rgb(0, 119, 187)" stroke-width="2px" d="M18.621168412501472,229.56336858574682L18.90316669034277,161.78827200209088L18.94913506165232,176.26236379367003L18.994219425821303,155.10663502004908L19.26030557513237,112.87440309082497L19.384066574811932,103.92666850760452L19.764189645256316,68.6444649086211L19.836678230782915,62.4156445042552L19.922426923418048,59.649522839222016L20.098344344391144,62.256521697286516L20.594272350249973,36.52547891698694L20.6464287715435,35.979175715008324L21.541043997798646,19.49740286688447L21.61441659046582,18.887695467988124L21.695745247398104,18.692584359840566L21.710773368787766,23.561236599673606L22.11918466773033,20.531108549592858L22.26327783164297,23.306553199344137L22.449803338302885,22.476214996842998L22.783958037437714,22.73741658564063L22.946615351302285,19.536037947623157L23.019987943969454,27.78079578059345L23.205629443488803,17.428016292841022L23.646749006632398,18.448369565232753L23.657357092319216,22.050241504404255L23.783770113420488,18.789172061687253L23.882778913164138,23.987091579594733L24.049856262731552,24.08166456864214L24.322130462026596,21.939116267064918L24.618272854116984,30.69197676717303L24.64921310403688,22.32542757027909L24.855186767789295,21.59274368228307L24.955963581814082,16.8057465670787L24.992207874577385,23.48779834293211L25.237077852514812,25.145353918304153L25.573000565930773,27.559493406055594L25.623388972943168,22.57552848659455L25.910691293627874,25.075352524573162L26.094564778866086,23.511540350625296L26.170589392954962,24.758805590054777L26.2978864211968,26.78825344566596L26.917575426735194,26.433189942926504L26.988295997980664,26.144809483425178L27.36488303986277,29.75529333220922L27.418807475437436,33.358626925764526L27.466543861028125,31.876864918170668L27.91915551699911,27.41522416795985L27.949211759778432,23.97358115258794L28.305466637427468,25.776907124612052L28.47784802983829,23.811416524334135L28.589232929549897,21.13824817727445L29.108145121063508,25.566744926728887L29.24693424213273,21.786551152736962L29.27080243492808,21.915492771889348L30.36078323924882,29.094151500673036L30.691401909821373,30.429708565716965L30.78952670242446,32.25002133193087L30.872623373637882,31.355291328198632L31.403027657978875,30.521871800239808L31.66027373588426,30.921693530460743L31.971444249364307,24.799929433663124L32.62649354052544,26.404154376113695L32.81125103290422,26.179296626047744L32.83865525426184,24.87384174047503L33.033136825186865,22.608040420590385L33.232922438955306,23.388998407423486L34.99032863440514,27.287586186501102L35.08668541272708,29.886802722576334L35.1671300625188,35.04126765069594L35.40050794762884,36.00706566081763L35.4517803617818,32.94971923586067L35.459736426046916,36.05672240569342L35.62062572563035,40.37219771752686L35.69046228973525,40.0562433455965L35.881407832098006,42.8625802582697L35.91588411058017,37.98571115054952L36.093569545834406,43.3045529405849L36.09622156725611,39.93875793647911L36.16075408851759,38.561958515309215L36.35965569514547,41.778743780615144L36.416232152141845,56.25793161045125L36.5709334017413,57.04611886085816L37.038573179101945,62.40896829909687L37.38952401390757,67.80306553781033L37.46466462085588,60.50735594580712L37.48941682079179,76.43496426161802L38.17894239043508,76.43816409959332L38.30977544723919,78.05917831537101L38.37607598278182,88.51474766005803L38.43442045405933,83.54018473366021L38.64923418921743,88.03137460492678L38.67663841057505,84.76532763647043L39.07090559526852,84.44660797246266L39.190246559245246,99.47699752167163L39.19201457352638,88.59596823878883L39.225606844867976,93.95656593919308L39.48992497989791,85.87887125187088L39.58362973679815,92.88493625085165L39.7666192148958,90.96870735372417L40.04861749273709,88.28977139747448L40.17061047813552,94.51116501740393L40.54277748431478,80.88021078022706L40.57371773423468,80.09111493385186L41.41352451777458,83.44075273139106L41.41440852491515,74.47441168290689L42.039401573296956,71.71658589410596L42.12603427307265,83.48310120434797L42.957000985206875,78.60117556254338L43.33447203422955,76.33450515086297L43.35745621988433,77.41486526133451L43.415800691161834,72.56181716965258L43.53867768370083,80.35816314018459L43.59348612641607,85.39150827531364L44.09383416797775,74.90097773793366L44.24941942471777,74.4219896459537L44.27240361037254,67.94081658743787L44.398816631473814,79.58095804974225L44.66048274508204,73.62673114866314L44.786011759042744,80.80120243515819L44.86910843025616,74.42214766264385L44.88148453022412,77.47092168216086L45.48791342865399,76.62738908603322L45.520621692855016,78.4397615135677L45.906932813283376,84.08550033132546L45.9564372131552,81.41651942655444L46.3975567762988,91.55921572476879L46.59380636150497,88.59711385979233L46.686627111264634,76.92931947671386L46.80331605381966,93.28076805964663L46.8103881109442,79.96158075211146L46.92707705349922,87.83970035978973L47.05702610316276,83.10354511463717L47.22852348843302,92.72553691467523L47.25327568836893,77.54515002235306L47.54853407331875,79.15913249541964L47.559142159005575,80.48801335530524L47.59096641606603,92.60576026355085L47.63870280165673,91.81816557573197L47.671411065857754,81.42773861155422L47.70411933005878,64.53275211872025L47.81285220834868,71.58187666576356L48.10103853617396,77.74911006514829L48.24513170008659,91.91317311067728L48.31054822848865,84.72052990481639L48.977973619617735,95.85782275493003L49.09201054075105,87.61334145116747L49.50749389681816,91.59725824291945L49.5817504966259,94.11090874128509L50.10508272384235,91.89946516280781L50.1316029380594,109.94323299294295L50.30044830190795,101.76547423659105L50.61161881538799,101.06739600373517L50.86532886473111,90.69095351663461L51.1084308283874,87.85818831253584L51.20743962813105,110.75607084701134L51.71927976252011,108.42781343034977L51.95354165477071,96.63099841977385L52.05962251163891,98.48137386128644L52.184267518459045,87.71534122465137L52.46272976773807,103.09261691288515L52.821636666808814,117.87946323841938L53.00462614490645,97.96983433113814L53.10275093750953,90.98079563051971L53.34673690830639,95.92241207702382L53.52707436498233,96.53290955937086L53.72155593590736,79.08881506830836L53.78608845716885,88.03224369672253L54.00443822088923,87.95943750674158L54.20864387036051,78.93826466677965L54.44555778403282,76.85588121997235L54.971542032670975,76.11632360595532L55.25088828909056,84.74834084228063L55.2668004176208,79.99132739402988L56.19500791521753,84.8419657311872L56.301972779226304,68.260523855759L56.365621293347225,84.34057877338026L56.44871796456064,84.26484927463176L56.61491130698749,79.1054068207728L56.68563187823296,81.6622353797186L56.79790078508513,72.37006391617047L56.80408883506911,86.49983733993955L56.84298514925411,68.88706003215503L56.88983752770424,75.33406198142858L57.34244918367522,87.65568992412437L57.473282240479335,86.29141332564792L57.83395715383121,85.95890670542563L57.95329811780793,71.26181385988963L58.08678319603375,77.72382739472626L58.67022790880884,100.65809327210596L58.68437202305794,81.0595202193608L58.754208587162836,86.48146789971105L59.53920692798751,108.26395012267696L59.837117334359036,101.37912342920434L59.896345812777106,89.37317332923116L59.93082209125927,88.32129572715695L60.13060770502772,88.34183789687485L60.22431246192796,96.21466394543351L60.31713321168763,85.97897482507312L60.618579646621434,68.0893127719948L61.28158500204768,89.98612007027533L61.351421566152574,108.2510322582582L61.462806465864176,91.89006316974462L61.93044624322482,102.88123008565341L61.974646600253244,97.17568195067854L62.07100337857519,100.68136122972874L62.09752359279224,95.40656659206925L62.64914404850688,87.86612865121528L62.7905851909978,94.14385522117881L62.92760629778589,99.9540499091974L63.009818961858755,107.01597380814185L63.51458703912326,107.08858247726013L63.951286566564015,94.48260350066153L64.29604935138566,113.64880338501735L64.49406695087298,108.19999286734372L64.52323918651172,106.81244831124448L64.65849227901867,88.47026596178426L64.6717523861272,109.56284731560895L64.99087896387236,117.46135107631498L65.20127266332763,103.12208702559583L65.21099674187387,94.90154525038913L65.33917777725628,97.55899093678009L65.37807409144129,110.43569200775714L65.56990364094462,92.8634064768204L66.17456452509334,94.62797885558822L66.28948545336723,85.63477496978064L66.60949603825297,89.90525502909738L66.82519378055164,87.87944155735937L67.02232737289837,96.88094131939917L67.52709545016289,78.37315747867466L67.68975276402746,96.9458071707007L67.76666138525691,112.35077528388112L67.92489866341865,109.55356383506336L67.95407089905738,79.22779074728447L68.38281436223302,95.7469345426259L68.54105164039476,89.1906640521221L69.38616246677807,97.19578957449856L69.63280045899663,101.02915596472184L69.65666865179199,110.65008115210146L69.67169677318164,103.70271935350685L70.11458435060636,95.20497679962608L70.15613268621308,97.62188157945491L70.26309755022186,91.24733028260948L70.44697103546005,93.53051343840927L70.92345088422638,99.96258281046482L70.92875492706979,99.04648104939145L70.9482030841623,104.89851065612397L71.02776372681345,101.42858265321745L71.18511699783461,97.82185170082418L71.83044221044949,88.39303530447947L71.89320671742983,107.59889737805986L72.25034560221944,95.45910714154004L72.65610487974031,112.5748429504964L73.01677979309218,96.42383853900331L73.87073069088117,99.73590786846228L74.01040381909098,121.46604706282008L74.18190120436124,102.88849885339975L74.76180988857406,99.4721385084499L75.0871245163032,105.54009792225563L75.44337939395223,92.07920914783946L75.71653760038785,86.18518660570282L75.75366590029171,102.41677952916615L76.11257279936245,99.11667996398512L76.76497006910188,96.9516537882358L76.93204741866928,91.4501052002287L76.97182773999486,108.56244365034709L77.34222673189299,105.42984177671204L78.08567673711096,93.77500476222485L78.17142542974608,109.24424616411879L78.35883494354657,105.0955574687257L78.87244309221676,95.8109708063042L78.88481919218472,91.56312663784969L79.12350112013817,99.75759565918368L79.3568790052482,112.9972215632345L79.4267155693531,98.59234108193566L79.5301444047996,95.22753368214323L80.01369631069048,104.30523699300194L80.11800915327754,106.65407608355396L80.18519369596073,114.3720852799502L80.48575612375394,103.44495462771971L80.86764720847947,97.43905626896557L80.97903210819109,101.43885373807639L81.29020262167113,107.94167508314109L81.33528698584011,89.51546735870016L81.35473514293263,101.45501094464298L81.38390737857138,108.37148048031568L81.40600755708559,109.8808559045111L81.63584941363335,99.44231285818641L81.63761742791449,108.23183323040647L81.72778615625245,112.4256751950064L81.73043817767416,102.22976677638817L82.01243645551546,89.05275498580441L82.26526249771798,104.58152917570773L82.4155437116146,113.01440587828698L82.95920810306413,110.79284923164089L83.07412903133802,109.58903858199928L83.30662290930748,107.51641266580798L84.4558321920463,117.7107014133523L85.10204141180174,109.91064205060205L85.3354192969118,108.04106758123771L85.46271632515362,109.88318665069062L85.50426466076034,124.82955082491887L85.60769349620683,116.47141601677475L85.71023832451276,101.22916559026365L85.71642637449673,118.72418095972304L85.96836840955869,128.5630506669751L86.58982542937824,103.54181885877412L86.79668310027122,114.61357428665315L86.86121562153271,118.08907237788705L87.36244767023494,112.67162817320575L87.4225601557936,104.01823917953932L87.49062870561737,109.08263459428044L87.50300480558532,104.77581069623206L87.53748108406748,109.29030802929393L87.56576931256566,124.6417479886902L88.08910153978212,110.93462970686696L88.42325623891693,110.27771482179195L88.47276063878877,103.97241433939939L88.53375713148797,111.89576622462958L88.59121759562493,105.48795241451018L88.7901192022528,101.15157939540603L88.80426331650189,120.06578216316476L88.93156034474373,106.59284461612559L88.95454453039851,96.25215340516868L88.98725279459954,103.4336959385474L89.3258275294372,111.90192887554495L89.342623665108,110.3430547231639L89.43279239344596,105.73181167156521L89.66617027855601,122.546288660774L89.76606308544022,101.34882372887043L90.8639999540261,108.47727265436286L90.89405619680541,121.30005052983041L90.9638927609103,115.62764639561192L91.33340774566786,121.51044975274877L91.77099128024918,128.27700095365333L92.34294390019689,134.0026172082757L92.512673271186,121.32319997493559L92.94406875578335,130.5156629070068L93.01478932702882,114.23002827551639L93.31446774768148,118.66599131357984L93.3418719690391,123.21706951040859L93.47182101870264,124.81710701057051L93.76177536080905,127.54443557817488L94.43892483048438,108.52669237420344L94.5140654374327,117.93239882961551L94.64047845853398,120.73695805452468L94.98082120765277,117.38593761094677L95.03120961466517,108.90142895486501L95.22215515702793,116.29649154079232L95.36624832094056,100.53365512862251L95.6385225202356,101.15197443713137L96.11323435472079,116.20895029445603L96.23787936154093,103.32699516853191L96.70817116032327,107.12662499541078L96.72231527457238,110.11408853915435L97.06000600226947,104.47542096828026L97.26155963031906,108.11624402157074L97.3163680730343,108.91742814474146L97.49493751542909,109.2650253588719L98.25253163489614,108.41418449082539L98.43463710585323,121.99627206657718L98.72105541939736,108.893370103668L98.74138758363043,95.56655849083369L98.81652819057874,115.07004500028847L98.81918021200045,115.58407329330645L99.15952296111924,100.66196468101434L99.69788330972536,93.24865116737614L99.75003973101889,100.40412094688212L100.04883414453099,102.24580547043715L100.1345828371661,102.560021658776L100.35381660802705,109.7141482964158L100.73393967847143,87.81828909827607L101.29528421273231,96.05364493818318L101.51451798359327,112.92244016462683L101.75585193296841,100.7471751811711L101.98922981807846,103.2728349479872L102.03873421795028,86.73105526178355L102.06702244644846,101.50225793499415L102.1297869534288,94.97308730684898L102.54438630235536,98.75786356485492L102.56471846658842,102.48350207657681L102.85555681583541,108.11071343741592L103.0624144867284,104.57868487528525L103.11987495086534,95.08606924029745L103.6732634208611,101.28711821137165L103.84122477756908,99.82088134358384L104.00034606287139,113.76253589774397L104.17714749098505,109.92403396509123L104.24786806223052,94.29333901004908L104.34510884769304,90.11494317691012L104.54489446146147,103.92263908200601L104.77650433229039,111.42068904573055L105.29011248096057,123.93821818002458L105.6887997013569,97.67805651279886L105.78427247253826,93.2592777897879L106.02295440049171,103.0692699469173L106.62584727035932,98.3768853249329L106.64617943459238,109.7586694988621L106.88397735540526,102.95269313376821L106.9361337766988,100.1291719060425L107.00685434794426,97.74552963948766L107.07315488348688,103.32739021025725L107.21636404025895,105.42802458477546L107.30564876145635,103.94693414811468L107.45062593250955,108.53945222193205L107.82544496011052,109.98542344920972L107.8431251029219,115.19874959440563L108.34347314448357,108.04379336914259L108.37176137298175,105.80746216196863L108.49905840122359,108.41572515355423L108.67143979363442,109.20387289978859L108.69884401499203,126.2960247177419L108.74746440772329,102.27902847953861L108.77840465764318,127.28959416115529L108.78724472904887,109.77648588067514L108.95962612145968,113.50018868794284L109.23455234217644,103.37246447111903L109.61467541262083,115.74635643407787L109.9055137618678,130.5682824648227L109.95678617602076,124.90472726525188L110.45359818902016,118.01796486732508L110.46685829612869,130.1007505828777L110.47835038895607,131.39233950389084L110.62774759571212,138.39062218088233L110.92919403064592,127.58283363387835L111.08477928738594,130.06626344025517L111.22975645843916,135.4830755781759L111.2421325584071,128.89559679136994L111.61518357172693,123.76218758721116L111.66557197873934,112.36649794454982L111.77430485702924,133.2235159175517L111.92989011376926,139.64630180906164L112.01829082782609,117.97111291869925L112.40460194825445,131.9095676348841L113.05346318943161,125.44806765429041L113.71558453771728,125.01249464792579L114.2954932219301,120.79506869232281L114.29637722907067,117.54193958828523L114.34764964322363,131.31147446271285L114.5244510713373,116.48950892779553L114.80821736345972,119.00217182184781L115.13441599832943,118.01816238818776L115.16358823396818,122.17660861419682L115.33508561923844,125.34010275075383L115.48359881885392,116.21353277847001L115.53221921158519,134.20649824272587L115.61708389707974,134.25153299941513L116.02107516031947,120.43012914644979L116.13511208145277,114.68823717274321L116.46661475916589,129.36711859474084L116.65844430866923,131.29871461498425L117.3205656569549,124.78949359396896L117.35504193543707,123.22741960361262L117.53095935641016,119.90993820251643L117.90224235544886,132.70273241103035L118.1382722619806,144.1433580499496L118.27264134734699,121.19666811030781L118.48391905394281,132.71987722191028L118.75972928180013,125.49859349096194L118.90735847427504,119.8513930188204L119.47047102281707,129.98757112856657L119.83291395045008,136.6496732972901L119.8435220361369,138.15715252120387L120.06187179985727,124.51727034103422L120.1617646067415,129.99061294985174L120.304089756373,128.04479542749596L120.86455028349332,120.03303320413372L120.89814255483492,130.6612752869687L120.96179106895583,125.10157655699095L120.996267347438,112.96929211325266L121.16776473270825,120.87233885380016L121.19516895406586,125.50001564117318L121.29064172524724,128.1514566933389L121.71496515272004,128.65288315531842L121.88292650942802,118.16144402197011L121.98547133773396,124.0941806531905L122.20558911573546,111.63341901482845L122.61311640753746,111.25062358296985L122.84030624266352,126.3967603577047L122.91986688531466,120.73407424992968L123.18860505604744,119.21027980275917L123.33711825566292,116.7266524755197L123.78707789021219,121.67782893177714L124.85937855172156,117.98648004181514L124.86026255886213,90.3486498616238L124.98313955140115,97.56740532552993L125.0096597656182,102.9491377582401L125.0459040583815,114.4518442042972L125.42779514310702,98.19097868898587L125.75487778511727,110.19112167559649L126.12350876273428,104.13643566376234L126.13411684842109,107.08530363093976L126.22693759818077,122.91063564405903L126.51777594742775,118.4302699160669L126.99602381047521,117.58527566555549L127.01723998184885,114.9604999298505L127.0464122174876,112.90079187807797L127.51582000912938,110.27419895043639L128.01351602926937,118.3977974862436L128.06478844342232,118.9545297897713L128.2636900500502,98.366100685831L128.48203981377057,102.6220037054825L129.7169977891445,127.99897058735601L129.93623156000544,121.4788069105487L129.9830839384556,126.90652220008894L130.07944071677753,110.54381492798386L130.35967098033768,121.29471746653826L130.47282389433042,114.32977631116583L130.55680457268443,120.6757265870963L130.68763762948853,124.26823603737719L130.71592585798672,130.15483179507734L130.76985029356138,122.46269783169116L130.97670796445436,111.80190431068777L131.1464373354435,117.44894676613917L131.2383740780626,129.62334265779916L131.63087324847493,120.90611492131708L131.89077134780203,110.4117919833738L132.0428205759798,106.52142107218334L132.1206132043498,120.46414223900192L132.13829334716115,105.97322166992309L132.20547788984436,121.61865168132057L132.24349019688879,110.46215980335519L132.57941291030474,123.431537663098L132.7084779528277,111.68512997667602L133.2671704656669,120.45584636276969L133.46430405801362,127.11577580200381L133.973492170981,118.64236781840424L134.13084544200217,107.79088765657718L134.17858182759286,115.90097576537762L134.30411084155355,110.9893034816546L135.01131655400823,124.75405835120557L135.2234782677446,111.58226111139636L135.47984033850943,118.06307863235939L135.57884913825308,123.3074945613399L136.0579810084411,127.52448597104501L136.18793005810466,134.49989573213907L136.51412869297437,126.44981446141843L136.52562078580175,122.74278241496025L136.60076139275006,118.81594915252052L136.9570162703991,124.3625720013894L137.05072102729935,131.4771154581497L137.60941354013852,122.514724826919L137.8366033752646,127.52282679579855L138.13451378163612,111.99448715179312L138.2662308455808,126.06820415473587L138.5446930948598,118.28517109034794L138.54911313056266,129.0582749738667L138.56237323767118,123.53215479054319L138.85409559405872,114.09666218904016L138.8823838225569,119.53243632977744L139.33322746424676,122.69478484533093L139.35002359991753,120.46726306863214L139.44107633539608,123.0852440866612L139.68771432761463,122.50366365860936L140.5478532753876,115.36435108566995L140.82985155322893,120.88134580513801L140.95803258861133,117.146976871286L140.99869691707747,125.30379841619467L141.46368467301642,137.5185280680123L141.49904495863913,126.81771682023157L141.52556517285618,122.54581461070359L141.53440524426188,120.69804644457827L141.60158978694506,127.43007099868771L141.63164602972438,110.96346775281708L141.73595887231144,120.13760074883234L142.14879020695685,138.41049277966715L142.36006791355268,116.65759918192951L142.5660415773051,117.72962391199628L143.12385008300373,111.98291242924053L143.1556743400642,113.58389802954329L143.42706453221865,113.3602649088259L143.42794853935922,122.05801708824848L143.69226667438917,127.50422033053485L143.9176884952341,112.51329544968776L144.04233350205422,109.93015711183406L144.3022316013813,113.07223998687738L144.44013671530996,118.86311713452662L144.6425743505001,103.41986947816035L144.8379399285657,118.55356243854685L144.9493248282773,118.32878369682595L145.22159902757235,124.86154920467176L145.27375544886587,119.87936197297478L145.3789522985935,127.88626518311528L145.488569184024,123.33483144873372L146.53434963131633,143.45349668498088L146.6050702025618,144.88538467475001L147.0656379227979,135.69367232195694L147.40509666477612,136.39763667652045L148.10788234152795,134.40627084323248L148.7249193256446,116.98935522287366L148.8124360325609,125.49282588177192L148.93266100367816,120.77926702330905L149.0405098748275,120.5377780166061L149.09178228898048,130.08720065169842L149.1527787816797,115.22960235315503L149.15631481024195,124.8925994842838L149.24559953143935,121.1810244579842L149.32162414552826,129.48922599204477L149.83258027277674,126.33422525258268L150.04562599365372,132.52859801849857L150.22507944318906,123.13798215699467L150.27016380735807,133.55507443763315L150.33116030005726,129.16576582733288L150.81736422736986,114.5157619554579L150.99593366976467,129.03927346687763L151.08875441952432,128.07833446997768L151.24699169768607,127.57220701146659L151.25936779765402,121.37542449102611L151.29119205471446,132.33672625249886L151.3274363474778,126.76173940775027L151.41053301869118,129.74074905857148L151.45384936857906,129.8495830539038L151.61297065388135,129.68745792982253L151.6898792751108,133.17326661008792L151.70579140364103,124.58454594686035L151.82513236761773,120.15881448948332L152.55620627286774,109.30555663989222L152.77102000802586,120.57700565993278L153.46938564907484,134.36870237515222L153.52861412749292,136.88551320732063L153.58253856306757,141.31829615949505L154.32245253972326,136.27703043777285L154.44886556082454,129.84922751635102L154.9129693096229,132.82290410388006L155.26215213014737,133.0860413971319L155.38237710126467,117.22618273721754L155.3956372083732,128.82685953116004L155.9030573070594,145.42400431517066L155.9764298997266,136.10708348752974L156.20627175627436,126.90699625015937L156.36008899873323,152.94307049868354L156.42462151999473,140.07073463877154L156.5536865625177,135.8213103034157L156.5704826981885,139.70650616800413L156.628827169466,133.10496389577588L156.77115231909752,134.486069271752L156.85159696888923,145.09732456039723L156.8940293116365,138.08418831453278L157.0646426897662,145.63392948801862L157.2290680179119,134.94735949443654L157.33338086049898,135.22005679744169L157.43415767452376,138.6004090891264L158.2677764080797,134.04792849417268L158.40833354343007,134.64408596188974L158.64259543568068,134.11638922517483L158.74337224970546,144.9634646717643L158.97056208483153,130.72274377943228L159.3444971052919,119.91874763299161L159.38869746232035,117.88929977738044L159.54074669049808,126.54529604643415L159.5734549546991,120.89355259445114L159.79180471841948,132.74326369205068L160.1904919388158,123.63233737209049L160.2152441387517,133.7744016035443L160.3717134026323,129.427520474546L160.88974158700535,123.46322000947062L160.91007375123843,116.03481590192426L161.05947095799445,123.23694010919341L161.06035496513502,128.84937690950466L161.11604741499085,123.49411227239254L161.4493181069851,113.9981387827393L161.51208261396542,134.4622877598863L161.63142357794217,120.97267945203761L161.9311019985948,124.7442218122445L162.07961519821032,117.13074065637437L162.6630599109854,116.70263393861876L163.25180866660392,108.1787396225202L163.42595807329587,109.49110773828643L163.46131835891862,108.62987727286335L163.9952586718219,124.3555797628508L164.11371562865804,129.6172195110563L164.2931690781934,107.74427273298656L164.46731848488537,122.22590982151979L164.7334046341964,109.05221638142893L164.75373679842951,119.43320184837096L164.92346616941862,117.09293516325891L165.2390567186015,107.57590594964482L165.30712526842527,115.55148235096554L165.48569471082004,130.77733854587487L165.56083531776838,117.75628922845702L165.70404447454044,143.23517687546936L165.92327824540138,118.49924420131201L166.27069305164474,122.02550515425264L166.397106072746,136.6896120157224L166.5818635651248,135.7373244326075L166.7233047076157,124.91456380421295L166.8744699286529,139.33641132761534L167.01325904972214,123.01781046414494L167.4075262344156,133.84491655151825L167.61173188388688,145.40267206200207L167.89373016172817,141.82377179915932L167.97329080437933,141.78861308560369L168.1721924110072,130.8634576419999L168.44358260316167,140.77548907678573L169.07741572294918,139.2324363455047L169.43809063630104,147.3620790197097L169.47256691478321,135.624342499159L169.4814069861889,129.27254560569344L169.97821899918827,138.75216436791743L170.14176032019344,125.88818364049646L170.6332682903494,138.7239188845553L170.74023315435818,138.38125969199166L170.8118377327442,132.0645820079092L170.91880259675298,130.339158264123L171.1495284604413,132.48873830841134L171.31660581000875,137.14841347553724L171.90800658704893,134.0293615330815L172.11398025080135,133.78131483373784L172.5232755568845,113.14729791469279L172.5763159853186,130.38790641303046L172.66736872079713,132.29184951249977L172.7601894705568,150.86953598652394L172.91312270587514,126.81799334943929L173.38164649037634,141.72046838798178L173.56021593277114,132.21173505059994L173.57347603987967,135.1564945838338L173.82541807494164,140.87628397300733L174.26918965950694,135.20038371951955L174.79959394384792,133.6332531950788L174.88092260078022,134.85515675574118L174.99230750049182,125.32422207339496L175.24778556411607,139.9974346466339L175.66238491304262,135.85876025897832L175.667688955886,133.7460771118371L175.69774519866533,126.45613512902393L176.13532873324667,123.38097232225394L176.4102549539634,139.76210829084633L176.56318818928173,143.44000601006036L176.81601423148427,135.77872480542356L177.12453272354264,135.9631302828143L177.1510529377597,130.31241393931717L177.38001078716687,133.09848521148024L177.7733939647198,138.09623708715577L177.77692999328204,148.56709454661362L177.8255503860133,156.21454929086337L177.96610752136368,140.26428533210398L178.08456447819984,142.16852471286728L178.13937292091506,147.46650829980447L178.2923061562334,148.8591093899881L178.69099337662968,138.39885880085575L179.05785633996555,138.7642921488855L179.35223071777477,157.23559388627447L179.3999671033655,140.4746450508498L179.44858749609674,156.78522656729572L179.45300753179959,136.76447242267514L179.6961094954559,153.2356976567323L179.7376578310626,157.84245698474834L179.73942584534373,151.69941989104095L179.92771936628478,149.1249922232311L180.02672816602845,163.44015872870423L180.312262472432,139.3660789611887L180.51381610048156,153.10675603757994L181.0406843562603,150.67764446843796L181.3173785912582,137.41633077366572L181.80977056855474,147.6533630358923L182.1545333533764,148.24448372161123L182.3552029742854,139.36416300882078L182.3666950671128,162.59190538395873L182.55233656663214,152.34965857095762L182.62482515215873,151.84635566078273L182.75831023038455,138.38096341069766L182.78306243032046,152.31949713522758L182.96781992269925,159.6452101462707L183.06417670102118,149.42978666642045L183.11368110089302,156.62958012751008L183.15788145792143,148.49691538410622L183.56452474258288,156.92149621045323L183.62994127098492,156.91227198616645L183.8677391917978,158.77432091066296L183.90840352026396,142.319667676984L183.98000809865,148.61244533668315L184.25051428366388,165.69584698042007L185.0063403888498,149.85706379655284L185.02490453880174,165.29993616328002L185.0310925887857,147.03152785602788L185.0514247530188,135.11015618945092L185.08678503864152,150.7120723548017L185.44215590915,149.92068526641953L185.62691340152878,144.15983128989643L185.98493629345893,144.27881785757015L186.07687303607804,135.53707778203048L187.6442176963057,131.11849657988216L188.63253767946108,143.91504368478687L188.78547091477938,134.15680199367756L188.98525652854784,125.47816983376164L189.63411776972498,141.08776956067038L189.77113887651305,113.39419899303297L190.06816527574404,139.33285595208724L190.35546759642872,125.24276446962898L190.36872770353725,136.77924698320302L190.4597804390158,137.31670125053392L190.55967324590003,138.05716746051922L190.65337800280028,129.51442965412173L191.42865226507868,126.60388073430269L191.6319739074094,140.15578712223817L191.6761742644378,137.75555310321886L191.87861189962797,125.73008794201368L191.98734477791785,122.61206310804383L192.68305839754515,125.74537605678451L192.93588443974767,139.4569188059316L193.12064193212646,130.18951645856257L193.51048908111707,140.46198396355254L193.51402510967935,137.77803097739096L193.871163994469,139.25827207434224L193.8959161944049,121.61521481831008L194.227418872118,142.91355365478032L194.2300708935397,139.70516302613794L194.56864562837737,146.97786143763986L194.71273879229,142.21691732422195L194.76135918502126,140.6577468905469L195.32889176926614,151.2610420884264L195.7647072895663,136.44199986227662L196.10416603154454,117.20544304663696L196.22350699552126,151.20812624931654L196.59744201598167,142.7007051731648L196.7026388657093,154.8645534507581L196.92452465799195,152.4356986587376L197.15083048597745,135.53458901916082L197.38244035680634,154.5205511163283L198.17716277617728,143.17874516500393L198.72789922475135,157.26034325036727L198.8684563601017,147.81862874169008L199.20526308065823,162.2913576393168L199.3281400731972,143.72536440036282L199.4492490514551,154.31783545496788L199.92749691450254,167.89802683043803L200.3058519706658,154.99815656226954L200.7584636266368,156.05787574259182L201.25262361821447,148.29042707426876L201.43119306060927,163.05487453397598L201.49660958901134,162.33013098465935L201.89441280226706,150.33840238679858L201.97220543063708,160.15461645110213L201.98369752346449,154.87806387776487L202.2595077513218,153.0874384972106L202.4239330794675,157.22216246761275L202.45398932224683,157.52745071295882L202.84648849265915,150.01517924712186L202.90218094251497,149.13550033312524L203.34595252708027,140.45625585853503L203.3556766056265,155.48660590357147L203.5351300551619,143.57027101899263L203.6376748834678,153.22791533474302L203.88519688282696,140.26760368259687L204.18222328205792,156.30432252294787L204.24145176047597,164.43106164047157L204.46333755275862,133.3049735213177L204.73030770921028,139.22963154925478L204.8655608017172,147.6182438265092L205.62580694260598,137.23271537972573L206.10582281993456,138.7590973501972L206.17389136975834,128.21632254464043L206.78474030389106,135.45080066921528L206.97745386053495,148.16241380317095L207.00839411045484,142.46103335839845L207.4415576093333,119.40467983580109L207.49636605204853,122.81843290536368L207.5449864447798,134.2123843644335L208.07804275054252,147.04092984909107L208.62877919911656,126.25316269054204L208.69065969895635,132.79849052525378L208.71629590603285,142.9980333277452L209.55079864672933,133.85198779840192L209.95390590282847,130.09186214405747L210.04584264544758,161.78380803059449L210.17402368083,126.36586809478277L210.32076886616434,134.55970504935618L210.63282338678496,141.98652899000115L210.65315555101805,143.21024974260013L210.7857566221033,139.03847085836068L211.56279889866283,156.03531886007468L211.77672862668035,157.18741854786873L211.86866536929946,144.31121127904836L212.02071459747725,149.36962181165052L212.08347910445758,138.6721684185352L212.34426121092525,151.6523901736387L212.4406179892472,134.102799789823L212.84372524534635,126.4304969210491L212.94627007365227,131.60850633599924L213.32904516551835,152.3086334877806L213.38473761537415,156.2838198574025L213.72242834307124,143.0998948366252L213.92840200682366,143.4572100771991L214.01326669231824,152.06635439762698L214.7337325118814,157.76927550512832L214.8495374472959,143.07281472635287L215.33308935318672,143.00921300857243L215.47718251709938,147.79182516062548L215.68669220941408,157.4420229398531L215.79896111626627,154.9761329860816L216.25952883650234,144.206367205142L216.4133460789612,143.40686200930398L216.48937069305012,134.32939572348047L216.51412289298602,141.67529536668866L216.80672925651413,144.47876822685316L217.7287487041269,146.98862632465548L217.8153814039026,152.69630768494721L217.82598948958943,133.6192687180016L217.9126221893651,152.36879834255055L218.0363831890447,144.92427653261015L218.19020043150357,147.06891855533172L218.7577330157484,137.80825166937979L218.836409651259,152.9497664559281L219.09807576486722,142.061764686593L219.2474729716233,126.33284260654398L219.24924098590444,153.45172622423684L219.42957844258038,139.2313104765875L219.79378938449452,135.2911248038311L219.79644140591623,136.83597497496245L219.8804220842702,133.66841190863443L220.11733599794252,148.97404677997702L220.16153635497093,151.87406783781566L220.41878243287633,154.78005402570696L220.55491953252383,136.92750614272472L220.66895645365716,154.0974614284846L220.68310056790625,142.6416069310533L220.85282993889538,140.60255956151627L220.99073505282402,152.1720675633291L221.26124123783794,148.068393872539L221.37439415183067,162.73327106537317L221.5458915371009,158.14223439802583L221.95076680748122,157.42677432925484L222.4811710918222,155.97258623409L222.8674822122506,143.1113510466602L222.96825902627535,135.33414484772112L222.9841711548056,142.59204894660888L223.1989848899637,137.91661161464174L223.6029761532034,148.26502589132912L224.1139322804519,155.29273917685876L224.11570029473305,146.2657987277068L224.12719238756043,147.00665997941746L224.25714143722396,154.82554308038036L224.41361070110457,135.93318612003318L224.5267636150973,153.61371308371423L224.57538400782857,143.64598076565488L224.71859316460066,146.29453801322558L224.77428561445643,148.84044366846558L224.9873313353334,150.5992484380434L225.1473366277763,131.87519900477915L225.39309061285428,149.81114019598155L225.51861962681497,137.87799628598933L225.65652474074363,154.02613664497366L225.73962141195705,151.39136635361746L226.11620845383916,150.39684881006326L226.51577968137605,147.2823793516215L226.8667305161817,142.82176570989657L227.0028676158292,129.77879157672214L227.15138081544467,136.45507574338552L227.2760258222648,143.96835456562206L227.59426839286942,146.41735648563514L227.63139669277328,138.56922054491048L228.16003296283313,134.63053603071043L228.38810680509977,152.09309872243279L228.66214901867593,141.84368190211666L228.82303831825936,122.50528332968327L228.83806643964903,134.88964389836372L229.30128618130684,145.62012277971783L229.40913505245615,137.75906897457443L229.61952875191142,129.66944402714682L229.83345847992896,140.15146141534564L229.9695955795765,140.23165488559056L230.2515938574178,138.8144031917454L230.7033215062482,141.24930212216367L230.89426704861094,130.36949746862945L231.23991384057317,139.1489442768532L231.32654654034886,146.6738373258149L231.38577501876696,139.950503689663L231.7110896464961,143.32524638884786L231.94358352446557,145.25160810623044L231.95595962443352,146.37378338332965L233.04328840733254,157.0836410866208L233.13257312852997,157.2093038594528L233.3800951278891,152.0572486858578L234.0271883547851,139.3422184409779L234.02807236192567,143.55350149775177L234.21813389714785,140.87652099804254L234.93771570957048,133.627209056681L235.23474210880144,140.43660253269917L235.24888622305053,132.33269682690036L235.89155941424372,120.31355233330068L236.02062445676668,138.53554323782487L236.5227405126095,141.02815776431595L236.63500941946168,158.5456707600337L236.66064562653816,134.7164576059728L236.68804984789574,131.96202917600982L237.21668611795562,138.49789576139958L237.21845413223676,131.40683753521097L237.34309913905687,132.0870993862538L237.42177577456746,131.12189393872015L237.67548582391058,131.37630080984187L237.80720288785528,135.89672376878391L237.87703945196014,139.28533243252832L238.44015200050217,143.35860766255317L238.68148594987733,124.59130116036374" fill="none"></path></g></g></g></g></g></g><g transform="translate(82, 177)" clip-path="url(#clip_1)"><clipPath id="clip_1"><rect width="247" height="22"></rect></clipPath><g><g><line x1="0" y1="0" x2="0" y2="5" style="visibility: inherit;" fill="rgb(0, 0, 0)" stroke="rgb(204, 204, 204)" stroke-width="1px"></line><line x1="17.68014281136649" y1="0" x2="17.68014281136649" y2="5" style="visibility: inherit;" fill="rgb(0, 0, 0)" stroke="rgb(204, 204, 204)" stroke-width="1px"></line><line x1="35.36028562273298" y1="0" x2="35.36028562273298" y2="5" style="visibility: inherit;" fill="rgb(0, 0, 0)" stroke="rgb(204, 204, 204)" stroke-width="1px"></line><line x1="53.04042843409947" y1="0" x2="53.04042843409947" y2="5" style="visibility: inherit;" fill="rgb(0, 0, 0)" stroke="rgb(204, 204, 204)" stroke-width="1px"></line><line x1="70.72057124546596" y1="0" x2="70.72057124546596" y2="5" style="visibility: inherit;" fill="rgb(0, 0, 0)" stroke="rgb(204, 204, 204)" stroke-width="1px"></line><line x1="88.40071405683246" y1="0" x2="88.40071405683246" y2="5" style="visibility: inherit;" fill="rgb(0, 0, 0)" stroke="rgb(204, 204, 204)" stroke-width="1px"></line><line x1="106.08085686819894" y1="0" x2="106.08085686819894" y2="5" style="visibility: inherit;" fill="rgb(0, 0, 0)" stroke="rgb(204, 204, 204)" stroke-width="1px"></line><line x1="123.76099967956543" y1="0" x2="123.76099967956543" y2="5" style="visibility: inherit;" fill="rgb(0, 0, 0)" stroke="rgb(204, 204, 204)" stroke-width="1px"></line><line x1="141.44114249093192" y1="0" x2="141.44114249093192" y2="5" style="visibility: inherit;" fill="rgb(0, 0, 0)" stroke="rgb(204, 204, 204)" stroke-width="1px"></line><line x1="159.12128530229842" y1="0" x2="159.12128530229842" y2="5" style="visibility: inherit;" fill="rgb(0, 0, 0)" stroke="rgb(204, 204, 204)" stroke-width="1px"></line><line x1="176.8014281136649" y1="0" x2="176.8014281136649" y2="5" style="visibility: inherit;" fill="rgb(0, 0, 0)" stroke="rgb(204, 204, 204)" stroke-width="1px"></line><line x1="194.48157092503138" y1="0" x2="194.48157092503138" y2="5" style="visibility: inherit;" fill="rgb(0, 0, 0)" stroke="rgb(204, 204, 204)" stroke-width="1px"></line><line x1="212.16171373639787" y1="0" x2="212.16171373639787" y2="5" style="visibility: inherit;" fill="rgb(0, 0, 0)" stroke="rgb(204, 204, 204)" stroke-width="1px"></line><line x1="229.84185654776437" y1="0" x2="229.84185654776437" y2="5" style="visibility: inherit;" fill="rgb(0, 0, 0)" stroke="rgb(204, 204, 204)" stroke-width="1px"></line><line x1="247.52199935913086" y1="0" x2="247.52199935913086" y2="5" style="visibility: inherit;" fill="rgb(0, 0, 0)" stroke="rgb(204, 204, 204)" stroke-width="1px"></line></g><g transform="translate(0, 8)"><text style="text-anchor: middle; visibility: hidden; font-family: &quot;Helvetica Neue&quot;, sans-serif; font-size: 12px; font-weight: 200;" x="0" y="0" dx="0em" dy="0.95em" fill="rgb(50, 49, 63)" stroke="none" stroke-width="1px">-1M</text><text style="text-anchor: middle; visibility: inherit; font-family: &quot;Helvetica Neue&quot;, sans-serif; font-size: 12px; font-weight: 200;" x="17.68014281136649" y="0" dx="0em" dy="0.95em" fill="rgb(50, 49, 63)" stroke="none" stroke-width="1px">0</text><text style="text-anchor: middle; visibility: hidden; font-family: &quot;Helvetica Neue&quot;, sans-serif; font-size: 12px; font-weight: 200;" x="35.36028562273298" y="0" dx="0em" dy="0.95em" fill="rgb(50, 49, 63)" stroke="none" stroke-width="1px">1M</text><text style="text-anchor: middle; visibility: inherit; font-family: &quot;Helvetica Neue&quot;, sans-serif; font-size: 12px; font-weight: 200;" x="53.04042843409947" y="0" dx="0em" dy="0.95em" fill="rgb(50, 49, 63)" stroke="none" stroke-width="1px">2M</text><text style="text-anchor: middle; visibility: hidden; font-family: &quot;Helvetica Neue&quot;, sans-serif; font-size: 12px; font-weight: 200;" x="70.72057124546596" y="0" dx="0em" dy="0.95em" fill="rgb(50, 49, 63)" stroke="none" stroke-width="1px">3M</text><text style="text-anchor: middle; visibility: inherit; font-family: &quot;Helvetica Neue&quot;, sans-serif; font-size: 12px; font-weight: 200;" x="88.40071405683246" y="0" dx="0em" dy="0.95em" fill="rgb(50, 49, 63)" stroke="none" stroke-width="1px">4M</text><text style="text-anchor: middle; visibility: hidden; font-family: &quot;Helvetica Neue&quot;, sans-serif; font-size: 12px; font-weight: 200;" x="106.08085686819894" y="0" dx="0em" dy="0.95em" fill="rgb(50, 49, 63)" stroke="none" stroke-width="1px">5M</text><text style="text-anchor: middle; visibility: inherit; font-family: &quot;Helvetica Neue&quot;, sans-serif; font-size: 12px; font-weight: 200;" x="123.76099967956543" y="0" dx="0em" dy="0.95em" fill="rgb(50, 49, 63)" stroke="none" stroke-width="1px">6M</text><text style="text-anchor: middle; visibility: hidden; font-family: &quot;Helvetica Neue&quot;, sans-serif; font-size: 12px; font-weight: 200;" x="141.44114249093192" y="0" dx="0em" dy="0.95em" fill="rgb(50, 49, 63)" stroke="none" stroke-width="1px">7M</text><text style="text-anchor: middle; visibility: inherit; font-family: &quot;Helvetica Neue&quot;, sans-serif; font-size: 12px; font-weight: 200;" x="159.12128530229842" y="0" dx="0em" dy="0.95em" fill="rgb(50, 49, 63)" stroke="none" stroke-width="1px">8M</text><text style="text-anchor: middle; visibility: hidden; font-family: &quot;Helvetica Neue&quot;, sans-serif; font-size: 12px; font-weight: 200;" x="176.8014281136649" y="0" dx="0em" dy="0.95em" fill="rgb(50, 49, 63)" stroke="none" stroke-width="1px">9M</text><text style="text-anchor: middle; visibility: inherit; font-family: &quot;Helvetica Neue&quot;, sans-serif; font-size: 12px; font-weight: 200;" x="194.48157092503138" y="0" dx="0em" dy="0.95em" fill="rgb(50, 49, 63)" stroke="none" stroke-width="1px">10M</text><text style="text-anchor: middle; visibility: hidden; font-family: &quot;Helvetica Neue&quot;, sans-serif; font-size: 12px; font-weight: 200;" x="212.16171373639787" y="0" dx="0em" dy="0.95em" fill="rgb(50, 49, 63)" stroke="none" stroke-width="1px">11M</text><text style="text-anchor: middle; visibility: inherit; font-family: &quot;Helvetica Neue&quot;, sans-serif; font-size: 12px; font-weight: 200;" x="229.84185654776437" y="0" dx="0em" dy="0.95em" fill="rgb(50, 49, 63)" stroke="none" stroke-width="1px">12M</text><text style="text-anchor: middle; visibility: hidden; font-family: &quot;Helvetica Neue&quot;, sans-serif; font-size: 12px; font-weight: 200;" x="247.52199935913086" y="0" dx="0em" dy="0.95em" fill="rgb(50, 49, 63)" stroke="none" stroke-width="1px">13M</text></g><line x1="0" y1="0" x2="247.52199935913086" y2="0" fill="rgb(0, 0, 0)" stroke="rgb(204, 204, 204)" stroke-width="1px"></line></g></g></g></g></svg>