<svg viewBox="0 0 330 200" xmlns="http://www.w3.org/2000/svg"><g><g><g><g><g><line x1="82.47800064086914" y1="177.98999977111816" x2="77.47800064086914" y2="177.98999977111816" style="visibility: inherit;" fill="rgb(0, 0, 0)" stroke="rgb(204, 204, 204)" stroke-width="1px"></line><line x1="82.47800064086914" y1="161.80909070101652" x2="77.47800064086914" y2="161.80909070101652" style="visibility: inherit;" fill="rgb(0, 0, 0)" stroke="rgb(204, 204, 204)" stroke-width="1px"></line><line x1="82.47800064086914" y1="145.62818163091487" x2="77.47800064086914" y2="145.62818163091487" style="visibility: inherit;" fill="rgb(0, 0, 0)" stroke="rgb(204, 204, 204)" stroke-width="1px"></line><line x1="82.47800064086914" y1="129.44727256081322" x2="77.47800064086914" y2="129.44727256081322" style="visibility: inherit;" fill="rgb(0, 0, 0)" stroke="rgb(204, 204, 204)" stroke-width="1px"></line><line x1="82.47800064086914" y1="113.26636349071156" x2="77.47800064086914" y2="113.26636349071156" style="visibility: inherit;" fill="rgb(0, 0, 0)" stroke="rgb(204, 204, 204)" stroke-width="1px"></line><line x1="82.47800064086914" y1="97.0854544206099" x2="77.47800064086914" y2="97.0854544206099" style="visibility: inherit;" fill="rgb(0, 0, 0)" stroke="rgb(204, 204, 204)" stroke-width="1px"></line><line x1="82.47800064086914" y1="80.90454535050826" x2="77.47800064086914" y2="80.90454535050826" style="visibility: inherit;" fill="rgb(0, 0, 0)" stroke="rgb(204, 204, 204)" stroke-width="1px"></line><line x1="82.47800064086914" y1="64.72363628040661" x2="77.47800064086914" y2="64.72363628040661" style="visibility: inherit;" fill="rgb(0, 0, 0)" stroke="rgb(204, 204, 204)" stroke-width="1px"></line><line x1="82.47800064086914" y1="48.542727210304946" x2="77.47800064086914" y2="48.542727210304946" style="visibility: inherit;" fill="rgb(0, 0, 0)" stroke="rgb(204, 204, 204)" stroke-width="1px"></line><line x1="82.47800064086914" y1="32.3618181402033" x2="77.47800064086914" y2="32.3618181402033" style="visibility: inherit;" fill="rgb(0, 0, 0)" stroke="rgb(204, 204, 204)" stroke-width="1px"></line><line x1="82.47800064086914" y1="16.18090907010165" x2="77.47800064086914" y2="16.18090907010165" style="visibility: inherit;" fill="rgb(0, 0, 0)" stroke="rgb(204, 204, 204)" stroke-width="1px"></line><line x1="82.47800064086914" y1="0" x2="77.47800064086914" y2="0" style="visibility: inherit;" fill="rgb(0, 0, 0)" stroke="rgb(204, 204, 204)" stroke-width="1px"></line></g><g transform="translate(72.47800064086914, 0)"><text style="text-anchor: end; visibility: hidden; font-family: &quot;Helvetica Neue&quot;, sans-serif; font-size: 12px; font-weight: 200;" x="0" y="177.98999977111816" dx="0em" dy="0.3em" fill="rgb(50, 49, 63)" stroke="none" stroke-width="1px">-7.2e+3</text><text style="text-anchor: end; visibility: inherit; font-family: &quot;Helvetica Neue&quot;, sans-serif; font-size: 12px; font-weight: 200;" x="0" y="161.80909070101652" dx="0em" dy="0.3em" fill="rgb(50, 49, 63)" stroke="none" stroke-width="1px">-7e+3</text><text style="text-anchor: end; visibility: hidden; font-family: &quot;Helvetica Neue&quot;, sans-serif; font-size: 12px; font-weight: 200;" x="0" y="145.62818163091487" dx="0em" dy="0.3em" fill="rgb(50, 49, 63)" stroke="none" stroke-width="1px">-6.8e+3</text><text style="text-anchor: end; visibility: inherit; font-family: &quot;Helvetica Neue&quot;, sans-serif; font-size: 12px; font-weight: 200;" x="0" y="129.44727256081322" dx="0em" dy="0.3em" fill="rgb(50, 49, 63)" stroke="none" stroke-width="1px">-6.6e+3</text><text style="text-anchor: end; visibility: hidden; font-family: &quot;Helvetica Neue&quot;, sans-serif; font-size: 12px; font-weight: 200;" x="0" y="113.26636349071156" dx="0em" dy="0.3em" fill="rgb(50, 49, 63)" stroke="none" stroke-width="1px">-6.4e+3</text><text style="text-anchor: end; visibility: inherit; font-family: &quot;Helvetica Neue&quot;, sans-serif; font-size: 12px; font-weight: 200;" x="0" y="97.0854544206099" dx="0em" dy="0.3em" fill="rgb(50, 49, 63)" stroke="none" stroke-width="1px">-6.2e+3</text><text style="text-anchor: end; visibility: hidden; font-family: &quot;Helvetica Neue&quot;, sans-serif; font-size: 12px; font-weight: 200;" x="0" y="80.90454535050826" dx="0em" dy="0.3em" fill="rgb(50, 49, 63)" stroke="none" stroke-width="1px">-6e+3</text><text style="text-anchor: end; visibility: inherit; font-family: &quot;Helvetica Neue&quot;, sans-serif; font-size: 12px; font-weight: 200;" x="0" y="64.72363628040661" dx="0em" dy="0.3em" fill="rgb(50, 49, 63)" stroke="none" stroke-width="1px">-5.8e+3</text><text style="text-anchor: end; visibility: hidden; font-family: &quot;Helvetica Neue&quot;, sans-serif; font-size: 12px; font-weight: 200;" x="0" y="48.542727210304946" dx="0em" dy="0.3em" fill="rgb(50, 49, 63)" stroke="none" stroke-width="1px">-5.6e+3</text><text style="text-anchor: end; visibility: inherit; font-family: &quot;Helvetica Neue&quot;, sans-serif; font-size: 12px; font-weight: 200;" x="0" y="32.3618181402033" dx="0em" dy="0.3em" fill="rgb(50, 49, 63)" stroke="none" stroke-width="1px">-5.4e+3</text><text style="text-anchor: end; visibility: hidden; font-family: &quot;Helvetica Neue&quot;, sans-serif; font-size: 12px; font-weight: 200;" x="0" y="16.18090907010165" dx="0em" dy="0.3em" fill="rgb(50, 49, 63)" stroke="none" stroke-width="1px">-5.2e+3</text><text style="text-anchor: end; visibility: hidden; font-family: &quot;Helvetica Neue&quot;, sans-serif; font-size: 12px; font-weight: 200;" x="0" y="0" dx="0em" dy="0.3em" fill="rgb(50, 49, 63)" stroke="none" stroke-width="1px">-5e+3</text></g><line x1="82.47800064086914" y1="0" x2="82.47800064086914" y2="177.98999977111816" fill="rgb(0, 0, 0)" stroke="rgb(204, 204, 204)" stroke-width="1px"></line></g></g><g transform="translate(82, 0)" clip-path="url(#clip_0)"><clipPath id="clip_0"><rect width="247" height="177"></rect></clipPath><g><g><g><line x1="0" y1="0" x2="0" y2="177.98999977111816" fill="rgb(0, 0, 0)" stroke="rgb(60, 60, 60)" stroke-width="1px" opacity="0.25"></line><line x1="17.68014281136649" y1="0" x2="17.68014281136649" y2="177.98999977111816" fill="rgb(0, 0, 0)" stroke="rgb(60, 60, 60)" stroke-width="1px" opacity="0.25"></line><line x1="35.36028562273298" y1="0" x2="35.36028562273298" y2="177.98999977111816" fill="rgb(0, 0, 0)" stroke="rgb(60, 60, 60)" stroke-width="1px" opacity="0.25"></line><line x1="53.04042843409947" y1="0" x2="53.04042843409947" y2="177.98999977111816" fill="rgb(0, 0, 0)" stroke="rgb(60, 60, 60)" stroke-width="1px" opacity="0.25"></line><line x1="70.72057124546596" y1="0" x2="70.72057124546596" y2="177.98999977111816" fill="rgb(0, 0, 0)" stroke="rgb(60, 60, 60)" stroke-width="1px" opacity="0.25"></line><line x1="88.40071405683246" y1="0" x2="88.40071405683246" y2="177.98999977111816" fill="rgb(0, 0, 0)" stroke="rgb(60, 60, 60)" stroke-width="1px" opacity="0.25"></line><line x1="106.08085686819894" y1="0" x2="106.08085686819894" y2="177.98999977111816" fill="rgb(0, 0, 0)" stroke="rgb(60, 60, 60)" stroke-width="1px" opacity="0.25"></line><line x1="123.76099967956543" y1="0" x2="123.76099967956543" y2="177.98999977111816" fill="rgb(0, 0, 0)" stroke="rgb(60, 60, 60)" stroke-width="1px" opacity="0.25"></line><line x1="141.44114249093192" y1="0" x2="141.44114249093192" y2="177.98999977111816" fill="rgb(0, 0, 0)" stroke="rgb(60, 60, 60)" stroke-width="1px" opacity="0.25"></line><line x1="159.12128530229842" y1="0" x2="159.12128530229842" y2="177.98999977111816" fill="rgb(0, 0, 0)" stroke="rgb(60, 60, 60)" stroke-width="1px" opacity="0.25"></line><line x1="176.8014281136649" y1="0" x2="176.8014281136649" y2="177.98999977111816" fill="rgb(0, 0, 0)" stroke="rgb(60, 60, 60)" stroke-width="1px" opacity="0.25"></line><line x1="194.48157092503138" y1="0" x2="194.48157092503138" y2="177.98999977111816" fill="rgb(0, 0, 0)" stroke="rgb(60, 60, 60)" stroke-width="1px" opacity="0.25"></line><line x1="212.16171373639787" y1="0" x2="212.16171373639787" y2="177.98999977111816" fill="rgb(0, 0, 0)" stroke="rgb(60, 60, 60)" stroke-width="1px" opacity="0.25"></line><line x1="229.84185654776437" y1="0" x2="229.84185654776437" y2="177.98999977111816" fill="rgb(0, 0, 0)" stroke="rgb(60, 60, 60)" stroke-width="1px" opacity="0.25"></line><line x1="247.52199935913086" y1="0" x2="247.52199935913086" y2="177.98999977111816" fill="rgb(0, 0, 0)" stroke="rgb(60, 60, 60)" stroke-width="1px" opacity="0.25"></line></g><g><line x1="0" y1="177.98999977111816" x2="247.52199935913086" y2="177.98999977111816" fill="rgb(0, 0, 0)" stroke="rgb(60, 60, 60)" stroke-width="1px" opacity="0.25"></line><line x1="0" y1="161.80909070101652" x2="247.52199935913086" y2="161.80909070101652" fill="rgb(0, 0, 0)" stroke="rgb(60, 60, 60)" stroke-width="1px" opacity="0.25"></line><line x1="0" y1="145.62818163091487" x2="247.52199935913086" y2="145.62818163091487" fill="rgb(0, 0, 0)" stroke="rgb(60, 60, 60)" stroke-width="1px" opacity="0.25"></line><line x1="0" y1="129.44727256081322" x2="247.52199935913086" y2="129.44727256081322" fill="rgb(0, 0, 0)" stroke="rgb(60, 60, 60)" stroke-width="1px" opacity="0.25"></line><line x1="0" y1="113.26636349071156" x2="247.52199935913086" y2="113.26636349071156" fill="rgb(0, 0, 0)" stroke="rgb(60, 60, 60)" stroke-width="1px" opacity="0.25"></line><line x1="0" y1="97.0854544206099" x2="247.52199935913086" y2="97.0854544206099" fill="rgb(0, 0, 0)" stroke="rgb(60, 60, 60)" stroke-width="1px" opacity="0.25"></line><line x1="0" y1="80.90454535050826" x2="247.52199935913086" y2="80.90454535050826" fill="rgb(0, 0, 0)" stroke="rgb(60, 60, 60)" stroke-width="1px" opacity="0.25"></line><line x1="0" y1="64.72363628040661" x2="247.52199935913086" y2="64.72363628040661" fill="rgb(0, 0, 0)" stroke="rgb(60, 60, 60)" stroke-width="1px" opacity="0.25"></line><line x1="0" y1="48.542727210304946" x2="247.52199935913086" y2="48.542727210304946" fill="rgb(0, 0, 0)" stroke="rgb(60, 60, 60)" stroke-width="1px" opacity="0.25"></line><line x1="0" y1="32.3618181402033" x2="247.52199935913086" y2="32.3618181402033" fill="rgb(0, 0, 0)" stroke="rgb(60, 60, 60)" stroke-width="1px" opacity="0.25"></line><line x1="0" y1="16.18090907010165" x2="247.52199935913086" y2="16.18090907010165" fill="rgb(0, 0, 0)" stroke="rgb(60, 60, 60)" stroke-width="1px" opacity="0.25"></line><line x1="0" y1="0" x2="247.52199935913086" y2="0" fill="rgb(0, 0, 0)" stroke="rgb(60, 60, 60)" stroke-width="1px" opacity="0.25"></line></g></g></g><g><g><line x1="0" y1="-404.5227267525413" x2="247.52199935913086" y2="-404.5227267525413" fill="rgb(0, 0, 0)" stroke="rgb(153, 153, 153)" stroke-width="1.5px"></line></g></g><g><g><line x1="17.68014281136649" y1="0" x2="17.68014281136649" y2="177.98999977111816" fill="rgb(0, 0, 0)" stroke="rgb(153, 153, 153)" stroke-width="1.5px"></line></g></g><g><g><g><g><g><path style="fill: none;" stroke="rgb(0, 119, 187)" stroke-width="2px" d="M17.84810416807447,96.02855978862382L18.06026588181087,102.37688455355149L18.086786096027918,119.57049316721003L18.316627952575683,127.45823345516655L18.519949594906397,133.2080554466143L19.085714164870126,134.1314063500452L19.165274807521275,134.06567648668596L19.713359234673636,136.9700452676207L19.75755959170205,139.7512769330871L19.9432010912214,140.84125548091308L20.1023223765237,140.89497488252186L20.411724875722612,141.75645634456862L20.429405018533977,142.08678744922943L20.500125589779447,141.9758780484916L21.410652944564816,141.25816602399635L21.755415729386467,141.0543308259742L21.87917672906603,141.47924720043565L22.427261156218393,139.56572304351295L22.66594308417184,138.89139237962118L22.80738422666277,139.88338689787744L22.869264726502553,140.9135441744766L22.87810479790824,140.81749976487896L23.293588153975353,139.05711975347185L23.408509082249232,140.14908757914083L23.532270081928797,137.759862447113L23.62067079598563,137.50113795526443L24.00079386643001,137.34104998378143L24.07151443767548,138.116385840036L24.451637508119855,139.46627845145838L24.504677936553957,139.0198393021935L24.628438936233522,140.07917145711596L24.646119079044887,139.51062686737242L24.778720150130134,141.59012871995503L24.831760578564236,142.56531091695035L25.07928257792337,143.50828529956038L26.04285036114284,144.28685381848703L26.2726922176906,145.15695280482169L26.281532289096287,146.33764810721777L26.334572717530385,147.48670349035473L26.573254645483836,148.004156456215L26.652815288134985,144.9133870218726L27.085978787013463,144.3169775354073L27.112499001230514,144.6931213518958L27.35118092918396,145.11555256442392L27.448421714646475,146.8271962831117L27.95230578477042,147.5922147238269L28.1202671414784,148.62761546677146L28.836312925338746,148.33976911193173L29.322516852651326,148.17315203460663L29.349037066868373,147.8695232309951L29.47279806654794,145.6495578636676L29.50815835217067,146.18906607439206L29.932481779643467,144.695190617283L29.99436227948325,146.74879068623565L30.188843850408283,147.2318227742133L30.29492470727648,147.8514780257884L30.383325421333314,148.06085416102815L30.64852756350381,147.91658071963334L30.745768348966326,148.0559430985994L30.86952934864589,147.4113723203963L31.152411633627757,147.7158265733412L31.40877370439257,147.83271393406523L31.550214846883502,148.25076812043616L31.691655989374432,145.005840472351L31.727016274997165,143.76102463599057L31.87729748889378,142.81351015011037L32.18669998809269,143.91812853725904L32.63754362978254,143.6953921676581L32.79666491508484,143.37457856624403L32.876225557735985,142.64384128522158L32.99998655741555,143.6798546010976L33.01766670022692,144.2289431892471L33.04418691444397,145.61878888300092L33.43315005629403,143.47823862338146L33.83095326954978,144.55511421637325L33.99007455485208,144.2253808176044L34.06963519750323,143.58056871892177L34.18455612577711,140.866859018267L34.21107633999416,140.49962480657172L34.281796911239624,138.0356597620173L34.63539976746696,136.37384519931032L34.78568098136357,131.49387554151537L34.8740816954204,129.33622332288047L34.900601909637444,132.3968284617343L35.377965765544346,133.10861369465349L35.68736826474326,116.87963001707779L36.04981119237627,108.26708070321662L36.12053176362174,94.88951829895245L36.15589204924447,98.73910821913488L36.21777254908425,85.92950062971147L37.02221904700143,74.06617694699018L37.128299903869625,75.35082396424686L37.23438076073783,81.59293684922513L37.41118218885149,77.60251828145476L37.455382545879914,83.15130463533768L37.46422261728559,87.07847208187849L37.641024045399256,79.24026445573043L37.68522440242767,79.04433885479027L38.08302761568342,74.87464335644052L38.18910847255162,85.19587456602703L38.49851097175053,82.94166918454275L38.807913470949444,82.84009373510061L38.81675354235513,85.28593402519893L38.834433685166495,79.71994459454143L39.22339682701656,70.88322283290388L39.37367804091317,70.76739869499876L39.39135818372454,77.66801957225796L39.43555854075295,87.66904835287076L39.65656032589504,84.28500656826571L39.66540039730072,81.89798933093083L39.753801111357554,86.73700312768474L39.77148125416892,95.49418367074475L39.815681611197334,97.87804617214637L39.9394426108769,94.51116274132205L40.07204368196215,92.0406200140813L40.2046447530474,100.71665514242294L40.2576851814815,100.67921682155084L41.42457460703169,106.56948122543265L41.91077853434426,100.19556594767037L42.03453953402383,106.8761620346867L42.343942033222746,109.96738249865285L43.289829673630855,104.1365869560419L43.91747474343436,107.75907377528809L44.306437885284424,107.89913838201807L44.545119813237875,108.64582729824457L44.571640027454926,112.9945889190868L45.08436416898455,113.50780150817619L45.63244859613691,110.10434602662899L45.94185109533583,108.08129831970504L46.24241352312906,101.79936257156528L46.36617452280862,103.21531432817422L46.383854665619985,99.82807205066766L46.392694737025664,95.54463669068726L46.905418878555295,100.02651266205531L47.25902173478263,103.858661320472L47.53306394835881,101.75737238048676L47.81594623334067,89.58248487652797L48.01042780426571,95.04214453383925L48.17838916097369,100.60033367780804L48.310990232058934,99.08136977801394L48.45243137454987,94.30864857540625L49.51323994323186,97.25581589683199L49.67236122853415,103.99096053253446L49.69004137134552,98.56157024230527L50.00828394195012,92.99637434441193L50.13204494162969,89.49730754595414L50.627088940347946,92.82393520432261L50.662449225970676,77.69014421756944L50.75969001143319,74.49074616788161L51.21937372452872,74.84350632812483L51.40501522404807,73.59604354168235L51.44921558107649,74.85945016402175L51.46689572388785,79.2892460450727L51.55529643794469,81.63860174886973L51.84701879433223,87.5972908404236L52.412783364295954,88.2597300295721L52.66030536365509,85.47920856579478L52.90782736301422,87.99080312752181L53.24375007643018,93.27275696391072L53.3409908618927,93.7544011424102L53.36751107610975,96.18236944327344L53.871395146233695,84.77281713220209L53.91559550326211,88.34199321027566L54.01283628872463,91.77268414060097L54.65816150133951,91.60336395440436L54.7642423582077,93.77607021635201L54.78192250101907,96.82966579875503L54.83496292945317,90.132835548067L55.05596471459525,93.36127084648102L55.10016507162367,92.27564242492619L55.12668528584072,96.8679493965272L55.37420728519985,91.71961610687124L55.400727499416895,93.08001820426057L55.736650212832856,91.70489203643743L55.851571141106746,94.6568405352178L55.8692512839181,86.69696493436254L56.585297067778455,87.6562527316968L56.877019424166,80.70321965230654L57.39858363710131,85.59046867137806L57.54886485099793,82.24887977610967L57.73450635051728,81.98905065732322L58.185349992207115,83.88931739733273L58.60083334827423,80.21588957315036L58.91907591887883,81.27509921105849L58.95443620450156,71.75322740779191L59.02515677574703,74.85009598766985L59.35223941775731,61.058849671140024L59.679322059767586,64.03710347751445L59.75004263101305,62.749560923259196L60.015244773183554,69.38983034157306L60.12132563005175,71.96956521999866L60.139005772863115,72.68967266128276L60.47492848627908,68.56743324127049L60.58100934314728,64.15695272296028L60.95229234218597,62.03356311255982L61.55341719777243,57.13552726594612L61.632977840423585,57.19118026939336L61.659498054640636,52.05233532329538L62.331343481472565,65.99929774911062L62.34902362428392,69.98117711438643L62.826387480190824,58.658796124230534L63.073909479549954,48.494564893208036L63.657354192325045,49.409207811483725L64.0021169771467,60.10044567705374L64.79772340365818,63.327029380712574L64.93916454614912,65.68784513682292L65.06292554582868,69.57718763346598L65.60216990157535,67.09813060063476L65.7966514725004,75.28123085046273L66.44197668511526,84.58252779277753L66.45965682792664,84.5854255157242L66.7425391129085,89.8953488599557L67.07846182632447,91.39031283468039L67.72378703893935,95.36097635740397L67.75914732456206,86.84036943355373L67.89174839564733,91.47919378126343L68.25419132328034,95.95137619974041L68.28071153749738,93.22222372286073L68.7492353219986,94.10507612888222L69.03211760698046,92.81565266009308L69.18239882087708,89.75281013173004L69.20891903509411,65.73523326641939L69.50948146288735,70.34437852961047L69.52716160569872,74.4368928859781L69.58904210553851,73.6220073330633L69.90728467614309,78.2035264402064L70.09292617566246,80.94435786655485L70.30508788939885,81.92496529859815L70.34928824642726,85.78213194372972L70.40232867486137,90.88431870637059L70.64101060281482,86.29671663561868L70.81781203092847,89.94618219177742L70.8620123879569,94.42677977403957L71.41893688651494,87.97205961447919L71.79905995695933,91.47519649165433L71.88746067101614,74.4721263795391L72.32946424130031,71.51097591548248L72.49742559800829,78.98215830895558L72.61234652628218,74.69351646252531L72.66538695471628,71.80095638407623L72.78030788299016,67.44561077035576L73.2841919531141,72.778902252257L73.48751359544481,81.77843497365566L73.53171395247324,73.71585816351755L73.74387566620963,81.42397127692418L73.93835723713465,79.53610675910993L74.05327816540854,81.20886292325977L74.26543987914495,83.88708550169014L75.11408673409053,84.11740010678892L75.14944701971326,60.242059489391224L75.32624844782693,61.0757028201633L75.80361230373383,63.02311879255849L75.89201301779066,62.57430271838905L76.05997437449864,60.76074830396179L76.53733823040554,50.034802472590684L76.61689887305668,41.70131600937793L76.74949994414193,47.29847822901115L76.88210101522718,48.556022454355286L76.90862122944424,33.434412588007945L77.01470208631244,20.151634484680045L77.25338401426588,34.69675373617176L77.28874429988862,36.86738354733586L77.38598508535114,41.57025027408986L78.20811172607966,42.62638291953843L78.27883229732512,46.93120121091832L78.41143336841039,46.874852742111074L78.98603800977979,58.82227806573994L79.26892029476166,55.207156361182925L79.49876215130942,54.38527224747821L79.69324372223446,51.19916293146383L80.50653029155731,54.153793332048394L80.57725086280277,57.006700244163056L80.9396937904358,65.75315322512698L81.47893814618247,76.15245079043744L81.75298035975865,80.45217286023791L82.22150414425987,72.68861010484717L82.31874492972237,70.9872436602092L82.47786621502468,74.1569478437319L82.56626692908151,55.771630912146136L82.5751070004872,58.28188843355363L82.74306835719517,62.719849428190756L82.94638999952589,58.63927388723816L83.11435135623387,50.526279145001325L83.45911414105552,40.77879668027413L83.48563435527257,48.39668066291159L83.54751485511234,51.273480958646374L83.63591556916919,43.51261543227346L83.66243578338623,50.54469458481829L83.79503685447148,51.057788933871706L84.08675921085901,54.100361336002024L84.25472056756702,60.828574044019064L84.95308620861599,51.60426658928314L85.2624887078149,55.750002151242015L85.41276992171152,59.33802628598188L85.54537099279676,67.73443136102532L85.64261177825927,77.60279761391502L85.69565220669337,81.03826826498221L86.16417599119458,83.40997725163075L86.28793699087414,86.60066471558594L86.46473841898782,92.78105506590717L86.53545899023328,98.79175259249476L86.62385970429013,99.17911546182408L86.93326220348902,97.58348721653888L87.5255469876698,103.06082998969823L87.80842927265168,99.54637383255564L88.32999348558698,97.94654586081278L88.63939598478589,98.9691309063632L88.73663677024841,99.74901293189247L88.84271762711661,103.43602471938182L88.99299884101323,100.70669087123315L90.00076698126112,98.94614247809672L90.03612726688385,84.1068583543095L90.31016948046003,78.37364304873064L90.36320990889412,80.3621361520408L90.87593405042377,78.83772615931335L90.97317483588628,72.34272732529503L91.30025747789657,69.65592778615085L91.34445783492498,71.51043626219897L91.36213797773634,71.03403688031183L91.41517840617044,64.91958713735535L91.61850004850116,63.567616760920146L91.66270040552956,61.73046852930324L91.74226104818072,60.470034089170014L92.5378674746922,61.505251319918244L92.56438768890925,69.78032415040389L92.81190968826839,64.91695308775145L92.90031040232522,56.69391311581326L93.41303454385485,53.42127628532265L93.64287640040261,56.23708441895083L93.72243704305377,64.83956810244557L94.01415939944131,76.88766522362374L94.02299947084698,80.32477829660158L94.10256011349814,82.60516507620555L94.50920339815957,76.81359582161251L94.55340375518799,84.19914828581662L95.49045132419042,93.00128957379634L95.64957260949272,89.97242760890028L95.67609282370975,86.33503077955574L95.86173432322911,84.67052275866733L96.17113682242801,83.32690740802587L96.23301732226781,84.4334782355685L96.38329853616442,85.7975052232936L96.40097867897579,80.4916096117574L96.42749889319283,86.75310578420532L96.6131403927122,81.73903802290239L96.67502089255197,89.36710512715088L96.87834253488269,92.02666360901598L97.0286237487793,87.97958443236735L97.18774503408159,87.83052257558163L97.24078546251569,89.13437122631599L97.32918617657253,91.1757318758691L97.73582946123396,88.34695382773288L97.80655003247942,86.13269579487755L97.99219153199877,86.7451778390979L98.61983660180228,90.95804708976125L99.2474816716058,95.50525308036515L99.30936217144557,92.52207520847679L99.54804409939902,91.37184819186048L99.96352745546614,96.16980334548299L100.04308809811728,95.96876504847539L100.32597038309915,95.84128815775952L100.5116118826185,97.86442811481491L100.89173495306287,95.78971571753769L100.91825516727992,93.33744515703196L101.09505659539359,95.83919349116356L101.15693709523337,92.21070421286771L101.38677895178112,89.2521890627698L102.00558395017896,89.44069402349754L102.0851445928301,88.07911778173259L102.1470250926699,91.2796821515147L102.26194602094378,94.94553564313883L102.4564275918688,92.79328209096141L102.79235030528477,92.85609338641801L103.00451201902118,97.6349551935943L103.05755244745528,100.98806081768971L103.26087408978599,90.08191688380934L103.41999537508828,86.642791499806L104.03880037348611,82.25205692263984L104.42776351533617,91.16107064281972L104.6752855146953,93.13705559945866L104.70180572891235,87.8743243981735L105.05540858513969,92.41111665022618L105.26757029887608,93.9145177228144L105.84217494024549,93.91797442933925L106.53170050988878,90.36014687723701L106.5759008669172,83.95854989878319L106.60242108113425,82.69193808314134L106.83226293768202,87.17009303730707L107.03558458001274,84.93860409075002L107.22122607953207,84.73274727889134L107.36266722202302,86.10050480965745L107.57482893575941,79.81408304912058L107.72511014965602,77.79462479348705L108.35275521945952,87.28442092142143L108.52955664757319,90.73038688860314L108.59143714741299,88.85585400337784L109.59036521625518,95.90217667567076L109.61688543047224,85.75233959913763L109.80252692999159,88.33630275529622L109.84672728702,88.2425198374423L110.3240911429269,88.82948419957035L110.41249185698373,96.27217619995656L110.44785214260646,103.31113221650286L110.70421421337127,93.19015827427052L110.98709649835314,94.09141010008561L110.99593656975883,91.44767486894037L111.3760596402032,96.75276568470608L111.45562028285435,99.92733848853764L111.60590149675097,92.5699413424418L111.65010185377939,99.14913756116472L111.72966249643054,97.95696148542383L111.87110363892147,95.57236278395072L112.02138485281807,83.96839646607292L112.37498770904541,85.86141707539528L112.7020703510557,91.22779443553941L112.78163099370684,87.59277721405158L112.79047106511253,83.31068276884204L112.98495263603755,88.4683559303173L113.04683313587735,83.75765842292034L113.29435513523647,86.13390696673079L113.3827558492933,82.18513478932996L113.42695620632172,89.91344112891154L113.52419699178422,88.50341498226362L113.60375763443538,90.5071509435068L113.72751863411494,85.34932896648763L114.0634413475309,84.96027835004816L114.08996156174796,92.06943723743358L114.3905239895412,97.96612210421685L114.42588427516392,97.58421298750953L114.62920591749464,95.54482148503169L114.68224634592873,92.01408966441028L114.6999264887401,98.15222876110441L115.05352934496743,87.67612464904303L115.10656977340153,90.07657016935094L115.22149070167542,87.65783151763591L115.26569105870384,93.39535097955199L115.83145562866756,89.95099514648471L115.99941698537555,79.27527456592352L116.07897762802669,82.23870759025532L116.23809891332898,84.1231802654114L116.47678084128243,85.53004711260616L116.68010248361315,81.68779670422347L116.69778262642453,79.30222065646511L116.7066226978302,86.34178780354381L117.2281869107655,84.42343646885817L117.3342677676337,83.46806265940691L117.67019048104967,80.92016918629655L118.12103412273952,83.03637248000902L118.63375826426915,84.52359260149939L118.95200083487374,81.51362364898583L119.10228204877036,84.23166959675568L119.27908347688403,85.12367107987016L119.5531256904602,80.53331168124326L119.63268633311135,73.20917159270459L119.78296754700797,81.75974171587411L119.85368811825343,82.25848653354112L119.93324876090459,85.5035636391409L120.20729097448077,91.24748003883121L120.55205375930241,88.1472411067601L120.65813461617061,88.66697243428308L120.7642154730388,91.41651070910021L120.86145625850132,92.8065089045787L120.98521725818088,94.9306571031984L121.00289740099227,86.39035438820194L121.32113997159686,84.20200787804674L121.63938254220145,87.56876356286132L121.8780644701549,89.69315966361813L122.01066554124014,97.02637543614635L122.27586768341064,96.54728485857814L122.64715068244934,100.51548525212723L123.17755496679034,104.02631275314508L123.29247589506421,101.68655224746097L123.31015603787559,96.97039333120595L123.49579753739494,101.07986820407572L123.53999789442335,97.76979866575272L123.66375889410291,96.48643552661295L123.75215960815974,100.63960980065525L123.79635996518816,102.54814393965037L123.85824046502796,98.18000842488955L124.02620182173594,91.46392676904372L124.13228267860411,98.90763577431714L124.98976960495541,98.29336702858195L125.12237067604063,96.53197166596934L125.21961146150316,96.15193634567103L125.2549717471259,94.04647482580302L125.39641288961681,94.5804868964932L125.68813524600438,99.0481431583084L125.76769588865552,95.42165434810128L126.33346045861924,96.12979136130234L126.35998067283629,94.13232690013588L126.50142181532725,89.61994415648374L127.27050802762166,88.60119413770877L127.35006867027282,87.02000300896532L127.624110883849,85.83219625072111L127.81859245477403,82.98480276322974L128.01307402569907,87.70406504619916L128.58767866706847,91.71132043732611L128.65839923831396,93.92116840329788L129.03852230875833,97.03198191599668L129.29488437952315,96.95498545594047L129.70152766418457,92.67665236821678L129.94904966354372,96.74275891717438L130.470613876479,97.21545308613062L130.61205501896995,101.91703115602918L130.88609723254612,98.42403235634717L131.14245930331094,98.56312023215331L131.36346108845302,98.31971977137984L131.40766144548144,100.76982584813531L131.5225823737553,104.37899109230727L131.6905437304633,102.90130941763717L132.07066680090767,103.8778687356798L132.24746822902134,107.7391292481423L132.76019237055098,106.41754320280849L132.91047358444757,109.10711785680824L133.14915551240102,106.48437674799631L133.1579955838067,108.93154217999435L133.22871615505218,114.89680441260332L133.3347970119204,116.87745714572554L133.4408778687886,117.95449340023511L133.5734789398738,116.33997080989704L133.60883922549658,112.1356003132133L133.75912043939317,107.91587779613333L134.07736300999778,112.52681412379842L134.20996408108303,100.77401543685455L134.29836479513986,101.14294734318989L134.3248850093569,102.89859767869282L134.4309658662251,107.51798147496486L134.43980593763078,107.45464044920953L134.47516622325352,104.57805870321198L134.72268822261265,100.06937779490337L135.3768535066332,97.53154677871979L135.69509607723782,100.04204931985969L136.16361986173902,99.35493233699292L136.19898014736177,97.19442380609844L136.3757815754754,94.10725291188633L136.8089450743539,96.64680937079098L137.0653071451187,103.76868353962122L137.4365901441574,98.55336681041732L137.88743378584724,93.73509565304023L138.0200348569325,95.92853362728593L138.09075542817797,94.1439227370964L138.14379585661206,96.66362083303021L138.6123196411133,93.08768400160045L138.63883985533033,88.86853525033543L138.75376078360424,90.08242549037658L138.99244271155766,94.15195808735717L139.21344449669974,96.68099690167193L139.27532499653952,100.45431408601429L139.46980656746456,100.49124738109211L139.7703689952578,102.42668526361358L140.0797714944567,108.7936733200175L140.28309313678741,101.11032538309891L140.42453427927833,93.642350741082L140.89305806377953,93.90005654998943L141.06985949189323,90.11087855625317L141.09637970611027,97.20957614535376L141.17594034876143,91.94250446781693L141.1847804201671,86.58230203392621L141.23782084860122,91.37244829994867L141.41462227671485,94.27883961955284L141.43230241952622,100.43187477210988L142.15718827479225,98.29137107293268L142.8732340586526,101.60456191473614L143.40363834299362,101.4750846473259L143.4566787714277,99.89151425525058L143.6600004137584,105.8483216435198L143.9870830557687,111.06598558832776L143.99592312717436,114.66715247603607L144.04896355560848,115.02944475817549L144.12852419825964,110.5191031617714L144.27880541215623,110.20535353994087L144.38488626902443,105.3161545607926L144.43792669745852,99.1883967352065L144.95949091039384,94.51766160520046L145.401494480678,98.47816010083162L145.8169778367451,94.41334192131986L146.13522040734972,89.22147685476969L146.34738212108613,92.00927531081837L146.37390233530317,87.63069348276692L147.03690769072944,88.56194614507706L147.0899481191635,86.83234598019473L147.35515026133402,91.23903836391939L147.43471090398515,91.76227754364649L147.4700711896079,86.77892431834435L147.52311161804198,86.25510572318028L148.0446758309773,86.55138177302324L148.33639818736486,89.96837344617546L148.34523825877054,88.8000776736614L148.415958830016,93.26390338747728L148.45131911563874,96.56831126087255L148.60160032953533,98.22854124785273L148.65464075796945,95.36299186057069L148.9286829715456,90.17429536637006L149.16736489949906,86.00820009525721L149.33532625620705,84.15283333761522L149.62704861259462,84.86779606421712L149.6358886840003,91.8268243368077L149.8480503977367,96.91475755054694L150.52873589597428,94.29010782247435L151.08566039453234,95.26460986303375L151.45694339357104,95.70955226300458L151.49230367919375,90.0597618583517L151.88126682104385,90.87708972932955L152.04922817775181,95.69638583689836L152.3763108197621,96.2885318427774L152.6415129619326,92.50956526145453L152.70339346177235,93.80697077930678L153.15423710346224,93.89760502119171L153.30451831735883,91.51630864030916L153.35755874579291,91.0994411408094L154.02056410121918,96.521461119701L154.07360452965327,92.75689129529364L154.3211265290124,95.15212318060586L154.47140774290904,97.84140440251123L154.48908788572038,96.76007874749517L154.77197017070228,102.80758837096748L155.04601238427844,103.0311632008859L155.56757659721373,108.15964217036955L155.66481738267626,106.785019362263L156.83170680822644,110.46810954697244L157.04386852196285,109.04723409471062L157.123429164614,105.79452122206122L157.1764695930481,99.1572867498641L157.58311287770954,98.74408306262949L157.60963309192658,97.54302861045488L157.77759444863457,97.15577430672508L157.94555580534254,97.13840446168722L158.94448387418475,102.85494859311181L159.01520444543021,109.34178807559076L159.06824487386433,110.9172174377744L159.62516937242236,107.73400758926715L159.969932157244,101.27261330392766L160.15557365676335,104.89043669898794L160.67713786969867,108.93745413778663L160.79205879797254,104.87287618700407L160.88045951202938,105.53008036620453L160.91581979765212,105.12650159887944L161.33130315371923,108.30038175523666L161.96778829492843,110.32867521021755L162.16226986585343,111.34201127663715L162.31255107975008,110.91600230686713L162.4893525078637,109.72484784882913L162.7191943644115,111.71847414744082L163.0197567922047,108.73158953259943L163.09931743485586,108.9301073943168L163.59436143357414,111.47140723726991L164.071725289481,106.22728244554125L164.3015671460288,103.77366183570696L164.3457675030572,102.34523678718936L164.97341257286072,102.967820743362L165.00877285848344,107.03335033367051L165.29165514346533,108.19905850896508L165.7248186423438,104.80544216561414L166.18450235543932,98.95024576620713L166.27290306949615,106.65472820999652L166.28174314090185,107.9527538990494L166.50274492604393,101.62354467153249L166.5823055686951,93.17269899309836L166.70606656837464,95.55040198900521L167.07734956741334,96.38263945627746L167.29835135255541,102.33716291611903L167.96135670798165,104.99589288586682L168.55364149216243,108.90422558184741L168.8276837057386,101.66425148367642L169.12824613353183,103.85382701275716L169.33156777586254,100.6872083151305L169.66749048927852,95.77750896417065L169.71169084630694,93.70020599983889L169.75589120333535,96.14518322597765L170.08297384534563,96.29388417994069L170.1536944165911,101.07026662407571L170.27745541627067,102.50388969197756L170.37469620173317,108.74423915523998L170.53381748703546,110.51104594078004L170.55149762984686,103.30978280400316L170.75481927217754,103.87434675305569L170.76365934358324,105.69081966472763L170.77249941498894,107.76144296148998L170.799019629206,105.17065315903683L170.96698098591395,107.98155920315672L171.27638348511286,110.31502848290936L171.4266646990095,106.69489823733434L171.55042569868905,106.17619101559856L171.73606719820842,108.17781666113206L171.82446791226522,112.81987270877104L171.8951884835107,112.23335688007721L171.98358919756754,104.36738786001581L172.41675269644603,107.61038093632281L172.48747326769148,112.84638476182865L172.77035555267332,105.39197560983045L172.8941165523529,105.51685307447683L172.947156980787,99.87060925277238L173.07091798046656,95.68055032642266L173.15047862311772,98.7130070382786L173.21235912295748,101.99760936986596L173.22119919436318,98.63886168653754L173.25655947998592,94.5898981424044L173.477561265128,94.09858741485115L173.56596197918483,97.57032385217242L173.7427634072985,94.57619265447399L173.86652440697804,92.43772762364202L174.18476697758265,96.81140876462096L174.2554875488281,99.47384975126577L174.35272833429065,104.35082839411383L174.78589183316913,105.9858291275388L174.7947319045748,108.89602458889102L174.83893226160322,106.83843765329681L175.07761418955667,97.93810867599032L175.41353690297262,93.22580877987367L176.39478482900347,93.52505663579475L176.47434547165463,89.2805839902197L176.61578661414555,91.23944780264846L176.6423068283626,90.02229014730648L176.72186747101375,77.26225652014644L176.96938947037287,77.0974965543925L177.2699518981661,75.0357727269536L177.27879196957178,76.7964427553247L177.38487282644,67.59816999498193L177.72963561126164,63.29859387302899L177.95063739640372,58.47550151447955L178.10091861030034,63.961010660086316L178.48988175215038,68.89755096392767L178.7020434658868,66.43493492393328L178.89652503681182,72.07412442866821L179.14404703617097,73.40654451760159L179.62141089207785,76.72964810744256L179.6479311062949,69.2375567750905L180.01037403392792,60.99278574245929L180.08109460517338,71.08336968912786L180.79714038903373,77.92378757595638L180.8059804604394,79.90267207464913L181.57506667273384,82.95150311411949L181.64578724397933,89.19842777074022L182.04359045723507,92.6238987277681L182.57399474157606,88.21086561704338L183.11323909732272,89.08230360129393L183.1751195971625,80.43087977194304L183.43148166792733,76.03146837719191L183.7585643099376,72.78954838128358L183.90884552383423,70.88019303666223L184.28012852287293,65.12354752674744L184.7044519503457,72.37404079397724L185.05805480657307,79.07554145781806L185.27905659171515,79.34598578721376L185.4470179484231,85.74402077287132L185.49121830545155,84.20112456818342L185.69453994778223,82.6925727036667L185.73874030481068,81.12731958192822L185.78294066183906,83.24089698012934L185.88902151870727,81.90358491302574L186.07466301822663,90.01570796714084L186.49014637429374,86.19372804263286L186.6757878738131,88.95479675323223L187.00287051582336,93.77802291953549L187.1443116583143,95.91720520754609L187.65703579984392,98.8582765346759L188.04599894169397,102.21286020911585L188.08135922731674,95.16132226545484L188.30236101245882,90.80782372707236L188.53220286900657,89.17077863625484L189.27476886708396,89.99366994710606L189.31896922411238,88.70478501689813L189.76097279439654,91.09258736014618L189.9377742225102,84.90340644923059L190.07037529359545,87.11983069870156L190.0968955078125,85.2609794311627L190.29137707873753,80.25181338969277L190.34441750717164,78.10505424174195L190.54773914950235,78.1295730644908L190.76874093464443,85.21413624397307L190.7864210774558,89.29607308523045L190.90134200572967,94.04580793036003L191.254944861957,93.07828883758673L191.30798529039112,95.95885812052938L191.43174629007066,90.03403591887066L191.5289870755332,89.2401319935403L191.60854771818435,85.77095654467864L192.01519100284577,86.66221030725934L192.07707150268556,86.95702310304065L192.11243178830827,82.4225218966613L192.1654722167424,87.55843460421274L192.6870364296777,81.5285974434462L192.92571835763115,84.79912576090165L193.12903999996186,80.36609914956784L193.74784499835965,83.75725357692458L193.8362457124165,85.67609380530762L193.94232656928472,84.19355564763478L194.23404892567225,79.79841245823262L194.30476949691774,81.82017625034048L194.38433013956887,79.68527331065147L194.44621063940866,81.02187883740802L194.799813495636,85.32851734311407L194.91473442390986,84.81589134014435L194.95893478093828,86.6607506416594L195.01197520937237,83.87628686971843L195.0384954235894,83.36248666628663L195.71034085042137,87.78232175346098L195.71918092182705,88.32695218499275L195.73686106463842,83.37614101030488L196.1081440636771,80.79093443593977L196.13466427789416,82.0931530360847L196.40870649147033,83.62014332553565L196.64738841942378,81.5874267607592L196.67390863364085,83.4370227735233L196.71810899066924,79.14096427723527L197.08055191830226,84.84104832377129L197.2131529893875,85.4079306055966L197.34575406047276,89.59523065020474L197.42531470312392,87.92288411870233L197.4429948459353,86.44194827806614L197.61095620264325,92.27672519538146L197.78775763075691,89.46995154736763L197.87615834481375,85.65532214871587L197.99991934449332,83.36855259692992L198.36236227212632,80.2055859812462L198.38004241493772,79.02825393023774L198.57452398586273,81.27219823436343L198.77784562819343,76.842432091843L199.14028855582646,73.98246103442375L199.25520948410036,71.3459602177664L199.26404955550603,74.09929325609528L199.432010912214,78.84455257643546L199.44085098361967,77.54391957830612L199.45853112643107,81.31725716684525L199.50273148345948,80.67893008651309L199.599972268922,76.79205576365439L200.24529748153688,77.97595829577553L200.57238012354713,80.2919948368724L200.58122019495283,80.11375974997867L200.73150140884943,76.79032053789513L200.76686169447217,75.97315081728807L201.09394433648245,76.55275008271222L201.36798655005862,74.71471628904332L201.37682662146432,83.057389381544L201.4033468356814,84.45501110270831L201.41218690708706,92.99864671092881L201.7127493348803,85.71961056286206L201.7569496919087,85.70776131329005L201.83651033455985,87.94194048286809L202.04867204829625,83.75665087749849L202.3403944046838,86.05429072615638L202.55255611842017,82.56338695107497L202.56139618982587,85.52473241520529L202.87963876043045,81.93773556187588L203.21556147384644,89.41932613581426L203.56916433007376,88.05114110979426L203.62220475850785,87.2778171605657L203.63988490131925,82.20767897908225L203.64872497272492,86.11135834555444L203.9227671863011,86.97746926132459L204.00232782895225,92.4403298667253L204.03768811457496,98.30475410422535L204.6034526845387,96.66491711021094L205.17805732590813,95.91467239272559L205.38137896823883,94.28242149998708L205.52282011072975,88.66898767090896L206.12394496631623,86.37063877939656L206.15046518053327,95.05070654328297L206.1946655375617,95.65028057868714L206.78695032174247,90.17490192951038L206.94607160704476,92.20647501252812L207.609076962471,87.11493806156207L207.95383974729268,91.10499603554442L207.96267981869835,94.66061500637139L208.51960431725638,93.33703388255911L208.63452524553026,95.06286748596003L208.7317660309928,93.00723895438132L209.0765288158144,90.47211808141714L209.200289815494,93.04552176676049L209.3505710293906,96.75099752143453L209.46549195766448,100.64435408589999L209.7218540284293,100.4075785410103L209.73069409983498,101.76741552742911L210.093137027468,100.958042851694L210.3052987412044,97.01324132525392L210.3583391696385,96.58889438426638L210.53514059775216,100.19618560385473L210.58818102618625,98.77620866188943L210.7738225257056,97.47831786958082L210.8268629541397,96.11670587084286L211.2423463102068,94.22789214838629L211.3572672384807,90.94744386388827L211.878831451416,90.92962982349704L212.16171373639787,93.45482894043286L212.22359423623766,88.0365939047633L212.96616023431505,86.52595085687396L213.14296166242872,89.10331635779463L214.11536951705386,86.99807096395556L214.33637130219594,87.73424069623455L214.35405144500731,82.81771600733727L214.45129223046985,83.54707113649103L214.68997415842327,82.22615923044322L214.75185465826308,78.08172820964239L214.8490954437256,76.1227460030991L214.893295800754,74.0844767779958L214.9551763005938,76.62332504759506L214.96401637199946,79.02558733569445L215.08777737167904,75.81216089254568L215.33529937103816,77.3774933908987L215.9452642980303,71.50960756693529L215.97178451224735,70.53040559237L216.2723469400406,76.11184080015074L216.34306751128605,82.6101302597412L216.6347898676736,83.00697063558441L216.652470010485,79.83525214423946L216.69667036751338,77.16734181254607L216.97955265249524,79.57589472366939L217.14751400920323,79.342210452936L217.78399915041243,76.17412349090624L217.80167929322377,75.78693795327649L217.92544029290337,79.173342423454L218.22600272069658,86.51774042796349L218.87132793331145,85.78596345695917L218.93320843315124,89.24287670273038L219.03928929001944,90.63389513128436L219.47245278889793,90.80019953757474L219.4901329317093,86.23574987085219L219.5873737171718,90.67324911343822L219.5962137885775,84.3397343754986L219.6404141456059,80.57289502601849L220.20617871556965,80.73169911540413L220.39182021508896,78.17975853783355L220.41834042930603,81.10198210860094L220.42718050071173,84.39091817167824L221.71783092594148,81.86535866039202L221.7531912115642,84.84579143715622L221.76203128296987,87.54968728867883L221.91231249686652,82.82360799950212L222.04491356795174,84.84945956571586L222.1333142820086,81.60066427357748L222.2305550674711,75.8112425096358L222.27475542449952,75.14210404018176L222.2835954959052,81.05875238671102L222.3189557815279,78.43206351914675L222.35431606715068,79.57752104203999L222.40735649558476,80.28109100662302L222.61951820932114,75.83016593127803L222.707918923378,78.75777858660712L222.93776077992575,81.29747066183168L222.95544092273713,80.64217094926066L223.03500156538826,82.14970633275226L223.3355639931815,83.32758945661075L223.53888563551223,78.93469135099477L223.83944806330547,82.19404780439856L223.98972927720206,84.94830964632341L224.20189099093847,79.51936263782328L224.36985234764643,79.02320180323596L224.493613347326,72.6897878249586L224.78533570371354,68.9733388809985L225.78426377255576,67.5003525682417L226.21742727143425,74.43430531402421L226.75667162718094,74.19420658421893L226.93347305529457,76.42793774113456L227.0307138407571,75.53731040458885L227.20751526887076,71.68343889460918L227.73791955321175,74.19609777202284L227.85284048148563,75.59467474338554L228.1799231234959,80.74858357676095L228.3567245516096,79.87306988759542L228.4539653370721,86.89887062126058L229.21421147796087,88.18004507199458L229.30261219201768,87.11500657591421L230.07169840431214,83.99605247240734L230.54906226021902,80.93642507045084L230.8761449022293,85.24978550693528L230.89382504504067,81.17692559747532L231.1501871158055,84.28178082750384L231.49494990062715,86.45863448052798L231.91927332809993,86.22403057806207L232.34359675557275,85.03243117594477L232.3612768983841,88.03352909127408L232.43199746962958,88.1373349483265L232.69719961180004,92.20099853852852L232.87400103991374,92.38875392207667L232.90052125413078,91.22420292035665L233.02428225381033,91.99892951806339L233.5281663239343,95.57948882259713L234.37681317887987,96.67056424546828L234.7746163921356,94.95560009050712L234.80997667775836,89.08704615665606L235.34038096209935,87.82410576692179L235.74702424676076,90.8832551269282L236.01222638893128,90.60489767343365L236.20670795985632,93.64384962202865L236.27742853110178,91.36912622283603L236.44538988780977,94.55159280100064L236.83435302965984,92.03127100815823L237.16143567167012,91.13575263553713L237.35591724259513,93.3292615369317L237.62111938476562,97.676729411586L237.76256052725654,93.53747023486498L237.81560095569066,91.13097314593793L237.8951615983418,91.12474332708275L238.1073233120782,89.69521669775625L238.17804388332368,89.91707614306294L238.36368538284302,95.07554552045009L238.46976623971122,98.15496362740554L238.4874463825226,100.09625318653613L238.57584709657942,101.02878206367073L238.68192795344763,95.3072258590535" fill="none"></path></g></g></g></g><g opacity="0.2"><g><g><g><path style="fill: none;" stroke="rgb(0, 119, 187)" stroke-width="2px" d="M17.84810416807447,96.02855978862382L18.06026588181087,107.86183715044902L18.086786096027918,147.26073106507263L18.316627952575683,145.24878355789423L18.519949594906397,149.3807224841327L19.085714164870126,137.17310358337127L19.165274807521275,133.8218066105856L19.713359234673636,148.7896610546726L19.75755959170205,151.9334426091349L19.9432010912214,145.90795018080368L20.1023223765237,141.15713888764085L20.411724875722612,146.13324247676752L20.429405018533977,143.82220887933096L20.500125589779447,141.37662407024214L21.410652944564816,137.28758667537605L21.755415729386467,139.90390851815866L21.87917672906603,143.9184015394523L22.427261156218393,128.42206027519973L22.66594308417184,134.91579566058152L22.80738422666277,145.79350659297145L22.869264726502553,147.1063882629806L22.87810479790824,140.2356645591028L23.293588153975353,128.32215422286018L23.408509082249232,146.84585824511606L23.532270081928797,123.0357848626481L23.62067079598563,135.90000261510426L24.00079386643001,136.34675530229612L24.07151443767548,142.94691492848563L24.451637508119855,147.89896047653883L24.504677936553957,136.22452939247458L24.628438936233522,146.72521250219592L24.646119079044887,135.9375710831845L24.778720150130134,154.67823202099947L24.831760578564236,148.71081072629386L25.07928257792337,149.4573605788495L26.04285036114284,149.20338825362566L26.2726922176906,150.6559961818891L26.281532289096287,153.80495278295342L26.334572717530385,154.7583464828993L26.573254645483836,151.28051764548587L26.652815288134985,125.33461167077152L27.085978787013463,140.5374764372658L27.112499001230514,147.07758972120303L27.35118092918396,147.79423491515007L27.448421714646475,157.68366996324622L27.95230578477042,152.4455747018712L28.1202671414784,155.19755387313705L28.836312925338746,146.51299608734098L29.322516852651326,147.11559273518114L29.349037066868373,145.94208178587343L29.47279806654794,131.5556892573207L29.50815835217067,149.61454768136397L29.932481779643467,135.20943017502992L29.99436227948325,159.78955839271148L30.188843850408283,150.29935251224828L30.29492470727648,151.78684262485962L30.383325421333314,149.39063803143884L30.64852756350381,147.0002405513806L30.745768348966326,148.9411200521696L30.86952934864589,143.31718753765082L31.152411633627757,149.64970639491963L31.40877370439257,148.57519290198317L31.550214846883502,150.90633412323976L31.691655989374432,124.39306922258598L31.727016274997165,135.8534666998587L31.87729748889378,136.79445608962877L32.18669998809269,150.93525117753498L32.63754362978254,142.2804400336573L32.79666491508484,141.33656683929223L32.876225557735985,138.00170360228088L32.99998655741555,150.26134949827016L33.01766670022692,147.7171622745354L33.04418691444397,154.44815972015897L33.43315005629403,129.87976424172012L33.83095326954978,151.3963043751843L33.99007455485208,142.13064021140676L34.06963519750323,139.48417668498035L34.18455612577711,123.6270438129709L34.21107633999416,138.16663352261213L34.281796911239624,122.38238584892866L34.63539976746696,125.81652307151901L34.78568098136357,100.49193872242616L34.8740816954204,115.62887102496049L34.900601909637444,151.84056829950646L35.377965765544346,137.63052239714742L35.68736826474326,13.778265296557748L36.04981119237627,53.55225132939576L36.12053176362174,9.90290597093039L36.15589204924447,123.19526320716959L36.21777254908425,4.550999188483701L37.02221904700143,-1.3006748806960218L37.128299903869625,83.51209726698823L37.23438076073783,121.24865560136311L37.41118218885149,52.25165545704478L37.455382545879914,118.40237997025758L37.46422261728559,112.0275126400319L37.641024045399256,29.444632519398482L37.68522440242767,77.79963590181983L38.08302761568342,48.38482903268485L38.18910847255162,150.76601530239748L38.49851097175053,68.62084141344552L38.807913470949444,82.19479112965521L38.81675354235513,100.82420831761323L38.834433685166495,44.35955137228933L39.22339682701656,14.744063306679436L39.37367804091317,70.03157491882247L39.39135818372454,121.5072499147735L39.43555854075295,151.20498566760006L39.65656032589504,62.78639116349079L39.66540039730072,66.73341105809563L39.753801111357554,117.47896993726533L39.77148125416892,151.12803153950298L39.815681611197334,113.0225832420016L39.9394426108769,73.12155179029288L40.07204368196215,76.34540830248247L40.2046447530474,155.8349932011526L40.2576851814815,100.4413733815821L41.42457460703169,143.98998310008466L41.91077853434426,59.70245843041815L42.03453953402383,149.31759481642268L42.343942033222746,129.6057237968488L43.289829673630855,67.09388663247228L43.91747474343436,130.77251903682566L44.306437885284424,108.7889605756595L44.545119813237875,113.38949799650138L44.571640027454926,140.6220153664895L45.08436416898455,116.76821086502592L45.63244859613691,88.48239374275234L45.94185109533583,95.228995336527L46.24241352312906,61.89059454710011L46.36617452280862,112.21077249641911L46.383854665619985,78.30912121499634L46.392694737025664,68.33222392890897L46.905418878555295,128.49960696588482L47.25902173478263,128.20407625115476L47.53306394835881,88.40800738587001L47.81594623334067,12.236140913331297L48.01042780426571,129.72704111070203L48.17838916097369,135.9111822959315L48.310990232058934,89.43148148789197L48.45243137454987,63.98783156278036L49.51323994323186,115.97899650613311L49.67236122853415,146.77893817684276L49.69004137134552,64.06897313316607L50.00828394195012,57.6410121950541L50.13204494162969,67.26794201665896L50.627088940347946,113.95780502258165L50.662449225970676,-18.45393965356007L50.75969001143319,54.165158566267394L51.21937372452872,77.08457087477416L51.40501522404807,65.67098584195472L51.44921558107649,82.88579811562741L51.46689572388785,107.43147869485897L51.55529643794469,96.56392033481039L51.84701879433223,125.45249212161426L52.412783364295954,92.46816723061345L52.66030536365509,67.81471926870799L52.90782736301422,103.94681563559708L53.24375007643018,126.82869898019612L53.3409908618927,96.81425827616107L53.36751107610975,111.60710923592052L53.871395146233695,12.28860245445702L53.91559550326211,111.01675888156603L54.01283628872463,113.56766181463163L54.65816150133951,90.52768277154982L54.7642423582077,107.57914529179266L54.78192250101907,116.22897890993099L54.83496292945317,47.588266897700635L55.05596471459525,113.87133038890379L55.10016507162367,85.37870892341249L55.12668528584072,126.04260545093354L55.37420728519985,59.01255756127691L55.400727499416895,101.72257270521865L55.736650212832856,82.96879638212226L55.851571141106746,113.41039570377208L55.8692512839181,36.12834347049832L56.585297067778455,93.75055167942604L56.877019424166,36.53100950114174L57.39858363710131,116.63887420414821L57.54886485099793,61.01996208861385L57.73450635051728,80.33837154974485L58.185349992207115,95.96160021617797L58.60083334827423,56.87881869017485L58.91907591887883,88.0041957342231L58.95443620450156,11.261335951871757L59.02515677574703,94.52431990685788L59.35223941775731,-26.556126927853654L59.679322059767586,82.95777471798515L59.75004263101305,54.569878813882625L60.015244773183554,111.57507135199509L60.12132563005175,88.35846915351185L60.139005772863115,77.26447287649593L60.47492848627908,42.37908869062085L60.58100934314728,36.13742943018124L60.95229234218597,48.54379382296338L61.55341719777243,26.018593652177685L61.632977840423585,57.5447405265877L61.659498054640636,19.40555566574193L62.331343481472565,154.6035296307369L62.34902362428392,95.27782249377955L62.826387480190824,-13.271624283803703L63.073909479549954,-16.07819822151214L63.657354192325045,55.219880468764075L64.0021169771467,128.02125094066542L64.79772340365818,83.82532585101372L64.93916454614912,80.68596876387527L65.06292554582868,94.28595172978514L65.60216990157535,51.34882709794297L65.7966514725004,127.26798537877896L66.44197668511526,143.67312013218603L66.45965682792664,84.60383457914968L66.7425391129085,123.62897951742508L67.07846182632447,100.88773102704859L67.72378703893935,120.58636814882344L67.75914732456206,32.70945485850626L67.89174839564733,120.9493719902423L68.25419132328034,124.36288803476967L68.28071153749738,75.88407857562542L68.7492353219986,99.713785531843L69.03211760698046,84.62402121131478L69.18239882087708,70.29475171624682L69.20891903509411,-86.84701976025838L69.50948146288735,99.6260072604715L69.52716160569872,100.43639585584275L69.58904210553851,68.44508734983984L69.90728467614309,107.30964782676278L70.09292617566246,98.3566986927678L70.30508788939885,88.15470663157927L70.34928824642726,110.2864847480946L70.40232867486137,123.29821108079432L70.64101060281482,57.15195053907787L70.81781203092847,113.13102219560861L70.8620123879569,122.89175264958757L71.41893688651494,46.965602130213L71.79905995695933,113.73041900547348L71.88746067101614,-33.54737786213403L72.32946424130031,52.6989612026521L72.49742559800829,126.44614057337273L72.61234652628218,47.44802708520342L72.66538695471628,53.42469235628208L72.78030788299016,39.77635628319007L73.2841919531141,106.66098931374748L73.48751359544481,138.95193696842404L73.53171395247324,22.49478195793418L73.74387566620963,130.39316046797757L73.93835723713465,67.54261452829084L74.05327816540854,91.83578443668232L74.26543987914495,100.90167599995324L75.11408673409053,85.58057524506341L75.14944701971326,-91.43657502113564L75.32624844782693,66.37178986271546L75.80361230373383,75.39493791130414L75.89201301779066,59.72300060013605L76.05997437449864,49.23934378877706L76.53733823040554,-18.106500456119818L76.61689887305668,-11.240833286326392L76.74949994414193,82.85692056550474L76.88210101522718,56.54512694477654L76.90862122944424,-62.63228538643398L77.01470208631244,-64.2330734658741L77.25338401426588,127.10104074564848L77.28874429988862,50.65726705355527L77.38598508535114,71.44728594993876L78.20811172607966,49.33593149062372L78.27883229732512,74.2794585914495L78.41143336841039,46.516874234394436L78.98603800977979,134.723568357029L79.26892029476166,32.24050082635006L79.49876215130942,49.163890819236315L79.69324372223446,30.957997865019877L80.50653029155731,72.92438646517354L80.57725086280277,75.13105003877415L80.9396937904358,121.31885451595679L81.47893814618247,142.21857649946838L81.75298035975865,107.76805424485228L82.22150414425987,23.367152600011963L82.31874492972237,60.178562717803075L82.47786621502468,94.29389206846457L82.56626692908151,-61.02920606498691L82.5751070004872,74.22940680484838L82.74306835719517,90.91395457059146L82.94638999952589,32.715617509421634L83.11435135623387,-1.0150992174446571L83.45911414105552,-21.14638603681655L83.48563435527257,96.79264949378474L83.54751485511234,69.54962401390245L83.63591556916919,-5.79170673527247L83.66243578338623,95.21907978922087L83.79503685447148,54.317447151387626L84.08675921085901,73.4296448318889L84.25472056756702,103.57251360083337L84.95308620861599,-6.997216064333088L85.2624887078149,82.0876163095693L85.41276992171152,82.13253255374096L85.54537099279676,121.0762988965954L85.64261177825927,140.29594792639034L85.69565220669337,102.86361122470308L86.16417599119458,98.4773049315154L86.28793699087414,106.87091448659542L86.46473841898782,132.04471140912437L86.53545899023328,136.97736040846317L86.62385970429013,101.6400089846217L86.93326220348902,87.44655483472711L87.5255469876698,137.8580664309457L87.80842927265168,77.21924059894403L88.32999348558698,87.78293286385777L88.63939598478589,105.46555354868316L88.73663677024841,104.70355756466658L88.84271762711661,126.85939372225536L88.99299884101323,83.36739348299463L90.00076698126112,87.76148209817158L90.03612726688385,-10.166240785044863L90.31016948046003,41.95086346034765L90.36320990889412,92.9949158671875L90.87593405042377,69.153239146692L90.97317483588628,31.080381791531522L91.30025747789657,52.5868483609994L91.34445783492498,83.29201952179895L91.36213797773634,68.007499630676L91.41517840617044,26.074847593866707L91.61850004850116,54.978628487096344L91.66270040552956,50.05917388138403L91.74226104818072,52.4625682342061L92.5378674746922,68.08192549173086L92.56438768890925,122.35137507348914L92.81190968826839,34.02024280737112L92.90031040232522,4.453423882323648L93.41303454385485,32.63040700926487L93.64287640040261,74.12574785611804L93.72243704305377,119.49064091523601L94.01415939944131,153.42851752287285L94.02299947084698,102.16055546610785L94.10256011349814,97.09232814663089L94.50920339815957,40.0200970277275L94.55340375518799,131.11912864664274L95.49045132419042,148.92077540331434L95.64957260949272,70.73024571426636L95.67609282370975,63.22686268724968L95.86173432322911,74.0960012141996L96.17113682242801,74.79099812159781L96.23301732226781,91.46345761054533L96.38329853616442,94.46308843942951L96.40097867897579,46.783566903174346L96.42749889319283,126.53202264446257L96.6131403927122,49.8849604805072L96.67502089255197,137.8277667306118L96.87834253488269,108.92268219968854L97.0286237487793,62.26872848659964L97.18774503408159,86.88354136776644L97.24078546251569,97.41764500745191L97.32918617657253,104.14437600244176L97.73582946123396,70.37589328663255L97.80655003247942,72.06564476262017L97.99219153199877,90.63624023767441L98.61983660180228,117.72215762338728L99.2474816716058,124.39338525596625L99.30936217144557,73.57012166942131L99.54804409939902,84.06452361570969L99.96352745546614,126.6509302037912L100.04308809811728,94.69158057336864L100.32597038309915,95.03143496968234L100.5116118826185,110.71731725375507L100.89173495306287,82.60918989954136L100.91825516727992,77.75831453734881L101.09505659539359,111.73265349623493L101.15693709523337,69.15912526839963L101.38677895178112,70.45691634450066L102.00558395017896,90.63825495047368L102.0851445928301,79.42910401051991L102.1470250926699,111.61267932424788L102.26194602094378,118.23448723698627L102.4564275918688,79.12014187712816L102.79235030528477,93.25512985167178L103.00451201902118,127.99478314506737L103.05755244745528,122.29014360606078L103.26087408978599,20.795826009746065L103.41999537508828,64.79423023672564L104.03880037348611,54.35797843240795L104.42776351533617,147.7595107474923L104.6752855146953,105.69037179457659L104.70180572891235,54.440502648832364L105.05540858513969,121.23309095738456L105.26757029887608,103.46553630161014L105.84217494024549,93.93993468255609L106.53170050988878,67.7574777227056L106.5759008669172,43.28958085919433L106.60242108113425,74.64522772494577L106.83226293768202,115.61954804024236L107.03558458001274,70.76208607732912L107.22122607953207,83.42495106237729L107.36266722202302,94.78978794628924L107.57482893575941,39.87681539394512L107.72511014965602,64.96512528710957L108.35275521945952,147.57253749888687L108.52955664757319,112.62240597422785L108.59143714741299,76.94705685018181L109.59036521625518,140.66705012317874L109.61688543047224,21.27102170116268L109.80252692999159,104.75206868853886L109.84672728702,87.64672247695906L110.3240911429269,92.55843426485461L110.41249185698373,143.55516067299823L110.44785214260646,148.02920573338486L110.70421421337127,28.892206170677042L110.98709649835314,99.81700993467545L110.99593656975883,74.65218045931182L111.3760596402032,130.45569557309955L111.45562028285435,120.0952127717029L111.60590149675097,45.82883006136231L111.65010185377939,140.94638412716967L111.72966249643054,90.38313700424635L111.87110363892147,80.42314750400371L112.02138485281807,10.249081034849553L112.37498770904541,97.88766565226653L112.7020703510557,125.32007413527887L112.78163099370684,64.49972663048148L112.79047106511253,56.106788646334536L112.98495263603755,121.234750132631L113.04683313587735,53.83087425828107L113.29435513523647,101.23007418623195L113.3827558492933,57.09881742701907L113.42695620632172,139.01091669801792L113.52419699178422,79.54560181532393L113.60375763443538,103.23676763846328L113.72751863411494,52.58198934777768L114.0634413475309,82.48866266913882L114.08996156174796,137.2335054631764L114.3905239895412,135.4274141990749L114.42588427516392,95.1579668343101L114.62920591749464,82.58868723399598L114.68224634592873,69.58355809810952L114.6999264887401,137.14746537539642L115.05352934496743,21.122051466535368L115.10656977340153,105.32645935718944L115.22149070167542,72.2917271420347L115.26569105870384,129.84547461996024L115.83145562866756,68.06920514817476L115.99941698537555,11.453049701181328L116.07897762802669,101.06522327424577L116.23809891332898,96.09512431934434L116.47678084128243,94.46778943596112L116.68010248361315,57.278205874497914L116.69778262642453,64.14679635305889L116.7066226978302,131.06374379674946L117.2281869107655,72.23626328379635L117.3342677676337,77.39862904642284L117.67019048104967,64.73355182771274L118.12103412273952,96.48048752241768L118.63375826426915,93.97181454979138L118.95200083487374,62.391467950664136L119.10228204877036,101.49925561788153L119.27908347688403,90.79050403142136L119.5531256904602,51.37102844290732L119.63268633311135,26.67934044198853L119.78296754700797,136.08101073365702L119.85368811825343,85.42698302224956L119.93324876090459,106.11934760412794L120.20729097448077,127.73824304862879L120.55205375930241,68.45160553830803L120.65813461617061,91.96879498560574L120.7642154730388,108.88416563146748L120.86145625850132,101.63708567585415L120.98521725818088,108.42524565913503L121.00289740099227,32.13431361057752L121.32113997159686,70.29957122529603L121.63938254220145,108.95756438403644L121.8780644701549,103.18932312724942L122.01066554124014,143.6138638733844L122.27586768341064,93.50365060108587L122.64715068244934,125.72522892879195L123.17755496679034,126.33039334784687L123.29247589506421,86.82219138782048L123.31015603787559,67.00891315735073L123.49579753739494,127.18712033760099L123.53999789442335,76.74112159875983L123.66375889410291,88.33330499560742L123.75215960815974,127.02448165927674L123.79635996518816,114.6729490579724L123.85824046502796,70.42950044876176L124.02620182173594,48.797055073081594L124.13228267860411,146.19708121958317L124.98976960495541,94.39095382038165L125.12237067604063,85.34193053878293L125.21961146150316,93.73759431083475L125.2549717471259,80.67060164075937L125.39641288961681,97.97303416911343L125.68813524600438,127.43090058631094L125.76769588865552,72.38278425972653L126.33346045861924,100.6285441510502L126.35998067283629,81.44255267625464L126.50142181532725,60.95304202034053L127.27050802762166,82.12913519490297L127.35006867027282,76.97478877930097L127.624110883849,78.28612978658131L127.81859245477403,64.89547943093137L128.01307402569907,117.68526072624013L128.58767866706847,117.16917821625036L128.65839923831396,107.96020254005974L129.03852230875833,116.79479717314159L129.29488437952315,96.46583147440741L129.70152766418457,65.49665392856028L129.94904966354372,122.57449463996359L130.470613876479,100.21845133597031L130.61205501896995,131.78588007067881L130.88609723254612,76.2332164524847L131.14245930331094,99.44673732551027L131.36346108845302,96.77341096176046L131.40766144548144,116.33520562987606L131.5225823737553,127.30780558469367L131.6905437304633,93.51368466090962L132.07066680090767,110.08189263853879L132.24746822902134,132.26949015084526L132.76019237055098,98.02158479715824L132.91047358444757,126.19382742339533L133.14915551240102,89.82225676260254L133.1579955838067,124.47824021857019L133.22871615505218,152.79376447858965L133.3347970119204,129.46042745026716L133.4408778687886,124.79684137006036L133.5734789398738,106.08300376539627L133.60883922549658,85.42548186369325L133.75912043939317,81.10822886409576L134.07736300999778,141.81982138190588L134.20996408108303,26.109176719799137L134.29836479513986,103.48675004226114L134.3248850093569,114.05214098659387L134.4309658662251,136.86465500422247L134.43980593763078,107.05223863852845L134.47516622325352,86.30330408158078L134.72268822261265,71.4259932009427L135.3768535066332,81.40885561708276L135.69509607723782,115.99112428710119L136.16361986173902,94.98971856348598L136.19898014736177,83.46884019806305L136.3757815754754,74.49463781924453L136.8089450743539,112.7804621685381L137.0653071451187,149.01353120042518L137.4365901441574,65.42076641312164L137.88743378584724,63.1249024179383L138.0200348569325,109.86331605190581L138.09075542817797,82.80639472883323L138.14379585661206,112.67111461896279L138.6123196411133,70.36996766075238L138.63883985533033,62.06453141876921L138.75376078360424,97.79419878005008L138.99244271155766,120.00545929170468L139.21344449669974,112.74783172202466L139.27532499653952,124.42597619830715L139.46980656746456,100.72588243217504L139.7703689952578,114.72240828198551L140.0797714944567,149.24277391364248L140.28309313678741,52.298467901498086L140.42453427927833,46.19874713297469L140.89305806377953,95.53724639481314L141.06985949189323,66.03845365486997L141.09637970611027,142.30718435846313L141.17594034876143,58.481107928171255L141.1847804201671,52.52925127744422L141.23782084860122,121.80396575467958L141.41462227671485,112.74297270880292L141.43230241952622,139.5217451530606L142.15718827479225,84.69287698404227L142.8732340586526,122.65306843913456L143.40363834299362,100.6525231837786L143.4566787714277,89.83118470559532L143.6600004137584,143.69156858075962L143.9870830557687,144.21349770828448L143.99592312717436,137.54515388030052L144.04896355560848,117.33106631529644L144.12852419825964,81.86516831402793L144.27880541215623,108.2121206483118L144.38488626902443,74.2553610462035L144.43792669745852,60.25911172560076L144.95949091039384,64.84475607339715L145.401494480678,123.63897407307628L145.8169778367451,68.58979113383344L146.13522040734972,56.23786349080376L146.34738212108613,109.7199949139509L146.37390233530317,59.8138206927927L147.03690769072944,94.47813952916513L147.0899481191635,75.84429787388326L147.35515026133402,119.23449586052278L147.43471090398515,95.08638527367772L147.4700711896079,55.11997441642451L147.52311161804198,82.92731700096111L148.0446758309773,88.43360608967234L148.33639818736486,111.67632054620084L148.34523825877054,81.37796335416083L148.415958830016,121.62232556936627L148.45131911563874,117.56102010361936L148.60160032953533,108.77588469455061L148.65464075796945,77.15832516489593L148.9286829715456,57.210811756154186L149.16736489949906,59.541241902305146L149.33532625620705,72.36579746553674L149.62704861259462,89.40991220968817L149.6358886840003,136.03712159797126L149.8480503977367,129.23809796724342L150.52873589597428,77.61586249118967L151.08566039453234,101.45556400305846L151.45694339357104,98.53624515693677L151.49230367919375,54.16697575820399L151.88126682104385,96.06952561554202L152.04922817775181,126.31309052027677L152.3763108197621,100.05040058600886L152.6415129619326,68.50201286246195L152.70339346177235,102.04931171625091L153.15423710346224,94.473399028461L153.30451831735883,76.38807280881964L153.35755874579291,88.45110643810509L154.02056410121918,130.96723510324784L154.07360452965327,68.84080064611722L154.3211265290124,110.36889045200141L154.47140774290904,114.92624981226315L154.48908788572038,89.89048046856949L154.77197017070228,141.22706127302678L155.04601238427844,104.45152094389694L155.56757659721373,140.7405673882653L155.66481738267626,98.05212152252736L156.83170680822644,133.86656483806712L157.04386852196285,100.02049592740029L157.123429164614,85.13022767817094L157.1764695930481,56.9913265735529L157.58311287770954,96.11902434372767L157.60963309192658,89.91280032605144L157.77759444863457,94.69557049479462L157.94555580534254,97.02805485791738L158.94448387418475,139.17181719275064L159.01520444543021,150.55229772898622L159.06824487386433,120.92582750341177L159.62516937242236,87.5112626693385L159.969932157244,60.22375549118246L160.15557365676335,127.87425591466483L160.67713786969867,134.64791786662556L160.79205879797254,79.05085155850276L160.88045951202938,109.70525985759555L160.91581979765212,102.56258942999072L161.33130315371923,128.46385568974117L161.96778829492843,123.2143042183312L162.16226986585343,117.7796756985974L162.31255107975008,108.20959238126959L162.4893525078637,102.15751364482271L162.7191943644115,124.38386475038546L163.0197567922047,89.75608727360736L163.09931743485586,110.19127969228663L163.59436143357414,127.61613565132487L164.071725289481,72.91166612161747L164.3015671460288,88.185954432054L164.3457675030572,93.27053647896021L164.97341257286072,106.92305999434087L165.00877285848344,132.86142067210113L165.29165514346533,115.60473397554193L165.7248186423438,83.24599716079634L166.18450235543932,61.75252746409228L166.27290306949615,155.60085197054104L166.28174314090185,116.19903474714988L166.50274492604393,61.41445075554266L166.5823055686951,39.484973506576125L166.70606656837464,110.65580925711896L167.07734956741334,101.66979513071266L167.29835135255541,140.165900190407L167.96135670798165,121.88664798779413L168.55364149216243,133.73363329748878L168.8276837057386,55.669121918825596L169.12824613353183,117.7640715504463L169.33156777586254,80.56986600079658L169.66749048927852,64.58647779336708L169.71169084630694,80.50322246173101L169.75589120333535,111.67797972144729L170.08297384534563,97.23857259335335L170.1536944165911,131.41434332799253L170.27745541627067,111.61161271158944L170.37469620173317,148.38881221596574L170.53381748703546,121.73546551950488L170.55149762984686,57.560581699774005L170.75481927217754,107.46098831174218L170.76365934358324,117.23076522123154L170.77249941498894,120.9159909644507L170.799019629206,88.71151794345202L170.96698098591395,125.83907995403618L171.27638348511286,125.13942155427893L171.4266646990095,83.69642373603388L171.55042569868905,102.8808745481006L171.73606719820842,120.89402664452156L171.82446791226522,142.3105817173011L171.8951884835107,108.5072563213165L171.98358919756754,54.395349379625515L172.41675269644603,128.21292518580248L172.48747326769148,146.11040906504263L172.77035555267332,58.03455276184208L172.8941165523529,106.31019226164176L172.947156980787,64.00035438547377L173.07091798046656,69.06135244137693L173.15047862311772,117.97802614889278L173.21235912295748,122.86449477053883L173.22119919436318,77.30093522774521L173.25655947998592,68.86707092085261L173.477561265128,90.97731926333667L173.56596197918483,119.62606121868404L173.7427634072985,75.55465328086082L173.86652440697804,78.85218507482713L174.18476697758265,124.59714777789883L174.2554875488281,116.38818072524472L174.35272833429065,135.33398683103098L174.78589183316913,116.3728926104739L174.7947319045748,127.38432516689286L174.83893226160322,93.76670888599261L175.07761418955667,41.394842231925566L175.41353690297262,63.28884473395618L176.39478482900347,95.42616066164634L176.47434547165463,62.31569894774309L176.61578661414555,103.68399437572553L176.6423068283626,82.28975916042798L176.72186747101375,-3.801486522988L176.96938947037287,76.05078618372072L177.2699518981661,61.93776252910621L177.27879196957178,87.98187587674114L177.38487282644,9.162084223392242L177.72963561126164,35.983639686504716L177.95063739640372,27.8346794719304L178.10091861030034,98.81012758511795L178.48988175215038,100.25910112950824L178.7020434658868,50.79008008161601L178.89652503681182,107.8995636352194L179.14404703617097,81.87133096494331L179.62141089207785,97.84112973702098L179.6479311062949,21.640741251912402L180.01037403392792,8.61424035868481L180.08109460517338,135.18825593855146L180.79714038903373,121.38056003345557L180.8059804604394,92.47440888987389L181.57506667273384,102.3205473648723L181.64578724397933,128.8847726480955L182.04359045723507,114.38571421947458L182.57399474157606,60.17512585479258L183.11323909732272,94.61849785417996L183.1751195971625,25.46889309136111L183.43148166792733,48.082266575243665L183.7585643099376,52.19382134845439L183.90884552383423,58.750170847303224L184.28012852287293,28.5519172284655L184.7044519503457,118.4359980210844L185.05805480657307,121.6497809692777L185.27905659171515,81.0641027033748L185.4470179484231,126.39036068175412L185.49121830545155,74.39919573840136L185.69453994778223,73.10883144673679L185.73874030481068,71.18335857323625L185.78294066183906,96.66832986281888L185.88902151870727,73.40772001613227L186.07466301822663,141.55154854622458L186.49014637429374,61.91291440458207L186.6757878738131,106.49570385586344L187.00287051582336,124.41969503487418L187.1443116583143,109.50730444902554L187.65703579984392,117.54272967173591L188.04599894169397,123.52433296438136L188.08135922731674,50.3633165057266L188.30236101245882,63.15030360087795L188.53220286900657,78.77072747106114L189.27476886708396,95.22145003957293L189.31896922411238,80.51657487204764L189.76097279439654,106.2621551878399L189.9377742225102,45.583904191648855L190.07037529359545,101.2006435776938L190.0968955078125,73.4518066726807L190.29137707873753,48.428876185060744L190.34441750717164,64.4668196547603L190.54773914950235,78.28533970313062L190.76874093464443,130.22194938421333L190.7864210774558,115.22837772380646L190.90134200572967,124.22059400530067L191.254944861957,86.93169695408591L191.30798529039112,114.2589453298116L191.43174629007066,52.393988990686324L191.5289870755332,84.1965070561472L191.60854771818435,63.73148898720446L192.01519100284577,92.32429303424306L192.07707150268556,88.82995145271023L192.11243178830827,53.615102467898026L192.1654722167424,120.18658592277502L192.6870364296777,43.221396657399936L192.92571835763115,105.57659977767743L193.12903999996186,52.20334185403519L193.74784499835965,105.3010581742498L193.8362457124165,97.86637290327049L193.94232656928472,74.77507794006644L194.23404892567225,51.87632631379519L194.30476949691774,94.66432269431989L194.38433013956887,66.12236051733309L194.44621063940866,89.51325512503824L194.799813495636,112.68833843818781L194.91473442390986,81.5592084977488L194.95893478093828,98.381033263049L195.01197520937237,66.18675231856422L195.0384954235894,80.09834419742566L195.71034085042137,115.86127407198052L195.71918092182705,91.78695727942977L195.73686106463842,51.923928841699166L196.1081440636771,64.36726913997353L196.13466427789416,90.36607120171146L196.40870649147033,93.3210228114592L196.64738841942378,68.67369799629658L196.67390863364085,95.18739744284825L196.71810899066924,51.8483573596408L197.08055191830226,121.05334697235291L197.2131529893875,89.00930039601654L197.34575406047276,116.19690152183301L197.42531470312392,77.29856497739314L197.4429948459353,77.03364999637728L197.61095620264325,129.34471972891384L197.78775763075691,71.63868366586806L197.87615834481375,61.42120596904603L197.99991934449332,68.84084015028974L198.36236227212632,60.111445128667086L198.38004241493772,71.54873266500718L198.57452398586273,95.52784440174995L198.77784562819343,48.70038836288987L199.14028855582646,55.813233140231205L199.25520948410036,54.59642561782576L199.26404955550603,91.59105608783155L199.432010912214,108.99090590565551L199.44085098361967,69.28107464901342L199.45853112643107,105.28904890579933L199.50273148345948,76.62367569381497L199.599972268922,52.09897183019922L200.24529748153688,85.49722144101577L200.57238012354713,95.00563874501735L200.58122019495283,78.98144272735978L200.73150140884943,55.67670671995222L200.76686169447217,70.78171965107872L201.09394433648245,80.23491012187716L201.36798655005862,63.037795717499904L201.37682662146432,136.05790079272435L201.4033468356814,93.33401968422304L201.41218690708706,147.2758611631533L201.7127493348803,39.476322092791094L201.7569496919087,85.63248372777365L201.83651033455985,102.13554932489356L202.04867204829625,57.167752208091656L202.3403944046838,100.65106152939484L202.55255611842017,60.38588061526376L202.56139618982587,104.33798595203298L202.87963876043045,59.14975555248897L203.21556147384644,136.94943095848134L203.56916433007376,79.35914212096145L203.62220475850785,82.36493560076099L203.63988490131925,49.99738935554019L203.64872497272492,110.91120373255403L203.9227671863011,92.47982096151111L204.00232782895225,127.14556194809478L204.03768811457496,135.5610963189314L204.6034526845387,86.24712914823681L205.17805732590813,91.14841183458327L205.38137896823883,83.91282759317748L205.52282011072975,53.007172756765726L206.12394496631623,71.76936346861194L206.15046518053327,150.19466645503206L206.1946655375617,99.45933915654875L206.78695032174247,55.39014345238746L206.94607160704476,105.11293930464086L207.609076962471,54.768703314248384L207.95383974729268,116.45359963496173L207.96267981869835,117.24925317397765L208.51960431725638,84.92840086069253L208.63452524553026,106.02698684874245L208.7317660309928,79.94795181258708L209.0765288158144,74.36664430023298L209.200289815494,109.39420400305947L209.3505710293906,120.2916670217166L209.46549195766448,125.37861931897487L209.7218540284293,98.9033574322992L209.73069409983498,110.40637991173658L210.093137027468,95.8161458529062L210.3052987412044,71.95214927492874L210.3583391696385,93.89304322975772L210.53514059775216,123.11309452829798L210.58818102618625,89.75517867763908L210.7738225257056,89.2328940125614L210.8268629541397,87.46646493768446L211.2423463102068,82.22836967630947L211.3572672384807,70.10694888001817L211.878831451416,90.81645827277649L212.16171373639787,109.49727038920179L212.22359423623766,53.61486544286282L212.96616023431505,76.92892443498852L213.14296166242872,105.47716777540828L214.11536951705386,73.62357081486039L214.33637130219594,92.4110837013012L214.35405144500731,51.583323866107335L214.45129223046985,88.18062136876185L214.68997415842327,73.8344835920217L214.75185465826308,51.75240172455467L214.8490954437256,63.67744727917734L214.893295800754,61.13547228910453L214.9551763005938,92.75247876034372L214.96401637199946,94.28701834244357L215.08777737167904,55.397451724306336L215.33529937103816,87.32195867455351L215.9452642980303,34.23127409705003L215.97178451224735,64.30959304807325L216.2723469400406,111.5703703554635L216.34306751128605,123.89338094419799L216.6347898676736,85.52807419976516L216.652470010485,59.68551114040088L216.69667036751338,60.21826441120018L216.97955265249524,94.87728968845299L217.14751400920323,77.85762802710038L217.78399915041243,56.047453379187814L217.80167929322377,73.32717100833459L217.92544029290337,100.68697082222863L218.22600272069658,133.17626892720054L218.87132793331145,81.13702740587337L218.93320843315124,111.20444320527709L219.03928929001944,99.47095338327387L219.47245278889793,91.85672164812557L219.4901329317093,57.23806963520293L219.5873737171718,118.86442077222026L219.5962137885775,44.10328780505847L219.6404141456059,56.64238621755629L220.20617871556965,81.74057215385436L220.39182021508896,61.96743016267958L220.41834042930603,99.66669655818195L220.42718050071173,105.2853355135811L221.71783092594148,65.82062764751514L221.7531912115642,103.78030554836447L221.76203128296987,104.72737858070484L221.91231249686652,52.799104280026896L222.04491356795174,97.71957539813255L222.1333142820086,60.961258888227704L222.2305550674711,39.03138659753583L222.27475542449952,70.89110670482656L222.2835954959052,118.64687129407316L222.3189557815279,61.744863654620616L222.35431606715068,86.85454530512618L222.40735649558476,84.7508296051503L222.61951820932114,47.55370074673303L222.707918923378,97.35672957340383L222.93776077992575,97.43198502208192L222.95544092273713,76.47909042233897L223.03500156538826,91.7269899455225L223.3355639931815,90.81061165524139L223.53888563551223,51.02686809178738L223.83944806330547,102.90054762602276L223.98972927720206,102.4459731126691L224.20189099093847,45.02958164264575L224.36985234764643,75.87112120703412L224.493613347326,32.45398137472611L224.78533570371354,45.36295735466379L225.78426377255576,58.142557169551196L226.21742727143425,118.48529922840737L226.75667162718094,72.66887347722088L226.93347305529457,90.61870038506913L227.0307138407571,69.87920732535719L227.20751526887076,47.20001989003228L227.73791955321175,90.1588718167684L227.85284048148563,84.47975197321904L228.1799231234959,113.49106322408738L228.3567245516096,74.31098292113197L228.4539653370721,131.53336939983876L229.21421147796087,96.31927099430467L229.30261219201768,80.348879659639L230.07169840431214,64.18152052071665L230.54906226021902,61.49879216390366L230.8761449022293,112.65231063283642L230.89382504504067,55.302286172670904L231.1501871158055,104.00674346533181L231.49494990062715,100.28805768797598L231.91927332809993,84.73360578592528L232.34359675557275,77.46227026837582L232.3612768983841,107.0993276121895L232.43199746962958,88.79680745195385L232.69719961180004,118.01721428804692L232.87400103991374,93.58155282932375L232.90052125413078,83.82587890942919L233.02428225381033,96.92072202114134L233.5281663239343,118.32657146316403L234.37681317887987,103.60210222606166L234.7746163921356,84.0605336942837L234.80997667775836,51.80446822395507L235.34038096209935,79.80071976155128L235.74702424676076,110.31785106108694L236.01222638893128,88.83650914535096L236.20670795985632,112.95013258957346L236.27742853110178,76.91794227502393L236.44538988780977,114.76961576816414L236.83435302965984,76.01981491245371L237.16143567167012,85.44657709182664L237.35591724259513,107.26449455755593L237.62111938476562,125.29593708586033L237.76256052725654,67.24100017099049L237.81560095569066,75.84263869863682L237.8951615983418,91.08516565435566L238.1073233120782,80.61351811144714L238.17804388332368,91.32653614854102L238.36368538284302,127.84699803561607L238.46976623971122,117.71832571865144L238.4874463825226,112.42915156218943L238.57584709657942,106.95308316546704L238.68192795344763,58.95851585324981" fill="none"></path></g></g></g></g></g></g><g transform="translate(82, 177)" clip-path="url(#clip_1)"><clipPath id="clip_1"><rect width="247" height="22"></rect></clipPath><g><g><line x1="0" y1="0" x2="0" y2="5" style="visibility: inherit;" fill="rgb(0, 0, 0)" stroke="rgb(204, 204, 204)" stroke-width="1px"></line><line x1="17.68014281136649" y1="0" x2="17.68014281136649" y2="5" style="visibility: inherit;" fill="rgb(0, 0, 0)" stroke="rgb(204, 204, 204)" stroke-width="1px"></line><line x1="35.36028562273298" y1="0" x2="35.36028562273298" y2="5" style="visibility: inherit;" fill="rgb(0, 0, 0)" stroke="rgb(204, 204, 204)" stroke-width="1px"></line><line x1="53.04042843409947" y1="0" x2="53.04042843409947" y2="5" style="visibility: inherit;" fill="rgb(0, 0, 0)" stroke="rgb(204, 204, 204)" stroke-width="1px"></line><line x1="70.72057124546596" y1="0" x2="70.72057124546596" y2="5" style="visibility: inherit;" fill="rgb(0, 0, 0)" stroke="rgb(204, 204, 204)" stroke-width="1px"></line><line x1="88.40071405683246" y1="0" x2="88.40071405683246" y2="5" style="visibility: inherit;" fill="rgb(0, 0, 0)" stroke="rgb(204, 204, 204)" stroke-width="1px"></line><line x1="106.08085686819894" y1="0" x2="106.08085686819894" y2="5" style="visibility: inherit;" fill="rgb(0, 0, 0)" stroke="rgb(204, 204, 204)" stroke-width="1px"></line><line x1="123.76099967956543" y1="0" x2="123.76099967956543" y2="5" style="visibility: inherit;" fill="rgb(0, 0, 0)" stroke="rgb(204, 204, 204)" stroke-width="1px"></line><line x1="141.44114249093192" y1="0" x2="141.44114249093192" y2="5" style="visibility: inherit;" fill="rgb(0, 0, 0)" stroke="rgb(204, 204, 204)" stroke-width="1px"></line><line x1="159.12128530229842" y1="0" x2="159.12128530229842" y2="5" style="visibility: inherit;" fill="rgb(0, 0, 0)" stroke="rgb(204, 204, 204)" stroke-width="1px"></line><line x1="176.8014281136649" y1="0" x2="176.8014281136649" y2="5" style="visibility: inherit;" fill="rgb(0, 0, 0)" stroke="rgb(204, 204, 204)" stroke-width="1px"></line><line x1="194.48157092503138" y1="0" x2="194.48157092503138" y2="5" style="visibility: inherit;" fill="rgb(0, 0, 0)" stroke="rgb(204, 204, 204)" stroke-width="1px"></line><line x1="212.16171373639787" y1="0" x2="212.16171373639787" y2="5" style="visibility: inherit;" fill="rgb(0, 0, 0)" stroke="rgb(204, 204, 204)" stroke-width="1px"></line><line x1="229.84185654776437" y1="0" x2="229.84185654776437" y2="5" style="visibility: inherit;" fill="rgb(0, 0, 0)" stroke="rgb(204, 204, 204)" stroke-width="1px"></line><line x1="247.52199935913086" y1="0" x2="247.52199935913086" y2="5" style="visibility: inherit;" fill="rgb(0, 0, 0)" stroke="rgb(204, 204, 204)" stroke-width="1px"></line></g><g transform="translate(0, 8)"><text style="text-anchor: middle; visibility: hidden; font-family: &quot;Helvetica Neue&quot;, sans-serif; font-size: 12px; font-weight: 200;" x="0" y="0" dx="0em" dy="0.95em" fill="rgb(50, 49, 63)" stroke="none" stroke-width="1px">-2k</text><text style="text-anchor: middle; visibility: inherit; font-family: &quot;Helvetica Neue&quot;, sans-serif; font-size: 12px; font-weight: 200;" x="17.68014281136649" y="0" dx="0em" dy="0.95em" fill="rgb(50, 49, 63)" stroke="none" stroke-width="1px">0</text><text style="text-anchor: middle; visibility: hidden; font-family: &quot;Helvetica Neue&quot;, sans-serif; font-size: 12px; font-weight: 200;" x="35.36028562273298" y="0" dx="0em" dy="0.95em" fill="rgb(50, 49, 63)" stroke="none" stroke-width="1px">2k</text><text style="text-anchor: middle; visibility: inherit; font-family: &quot;Helvetica Neue&quot;, sans-serif; font-size: 12px; font-weight: 200;" x="53.04042843409947" y="0" dx="0em" dy="0.95em" fill="rgb(50, 49, 63)" stroke="none" stroke-width="1px">4k</text><text style="text-anchor: middle; visibility: hidden; font-family: &quot;Helvetica Neue&quot;, sans-serif; font-size: 12px; font-weight: 200;" x="70.72057124546596" y="0" dx="0em" dy="0.95em" fill="rgb(50, 49, 63)" stroke="none" stroke-width="1px">6k</text><text style="text-anchor: middle; visibility: inherit; font-family: &quot;Helvetica Neue&quot;, sans-serif; font-size: 12px; font-weight: 200;" x="88.40071405683246" y="0" dx="0em" dy="0.95em" fill="rgb(50, 49, 63)" stroke="none" stroke-width="1px">8k</text><text style="text-anchor: middle; visibility: hidden; font-family: &quot;Helvetica Neue&quot;, sans-serif; font-size: 12px; font-weight: 200;" x="106.08085686819894" y="0" dx="0em" dy="0.95em" fill="rgb(50, 49, 63)" stroke="none" stroke-width="1px">10k</text><text style="text-anchor: middle; visibility: inherit; font-family: &quot;Helvetica Neue&quot;, sans-serif; font-size: 12px; font-weight: 200;" x="123.76099967956543" y="0" dx="0em" dy="0.95em" fill="rgb(50, 49, 63)" stroke="none" stroke-width="1px">12k</text><text style="text-anchor: middle; visibility: hidden; font-family: &quot;Helvetica Neue&quot;, sans-serif; font-size: 12px; font-weight: 200;" x="141.44114249093192" y="0" dx="0em" dy="0.95em" fill="rgb(50, 49, 63)" stroke="none" stroke-width="1px">14k</text><text style="text-anchor: middle; visibility: inherit; font-family: &quot;Helvetica Neue&quot;, sans-serif; font-size: 12px; font-weight: 200;" x="159.12128530229842" y="0" dx="0em" dy="0.95em" fill="rgb(50, 49, 63)" stroke="none" stroke-width="1px">16k</text><text style="text-anchor: middle; visibility: hidden; font-family: &quot;Helvetica Neue&quot;, sans-serif; font-size: 12px; font-weight: 200;" x="176.8014281136649" y="0" dx="0em" dy="0.95em" fill="rgb(50, 49, 63)" stroke="none" stroke-width="1px">18k</text><text style="text-anchor: middle; visibility: inherit; font-family: &quot;Helvetica Neue&quot;, sans-serif; font-size: 12px; font-weight: 200;" x="194.48157092503138" y="0" dx="0em" dy="0.95em" fill="rgb(50, 49, 63)" stroke="none" stroke-width="1px">20k</text><text style="text-anchor: middle; visibility: hidden; font-family: &quot;Helvetica Neue&quot;, sans-serif; font-size: 12px; font-weight: 200;" x="212.16171373639787" y="0" dx="0em" dy="0.95em" fill="rgb(50, 49, 63)" stroke="none" stroke-width="1px">22k</text><text style="text-anchor: middle; visibility: inherit; font-family: &quot;Helvetica Neue&quot;, sans-serif; font-size: 12px; font-weight: 200;" x="229.84185654776437" y="0" dx="0em" dy="0.95em" fill="rgb(50, 49, 63)" stroke="none" stroke-width="1px">24k</text><text style="text-anchor: middle; visibility: hidden; font-family: &quot;Helvetica Neue&quot;, sans-serif; font-size: 12px; font-weight: 200;" x="247.52199935913086" y="0" dx="0em" dy="0.95em" fill="rgb(50, 49, 63)" stroke="none" stroke-width="1px">26k</text></g><line x1="0" y1="0" x2="247.52199935913086" y2="0" fill="rgb(0, 0, 0)" stroke="rgb(204, 204, 204)" stroke-width="1px"></line></g></g></g></g></svg>