<svg viewBox="0 0 330 200" xmlns="http://www.w3.org/2000/svg"><g><g><g><g><g><line x1="51.41600036621094" y1="177.98999977111816" x2="46.41600036621094" y2="177.98999977111816" style="visibility: inherit;" fill="rgb(0, 0, 0)" stroke="rgb(204, 204, 204)" stroke-width="1px"></line><line x1="51.41600036621094" y1="160.19099979400636" x2="46.41600036621094" y2="160.19099979400636" style="visibility: inherit;" fill="rgb(0, 0, 0)" stroke="rgb(204, 204, 204)" stroke-width="1px"></line><line x1="51.41600036621094" y1="142.39199981689453" x2="46.41600036621094" y2="142.39199981689453" style="visibility: inherit;" fill="rgb(0, 0, 0)" stroke="rgb(204, 204, 204)" stroke-width="1px"></line><line x1="51.41600036621094" y1="124.5929998397827" x2="46.41600036621094" y2="124.5929998397827" style="visibility: inherit;" fill="rgb(0, 0, 0)" stroke="rgb(204, 204, 204)" stroke-width="1px"></line><line x1="51.41600036621094" y1="106.7939998626709" x2="46.41600036621094" y2="106.7939998626709" style="visibility: inherit;" fill="rgb(0, 0, 0)" stroke="rgb(204, 204, 204)" stroke-width="1px"></line><line x1="51.41600036621094" y1="88.99499988555908" x2="46.41600036621094" y2="88.99499988555908" style="visibility: inherit;" fill="rgb(0, 0, 0)" stroke="rgb(204, 204, 204)" stroke-width="1px"></line><line x1="51.41600036621094" y1="71.19599990844726" x2="46.41600036621094" y2="71.19599990844726" style="visibility: inherit;" fill="rgb(0, 0, 0)" stroke="rgb(204, 204, 204)" stroke-width="1px"></line><line x1="51.41600036621094" y1="53.39699993133546" x2="46.41600036621094" y2="53.39699993133546" style="visibility: inherit;" fill="rgb(0, 0, 0)" stroke="rgb(204, 204, 204)" stroke-width="1px"></line><line x1="51.41600036621094" y1="35.59799995422364" x2="46.41600036621094" y2="35.59799995422364" style="visibility: inherit;" fill="rgb(0, 0, 0)" stroke="rgb(204, 204, 204)" stroke-width="1px"></line><line x1="51.41600036621094" y1="17.798999977111805" x2="46.41600036621094" y2="17.798999977111805" style="visibility: inherit;" fill="rgb(0, 0, 0)" stroke="rgb(204, 204, 204)" stroke-width="1px"></line><line x1="51.41600036621094" y1="0" x2="46.41600036621094" y2="0" style="visibility: inherit;" fill="rgb(0, 0, 0)" stroke="rgb(204, 204, 204)" stroke-width="1px"></line></g><g transform="translate(41.41600036621094, 0)"><text style="text-anchor: end; visibility: hidden; font-family: &quot;Helvetica Neue&quot;, sans-serif; font-size: 12px; font-weight: 200;" x="0" y="177.98999977111816" dx="0em" dy="0.3em" fill="rgb(50, 49, 63)" stroke="none" stroke-width="1px">-0.1</text><text style="text-anchor: end; visibility: inherit; font-family: &quot;Helvetica Neue&quot;, sans-serif; font-size: 12px; font-weight: 200;" x="0" y="160.19099979400636" dx="0em" dy="0.3em" fill="rgb(50, 49, 63)" stroke="none" stroke-width="1px">0</text><text style="text-anchor: end; visibility: hidden; font-family: &quot;Helvetica Neue&quot;, sans-serif; font-size: 12px; font-weight: 200;" x="0" y="142.39199981689453" dx="0em" dy="0.3em" fill="rgb(50, 49, 63)" stroke="none" stroke-width="1px">0.1</text><text style="text-anchor: end; visibility: inherit; font-family: &quot;Helvetica Neue&quot;, sans-serif; font-size: 12px; font-weight: 200;" x="0" y="124.5929998397827" dx="0em" dy="0.3em" fill="rgb(50, 49, 63)" stroke="none" stroke-width="1px">0.2</text><text style="text-anchor: end; visibility: hidden; font-family: &quot;Helvetica Neue&quot;, sans-serif; font-size: 12px; font-weight: 200;" x="0" y="106.7939998626709" dx="0em" dy="0.3em" fill="rgb(50, 49, 63)" stroke="none" stroke-width="1px">0.3</text><text style="text-anchor: end; visibility: inherit; font-family: &quot;Helvetica Neue&quot;, sans-serif; font-size: 12px; font-weight: 200;" x="0" y="88.99499988555908" dx="0em" dy="0.3em" fill="rgb(50, 49, 63)" stroke="none" stroke-width="1px">0.4</text><text style="text-anchor: end; visibility: hidden; font-family: &quot;Helvetica Neue&quot;, sans-serif; font-size: 12px; font-weight: 200;" x="0" y="71.19599990844726" dx="0em" dy="0.3em" fill="rgb(50, 49, 63)" stroke="none" stroke-width="1px">0.5</text><text style="text-anchor: end; visibility: inherit; font-family: &quot;Helvetica Neue&quot;, sans-serif; font-size: 12px; font-weight: 200;" x="0" y="53.39699993133546" dx="0em" dy="0.3em" fill="rgb(50, 49, 63)" stroke="none" stroke-width="1px">0.6</text><text style="text-anchor: end; visibility: hidden; font-family: &quot;Helvetica Neue&quot;, sans-serif; font-size: 12px; font-weight: 200;" x="0" y="35.59799995422364" dx="0em" dy="0.3em" fill="rgb(50, 49, 63)" stroke="none" stroke-width="1px">0.7</text><text style="text-anchor: end; visibility: inherit; font-family: &quot;Helvetica Neue&quot;, sans-serif; font-size: 12px; font-weight: 200;" x="0" y="17.798999977111805" dx="0em" dy="0.3em" fill="rgb(50, 49, 63)" stroke="none" stroke-width="1px">0.8</text><text style="text-anchor: end; visibility: hidden; font-family: &quot;Helvetica Neue&quot;, sans-serif; font-size: 12px; font-weight: 200;" x="0" y="0" dx="0em" dy="0.3em" fill="rgb(50, 49, 63)" stroke="none" stroke-width="1px">0.9</text></g><line x1="51.41600036621094" y1="0" x2="51.41600036621094" y2="177.98999977111816" fill="rgb(0, 0, 0)" stroke="rgb(204, 204, 204)" stroke-width="1px"></line></g></g><g transform="translate(51, 0)" clip-path="url(#clip_0)"><clipPath id="clip_0"><rect width="278" height="177"></rect></clipPath><g><g><g><line x1="0" y1="0" x2="0" y2="177.98999977111816" fill="rgb(0, 0, 0)" stroke="rgb(60, 60, 60)" stroke-width="1px" opacity="0.25"></line><line x1="19.89885711669922" y1="0" x2="19.89885711669922" y2="177.98999977111816" fill="rgb(0, 0, 0)" stroke="rgb(60, 60, 60)" stroke-width="1px" opacity="0.25"></line><line x1="39.79771423339844" y1="0" x2="39.79771423339844" y2="177.98999977111816" fill="rgb(0, 0, 0)" stroke="rgb(60, 60, 60)" stroke-width="1px" opacity="0.25"></line><line x1="59.696571350097656" y1="0" x2="59.696571350097656" y2="177.98999977111816" fill="rgb(0, 0, 0)" stroke="rgb(60, 60, 60)" stroke-width="1px" opacity="0.25"></line><line x1="79.59542846679688" y1="0" x2="79.59542846679688" y2="177.98999977111816" fill="rgb(0, 0, 0)" stroke="rgb(60, 60, 60)" stroke-width="1px" opacity="0.25"></line><line x1="99.4942855834961" y1="0" x2="99.4942855834961" y2="177.98999977111816" fill="rgb(0, 0, 0)" stroke="rgb(60, 60, 60)" stroke-width="1px" opacity="0.25"></line><line x1="119.39314270019531" y1="0" x2="119.39314270019531" y2="177.98999977111816" fill="rgb(0, 0, 0)" stroke="rgb(60, 60, 60)" stroke-width="1px" opacity="0.25"></line><line x1="139.29199981689453" y1="0" x2="139.29199981689453" y2="177.98999977111816" fill="rgb(0, 0, 0)" stroke="rgb(60, 60, 60)" stroke-width="1px" opacity="0.25"></line><line x1="159.19085693359375" y1="0" x2="159.19085693359375" y2="177.98999977111816" fill="rgb(0, 0, 0)" stroke="rgb(60, 60, 60)" stroke-width="1px" opacity="0.25"></line><line x1="179.08971405029297" y1="0" x2="179.08971405029297" y2="177.98999977111816" fill="rgb(0, 0, 0)" stroke="rgb(60, 60, 60)" stroke-width="1px" opacity="0.25"></line><line x1="198.9885711669922" y1="0" x2="198.9885711669922" y2="177.98999977111816" fill="rgb(0, 0, 0)" stroke="rgb(60, 60, 60)" stroke-width="1px" opacity="0.25"></line><line x1="218.8874282836914" y1="0" x2="218.8874282836914" y2="177.98999977111816" fill="rgb(0, 0, 0)" stroke="rgb(60, 60, 60)" stroke-width="1px" opacity="0.25"></line><line x1="238.78628540039062" y1="0" x2="238.78628540039062" y2="177.98999977111816" fill="rgb(0, 0, 0)" stroke="rgb(60, 60, 60)" stroke-width="1px" opacity="0.25"></line><line x1="258.68514251708984" y1="0" x2="258.68514251708984" y2="177.98999977111816" fill="rgb(0, 0, 0)" stroke="rgb(60, 60, 60)" stroke-width="1px" opacity="0.25"></line><line x1="278.58399963378906" y1="0" x2="278.58399963378906" y2="177.98999977111816" fill="rgb(0, 0, 0)" stroke="rgb(60, 60, 60)" stroke-width="1px" opacity="0.25"></line></g><g><line x1="0" y1="177.98999977111816" x2="278.58399963378906" y2="177.98999977111816" fill="rgb(0, 0, 0)" stroke="rgb(60, 60, 60)" stroke-width="1px" opacity="0.25"></line><line x1="0" y1="160.19099979400636" x2="278.58399963378906" y2="160.19099979400636" fill="rgb(0, 0, 0)" stroke="rgb(60, 60, 60)" stroke-width="1px" opacity="0.25"></line><line x1="0" y1="142.39199981689453" x2="278.58399963378906" y2="142.39199981689453" fill="rgb(0, 0, 0)" stroke="rgb(60, 60, 60)" stroke-width="1px" opacity="0.25"></line><line x1="0" y1="124.5929998397827" x2="278.58399963378906" y2="124.5929998397827" fill="rgb(0, 0, 0)" stroke="rgb(60, 60, 60)" stroke-width="1px" opacity="0.25"></line><line x1="0" y1="106.7939998626709" x2="278.58399963378906" y2="106.7939998626709" fill="rgb(0, 0, 0)" stroke="rgb(60, 60, 60)" stroke-width="1px" opacity="0.25"></line><line x1="0" y1="88.99499988555908" x2="278.58399963378906" y2="88.99499988555908" fill="rgb(0, 0, 0)" stroke="rgb(60, 60, 60)" stroke-width="1px" opacity="0.25"></line><line x1="0" y1="71.19599990844726" x2="278.58399963378906" y2="71.19599990844726" fill="rgb(0, 0, 0)" stroke="rgb(60, 60, 60)" stroke-width="1px" opacity="0.25"></line><line x1="0" y1="53.39699993133546" x2="278.58399963378906" y2="53.39699993133546" fill="rgb(0, 0, 0)" stroke="rgb(60, 60, 60)" stroke-width="1px" opacity="0.25"></line><line x1="0" y1="35.59799995422364" x2="278.58399963378906" y2="35.59799995422364" fill="rgb(0, 0, 0)" stroke="rgb(60, 60, 60)" stroke-width="1px" opacity="0.25"></line><line x1="0" y1="17.798999977111805" x2="278.58399963378906" y2="17.798999977111805" fill="rgb(0, 0, 0)" stroke="rgb(60, 60, 60)" stroke-width="1px" opacity="0.25"></line><line x1="0" y1="0" x2="278.58399963378906" y2="0" fill="rgb(0, 0, 0)" stroke="rgb(60, 60, 60)" stroke-width="1px" opacity="0.25"></line></g></g></g><g><g><line x1="0" y1="160.19099979400636" x2="278.58399963378906" y2="160.19099979400636" fill="rgb(0, 0, 0)" stroke="rgb(153, 153, 153)" stroke-width="1.5px"></line></g></g><g><g><line x1="19.89885711669922" y1="0" x2="19.89885711669922" y2="177.98999977111816" fill="rgb(0, 0, 0)" stroke="rgb(153, 153, 153)" stroke-width="1.5px"></line></g></g><g><g><g><g><g><path style="fill: none;" stroke="rgb(0, 119, 187)" stroke-width="2px" d="M22.38621425628662,160.19099979400636L24.873571395874023,160.19099979400636L27.360928535461426,160.19099979400636L29.848285675048828,160.19099979400636L32.33564281463623,160.19099979400636L34.82299995422363,160.19099979400636L37.310357093811035,160.19099979400636L39.79771423339844,160.19099979400636L42.28507137298584,160.19099979400636L44.77242851257324,160.19099979400636L47.259785652160645,160.19099979400636L49.74714279174805,160.19099979400636L52.23449993133545,160.19099979400636L54.72185707092285,160.19099979400636L57.209214210510254,160.19099979400636L59.696571350097656,160.19099979400636L62.18392848968506,160.19099979400636L64.67128562927246,160.19099979400636L67.15864276885986,160.19099979400636L69.64599990844727,160.19099979400636L72.13335704803467,160.19099979400636L74.62071418762207,160.19099979400636L77.10807132720947,160.19099979400636L79.59542846679688,160.19099979400636L82.08278560638428,160.19099979400636L84.57014274597168,160.19099979400636L87.05749988555908,160.19099979400636L89.54485702514648,160.19099979400636L92.03221416473389,160.19099979400636L94.51957130432129,160.19099979400636L97.00692844390869,160.19099979400636L99.4942855834961,160.19099979400636L101.9816427230835,160.19099979400636L104.4689998626709,160.19099979400636L106.9563570022583,142.39199955166876L109.4437141418457,160.19099979400636L111.9310712814331,160.19099979400636L114.41842842102051,160.19099979400636L116.90578556060791,160.19099979400636L119.39314270019531,160.19099979400636L121.88049983978271,160.19099979400636L124.36785697937012,124.59299930933119L126.85521411895752,160.19099979400636L129.34257125854492,88.99499882465601L131.82992839813232,160.19099979400636L134.31728553771973,142.39199955166876L136.80464267730713,53.39699568772316L139.29199981689453,124.59299930933119L141.77935695648193,88.99499882465601L144.26671409606934,160.19099979400636L146.75407123565674,88.99499882465601L149.24142837524414,106.79399774086475L151.72878551483154,124.59299930933119L154.21614265441895,142.39199955166876L156.70349979400635,17.798997855305686L159.19085693359375,53.39699568772316L161.67821407318115,142.39199955166876L164.16557121276855,88.99499882465601L166.65292835235596,124.59299930933119L169.14028549194336,53.39699568772316L171.62764263153076,71.19599990844726L174.11499977111816,106.79399774086475L176.60235691070557,106.79399774086475L179.08971405029297,124.59299930933119L181.57707118988037,142.39199955166876L184.06442832946777,71.19599990844726L186.55178546905518,88.99499882465601L189.03914260864258,0.0000042436122953404265L191.52649974822998,88.99499882465601L194.01385688781738,53.39699568772316L196.50121402740479,106.79399774086475L198.9885711669922,53.39699568772316L201.4759283065796,35.598002076029786L203.963285446167,35.598002076029786L206.4506425857544,35.598002076029786L208.9379997253418,106.79399774086475L211.4253568649292,71.19599990844726L213.9127140045166,106.79399774086475L216.400071144104,35.598002076029786L218.8874282836914,71.19599990844726L221.3747854232788,53.39699568772316L223.8621425628662,0.0000042436122953404265L226.3494997024536,0.0000042436122953404265L228.83685684204102,0.0000042436122953404265L231.32421398162842,71.19599990844726L233.81157112121582,0.0000042436122953404265L236.29892826080322,71.19599990844726L238.78628540039062,53.39699568772316L241.27364253997803,53.39699568772316L243.76099967956543,71.19599990844726L246.24835681915283,106.79399774086475L248.73571395874023,35.598002076029786L251.22307109832764,35.598002076029786L253.71042823791504,17.798997855305686L256.19778537750244,53.39699568772316L258.68514251708984,0.0000042436122953404265L261.17249965667725,0.0000042436122953404265L263.65985679626465,88.99499882465601L266.14721393585205,88.99499882465601L268.63457107543945,71.19599990844726" fill="none"></path></g><g><path style="fill: none;" stroke="rgb(255, 112, 67)" stroke-width="2px" d="M22.38621425628662,160.19099979400636L24.873571395874023,160.19099979400636L27.360928535461426,160.19099979400636L29.848285675048828,160.19099979400636L32.33564281463623,160.19099979400636L34.82299995422363,160.19099979400636L37.310357093811035,160.19099979400636L39.79771423339844,160.19099979400636L42.28507137298584,160.19099979400636L44.77242851257324,160.19099979400636L47.259785652160645,160.19099979400636L49.74714279174805,160.19099979400636L52.23449993133545,160.19099979400636L54.72185707092285,160.19099979400636L57.209214210510254,160.19099979400636L59.696571350097656,160.19099979400636L62.18392848968506,160.19099979400636L64.67128562927246,160.19099979400636L67.15864276885986,160.19099979400636L69.64599990844727,160.19099979400636L72.13335704803467,160.19099979400636L74.62071418762207,160.19099979400636L77.10807132720947,160.19099979400636L79.59542846679688,160.19099979400636L82.08278560638428,160.19099979400636L84.57014274597168,160.19099979400636L87.05749988555908,160.19099979400636L89.54485702514648,160.19099979400636L92.03221416473389,160.19099979400636L94.51957130432129,160.19099979400636L97.00692844390869,160.19099979400636L99.4942855834961,160.19099979400636L101.9816427230835,160.19099979400636L104.4689998626709,160.19099979400636L106.9563570022583,160.19099979400636L109.4437141418457,160.19099979400636L111.9310712814331,160.19099979400636L114.41842842102051,160.19099979400636L116.90578556060791,160.19099979400636L119.39314270019531,160.19099979400636L121.88049983978271,160.19099979400636L124.36785697937012,160.19099979400636L126.85521411895752,160.19099979400636L129.34257125854492,160.19099979400636L131.82992839813232,160.19099979400636L134.31728553771973,160.19099979400636L136.80464267730713,160.19099979400636L139.29199981689453,160.19099979400636L141.77935695648193,160.19099979400636L144.26671409606934,160.19099979400636L146.75407123565674,160.19099979400636L149.24142837524414,160.19099979400636L151.72878551483154,160.19099979400636L154.21614265441895,160.19099979400636L156.70349979400635,160.19099979400636L159.19085693359375,160.19099979400636L161.67821407318115,160.19099979400636L164.16557121276855,160.19099979400636L166.65292835235596,160.19099979400636L169.14028549194336,160.19099979400636L171.62764263153076,160.19099979400636L174.11499977111816,160.19099979400636L176.60235691070557,160.19099979400636L179.08971405029297,160.19099979400636L181.57707118988037,160.19099979400636L184.06442832946777,160.19099979400636L186.55178546905518,160.19099979400636L189.03914260864258,160.19099979400636L191.52649974822998,160.19099979400636L194.01385688781738,160.19099979400636L196.50121402740479,160.19099979400636L198.9885711669922,160.19099979400636L201.4759283065796,160.19099979400636L203.963285446167,160.19099979400636L206.4506425857544,160.19099979400636L208.9379997253418,160.19099979400636L211.4253568649292,160.19099979400636L213.9127140045166,160.19099979400636L216.400071144104,160.19099979400636L218.8874282836914,160.19099979400636L221.3747854232788,160.19099979400636L223.8621425628662,160.19099979400636L226.3494997024536,160.19099979400636L228.83685684204102,160.19099979400636L231.32421398162842,160.19099979400636L233.81157112121582,160.19099979400636L236.29892826080322,160.19099979400636L238.78628540039062,160.19099979400636L241.27364253997803,160.19099979400636L243.76099967956543,160.19099979400636L246.24835681915283,160.19099979400636L248.73571395874023,160.19099979400636L251.22307109832764,160.19099979400636L253.71042823791504,160.19099979400636L256.19778537750244,160.19099979400636L258.68514251708984,160.19099979400636L261.17249965667725,160.19099979400636L263.65985679626465,160.19099979400636L266.14721393585205,160.19099979400636" fill="none"></path></g></g></g></g></g></g><g transform="translate(51, 177)" clip-path="url(#clip_1)"><clipPath id="clip_1"><rect width="278" height="22"></rect></clipPath><g><g><line x1="0" y1="0" x2="0" y2="5" style="visibility: inherit;" fill="rgb(0, 0, 0)" stroke="rgb(204, 204, 204)" stroke-width="1px"></line><line x1="19.89885711669922" y1="0" x2="19.89885711669922" y2="5" style="visibility: inherit;" fill="rgb(0, 0, 0)" stroke="rgb(204, 204, 204)" stroke-width="1px"></line><line x1="39.79771423339844" y1="0" x2="39.79771423339844" y2="5" style="visibility: inherit;" fill="rgb(0, 0, 0)" stroke="rgb(204, 204, 204)" stroke-width="1px"></line><line x1="59.696571350097656" y1="0" x2="59.696571350097656" y2="5" style="visibility: inherit;" fill="rgb(0, 0, 0)" stroke="rgb(204, 204, 204)" stroke-width="1px"></line><line x1="79.59542846679688" y1="0" x2="79.59542846679688" y2="5" style="visibility: inherit;" fill="rgb(0, 0, 0)" stroke="rgb(204, 204, 204)" stroke-width="1px"></line><line x1="99.4942855834961" y1="0" x2="99.4942855834961" y2="5" style="visibility: inherit;" fill="rgb(0, 0, 0)" stroke="rgb(204, 204, 204)" stroke-width="1px"></line><line x1="119.39314270019531" y1="0" x2="119.39314270019531" y2="5" style="visibility: inherit;" fill="rgb(0, 0, 0)" stroke="rgb(204, 204, 204)" stroke-width="1px"></line><line x1="139.29199981689453" y1="0" x2="139.29199981689453" y2="5" style="visibility: inherit;" fill="rgb(0, 0, 0)" stroke="rgb(204, 204, 204)" stroke-width="1px"></line><line x1="159.19085693359375" y1="0" x2="159.19085693359375" y2="5" style="visibility: inherit;" fill="rgb(0, 0, 0)" stroke="rgb(204, 204, 204)" stroke-width="1px"></line><line x1="179.08971405029297" y1="0" x2="179.08971405029297" y2="5" style="visibility: inherit;" fill="rgb(0, 0, 0)" stroke="rgb(204, 204, 204)" stroke-width="1px"></line><line x1="198.9885711669922" y1="0" x2="198.9885711669922" y2="5" style="visibility: inherit;" fill="rgb(0, 0, 0)" stroke="rgb(204, 204, 204)" stroke-width="1px"></line><line x1="218.8874282836914" y1="0" x2="218.8874282836914" y2="5" style="visibility: inherit;" fill="rgb(0, 0, 0)" stroke="rgb(204, 204, 204)" stroke-width="1px"></line><line x1="238.78628540039062" y1="0" x2="238.78628540039062" y2="5" style="visibility: inherit;" fill="rgb(0, 0, 0)" stroke="rgb(204, 204, 204)" stroke-width="1px"></line><line x1="258.68514251708984" y1="0" x2="258.68514251708984" y2="5" style="visibility: inherit;" fill="rgb(0, 0, 0)" stroke="rgb(204, 204, 204)" stroke-width="1px"></line><line x1="278.58399963378906" y1="0" x2="278.58399963378906" y2="5" style="visibility: inherit;" fill="rgb(0, 0, 0)" stroke="rgb(204, 204, 204)" stroke-width="1px"></line></g><g transform="translate(0, 8)"><text style="text-anchor: middle; visibility: hidden; font-family: &quot;Helvetica Neue&quot;, sans-serif; font-size: 12px; font-weight: 200;" x="0" y="0" dx="0em" dy="0.95em" fill="rgb(50, 49, 63)" stroke="none" stroke-width="1px">-2k</text><text style="text-anchor: middle; visibility: inherit; font-family: &quot;Helvetica Neue&quot;, sans-serif; font-size: 12px; font-weight: 200;" x="19.89885711669922" y="0" dx="0em" dy="0.95em" fill="rgb(50, 49, 63)" stroke="none" stroke-width="1px">0</text><text style="text-anchor: middle; visibility: hidden; font-family: &quot;Helvetica Neue&quot;, sans-serif; font-size: 12px; font-weight: 200;" x="39.79771423339844" y="0" dx="0em" dy="0.95em" fill="rgb(50, 49, 63)" stroke="none" stroke-width="1px">2k</text><text style="text-anchor: middle; visibility: inherit; font-family: &quot;Helvetica Neue&quot;, sans-serif; font-size: 12px; font-weight: 200;" x="59.696571350097656" y="0" dx="0em" dy="0.95em" fill="rgb(50, 49, 63)" stroke="none" stroke-width="1px">4k</text><text style="text-anchor: middle; visibility: hidden; font-family: &quot;Helvetica Neue&quot;, sans-serif; font-size: 12px; font-weight: 200;" x="79.59542846679688" y="0" dx="0em" dy="0.95em" fill="rgb(50, 49, 63)" stroke="none" stroke-width="1px">6k</text><text style="text-anchor: middle; visibility: inherit; font-family: &quot;Helvetica Neue&quot;, sans-serif; font-size: 12px; font-weight: 200;" x="99.4942855834961" y="0" dx="0em" dy="0.95em" fill="rgb(50, 49, 63)" stroke="none" stroke-width="1px">8k</text><text style="text-anchor: middle; visibility: hidden; font-family: &quot;Helvetica Neue&quot;, sans-serif; font-size: 12px; font-weight: 200;" x="119.39314270019531" y="0" dx="0em" dy="0.95em" fill="rgb(50, 49, 63)" stroke="none" stroke-width="1px">10k</text><text style="text-anchor: middle; visibility: inherit; font-family: &quot;Helvetica Neue&quot;, sans-serif; font-size: 12px; font-weight: 200;" x="139.29199981689453" y="0" dx="0em" dy="0.95em" fill="rgb(50, 49, 63)" stroke="none" stroke-width="1px">12k</text><text style="text-anchor: middle; visibility: hidden; font-family: &quot;Helvetica Neue&quot;, sans-serif; font-size: 12px; font-weight: 200;" x="159.19085693359375" y="0" dx="0em" dy="0.95em" fill="rgb(50, 49, 63)" stroke="none" stroke-width="1px">14k</text><text style="text-anchor: middle; visibility: inherit; font-family: &quot;Helvetica Neue&quot;, sans-serif; font-size: 12px; font-weight: 200;" x="179.08971405029297" y="0" dx="0em" dy="0.95em" fill="rgb(50, 49, 63)" stroke="none" stroke-width="1px">16k</text><text style="text-anchor: middle; visibility: hidden; font-family: &quot;Helvetica Neue&quot;, sans-serif; font-size: 12px; font-weight: 200;" x="198.9885711669922" y="0" dx="0em" dy="0.95em" fill="rgb(50, 49, 63)" stroke="none" stroke-width="1px">18k</text><text style="text-anchor: middle; visibility: inherit; font-family: &quot;Helvetica Neue&quot;, sans-serif; font-size: 12px; font-weight: 200;" x="218.8874282836914" y="0" dx="0em" dy="0.95em" fill="rgb(50, 49, 63)" stroke="none" stroke-width="1px">20k</text><text style="text-anchor: middle; visibility: hidden; font-family: &quot;Helvetica Neue&quot;, sans-serif; font-size: 12px; font-weight: 200;" x="238.78628540039062" y="0" dx="0em" dy="0.95em" fill="rgb(50, 49, 63)" stroke="none" stroke-width="1px">22k</text><text style="text-anchor: middle; visibility: inherit; font-family: &quot;Helvetica Neue&quot;, sans-serif; font-size: 12px; font-weight: 200;" x="258.68514251708984" y="0" dx="0em" dy="0.95em" fill="rgb(50, 49, 63)" stroke="none" stroke-width="1px">24k</text><text style="text-anchor: middle; visibility: hidden; font-family: &quot;Helvetica Neue&quot;, sans-serif; font-size: 12px; font-weight: 200;" x="278.58399963378906" y="0" dx="0em" dy="0.95em" fill="rgb(50, 49, 63)" stroke="none" stroke-width="1px">26k</text></g><line x1="0" y1="0" x2="278.58399963378906" y2="0" fill="rgb(0, 0, 0)" stroke="rgb(204, 204, 204)" stroke-width="1px"></line></g></g></g></g></svg>